<svg xmlns="http://www.w3.org/2000/svg" viewBox="0 0 501 501">
  <defs>
    <style>
    .instrument-fa-1 {
      opacity: 0;
    }

    .instrument-fa-1, .instrument-fa-10, .instrument-fa-3, .instrument-fa-4, .instrument-fa-5, .instrument-fa-8 {
      stroke-miterlimit: 10;
    }

    .instrument-fa-3, .instrument-fa-4, .instrument-fa-5, .instrument-fa-8 {
      fill: none;
    }

    .instrument-fa-10, .instrument-fa-3, .instrument-fa-8 {
      stroke-linecap: round;
    }

    .instrument-fa-3 {
      stroke-width: 10px;
    }

    .instrument-fa-4 {
      stroke-width: 3px;
    }

    .instrument-fa-5 {
      stroke-width: 2px;
    }

    .instrument-fa-6, .instrument-fa-9 {
      stroke-linejoin: round;
    }

    .instrument-fa-8, .instrument-fa-9 {
      stroke-width: 8px;
    }

    .instrument-fa-10 {
      stroke-width: 16.05px;
    }
    </style>
  </defs>
  <g class="tesla_instrument tesla_instrument_fa">
    <g>
      <rect class="instrument-fa-1 tesla-tertiary-color" x="0.5" y="0.5" width="500" height="500"/>
    </g>
    <path class="instrument-fa-2 tesla-primary-color"
          d="M312.32,187.44V105.55A42.31,42.31,0,0,0,270,63.23H84.38a42.31,42.31,0,0,0-42.31,42.32V395.3a42.31,42.31,0,0,0,42.31,42.31H270a42.31,42.31,0,0,0,42.31-42.31V187.44Z"
          transform="translate(0.5 0.5)"/>
    <path class="instrument-fa-3 tesla-tertiary-stroke"
          d="M66.25,179.33s36.66-28.08,40.08-30.72c4-3,8.48,12.9,15.19,13.68s25.86-39.52,36.82-34.8c6.39,3.87-2.47,41.25,6.57,42s41.37-41.62,46-38.58c6.46,4.22-18.14,43.23-6.51,47.1,10.46,3.49,17.42-16,25.69-21.85,6.76-4.76,20.53-7.59,34.48-4.23a55.23,55.23,0,0,1,22.47,11.1"
          transform="translate(0.5 0.5)"/>
    <circle class="instrument-fa-4 tesla-tertiary-stroke" cx="107.32" cy="150.06" r="16.02"/>
    <polyline class="instrument-fa-5 tesla-tertiary-stroke" points="52.21 127.2 144.47 127.2 168.02 127.2 302.41 127.2"/>
    <line class="instrument-fa-5 tesla-tertiary-stroke" x1="52.29" y1="185.43" x2="305.88" y2="185.43"/>
    <polygon class="instrument-fa-6 tesla-primary-color tesla-tertiary-stroke" points="233.81 111.28 142.13 201.27 146.31 201.29 237.99 111.28 233.81 111.28"/>
    <polyline class="instrument-fa-4 tesla-tertiary-stroke" points="144.25 120.2 144.25 108.42 169.04 108.42 169.04 120.2"/>
    <polyline class="instrument-fa-7 tesla-secondary-color" points="219.71 129.63 217.62 129.63 215.25 129.63"/>
    <polygon class="instrument-fa-7 tesla-secondary-color"
             points="160.55 183.35 162.64 183.35 165.02 183.35 146.31 201.29 142.13 201.27 160.55 183.35"/>
    <polyline class="instrument-fa-7 tesla-secondary-color" points="215.25 129.63 233.51 111.61 237.86 111.61 219.71 129.63"/>
    <path class="instrument-fa-8 tesla-tertiary-stroke"
          d="M70.34,384.31s32.31-29.58,39.27-29.08,7.45,11.93,13.92,12.67,24.88-38,35.43-33.48c6.15,3.72-2.38,39.7,6.32,40.44s36.28-36.56,40.77-33.63"
          transform="translate(0.5 0.5)"/>
    <path class="instrument-fa-9 tesla-primary-color tesla-tertiary-stroke"
          d="M244.35,339c-3,3-59.95,20.17-59.95,20.17s16.62-56.4,20.17-59.95l211-211s15.05-4.89,29.87,9.92S455.35,128,455.35,128Z"
          transform="translate(0.5 0.5)"/>
    <polygon class="instrument-fa-7 tesla-secondary-color" points="212.23 306.1 198.92 345.65 238.47 332.35 212.23 306.1"/>
  </g>
  <g class="tesla_group_status">
    <g class="tesla-status tesla_status_warning">
      <path class="instrument-fa-10 tesla-tertiary-stroke tesla-status-warning"
            d="M374.11,429H283c-10.12,0-16.45-11.12-11.39-20l45.57-80.08,45.57-80.07a13.06,13.06,0,0,1,22.78,0l45.56,80.07,45.57,80.08c5.06,8.89-1.26,20-11.39,20Z"
            transform="translate(0.5 0.5)"/>
      <path class="instrument-fa-11 tesla-tertiary-color"
            d="M374,289.85c6.37,0,14.51,1.24,13.39,9.82-1.21,9.91-6.41,45.21-9.26,69.67a3.44,3.44,0,0,1-3.41,3h-1.34a3.42,3.42,0,0,1-3.41-3.05c-2.57-23.3-8-59.11-9.17-70C359.59,291.57,367.24,289.85,374,289.85Zm.18,121.47c-7.21,0-12.57-5.29-12.57-13,0-7.44,5.36-13.1,12.57-13.1,7.39,0,12.75,5.66,12.75,13.1C387,406,381.6,411.32,374.21,411.32Z"
            transform="translate(0.5 0.5)"/>
    </g>
    <g class="tesla-status tesla_status_error">
      <g>
        <circle class="instrument-fa-12 tesla-status-error" cx="374.11" cy="353.55" r="95.67" transform="translate(-139.93 368.59) rotate(-45)"/>
        <path class="instrument-fa-11 tesla-tertiary-color"
              d="M374.11,265.91a87.65,87.65,0,1,1-87.65,87.64,87.74,87.74,0,0,1,87.65-87.64m0-16.06A103.7,103.7,0,1,0,477.8,353.55a103.7,103.7,0,0,0-103.69-103.7Z"
              transform="translate(0.5 0.5)"/>
      </g>
      <polygon class="instrument-fa-11 tesla-tertiary-color"
               points="430.32 316.89 411.76 298.34 374.56 335.54 337.45 298.43 318.89 316.99 356 354.1 318.98 391.12 337.54 409.68 374.56 372.65 411.67 409.77 430.23 391.21 393.12 354.1 430.32 316.89"/>
    </g>
    <g class="tesla-status tesla_status_success">
      <g>
        <circle class="instrument-fa-13 tesla-status-success" cx="374.11" cy="353.55" r="95.67" transform="translate(-139.93 368.59) rotate(-45)"/>
        <path class="instrument-fa-11 tesla-tertiary-color"
              d="M374.11,265.91a87.65,87.65,0,1,1-87.65,87.64,87.74,87.74,0,0,1,87.65-87.64m0-16.06A103.7,103.7,0,1,0,477.8,353.55a103.7,103.7,0,0,0-103.69-103.7Z"
              transform="translate(0.5 0.5)"/>
      </g>
      <path class="instrument-fa-11 tesla-tertiary-color"
            d="M359.77,368.16c1.51-2.15,2.92-4.15,4.34-6.15,8-11.32,16.42-22.35,25.48-32.86,7-8.06,14.12-15.94,21.21-23.88,1.54-1.73,2.66-1.74,4.32-.18l10.68,10c2.62,2.45,2.63,3,.26,5.67-5.26,5.91-10.65,11.7-15.7,17.78-6.48,7.78-12.94,15.59-18.93,23.75C382.81,374,374.63,386.1,366.27,398c-.65.93-1.2,1.93-1.84,2.87-1.38,2-2.8,2.17-4.47.31-3.68-4.07-7.29-8.21-11-12.29a325,325,0,0,0-26.67-26.73c-.36-.31-.71-.63-1-1-1.18-1.21-1.28-2.18-.17-3.5,2.95-3.51,5.95-7,8.94-10.48.55-.65,1.1-1.3,1.67-1.93,1.38-1.53,2.51-1.65,4-.28,4.18,3.79,8.37,7.55,12.42,11.46,3.61,3.49,7,7.15,10.57,10.73C359,367.49,359.28,367.72,359.77,368.16Z"
            transform="translate(0.5 0.5)"/>
    </g>
    <g class="tesla-status tesla_status_info">
      <g>
        <circle class="instrument-fa-2 tesla-primary-color" cx="374.11" cy="353.55" r="95.67" transform="translate(-139.93 368.59) rotate(-45)"/>
        <path class="instrument-fa-11 tesla-tertiary-color"
              d="M374.11,265.91a87.65,87.65,0,1,1-87.65,87.64,87.74,87.74,0,0,1,87.65-87.64m0-16.06A103.7,103.7,0,1,0,477.8,353.55a103.7,103.7,0,0,0-103.69-103.7Z"
              transform="translate(0.5 0.5)"/>
      </g>
      <path class="instrument-fa-11 tesla-tertiary-color"
            d="M348.41,426v-7.11c12.74-1.48,14.16-2.45,14.16-18V356.55c0-14.55-1-15.44-12.46-17.09V332.8a205.91,205.91,0,0,0,37.31-8.33v76.41c0,15.16,1.13,16.56,14.6,18V426Zm25.07-118a14.82,14.82,0,0,1-14.57-14.42A14.6,14.6,0,0,1,373.7,279a14.24,14.24,0,0,1,14.41,14.58A14.54,14.54,0,0,1,373.48,308Z"
            transform="translate(0.5 0.5)"/>
    </g>
    <g class="tesla-status tesla_status_disabled">
      <g>
        <rect class="tesla_status_disabled" x="-99.04" y="239.12" width="698.09" height="21.76" rx="10.87" transform="translate(-103.05 250.51) rotate(-45)"/>
      </g>
    </g>
  </g>
</svg>
