<svg xmlns="http://www.w3.org/2000/svg" xmlns:xlink="http://www.w3.org/1999/xlink" viewBox="0 0 468.9 421.23">
  <defs>
    <style>
      .fr-cls-1, .fr-cls-2, .fr-cls-6 {
        fill: none;
      }

      .fr-cls-2 {
        stroke: #5290e9;
        stroke-linejoin: round;
        stroke-width: 23.17px;
      }

      .fr-cls-4 {
        clip-path: url(#fr-clip-path);
      }

      .fr-cls-12, .fr-cls-5, .fr-cls-6, .fr-cls-8 {
        stroke: #fff;
        stroke-miterlimit: 10;
      }

      .fr-cls-5, .fr-cls-6 {
        stroke-width: 2.5px;
      }

      .fr-cls-12, .fr-cls-8 {
        stroke-linecap: round;
        stroke-width: 16.05px;
      }

    </style>
    <clipPath id="fr-clip-path" transform="translate(-17.53 -36.02)">
      <path class="fr-cls-1"
            d="M438.52,416c-36.95-41.43-66.63-46.34-88.12-51.71-12.75-3.18-21.93-7.29-34.58-10.85a2.78,2.78,0,0,1-2.36-3.18c.06-10.67,0-21.35.06-32a6.21,6.21,0,0,1,.62-2.65c1.08-2.17,2.37-4.23,3.46-6.39,3.16-6.28,3.46-12.38,5.95-18.93,3.55-9.35,6.24-19.05,9.36-28.58.39-1.19,1.06-3.14,1.76-3.22,3.8-.43,5.42-3.2,7-6.13,3.83-7.32,5.76-15.28,7.2-23.37,1.9-10.7,3.2-21.49,1.42-32.33-.44-2.72-1.84-6.87-3.05-7.85a4.11,4.11,0,0,1-1-3.29c.29-4.82,1-9.61,1.19-14.43.54-16.4-.85-32.59-7.46-47.74-14.51-33.24-39.4-53.11-74.07-59.14-28.54-5-54.61,2.09-77.38,20.62-18.4,15-30,34.53-34.19,58.45a131.84,131.84,0,0,0-.67,40.49c.32,2.39.44,4.39-1.69,6a4.77,4.77,0,0,0-1.37,2.91c-.65,4.67-1.56,9.37-1.59,14.07a115.4,115.4,0,0,0,4.85,33.81,78.82,78.82,0,0,0,5.73,13.68c.88,1.71,3,3.07,4.82,3.83a3.24,3.24,0,0,1,2.35,2.4c1.26,4.73,2.47,9.49,3.95,14.15,4.54,14.26,7,27.57,15,40.21a6.1,6.1,0,0,1,.82,3.09c.06,10.68,0,21.36.06,32a2.65,2.65,0,0,1-2.22,3c-10.35,2.91-32.44,11-43,13.25-37.7,8-62.84,27-79.87,49.49a146.59,146.59,0,0,0-9.28,13.58H447.81A91.26,91.26,0,0,0,438.52,416Z"/>
    </clipPath>
  </defs>
  <g class="tesla_instrument tesla_instrument_fr">
    <polyline class="fr-cls-2" points="11.59 74.75 11.59 11.81 75.26 11.81"/>
    <polyline class="fr-cls-2" points="390.04 11.59 452.98 11.59 452.98 75.26"/>
    <polyline class="fr-cls-2" points="453.35 239.64 453.35 302.58 389.67 302.58"/>
    <polyline class="fr-cls-2" points="74.52 301.9 11.59 301.9 11.59 238.22"/>
    <path class="fr-cls-3 tesla-primary-color"
          d="M438.52,416c-36.95-41.43-66.63-46.34-88.12-51.71-12.75-3.18-21.93-7.29-34.58-10.85a2.78,2.78,0,0,1-2.36-3.18c.06-10.67,0-21.35.06-32a6.21,6.21,0,0,1,.62-2.65c1.08-2.17,2.37-4.23,3.46-6.39,3.16-6.28,3.46-12.38,5.95-18.93,3.55-9.35,6.24-19.05,9.36-28.58.39-1.19,1.06-3.14,1.76-3.22,3.8-.43,5.42-3.2,7-6.13,3.83-7.32,5.76-15.28,7.2-23.37,1.9-10.7,3.2-21.49,1.42-32.33-.44-2.72-1.84-6.87-3.05-7.85a4.11,4.11,0,0,1-1-3.29c.29-4.82,1-9.61,1.19-14.43.54-16.4-.85-32.59-7.46-47.74-14.51-33.24-39.4-53.11-74.07-59.14-28.54-5-54.61,2.09-77.38,20.62-18.4,15-30,34.53-34.19,58.45a131.84,131.84,0,0,0-.67,40.49c.32,2.39.44,4.39-1.69,6a4.77,4.77,0,0,0-1.37,2.91c-.65,4.67-1.56,9.37-1.59,14.07a115.4,115.4,0,0,0,4.85,33.81,78.82,78.82,0,0,0,5.73,13.68c.88,1.71,3,3.07,4.82,3.83a3.24,3.24,0,0,1,2.35,2.4c1.26,4.73,2.47,9.49,3.95,14.15,4.54,14.26,7,27.57,15,40.21a6.1,6.1,0,0,1,.82,3.09c.06,10.68,0,21.36.06,32a2.65,2.65,0,0,1-2.22,3c-10.35,2.91-32.44,11-43,13.25-37.7,8-62.84,27-79.87,49.49a146.59,146.59,0,0,0-9.28,13.58H447.81A91.26,91.26,0,0,0,438.52,416Z"
          transform="translate(-17.53 -36.02)"/>
    <g class="fr-cls-4">
      <line class="fr-cls-5 tesla-tertiary-color" x1="208.84" y1="89.18" x2="197" y2="130.6"/>
      <line class="fr-cls-5 tesla-tertiary-color" x1="160.15" y1="131.66" x2="197" y2="130.6"/>
      <line class="fr-cls-5 tesla-tertiary-color" x1="255.22" y1="89.18" x2="277.2" y2="36.76"/>
      <line class="fr-cls-5 tesla-tertiary-color" x1="311.43" y1="66.54" x2="255.22" y2="89.18"/>
      <line class="fr-cls-5 tesla-tertiary-color" x1="317.27" y1="75.84" x2="303.99" y2="131.66"/>
      <line class="fr-cls-5 tesla-tertiary-color" x1="265.56" y1="130.43" x2="302.63" y2="131.66"/>
      <line class="fr-cls-5 tesla-tertiary-color" x1="329.37" y1="151.66" x2="303.99" y2="131.66"/>
      <line class="fr-cls-5 tesla-tertiary-color" x1="329.37" y1="151.66" x2="287.94" y2="179.68"/>
      <line class="fr-cls-5 tesla-tertiary-color" x1="231.89" y1="162.24" x2="287.94" y2="179.68"/>
      <line class="fr-cls-5 tesla-tertiary-color" x1="217.28" y1="203.83" x2="231.89" y2="162.24"/>
      <line class="fr-cls-5 tesla-tertiary-color" x1="231.89" y1="206.75" x2="231.89" y2="162.24"/>
      <line class="fr-cls-5 tesla-tertiary-color" x1="245.69" y1="203.83" x2="231.77" y2="162.35"/>
      <line class="fr-cls-5 tesla-tertiary-color" x1="231.89" y1="162.24" x2="175.02" y2="179.68"/>
      <line class="fr-cls-5 tesla-tertiary-color" x1="217.28" y1="203.83" x2="176.35" y2="180.62"/>
      <line class="fr-cls-5 tesla-tertiary-color" x1="245.69" y1="203.83" x2="287.94" y2="179.68"/>
      <line class="fr-cls-5 tesla-tertiary-color" x1="231.89" y1="207.6" x2="245.69" y2="203.83"/>
      <line class="fr-cls-5 tesla-tertiary-color" x1="231.89" y1="207.6" x2="217.28" y2="203.83"/>
      <line class="fr-cls-5 tesla-tertiary-color" x1="217.28" y1="203.83" x2="193.63" y2="246.15"/>
      <line class="fr-cls-5 tesla-tertiary-color" x1="231.89" y1="206.75" x2="231.89" y2="259.78"/>
      <line class="fr-cls-5 tesla-tertiary-color" x1="245.69" y1="203.83" x2="269.42" y2="246.15"/>
      <line class="fr-cls-5 tesla-tertiary-color" x1="269.42" y1="246.15" x2="287.94" y2="179.68"/>
      <line class="fr-cls-5 tesla-tertiary-color" x1="316.76" y1="223.8" x2="287.94" y2="179.68"/>
      <line class="fr-cls-5 tesla-tertiary-color" x1="269.42" y1="246.15" x2="316.76" y2="223.8"/>
      <line class="fr-cls-5 tesla-tertiary-color" x1="193.63" y1="246.15" x2="231.89" y2="259.78"/>
      <line class="fr-cls-5 tesla-tertiary-color" x1="231.89" y1="259.78" x2="269.42" y2="246.15"/>
      <line class="fr-cls-5 tesla-tertiary-color" x1="175.02" y1="180.95" x2="193.63" y2="246.15"/>
      <line class="fr-cls-5 tesla-tertiary-color" x1="147.75" y1="223.88" x2="174.01" y2="180.95"/>
      <line class="fr-cls-5 tesla-tertiary-color" x1="193.63" y1="246.15" x2="147.75" y2="223.88"/>
      <line class="fr-cls-5 tesla-tertiary-color" x1="193.63" y1="246.15" x2="167.43" y2="279.86"/>
      <line class="fr-cls-5 tesla-tertiary-color" x1="231.89" y1="259.78" x2="167.19" y2="279.94"/>
      <line class="fr-cls-5 tesla-tertiary-color" x1="231.89" y1="259.78" x2="231.89" y2="314.21"/>
      <line class="fr-cls-5 tesla-tertiary-color" x1="296.84" y1="280.6" x2="231.89" y2="259.78"/>
      <line class="fr-cls-5 tesla-tertiary-color" x1="269.42" y1="246.15" x2="296.84" y2="280.6"/>
      <line class="fr-cls-5 tesla-tertiary-color" x1="158.7" y1="131.66" x2="135.04" y2="151.86"/>
      <line class="fr-cls-5 tesla-tertiary-color" x1="135.04" y1="151.86" x2="174.01" y2="179.68"/>
      <line class="fr-cls-5 tesla-tertiary-color" x1="146.35" y1="76.64" x2="158.7" y2="131.66"/>
      <line class="fr-cls-5 tesla-tertiary-color" x1="186.4" y1="37.27" x2="208.84" y2="88.75"/>
      <line class="fr-cls-5 tesla-tertiary-color" x1="151.97" y1="67.64" x2="208.84" y2="88.75"/>
      <line class="fr-cls-5 tesla-tertiary-color" x1="231.89" y1="25.88" x2="231.89" y2="85.38"/>
      <line class="fr-cls-5 tesla-tertiary-color" x1="197" y1="130.6" x2="231.77" y2="162.35"/>
      <line class="fr-cls-5 tesla-tertiary-color" x1="265.56" y1="130.43" x2="231.89" y2="162.24"/>
      <line class="fr-cls-6" x1="255.22" y1="89.18" x2="265.56" y2="130.43"/>
      <line class="fr-cls-5 tesla-tertiary-color" x1="231.76" y1="85.38" x2="255.22" y2="89.18"/>
      <line class="fr-cls-5 tesla-tertiary-color" x1="231.76" y1="85.38" x2="208.84" y2="89.18"/>
      <line class="fr-cls-5 tesla-tertiary-color" x1="167.43" y1="279.86" x2="231.89" y2="313.9"/>
      <line class="fr-cls-5 tesla-tertiary-color" x1="296.84" y1="280.6" x2="231.89" y2="313.9"/>
      <line class="fr-cls-5 tesla-tertiary-color" x1="208.84" y1="89.18" x2="231.89" y2="162.15"/>
      <line class="fr-cls-5 tesla-tertiary-color" x1="255.22" y1="89.18" x2="231.89" y2="162.15"/>
      <circle class="fr-cls-7 tesla-secondary-color" cx="208.84" cy="88.75" r="2.92"/>
      <circle class="fr-cls-7 tesla-secondary-color" cx="197" cy="130.6" r="2.92"/>
      <circle class="fr-cls-7 tesla-secondary-color" cx="158.7" cy="131.66" r="2.92"/>
      <circle class="fr-cls-7 tesla-secondary-color" cx="175.02" cy="179.68" r="2.92"/>
      <circle class="fr-cls-7 tesla-secondary-color" cx="287.94" cy="179.68" r="2.92"/>
      <circle class="fr-cls-7 tesla-secondary-color" cx="265.56" cy="130.43" r="2.92"/>
      <circle class="fr-cls-7 tesla-secondary-color" cx="303.99" cy="131.66" r="2.92"/>
      <circle class="fr-cls-7 tesla-secondary-color" cx="231.89" cy="161.36" r="2.92"/>
      <circle class="fr-cls-7 tesla-secondary-color" cx="231.89" cy="207.6" r="2.92"/>
      <circle class="fr-cls-7 tesla-secondary-color" cx="217.06" cy="203.83" r="2.92"/>
      <circle class="fr-cls-7 tesla-secondary-color" cx="245.69" cy="203.83" r="2.92"/>
      <circle class="fr-cls-7 tesla-secondary-color" cx="269.42" cy="246.15" r="2.92"/>
      <circle class="fr-cls-7 tesla-secondary-color" cx="193.56" cy="245.91" r="2.92"/>
      <circle class="fr-cls-7 tesla-secondary-color" cx="231.89" cy="259.78" r="2.92"/>
      <circle class="fr-cls-7 tesla-secondary-color" cx="231.89" cy="313.47" r="2.92"/>
      <circle class="fr-cls-7 tesla-secondary-color" cx="231.89" cy="85.83" r="2.92"/>
      <circle class="fr-cls-7 tesla-secondary-color" cx="255.22" cy="89.18" r="2.92"/>
    </g>
  </g>
  <g class="tesla_group_status">
    <g class="tesla-status tesla_status_warning">
      <path class="fr-cls-8 tesla-status-warning"
            d="M374.11,429H283c-10.12,0-16.45-11.12-11.39-20l45.57-80.08,45.57-80.07a13.06,13.06,0,0,1,22.78,0l45.56,80.07,45.57,80.08c5.06,8.89-1.26,20-11.39,20Z"
            transform="translate(-17.53 -36.02)"/>
      <path data-name="!" class="fr-cls-9 tesla-tertiary-color"
            d="M374,289.85c6.37,0,14.51,1.24,13.39,9.82-1.21,9.91-6.41,45.21-9.26,69.67a3.44,3.44,0,0,1-3.41,3h-1.34a3.42,3.42,0,0,1-3.41-3.05c-2.57-23.3-8-59.11-9.17-70C359.59,291.57,367.24,289.85,374,289.85Zm.18,121.47c-7.21,0-12.57-5.29-12.57-13,0-7.44,5.36-13.1,12.57-13.1,7.39,0,12.75,5.66,12.75,13.1C387,406,381.6,411.32,374.21,411.32Z"
            transform="translate(-17.53 -36.02)"/>
    </g>
    <g class="tesla-status tesla_status_error">
      <circle class="fr-cls-10 tesla-status-error" cx="374.11" cy="353.55" r="95.67"
              transform="translate(-157.96 332.06) rotate(-45)"/>
      <path class="fr-cls-9 tesla-tertiary-color"
            d="M374.11,265.91a87.65,87.65,0,1,1-87.65,87.64,87.74,87.74,0,0,1,87.65-87.64m0-16.06A103.7,103.7,0,1,0,477.8,353.55a103.7,103.7,0,0,0-103.69-103.7Z"
            transform="translate(-17.53 -36.02)"/>

      <polygon class="fr-cls-9 tesla-tertiary-color"
               points="412.29 280.37 393.73 261.82 356.52 299.02 319.41 261.91 300.86 280.46 337.97 317.58 300.95 354.6 319.5 373.15 356.52 336.13 393.64 373.25 412.19 354.69 375.08 317.58 412.29 280.37"/>
    </g>
    <g class="tesla-status tesla_status_success">
      <circle class="fr-cls-11 tesla-status-success" cx="374.11" cy="353.55" r="95.67"
              transform="translate(-157.96 332.06) rotate(-45)"/>
      <path class="fr-cls-9 tesla-tertiary-color"
            d="M374.11,265.91a87.65,87.65,0,1,1-87.65,87.64,87.74,87.74,0,0,1,87.65-87.64m0-16.06A103.7,103.7,0,1,0,477.8,353.55a103.7,103.7,0,0,0-103.69-103.7Z"
            transform="translate(-17.53 -36.02)"/>
      <path class="fr-cls-9 tesla-tertiary-color"
            d="M359.77,368.16c1.51-2.15,2.92-4.15,4.34-6.15,8-11.32,16.42-22.35,25.48-32.86,7-8.06,14.12-15.94,21.21-23.88,1.54-1.73,2.66-1.74,4.32-.18l10.68,10c2.62,2.45,2.63,3,.26,5.67-5.26,5.91-10.65,11.7-15.7,17.78-6.48,7.78-12.94,15.59-18.93,23.75C382.81,374,374.63,386.1,366.27,398c-.65.93-1.2,1.93-1.84,2.87-1.38,2-2.8,2.17-4.47.31-3.68-4.07-7.29-8.21-11-12.29a325,325,0,0,0-26.67-26.73c-.36-.31-.71-.63-1-1-1.18-1.21-1.28-2.18-.17-3.5,2.95-3.51,5.95-7,8.94-10.48.55-.65,1.1-1.3,1.67-1.93,1.38-1.53,2.51-1.65,4-.28,4.18,3.79,8.37,7.55,12.42,11.46,3.61,3.49,7,7.15,10.57,10.73C359,367.49,359.28,367.72,359.77,368.16Z"
            transform="translate(-17.53 -36.02)"/>
    </g>
    <g class="tesla-status tesla_status_info">
      <circle class="fr-cls-3 tesla-primary-color" cx="374.11" cy="353.55" r="95.67"
              transform="translate(-157.96 332.06) rotate(-45)"/>
      <path class="fr-cls-9 tesla-tertiary-color"
            d="M374.11,265.91a87.65,87.65,0,1,1-87.65,87.64,87.74,87.74,0,0,1,87.65-87.64m0-16.06A103.7,103.7,0,1,0,477.8,353.55a103.7,103.7,0,0,0-103.69-103.7Z"
            transform="translate(-17.53 -36.02)"/>
      <path class="fr-cls-9 tesla-tertiary-color"
            d="M348.41,426v-7.11c12.74-1.48,14.16-2.45,14.16-18V356.55c0-14.55-1-15.44-12.46-17.09V332.8a205.91,205.91,0,0,0,37.31-8.33v76.41c0,15.16,1.13,16.56,14.6,18V426Zm25.07-118a14.82,14.82,0,0,1-14.57-14.42A14.6,14.6,0,0,1,373.7,279a14.24,14.24,0,0,1,14.41,14.58A14.54,14.54,0,0,1,373.48,308Z"
            transform="translate(-17.53 -36.02)"/>
    </g>
  </g>
</svg>
