<svg xmlns="http://www.w3.org/2000/svg" xmlns:xlink="http://www.w3.org/1999/xlink" viewBox="0 0 501 501">
  <defs>
    <style>
    .instrument-fr-1, .instrument-fr-3, .instrument-fr-7 {
      fill: none;
    }

    .instrument-fr-2 {
      opacity: 0;
    }

    .instrument-fr-2, .instrument-fr-6, .instrument-fr-7, .instrument-fr-9 {
      stroke-miterlimit: 10;
    }

    .instrument-fr-3 {
      stroke-linejoin: round;
      stroke-width: 23.17px;
    }

    .instrument-fr-5 {
      clip-path: url(#clip-path);
    }

    .instrument-fr-6, .instrument-fr-7 {
      stroke-width: 2.5px;
    }

    .instrument-fr-9 {
      stroke-linecap: round;
      stroke-width: 16.05px;
    }

    </style>
    <clipPath id="clip-path" transform="translate(0.5 0.5)">
      <path class="instrument-fr-1"
            d="M438.52,416c-36.95-41.43-66.63-46.34-88.12-51.71-12.75-3.18-21.93-7.29-34.58-10.85a2.78,2.78,0,0,1-2.36-3.18c.06-10.67,0-21.35.06-32a6.21,6.21,0,0,1,.62-2.65c1.08-2.17,2.37-4.23,3.46-6.39,3.16-6.28,3.46-12.38,5.95-18.93,3.55-9.35,6.24-19.05,9.36-28.58.39-1.19,1.06-3.14,1.76-3.22,3.8-.43,5.42-3.2,7-6.13,3.83-7.32,5.76-15.28,7.2-23.37,1.9-10.7,3.2-21.49,1.42-32.33-.44-2.72-1.84-6.87-3.05-7.85a4.11,4.11,0,0,1-1-3.29c.29-4.82,1-9.61,1.19-14.43.54-16.4-.85-32.59-7.46-47.74-14.51-33.24-39.4-53.11-74.07-59.14-28.54-5-54.61,2.09-77.38,20.62-18.4,15-30,34.53-34.19,58.45a131.84,131.84,0,0,0-.67,40.49c.32,2.39.44,4.39-1.69,6a4.77,4.77,0,0,0-1.37,2.91c-.65,4.67-1.56,9.37-1.59,14.07a115.4,115.4,0,0,0,4.85,33.81,78.82,78.82,0,0,0,5.73,13.68c.88,1.71,3,3.07,4.82,3.83a3.24,3.24,0,0,1,2.35,2.4c1.26,4.73,2.47,9.49,3.95,14.15,4.54,14.26,7,27.57,15,40.21a6.1,6.1,0,0,1,.82,3.09c.06,10.68,0,21.36.06,32a2.65,2.65,0,0,1-2.22,3c-10.35,2.91-32.44,11-43,13.25-37.7,8-62.84,27-79.87,49.49a146.59,146.59,0,0,0-9.28,13.58H447.81A91.26,91.26,0,0,0,438.52,416Z"/>
    </clipPath>
  </defs>

  <g class="tesla_instrument tesla_instrument_fr">
    <g>
      <rect class="instrument-fr-2 tesla-tertiary-color" x="0.5" y="0.5" width="500" height="500" />
    </g>
    <polyline class="instrument-fr-3 tesla-primary-stroke" points="29.62 111.28 29.62 48.34 93.3 48.34"/>
    <polyline class="instrument-fr-3 tesla-primary-stroke" points="408.07 48.11 471.01 48.11 471.01 111.78"/>
    <polyline class="instrument-fr-3 tesla-primary-stroke" points="471.38 276.16 471.38 339.1 407.7 339.1"/>
    <polyline class="instrument-fr-3 tesla-primary-stroke" points="92.56 338.42 29.62 338.42 29.62 274.74"/>
    <path class="instrument-fr-4 tesla-primary-color"
          d="M438.52,416c-36.95-41.43-66.63-46.34-88.12-51.71-12.75-3.18-21.93-7.29-34.58-10.85a2.78,2.78,0,0,1-2.36-3.18c.06-10.67,0-21.35.06-32a6.21,6.21,0,0,1,.62-2.65c1.08-2.17,2.37-4.23,3.46-6.39,3.16-6.28,3.46-12.38,5.95-18.93,3.55-9.35,6.24-19.05,9.36-28.58.39-1.19,1.06-3.14,1.76-3.22,3.8-.43,5.42-3.2,7-6.13,3.83-7.32,5.76-15.28,7.2-23.37,1.9-10.7,3.2-21.49,1.42-32.33-.44-2.72-1.84-6.87-3.05-7.85a4.11,4.11,0,0,1-1-3.29c.29-4.82,1-9.61,1.19-14.43.54-16.4-.85-32.59-7.46-47.74-14.51-33.24-39.4-53.11-74.07-59.14-28.54-5-54.61,2.09-77.38,20.62-18.4,15-30,34.53-34.19,58.45a131.84,131.84,0,0,0-.67,40.49c.32,2.39.44,4.39-1.69,6a4.77,4.77,0,0,0-1.37,2.91c-.65,4.67-1.56,9.37-1.59,14.07a115.4,115.4,0,0,0,4.85,33.81,78.82,78.82,0,0,0,5.73,13.68c.88,1.71,3,3.07,4.82,3.83a3.24,3.24,0,0,1,2.35,2.4c1.26,4.73,2.47,9.49,3.95,14.15,4.54,14.26,7,27.57,15,40.21a6.1,6.1,0,0,1,.82,3.09c.06,10.68,0,21.36.06,32a2.65,2.65,0,0,1-2.22,3c-10.35,2.91-32.44,11-43,13.25-37.7,8-62.84,27-79.87,49.49a146.59,146.59,0,0,0-9.28,13.58H447.81A91.26,91.26,0,0,0,438.52,416Z"
          transform="translate(0.5 0.5)"/>
    <g class="instrument-fr-5">
      <line class="instrument-fr-6 tesla-tertiary-color tesla-tertiary-stroke" x1="226.88" y1="125.7" x2="215.04" y2="167.13"/>
      <line class="instrument-fr-6 tesla-tertiary-color tesla-tertiary-stroke" x1="178.18" y1="168.18" x2="215.04" y2="167.13"/>
      <line class="instrument-fr-6 tesla-tertiary-color tesla-tertiary-stroke" x1="273.25" y1="125.7" x2="295.23" y2="73.28"/>
      <line class="instrument-fr-6 tesla-tertiary-color tesla-tertiary-stroke" x1="329.46" y1="103.06" x2="273.25" y2="125.7"/>
      <line class="instrument-fr-6 tesla-tertiary-color tesla-tertiary-stroke" x1="335.31" y1="112.36" x2="322.03" y2="168.18"/>
      <line class="instrument-fr-6 tesla-tertiary-color tesla-tertiary-stroke" x1="283.59" y1="166.95" x2="320.67" y2="168.18"/>
      <line class="instrument-fr-6 tesla-tertiary-color tesla-tertiary-stroke" x1="347.41" y1="188.18" x2="322.03" y2="168.18"/>
      <line class="instrument-fr-6 tesla-tertiary-color tesla-tertiary-stroke" x1="347.41" y1="188.18" x2="305.98" y2="216.2"/>
      <line class="instrument-fr-6 tesla-tertiary-color tesla-tertiary-stroke" x1="249.92" y1="198.76" x2="305.98" y2="216.2"/>
      <line class="instrument-fr-6 tesla-tertiary-color tesla-tertiary-stroke" x1="235.32" y1="240.35" x2="249.92" y2="198.76"/>
      <line class="instrument-fr-6 tesla-tertiary-color tesla-tertiary-stroke" x1="249.92" y1="243.27" x2="249.92" y2="198.76"/>
      <line class="instrument-fr-6 tesla-tertiary-color tesla-tertiary-stroke" x1="263.73" y1="240.35" x2="249.8" y2="198.88"/>
      <line class="instrument-fr-6 tesla-tertiary-color tesla-tertiary-stroke" x1="249.92" y1="198.76" x2="193.05" y2="216.2"/>
      <line class="instrument-fr-6 tesla-tertiary-color tesla-tertiary-stroke" x1="235.32" y1="240.35" x2="194.38" y2="217.14"/>
      <line class="instrument-fr-6 tesla-tertiary-color tesla-tertiary-stroke" x1="263.73" y1="240.35" x2="305.98" y2="216.2"/>
      <line class="instrument-fr-6 tesla-tertiary-color tesla-tertiary-stroke" x1="249.92" y1="244.12" x2="263.73" y2="240.35"/>
      <line class="instrument-fr-6 tesla-tertiary-color tesla-tertiary-stroke" x1="249.92" y1="244.12" x2="235.32" y2="240.35"/>
      <line class="instrument-fr-6 tesla-tertiary-color tesla-tertiary-stroke" x1="235.32" y1="240.35" x2="211.66" y2="282.67"/>
      <line class="instrument-fr-6 tesla-tertiary-color tesla-tertiary-stroke" x1="249.92" y1="243.27" x2="249.92" y2="296.31"/>
      <line class="instrument-fr-6 tesla-tertiary-color tesla-tertiary-stroke" x1="263.73" y1="240.35" x2="287.45" y2="282.67"/>
      <line class="instrument-fr-6 tesla-tertiary-color tesla-tertiary-stroke" x1="287.45" y1="282.67" x2="305.98" y2="216.2"/>
      <line class="instrument-fr-6 tesla-tertiary-color tesla-tertiary-stroke" x1="334.79" y1="260.33" x2="305.98" y2="216.2"/>
      <line class="instrument-fr-6 tesla-tertiary-color tesla-tertiary-stroke" x1="287.45" y1="282.67" x2="334.79" y2="260.33"/>
      <line class="instrument-fr-6 tesla-tertiary-color tesla-tertiary-stroke" x1="211.66" y1="282.67" x2="249.92" y2="296.31"/>
      <line class="instrument-fr-6 tesla-tertiary-color tesla-tertiary-stroke" x1="249.92" y1="296.31" x2="287.45" y2="282.67"/>
      <line class="instrument-fr-6 tesla-tertiary-color tesla-tertiary-stroke" x1="193.05" y1="217.47" x2="211.66" y2="282.67"/>
      <line class="instrument-fr-6 tesla-tertiary-color tesla-tertiary-stroke" x1="165.79" y1="260.41" x2="192.05" y2="217.47"/>
      <line class="instrument-fr-6 tesla-tertiary-color tesla-tertiary-stroke" x1="211.66" y1="282.67" x2="165.79" y2="260.41"/>
      <line class="instrument-fr-6 tesla-tertiary-color tesla-tertiary-stroke" x1="211.66" y1="282.67" x2="185.46" y2="316.39"/>
      <line class="instrument-fr-6 tesla-tertiary-color tesla-tertiary-stroke" x1="249.92" y1="296.31" x2="185.23" y2="316.46"/>
      <line class="instrument-fr-6 tesla-tertiary-color tesla-tertiary-stroke" x1="249.92" y1="296.31" x2="249.92" y2="350.73"/>
      <line class="instrument-fr-6 tesla-tertiary-color tesla-tertiary-stroke" x1="314.88" y1="317.12" x2="249.92" y2="296.31"/>
      <line class="instrument-fr-6 tesla-tertiary-color tesla-tertiary-stroke" x1="287.45" y1="282.67" x2="314.88" y2="317.12"/>
      <line class="instrument-fr-6 tesla-tertiary-color tesla-tertiary-stroke" x1="176.73" y1="168.18" x2="153.08" y2="188.38"/>
      <line class="instrument-fr-6 tesla-tertiary-color tesla-tertiary-stroke" x1="153.08" y1="188.38" x2="192.05" y2="216.2"/>
      <line class="instrument-fr-6 tesla-tertiary-color tesla-tertiary-stroke" x1="164.39" y1="113.16" x2="176.73" y2="168.18"/>
      <line class="instrument-fr-6 tesla-tertiary-color tesla-tertiary-stroke" x1="204.44" y1="73.79" x2="226.88" y2="125.27"/>
      <line class="instrument-fr-6 tesla-tertiary-color tesla-tertiary-stroke" x1="170.01" y1="104.16" x2="226.88" y2="125.27"/>
      <line class="instrument-fr-6 tesla-tertiary-color tesla-tertiary-stroke" x1="249.92" y1="62.4" x2="249.92" y2="121.9"/>
      <line class="instrument-fr-6 tesla-tertiary-color tesla-tertiary-stroke" x1="215.04" y1="167.13" x2="249.8" y2="198.88"/>
      <line class="instrument-fr-6 tesla-tertiary-color tesla-tertiary-stroke" x1="283.59" y1="166.95" x2="249.92" y2="198.76"/>
      <line class="instrument-fr-7 tesla-tertiary-stroke" x1="273.25" y1="125.7" x2="283.59" y2="166.95"/>
      <line class="instrument-fr-6 tesla-tertiary-color tesla-tertiary-stroke" x1="249.8" y1="121.9" x2="273.25" y2="125.7"/>
      <line class="instrument-fr-6 tesla-tertiary-color tesla-tertiary-stroke" x1="249.8" y1="121.9" x2="226.88" y2="125.7"/>
      <line class="instrument-fr-6 tesla-tertiary-color tesla-tertiary-stroke" x1="185.46" y1="316.39" x2="249.92" y2="350.42"/>
      <line class="instrument-fr-6 tesla-tertiary-color tesla-tertiary-stroke" x1="314.88" y1="317.12" x2="249.92" y2="350.42"/>
      <line class="instrument-fr-6 tesla-tertiary-color tesla-tertiary-stroke" x1="226.88" y1="125.7" x2="249.92" y2="198.67"/>
      <line class="instrument-fr-6 tesla-tertiary-color tesla-tertiary-stroke" x1="273.25" y1="125.7" x2="249.92" y2="198.67"/>
      <circle class="instrument-fr-8 tesla-secondary-color" cx="226.88" cy="125.27" r="2.92"/>
      <circle class="instrument-fr-8 tesla-secondary-color" cx="215.04" cy="167.13" r="2.92"/>
      <circle class="instrument-fr-8 tesla-secondary-color" cx="176.73" cy="168.18" r="2.92"/>
      <circle class="instrument-fr-8 tesla-secondary-color" cx="193.05" cy="216.2" r="2.92"/>
      <circle class="instrument-fr-8 tesla-secondary-color" cx="305.98" cy="216.2" r="2.92"/>
      <circle class="instrument-fr-8 tesla-secondary-color" cx="283.59" cy="166.95" r="2.92"/>
      <circle class="instrument-fr-8 tesla-secondary-color" cx="322.03" cy="168.18" r="2.92"/>
      <circle class="instrument-fr-8 tesla-secondary-color" cx="249.92" cy="197.88" r="2.92"/>
      <circle class="instrument-fr-8 tesla-secondary-color" cx="249.92" cy="244.12" r="2.92"/>
      <circle class="instrument-fr-8 tesla-secondary-color" cx="235.09" cy="240.35" r="2.92"/>
      <circle class="instrument-fr-8 tesla-secondary-color" cx="263.73" cy="240.35" r="2.92"/>
      <circle class="instrument-fr-8 tesla-secondary-color" cx="287.45" cy="282.67" r="2.92"/>
      <circle class="instrument-fr-8 tesla-secondary-color" cx="211.6" cy="282.44" r="2.92"/>
      <circle class="instrument-fr-8 tesla-secondary-color" cx="249.92" cy="296.31" r="2.92"/>
      <circle class="instrument-fr-8 tesla-secondary-color" cx="249.92" cy="349.99" r="2.92"/>
      <circle class="instrument-fr-8 tesla-secondary-color" cx="249.92" cy="122.35" r="2.92"/>
      <circle class="instrument-fr-8 tesla-secondary-color" cx="273.25" cy="125.7" r="2.92"/>
    </g>
  </g>
  <g class="tesla_group_status">
    <g class="tesla-status tesla_status_warning">
        <path class="instrument-fr-9 tesla-tertiary-stroke tesla-status-warning"
            d="M374.11,429H283c-10.12,0-16.45-11.12-11.39-20l45.57-80.08,45.57-80.07a13.06,13.06,0,0,1,22.78,0l45.56,80.07,45.57,80.08c5.06,8.89-1.26,20-11.39,20Z"
            transform="translate(0.5 0.5)"/>
      <path class="instrument-fr-10 tesla-tertiary-color"
            d="M374,289.85c6.37,0,14.51,1.24,13.39,9.82-1.21,9.91-6.41,45.21-9.26,69.67a3.44,3.44,0,0,1-3.41,3h-1.34a3.42,3.42,0,0,1-3.41-3.05c-2.57-23.3-8-59.11-9.17-70C359.59,291.57,367.24,289.85,374,289.85Zm.18,121.47c-7.21,0-12.57-5.29-12.57-13,0-7.44,5.36-13.1,12.57-13.1,7.39,0,12.75,5.66,12.75,13.1C387,406,381.6,411.32,374.21,411.32Z"
            transform="translate(0.5 0.5)"/>
    </g>
    <g class="tesla-status tesla_status_error">
      <g>
        <circle class="instrument-fr-11 tesla-status-error" cx="374.11" cy="353.55" r="95.67" transform="translate(-139.93 368.59) rotate(-45)"/>
        <path class="instrument-fr-10 tesla-tertiary-color"
              d="M374.11,265.91a87.65,87.65,0,1,1-87.65,87.64,87.74,87.74,0,0,1,87.65-87.64m0-16.06A103.7,103.7,0,1,0,477.8,353.55a103.7,103.7,0,0,0-103.69-103.7Z"
              transform="translate(0.5 0.5)"/>
      </g>
      <polygon class="instrument-fr-10 tesla-tertiary-color"
               points="430.32 316.89 411.76 298.34 374.56 335.54 337.45 298.43 318.89 316.99 356 354.1 318.98 391.12 337.54 409.68 374.56 372.65 411.67 409.77 430.23 391.21 393.12 354.1 430.32 316.89"/>
    </g>
    <g class="tesla-status tesla_status_success">
      <g>
        <circle class="instrument-fr-12 tesla-status-success" cx="374.11" cy="353.55" r="95.67" transform="translate(-139.93 368.59) rotate(-45)"/>
        <path class="instrument-fr-10 tesla-tertiary-color"
              d="M374.11,265.91a87.65,87.65,0,1,1-87.65,87.64,87.74,87.74,0,0,1,87.65-87.64m0-16.06A103.7,103.7,0,1,0,477.8,353.55a103.7,103.7,0,0,0-103.69-103.7Z"
              transform="translate(0.5 0.5)"/>
      </g>
      <path id="OK" class="instrument-fr-10 tesla-tertiary-color"
            d="M359.77,368.16c1.51-2.15,2.92-4.15,4.34-6.15,8-11.32,16.42-22.35,25.48-32.86,7-8.06,14.12-15.94,21.21-23.88,1.54-1.73,2.66-1.74,4.32-.18l10.68,10c2.62,2.45,2.63,3,.26,5.67-5.26,5.91-10.65,11.7-15.7,17.78-6.48,7.78-12.94,15.59-18.93,23.75C382.81,374,374.63,386.1,366.27,398c-.65.93-1.2,1.93-1.84,2.87-1.38,2-2.8,2.17-4.47.31-3.68-4.07-7.29-8.21-11-12.29a325,325,0,0,0-26.67-26.73c-.36-.31-.71-.63-1-1-1.18-1.21-1.28-2.18-.17-3.5,2.95-3.51,5.95-7,8.94-10.48.55-.65,1.1-1.3,1.67-1.93,1.38-1.53,2.51-1.65,4-.28,4.18,3.79,8.37,7.55,12.42,11.46,3.61,3.49,7,7.15,10.57,10.73C359,367.49,359.28,367.72,359.77,368.16Z"
            transform="translate(0.5 0.5)"/>
    </g>
    <g class="tesla-status tesla_status_info">
      <g>
        <circle class="instrument-fr-4 tesla-primary-color" cx="374.11" cy="353.55" r="95.67" transform="translate(-139.93 368.59) rotate(-45)"/>
        <path class="instrument-fr-10 tesla-tertiary-color"
              d="M374.11,265.91a87.65,87.65,0,1,1-87.65,87.64,87.74,87.74,0,0,1,87.65-87.64m0-16.06A103.7,103.7,0,1,0,477.8,353.55a103.7,103.7,0,0,0-103.69-103.7Z"
              transform="translate(0.5 0.5)"/>
      </g>
      <path id="i" class="instrument-fr-10 tesla-tertiary-color"
            d="M348.41,426v-7.11c12.74-1.48,14.16-2.45,14.16-18V356.55c0-14.55-1-15.44-12.46-17.09V332.8a205.91,205.91,0,0,0,37.31-8.33v76.41c0,15.16,1.13,16.56,14.6,18V426Zm25.07-118a14.82,14.82,0,0,1-14.57-14.42A14.6,14.6,0,0,1,373.7,279a14.24,14.24,0,0,1,14.41,14.58A14.54,14.54,0,0,1,373.48,308Z"
            transform="translate(0.5 0.5)"/>
    </g>
    <g class="tesla-status tesla_status_disabled">
      <g>
        <rect class="tesla_status_disabled" x="-99.04" y="239.12" width="698.09" height="21.76" rx="10.87" transform="translate(-103.05 250.51) rotate(-45)"/>
      </g>
    </g>
  </g>
</svg>
