<svg xmlns="http://www.w3.org/2000/svg" viewBox="0 0 501 501">
  <defs>
    <style>
    .instrument-ks-1 {
      opacity: 0;
    }

    .instrument-ks-1, .instrument-ks-4, .instrument-ks-6 {
      stroke-miterlimit: 10;
    }

    .instrument-ks-4 {
      stroke-width: 1.05px;
    }

    .instrument-ks-6 {
      stroke-linecap: round;
      stroke-width: 16.05px;
    }

    .instrument-ks-8 {
      fill: #25a148;
    }</style>
  </defs>

  <g class="tesla_instrument tesla_instrument_ks">
    <g>
      <rect class="instrument-ks-1 tesla-tertiary-color" x="0.5" y="0.5" width="500" height="500"/>
    </g>
    <rect class="instrument-ks-2 tesla-primary-color" x="42.5" y="83.69" width="415.99" height="150.6"/>
    <rect class="instrument-ks-3 tesla-secondary-color" x="58.01" y="148.69" width="42.32" height="20.6" rx="3.15"/>
    <rect class="instrument-ks-4 tesla-tertiary-color tesla-secondary-stroke" x="130.02" y="148.69" width="20.6" height="20.6" rx="3.13"/>
    <rect class="instrument-ks-3 tesla-secondary-color" x="104.63" y="148.69" width="20.6" height="20.6" rx="3.13"/>
    <rect class="instrument-ks-3 tesla-secondary-color" x="147.14" y="177.05" width="20.6" height="20.6" rx="3.13"/>
    <rect class="instrument-ks-3 tesla-secondary-color" x="172.55" y="177.05" width="20.6" height="20.6" rx="3.13"/>
    <rect class="instrument-ks-3 tesla-secondary-color" x="197.96" y="177.05" width="20.6" height="20.6" rx="3.13"/>
    <rect class="instrument-ks-3 tesla-secondary-color" x="223.38" y="177.05" width="20.6" height="20.6" rx="3.13"/>
    <rect class="instrument-ks-3 tesla-secondary-color" x="248.79" y="177.05" width="20.6" height="20.6" rx="3.13"/>
    <rect class="instrument-ks-3 tesla-secondary-color" x="274.2" y="177.05" width="20.6" height="20.6" rx="3.13"/>
    <rect class="instrument-ks-3 tesla-secondary-color" x="299.62" y="177.05" width="20.6" height="20.6" rx="3.13"/>
    <rect class="instrument-ks-3 tesla-secondary-color" x="325.03" y="177.05" width="20.6" height="20.6" rx="3.13"/>
    <rect class="instrument-ks-3 tesla-secondary-color" x="350.45" y="177.05" width="20.6" height="20.6" rx="3.13"/>
    <rect class="instrument-ks-3 tesla-secondary-color" x="375.86" y="177.05" width="20.6" height="20.6" rx="3.13"/>
    <rect class="instrument-ks-3 tesla-secondary-color" x="121.72" y="177.05" width="20.6" height="20.6" rx="3.13"/>
    <rect class="instrument-ks-3 tesla-secondary-color" x="58.01" y="177.05" width="59.04" height="20.6" rx="3.14"/>
    <rect class="instrument-ks-3 tesla-secondary-color" x="402.32" y="177.05" width="40.67" height="20.6" rx="3.14"/>
    <rect class="instrument-ks-3 tesla-secondary-color" x="155.25" y="148.69" width="20.6" height="20.6" rx="3.13"/>
    <rect class="instrument-ks-3 tesla-secondary-color" x="180.48" y="148.69" width="20.6" height="20.6" rx="3.13"/>
    <rect class="instrument-ks-4 tesla-tertiary-color tesla-secondary-stroke" x="205.71" y="148.69" width="20.6" height="20.6" rx="3.13"/>
    <rect class="instrument-ks-3 tesla-secondary-color" x="230.94" y="148.69" width="20.6" height="20.6" rx="3.13"/>
    <rect class="instrument-ks-4 tesla-tertiary-color tesla-secondary-stroke" x="256.17" y="148.69" width="20.6" height="20.6" rx="3.13"/>
    <rect class="instrument-ks-3 tesla-secondary-color" x="281.4" y="148.69" width="20.6" height="20.6" rx="3.13"/>
    <rect class="instrument-ks-3 tesla-secondary-color" x="306.63" y="148.69" width="20.6" height="20.6" rx="3.13"/>
    <rect class="instrument-ks-3 tesla-secondary-color" x="331.86" y="148.69" width="20.6" height="20.6" rx="3.13"/>
    <rect class="instrument-ks-3 tesla-secondary-color" x="357.09" y="148.69" width="20.6" height="20.6" rx="3.13"/>
    <rect class="instrument-ks-3 tesla-secondary-color" x="382.32" y="148.69" width="20.6" height="20.6" rx="3.13"/>
    <rect class="instrument-ks-3 tesla-secondary-color" x="84.03" y="91.98" width="20.6" height="20.6" rx="3.13"/>
    <rect class="instrument-ks-3 tesla-secondary-color" x="58.01" y="91.98" width="20.6" height="20.6" rx="3.13"/>
    <rect class="instrument-ks-3 tesla-secondary-color" x="110.06" y="91.98" width="20.6" height="20.6" rx="3.13"/>
    <rect class="instrument-ks-3 tesla-secondary-color" x="136.09" y="91.98" width="20.6" height="20.6" rx="3.13"/>
    <rect class="instrument-ks-3 tesla-secondary-color" x="162.12" y="91.98" width="20.6" height="20.6" rx="3.13"/>
    <rect class="instrument-ks-3 tesla-secondary-color" x="188.15" y="91.98" width="20.6" height="20.6" rx="3.13"/>
    <rect class="instrument-ks-3 tesla-secondary-color" x="214.17" y="91.98" width="20.6" height="20.6" rx="3.13"/>
    <rect class="instrument-ks-3 tesla-secondary-color" x="240.2" y="91.98" width="20.6" height="20.6" rx="3.13"/>
    <rect class="instrument-ks-3 tesla-secondary-color" x="266.23" y="91.98" width="20.6" height="20.6" rx="3.13"/>
    <rect class="instrument-ks-3 tesla-secondary-color" x="292.26" y="91.98" width="20.6" height="20.6" rx="3.13"/>
    <rect class="instrument-ks-3 tesla-secondary-color" x="318.28" y="91.98" width="20.6" height="20.6" rx="3.13"/>
    <rect class="instrument-ks-3 tesla-secondary-color" x="344.31" y="91.98" width="20.6" height="20.6" rx="3.13"/>
    <rect class="instrument-ks-3 tesla-secondary-color" x="370.34" y="91.98" width="20.6" height="20.6" rx="3.13"/>
    <rect class="instrument-ks-3 tesla-secondary-color" x="396.37" y="91.98" width="20.6" height="20.6" rx="3.13"/>
    <rect class="instrument-ks-3 tesla-secondary-color" x="422.4" y="91.98" width="20.6" height="20.6" rx="3.13"/>
    <rect class="instrument-ks-3 tesla-secondary-color" x="84.03" y="205.41" width="20.6" height="20.6" rx="3.13"/>
    <rect class="instrument-ks-3 tesla-secondary-color" x="58.01" y="205.41" width="20.6" height="20.6" rx="3.13"/>
    <rect class="instrument-ks-3 tesla-secondary-color" x="110.06" y="205.41" width="20.6" height="20.6" rx="3.13"/>
    <rect class="instrument-ks-3 tesla-secondary-color" x="370.34" y="205.41" width="20.6" height="20.6" rx="3.13"/>
    <rect class="instrument-ks-3 tesla-secondary-color" x="136.84" y="205.41" width="227.86" height="20.6" rx="3.14"/>
    <rect class="instrument-ks-3 tesla-secondary-color" x="396.37" y="205.41" width="20.6" height="20.6" rx="3.13"/>
    <rect class="instrument-ks-3 tesla-secondary-color" x="422.4" y="205.41" width="20.6" height="20.6" rx="3.13"/>
    <rect class="instrument-ks-3 tesla-secondary-color" x="96.44" y="120.34" width="20.6" height="20.6" rx="3.14"/>
    <rect class="instrument-ks-3 tesla-secondary-color" x="58.01" y="120.34" width="33.38" height="20.6" rx="3.14"/>
    <rect class="instrument-ks-3 tesla-secondary-color" x="121.72" y="120.34" width="20.6" height="20.6" rx="3.13"/>
    <rect class="instrument-ks-4 tesla-tertiary-color tesla-secondary-stroke" x="147" y="120.34" width="20.6" height="20.6" rx="3.13"/>
    <rect class="instrument-ks-4 tesla-tertiary-color tesla-secondary-stroke" x="172.27" y="120.34" width="20.6" height="20.6" rx="3.13"/>
    <rect class="instrument-ks-3 tesla-secondary-color" x="197.55" y="120.34" width="20.6" height="20.6" rx="3.13"/>
    <rect class="instrument-ks-3 tesla-secondary-color" x="222.83" y="120.34" width="20.6" height="20.6" rx="3.13"/>
    <rect class="instrument-ks-3 tesla-secondary-color" x="248.1" y="120.34" width="20.6" height="20.6" rx="3.13"/>
    <rect class="instrument-ks-4 tesla-tertiary-color tesla-secondary-stroke" x="273.38" y="120.34" width="20.6" height="20.6" rx="3.13"/>
    <rect class="instrument-ks-3 tesla-secondary-color" x="298.66" y="120.34" width="20.6" height="20.6" rx="3.13"/>
    <rect class="instrument-ks-4 tesla-tertiary-color tesla-secondary-stroke" x="323.93" y="120.34" width="20.6" height="20.6" rx="3.13"/>
    <rect class="instrument-ks-3 tesla-secondary-color" x="349.21" y="120.34" width="20.6" height="20.6" rx="3.13"/>
    <rect class="instrument-ks-3 tesla-secondary-color" x="374.49" y="120.34" width="20.6" height="20.6" rx="3.13"/>
    <path class="instrument-ks-3 tesla-secondary-color"
          d="M436.82,164.79H414.61c-3.36,0-6.09-2.38-6.09-5.33V141.52c0-1.09-.43-1.09-1.33-1.09h-2.48c-3.29,0-3.29-3-3.29-4V125.16c0-2.94,2.72-5.32,6.08-5.32h29.32c3.36,0,6.08,2.38,6.08,5.32v34.3C442.9,162.41,440.18,164.79,436.82,164.79Z"
          transform="translate(0.5 0.5)"/>
    <path class="instrument-ks-2 tesla-primary-color"
          d="M42.07,364.46v-.88c0-8.26,29.6-54.86,36.54-65.66l2.47-71.8c-.48-3.07-3.34-21.35-3.12-25.63.26-5.11,10.08-16.58,14.19-16.58l.31,0c2.39,0,4.45,2.14,5.67,5.77.14.43.32,1,.47,1.68-.09-3.52-.17-6.73-.23-9.19-.15-5.78-.22-8.36-.19-9,0-1,.15-3,11-9.39,4-2.33,11.21-6.22,15.2-6.22a4.54,4.54,0,0,1,2.47.64,6.58,6.58,0,0,1,2.7,4c3.92-5.82,11.22-14.18,14.33-16.14l.61-.38h.73c3.53,0,23.12,5.73,27.28,10.49a4,4,0,0,1,1.11,3.2c-.63,4.62-6.33,10.59-11.52,10.59a4.78,4.78,0,0,1-.66,0c-2.48-.24-7-.65-9.81-.9-1.32,16-1.88,33.51-.86,40.27,6.29-9.08,24.81-38.53,36.7-57.7.62-1.47,4.09-8.89,10.67-8.89a9.69,9.69,0,0,1,4.19,1c7.63,3.66,7.74,9.21,6.73,11.63l0,.09,0,.09c-14.51,28.13-36.51,71.3-37.67,74.91-.52,2.75,8.93,12.83,13.22,16.42,3.38-5.5,12-25.26,12-34.71,0-4.3,3.64-7.55,8.47-7.55a8.45,8.45,0,0,1,8.67,7.16c1.63,10.28-5.35,43.28-8.53,49.48-.52,1-1.19,2.39-2,4.1-4.72,9.79-14.53,30.16-28.59,47.39-7.59,9.3-23.06,17.59-26.32,19.27L87.54,421Zm56.62-169.1a3.43,3.43,0,0,1-1.22,1.88,8.34,8.34,0,0,0-2.7,5.32c.08,2,2.17,9,4.13,13.31C99,210.81,98.84,202.79,98.69,195.36Zm22.78-16.63c.1,13.22,1.29,25.48,2.89,31.32.64-6.32,1.44-18.34,2.2-33.34A35.23,35.23,0,0,1,121.47,178.73Z"
          transform="translate(0.5 0.5)"/>
    <path class="instrument-ks-5 tesla-tertiary-color"
          d="M198.18,145.29a7.18,7.18,0,0,1,3.1.76c7.52,3.61,5.51,8.41,5.51,8.41S170.61,224.64,169,229.75s14.28,19.82,15.93,20.5H185c1.89,0,14.08-26.39,14.08-38,0-3.23,3-5,6-5a6,6,0,0,1,6.2,5c1.58,9.92-5.37,42.26-8.29,48-3.45,6.73-14,31-30.31,51.05-8.09,9.91-26.08,18.92-26.08,18.92L87.37,416.81l-42.8-53.23c0-8.11,36.51-64.88,36.51-64.88L83.59,226s-3.35-21.07-3.13-25.35,9.21-14.21,11.69-14.21l.16,0h.06c2.88,0,4.92,7.83,3.6,8.83a10.69,10.69,0,0,0-3.7,7.37c0,2.36,4.65,19.06,8.34,19.06a1.33,1.33,0,0,0,.28,0c1.34,0-.31-46.17-.21-48.32.09-2,18.16-13.24,23.75-13.23a2.15,2.15,0,0,1,1.13.25c3.53,2.23,1.44,12.61.72,13.56s-7.32,3-7.32,3,0,39,6.62,39l.26,0c1.48-.22,3.58-46.43,3.67-48.31s11.07-16.31,15.76-19.26c3.65,0,26.41,7.14,25.91,10.85s-5.27,8.43-9,8.43l-.42,0c-3.82-.39-12.33-1.13-12.33-1.13s-4.21,47.54,1,47.54c1.46,0,39.36-61.12,39.36-61.12s2.92-7.53,8.44-7.53m0-5h0c-7.92,0-11.93,8-12.9,10.24-9.85,15.87-24.36,39-32.48,51.38-.15-7.76.33-19.23,1.16-30.08,2.53.22,5.45.49,7.27.67a9.08,9.08,0,0,0,.91.05c6.61,0,13.22-7,14-12.76a6.37,6.37,0,0,0-1.7-5.18c-4.75-5.43-25.21-11.34-29.16-11.34h-1.45l-1.22.77c-3.48,2.19-8.29,7.93-10.85,11.15-.68.85-1.28,1.63-1.84,2.36a8,8,0,0,0-1.68-1.43,7,7,0,0,0-3.8-1h0c-4.35,0-11.36,3.56-16.47,6.56-12.06,7.07-12.19,9.59-12.27,11.43,0,.67,0,2.44.18,9.17v.14a6.74,6.74,0,0,0-3.27-1l-.45,0c-1.17,0-4.27,0-10.5,7.29-2.71,3.17-6,7.77-6.19,11.66-.22,4.4,2.4,21.41,3.12,25.92l-2.45,70.87c-2.37,3.71-10,15.76-17.59,28.37-19,31.61-19,36-19,38.06v1.76l1.1,1.37,42.81,53.23,4.22,5.26,3.8-5.57L150,334c4.3-2.26,19-10.42,26.54-19.62,14.25-17.46,24.15-38,28.91-47.88.83-1.73,1.49-3.09,2-4.05,3.36-6.55,10.51-40.1,8.78-51A11,11,0,0,0,205,202.18a11.77,11.77,0,0,0-7.17,2.35,9.55,9.55,0,0,0-3.8,7.7c0,7.48-6.38,23.36-10.13,30.72-3.87-3.7-9.16-9.57-10-12.18,2.62-6.27,24-48.17,37.31-74l.09-.18.08-.19c1.32-3.18,1.36-10.37-8-14.85a12.18,12.18,0,0,0-5.27-1.25Z"
          transform="translate(0.5 0.5)"/>
    <path class="instrument-ks-2 tesla-primary-color"
          d="M352.32,332.08c-3.25-1.68-18.72-10-26.31-19.27-14.06-17.23-23.88-37.6-28.59-47.39-.83-1.71-1.5-3.1-2-4.1-3.18-6.2-10.17-39.2-8.53-49.48a8.44,8.44,0,0,1,8.67-7.16c4.83,0,8.46,3.25,8.46,7.55,0,9.45,8.6,29.21,12,34.71,4.29-3.59,13.74-13.68,13.21-16.44-1.15-3.59-23.15-46.76-37.66-74.89l-.05-.09,0-.09c-1-2.42-.9-8,6.73-11.63a9.62,9.62,0,0,1,4.19-1c6.58,0,10.05,7.42,10.67,8.89,11.89,19.17,30.41,48.62,36.7,57.7,1-6.76.46-24.29-.86-40.27-2.82.25-7.33.66-9.81.9a4.87,4.87,0,0,1-.66,0c-5.2,0-10.89-6-11.52-10.59a4,4,0,0,1,1.11-3.2c4.16-4.76,23.74-10.49,27.28-10.49H356l.61.38c3.12,2,10.42,10.32,14.34,16.14a6.54,6.54,0,0,1,2.7-4,4.5,4.5,0,0,1,2.47-.64c4,0,11.23,3.89,15.2,6.22,10.9,6.38,11,8.42,11,9.39,0,.62,0,3.2-.18,9-.06,2.46-.15,5.67-.23,9.19a16.23,16.23,0,0,1,.47-1.68c1.21-3.63,3.27-5.72,5.66-5.77l.32,0c4.11,0,13.92,11.47,14.19,16.58.22,4.28-2.63,22.49-3.12,25.62l3.46,71.8c6.91,10.77,36.55,57.41,36.55,65.67v.9L413,421Zm49.56-136.72c-.16,7.43-.29,15.45-.22,20.51,2-4.32,4-11.31,4.14-13.31a8.35,8.35,0,0,0-2.71-5.32A3.41,3.41,0,0,1,401.88,195.36ZM374,176.71c.77,15.17,1.56,27.09,2.19,33.35,1.61-5.83,2.8-18.1,2.9-31.33A35.23,35.23,0,0,1,374,176.71Z"
          transform="translate(0.5 0.5)"/>
    <path class="instrument-ks-5 tesla-tertiary-color"
          d="M302.39,145.29c5.51,0,8.44,7.53,8.44,7.53s37.89,61.12,39.36,61.12c5.19,0,1-47.54,1-47.54s-8.51.74-12.34,1.13l-.41,0c-3.77,0-8.56-4.84-9-8.43s22.25-10.85,25.91-10.85c4.69,2.95,15.67,17.37,15.76,19.26s2.19,48.09,3.67,48.31l.26,0c6.62,0,6.62-39,6.62-39s-6.59-2-7.32-3-2.82-11.33.72-13.56a2.15,2.15,0,0,1,1.13-.25c5.59,0,23.65,11.25,23.75,13.23.1,2.15-1.56,48.32-.21,48.32a1.27,1.27,0,0,0,.28,0c3.68,0,8.29-16.7,8.34-19.06a10.73,10.73,0,0,0-3.7-7.37c-1.32-1,.71-8.83,3.59-8.83h.07l.16,0c2.47,0,11.47,10,11.69,14.21S417,226,417,226l3.51,72.73S457,355.47,457,363.58l-43.81,53.23L354,330.15s-18-9-26.08-18.92c-16.33-20-26.86-44.32-30.32-51.05-2.91-5.69-9.86-38-8.28-48a5.94,5.94,0,0,1,6.2-5c3,0,6,1.82,6,5,0,11.64,12.2,38,14.09,38h.07c1.64-.68,17.56-15.38,15.92-20.5s-37.82-75.29-37.82-75.29-2-4.8,5.51-8.41a7.22,7.22,0,0,1,3.11-.76m0-5a12.15,12.15,0,0,0-5.27,1.25c-9.33,4.48-9.29,11.67-8,14.85l.08.19.09.18c13.32,25.82,34.66,67.67,37.3,74-.83,2.62-6.12,8.48-10,12.18-3.75-7.36-10.14-23.24-10.14-30.72,0-5.73-4.71-10-11-10a11,11,0,0,0-11.14,9.27c-1.74,10.91,5.41,44.46,8.78,51,.49,1,1.14,2.32,2,4.05,4.75,9.87,14.66,30.42,28.9,47.88,7.51,9.2,22.24,17.36,26.54,19.62l58.45,85.62,3.76,5.5,4.23-5.14,43.81-53.23,1.14-1.39v-1.79c0-2.09,0-6.45-19-38.06-7.59-12.64-15.27-24.72-17.61-28.4L422,226.24c.72-4.55,3.33-21.49,3.1-25.88-.2-3.89-3.47-8.49-6.19-11.66-6.22-7.29-9.32-7.29-10.49-7.29l-.46,0a6.8,6.8,0,0,0-3.27,1v-.14c.17-6.73.21-8.5.18-9.17-.09-1.84-.21-4.36-12.28-11.43-5.11-3-12.11-6.56-16.46-6.56a7,7,0,0,0-3.81,1,8.49,8.49,0,0,0-1.68,1.43c-.55-.73-1.16-1.51-1.83-2.36-2.56-3.22-7.37-9-10.85-11.15l-1.22-.77H355.3c-4,0-24.41,5.91-29.17,11.34a6.41,6.41,0,0,0-1.7,5.18c.78,5.74,7.39,12.76,14,12.76.3,0,.61,0,.91-.05,1.81-.18,4.73-.45,7.27-.67.83,10.85,1.31,22.32,1.16,30.08-8.13-12.39-22.64-35.51-32.48-51.38-1-2.25-5-10.24-12.9-10.24Z"
          transform="translate(0.5 0.5)"/>
  </g>
  <g class="tesla_group_status">
    <g class="tesla-status tesla_status_warning">
      <path class="instrument-ks-6 tesla-status-warning tesla-tertiary-stroke"
            d="M374.11,429H283c-10.12,0-16.45-11.12-11.39-20l45.57-80.08,45.57-80.07a13.06,13.06,0,0,1,22.78,0l45.56,80.07,45.57,80.08c5.06,8.89-1.26,20-11.39,20Z"
            transform="translate(0.5 0.5)"/>
      <path class="instrument-ks-5 tesla-tertiary-color"
            d="M374,289.85c6.37,0,14.51,1.24,13.39,9.82-1.21,9.91-6.41,45.21-9.26,69.67a3.44,3.44,0,0,1-3.41,3h-1.34a3.42,3.42,0,0,1-3.41-3.05c-2.57-23.3-8-59.11-9.17-70C359.59,291.57,367.24,289.85,374,289.85Zm.18,121.47c-7.21,0-12.57-5.29-12.57-13,0-7.44,5.36-13.1,12.57-13.1,7.39,0,12.75,5.66,12.75,13.1C387,406,381.6,411.32,374.21,411.32Z"
            transform="translate(0.5 0.5)"/>
    </g>
    <g class="tesla-status tesla_status_error">
      <g>
        <circle class="instrument-ks-7 tesla-status-error" cx="374.11" cy="353.55" r="95.67" transform="translate(-139.93 368.59) rotate(-45)"/>
        <path class="instrument-ks-5 tesla-tertiary-color"
              d="M374.11,265.91a87.65,87.65,0,1,1-87.65,87.64,87.74,87.74,0,0,1,87.65-87.64m0-16.06A103.7,103.7,0,1,0,477.8,353.55a103.7,103.7,0,0,0-103.69-103.7Z"
              transform="translate(0.5 0.5)"/>
      </g>
      <polygon class="instrument-ks-5 tesla-tertiary-color"
               points="430.32 316.89 411.76 298.34 374.56 335.54 337.45 298.43 318.89 316.99 356 354.1 318.98 391.12 337.54 409.68 374.56 372.65 411.67 409.77 430.23 391.21 393.12 354.1 430.32 316.89"/>
    </g>
    <g class="tesla-status tesla_status_success">
      <g>
        <circle class="instrument-ks-8 tesla-status-success" cx="374.11" cy="353.55" r="95.67" transform="translate(-139.93 368.59) rotate(-45)"/>
        <path class="instrument-ks-5 tesla-tertiary-color"
              d="M374.11,265.91a87.65,87.65,0,1,1-87.65,87.64,87.74,87.74,0,0,1,87.65-87.64m0-16.06A103.7,103.7,0,1,0,477.8,353.55a103.7,103.7,0,0,0-103.69-103.7Z"
              transform="translate(0.5 0.5)"/>
      </g>
      <path class="instrument-ks-5 tesla-tertiary-color"
            d="M359.77,368.16c1.51-2.15,2.92-4.15,4.34-6.15,8-11.32,16.42-22.35,25.48-32.86,7-8.06,14.12-15.94,21.21-23.88,1.54-1.73,2.66-1.74,4.32-.18l10.68,10c2.62,2.45,2.63,3,.26,5.67-5.26,5.91-10.65,11.7-15.7,17.78-6.48,7.78-12.94,15.59-18.93,23.75C382.81,374,374.63,386.1,366.27,398c-.65.93-1.2,1.93-1.84,2.87-1.38,2-2.8,2.17-4.47.31-3.68-4.07-7.29-8.21-11-12.29a325,325,0,0,0-26.67-26.73c-.36-.31-.71-.63-1-1-1.18-1.21-1.28-2.18-.17-3.5,2.95-3.51,5.95-7,8.94-10.48.55-.65,1.1-1.3,1.67-1.93,1.38-1.53,2.51-1.65,4-.28,4.18,3.79,8.37,7.55,12.42,11.46,3.61,3.49,7,7.15,10.57,10.73C359,367.49,359.28,367.72,359.77,368.16Z"
            transform="translate(0.5 0.5)"/>
    </g>
    <g class="tesla-status tesla_status_info">
      <g>
        <circle class="instrument-ks-2 tesla-primary-color" cx="374.11" cy="353.55" r="95.67" transform="translate(-139.93 368.59) rotate(-45)"/>
        <path class="instrument-ks-5 tesla-tertiary-color"
              d="M374.11,265.91a87.65,87.65,0,1,1-87.65,87.64,87.74,87.74,0,0,1,87.65-87.64m0-16.06A103.7,103.7,0,1,0,477.8,353.55a103.7,103.7,0,0,0-103.69-103.7Z"
              transform="translate(0.5 0.5)"/>
      </g>
      <path class="instrument-ks-5 tesla-tertiary-color"
            d="M348.41,426v-7.11c12.74-1.48,14.16-2.45,14.16-18V356.55c0-14.55-1-15.44-12.46-17.09V332.8a205.91,205.91,0,0,0,37.31-8.33v76.41c0,15.16,1.13,16.56,14.6,18V426Zm25.07-118a14.82,14.82,0,0,1-14.57-14.42A14.6,14.6,0,0,1,373.7,279a14.24,14.24,0,0,1,14.41,14.58A14.54,14.54,0,0,1,373.48,308Z"
            transform="translate(0.5 0.5)"/>
    </g>
    <g class="tesla-status tesla_status_disabled">
      <g>
        <rect class="tesla_status_disabled" x="-99.04" y="239.12" width="698.09" height="21.76" rx="10.87" transform="translate(-103.05 250.51) rotate(-45)"/>
      </g>
    </g>
  </g>
</svg>
