<svg xmlns="http://www.w3.org/2000/svg" viewBox="0 0 501 501">
  <defs>
    <style>
      .tesla-primary-color {
        fill: #5290e9;
      }

      .tesla-secondary-color {
        fill: #97bcf2;
      }

      .tesla-tertiary-color {
        fill: #ffffff;
      }

      .tesla-primary-stroke {
        stroke: #5290e9;
      }

      .tesla-secondary-stroke {
        stroke: #97bcf2;
      }

      .tesla-tertiary-stroke {
        stroke: #ffffff;
      }

      .tesla-status-success {
        fill: #25a148;
      }

      .tesla-status-warning {
        fill: #ff832b;
      }

      .tesla-status-error {
        fill: #da1f28;
      }

      .tesla_status_disabled,
      .tesla_status_disabled .tesla-primary-color,
      .tesla_status_disabled .tesla-secondary-color,
      .tesla_status_disabled .tesla-tertiary-color {
        fill: #fafafa !important;
      }

      .tesla_status_disabled .tesla-primary-stroke,
      .tesla_status_disabled .tesla-secondary-stroke,
      .tesla_status_disabled .tesla-tertiary-stroke {
        stroke: #fafafa !important;
      }

      .tesla-status {
        display: none;
      }

    .instrument-plagiarism-1 {
      opacity: 0;
    }

    .instrument-plagiarism-1, .instrument-plagiarism-3, .instrument-plagiarism-4, .instrument-plagiarism-5, .instrument-plagiarism-6 {
      stroke-miterlimit: 10;
    }

    .instrument-plagiarism-3, .instrument-plagiarism-5 {
      fill: none;
    }

    .instrument-plagiarism-3 {
      stroke-width: 10.37px;
    }

    .instrument-plagiarism-4 {
      stroke-width: 15.56px;
    }

    .instrument-plagiarism-5 {
      stroke-width: 17.54px;
    }

    .instrument-plagiarism-6 {
      stroke-linecap: round;
      stroke-width: 16.05px;
    }
    </style>
  </defs>

  <g class="tesla_instrument tesla_instrument_plagiarism">
    <g>
      <rect class="instrument-plagiarism-1 tesla-tertiary-color" x="0.5" y="0.5" width="500" height="500"/>
    </g>
    <path class="instrument-plagiarism-2 tesla-primary-color"
          d="M333,164.36V82.46a42.32,42.32,0,0,0-42.32-42.32H105.06A42.32,42.32,0,0,0,62.74,82.46V372.21a42.31,42.31,0,0,0,42.32,42.31H290.68A42.31,42.31,0,0,0,333,372.21V164.36Z"
          transform="translate(0.5 0.5)"/>
    <line class="instrument-plagiarism-3 tesla-tertiary-stroke" x1="99.92" y1="80.33" x2="298.2" y2="80.33"/>
    <line class="instrument-plagiarism-3 tesla-tertiary-stroke" x1="99.92" y1="120.67" x2="298.2" y2="120.67"/>
    <line class="instrument-plagiarism-3 tesla-tertiary-stroke" x1="99.92" y1="161" x2="298.2" y2="161"/>
    <line class="instrument-plagiarism-3 tesla-tertiary-stroke" x1="99.92" y1="201.34" x2="298.2" y2="201.34"/>
    <line class="instrument-plagiarism-3 tesla-tertiary-stroke" x1="99.92" y1="241.68" x2="298.2" y2="241.68"/>
    <line class="instrument-plagiarism-3 tesla-tertiary-stroke" x1="99.92" y1="282.02" x2="298.2" y2="282.02"/>
    <line class="instrument-plagiarism-3 tesla-tertiary-stroke" x1="99.92" y1="322.36" x2="298.2" y2="322.36"/>
    <line class="instrument-plagiarism-3 tesla-tertiary-stroke" x1="99.92" y1="362.7" x2="298.2" y2="362.7"/>
    <path class="instrument-plagiarism-2 tesla-primary-color"
          d="M342.3,301.09a68,68,0,0,0-7.85-86.64c-.42-.41-.87-.76-1.29-1.16V163.8a109.28,109.28,0,1,0,0,197.44l-.09-34.75,19.49,21.22,18.58-19.07-20.61-18.91Z"
          transform="translate(0.5 0.5)"/>
    <path class="instrument-plagiarism-2 tesla-primary-color"
          d="M454.21,404.59l-74.56-68.18L360.14,356l68.31,74.38a17.29,17.29,0,0,0,24.46,0l1.3-1.3A17.29,17.29,0,0,0,454.21,404.59Z"
          transform="translate(0.5 0.5)"/>
    <circle class="instrument-plagiarism-4 tesla-primary-color tesla-tertiary-stroke" cx="286.93" cy="263.01" r="87.21"/>
    <g>
      <line class="instrument-plagiarism-5 tesla-tertiary-stroke" x1="235.08" y1="226.8" x2="338.78" y2="226.8"/>
      <line class="instrument-plagiarism-5 tesla-tertiary-stroke" x1="235.08" y1="263.02" x2="338.78" y2="263.02"/>
      <line class="instrument-plagiarism-5 tesla-tertiary-stroke" x1="235.08" y1="299.24" x2="338.78" y2="299.24"/>
    </g>
  </g>
  <g class="tesla_group_status">
    <g class="tesla-status tesla_status_warning">
      <path class="instrument-plagiarism-6 tesla-tertiary-stroke tesla-status-warning"
            d="M374.11,429H283c-10.12,0-16.45-11.12-11.39-20l45.57-80.08,45.57-80.07a13.06,13.06,0,0,1,22.78,0l45.56,80.07,45.57,80.08c5.06,8.89-1.26,20-11.39,20Z"
            transform="translate(0.5 0.5)"/>
      <path class="instrument-plagiarism-7 tesla-tertiary-color"
            d="M374,289.85c6.37,0,14.51,1.24,13.39,9.82-1.21,9.91-6.41,45.21-9.26,69.67a3.44,3.44,0,0,1-3.41,3h-1.34a3.42,3.42,0,0,1-3.41-3.05c-2.57-23.3-8-59.11-9.17-70C359.59,291.57,367.24,289.85,374,289.85Zm.18,121.47c-7.21,0-12.57-5.29-12.57-13,0-7.44,5.36-13.1,12.57-13.1,7.39,0,12.75,5.66,12.75,13.1C387,406,381.6,411.32,374.21,411.32Z"
            transform="translate(0.5 0.5)"/>
    </g>
    <g class="tesla-status tesla_status_error">
      <g>
        <circle class="instrument-plagiarism-8 tesla-status-error" cx="374.11" cy="353.55" r="95.67" transform="translate(-139.93 368.59) rotate(-45)"/>
        <path class="instrument-plagiarism-7 tesla-tertiary-color"
              d="M374.11,265.91a87.65,87.65,0,1,1-87.65,87.64,87.74,87.74,0,0,1,87.65-87.64m0-16.06A103.7,103.7,0,1,0,477.8,353.55a103.7,103.7,0,0,0-103.69-103.7Z"
              transform="translate(0.5 0.5)"/>
      </g>
      <polygon class="instrument-plagiarism-7 tesla-tertiary-color"
               points="430.32 316.89 411.76 298.34 374.56 335.54 337.45 298.43 318.89 316.99 356 354.1 318.98 391.12 337.54 409.68 374.56 372.65 411.67 409.77 430.23 391.21 393.12 354.1 430.32 316.89"/>
    </g>
    <g class="tesla-status tesla_status_success">
      <g>
        <circle class="instrument-plagiarism-9 tesla-status-success" cx="374.11" cy="353.55" r="95.67" transform="translate(-139.93 368.59) rotate(-45)"/>
        <path class="instrument-plagiarism-7 tesla-tertiary-color"
              d="M374.11,265.91a87.65,87.65,0,1,1-87.65,87.64,87.74,87.74,0,0,1,87.65-87.64m0-16.06A103.7,103.7,0,1,0,477.8,353.55a103.7,103.7,0,0,0-103.69-103.7Z"
              transform="translate(0.5 0.5)"/>
      </g>
      <path class="instrument-plagiarism-7 tesla-tertiary-color"
            d="M359.77,368.16c1.51-2.15,2.92-4.15,4.34-6.15,8-11.32,16.42-22.35,25.48-32.86,7-8.06,14.12-15.94,21.21-23.88,1.54-1.73,2.66-1.74,4.32-.18l10.68,10c2.62,2.45,2.63,3,.26,5.67-5.26,5.91-10.65,11.7-15.7,17.78-6.48,7.78-12.94,15.59-18.93,23.75C382.81,374,374.63,386.1,366.27,398c-.65.93-1.2,1.93-1.84,2.87-1.38,2-2.8,2.17-4.47.31-3.68-4.07-7.29-8.21-11-12.29a325,325,0,0,0-26.67-26.73c-.36-.31-.71-.63-1-1-1.18-1.21-1.28-2.18-.17-3.5,2.95-3.51,5.95-7,8.94-10.48.55-.65,1.1-1.3,1.67-1.93,1.38-1.53,2.51-1.65,4-.28,4.18,3.79,8.37,7.55,12.42,11.46,3.61,3.49,7,7.15,10.57,10.73C359,367.49,359.28,367.72,359.77,368.16Z"
            transform="translate(0.5 0.5)"/>
    </g>
    <g class="tesla-status tesla_status_info">
      <g>
        <circle class="instrument-plagiarism-2 tesla-primary-color" cx="374.11" cy="353.55" r="95.67" transform="translate(-139.93 368.59) rotate(-45)"/>
        <path class="instrument-plagiarism-7 tesla-tertiary-color"
              d="M374.11,265.91a87.65,87.65,0,1,1-87.65,87.64,87.74,87.74,0,0,1,87.65-87.64m0-16.06A103.7,103.7,0,1,0,477.8,353.55a103.7,103.7,0,0,0-103.69-103.7Z"
              transform="translate(0.5 0.5)"/>
      </g>
      <path class="instrument-plagiarism-7 tesla-tertiary-color"
            d="M348.41,426v-7.11c12.74-1.48,14.16-2.45,14.16-18V356.55c0-14.55-1-15.44-12.46-17.09V332.8a205.91,205.91,0,0,0,37.31-8.33v76.41c0,15.16,1.13,16.56,14.6,18V426Zm25.07-118a14.82,14.82,0,0,1-14.57-14.42A14.6,14.6,0,0,1,373.7,279a14.24,14.24,0,0,1,14.41,14.58A14.54,14.54,0,0,1,373.48,308Z"
            transform="translate(0.5 0.5)"/>
    </g>
    <g class="tesla-status tesla_status_disabled">
      <g>
        <rect class="tesla_status_disabled" x="-99.04" y="239.12" width="698.09" height="21.76" rx="10.87" transform="translate(-103.05 250.51) rotate(-45)"/>
      </g>
    </g>
  </g>
</svg>
