<svg xmlns="http://www.w3.org/2000/svg" viewBox="0 0 501 501">
  <defs>
    <style>
    .instrument-vr-1 {
      opacity: 0;
    }

    .instrument-vr-1, .instrument-vr-5 {
      stroke-miterlimit: 10;
    }

    .instrument-vr-2, .instrument-vr-4 {
      fill: none;
      stroke-linejoin: round;
    }

    .instrument-vr-2 {
      stroke-width: 19.51px;
    }

    .instrument-vr-4, .instrument-vr-5 {
      stroke-linecap: round;
    }

    .instrument-vr-4 {
      stroke-width: 7.83px;
    }

    .instrument-vr-5 {
      stroke-width: 16.05px;
    }
    </style>
  </defs>

  <g class="tesla_instrument tesla_instrument_vr">
    <g>
      <rect class="instrument-vr-1 tesla-tertiary-color" x="0.5" y="0.5" width="500" height="500"/>
    </g>
    <polyline class="instrument-vr-2 tesla-primary-stroke" points="452.74 370.1 452.74 426.96 407.59 426.96"/>
    <polyline class="instrument-vr-2 tesla-primary-stroke" points="237.1 303.17 237.1 246.31 282.26 246.31"/>
    <polyline class="instrument-vr-2 tesla-primary-stroke" points="452.74 303.17 452.74 246.31 407.59 246.31"/>
    <polyline class="instrument-vr-2 tesla-primary-stroke" points="237.1 370.1 237.1 426.96 282.26 426.96"/>
    <path class="instrument-vr-3 tesla-primary-color"
          d="M194,293.1c0-6.35-24.25-26-29.22-32.75-7.25-9.9-10.55-10.4-8.91-53,1.78-45.83-25.26-121-122.21-131.81V435H63.84s1.27-22.12,12.82-33.61c12.74-12.68,16.72-.12,56.46.45,34.27-2.58,17-26.14,17.91-31.9.75-3.2,14.49-7.9,9.9-11.38-8.59-6.5-29.06-26.53-28.63-29.13s37.93,5.88,37.87-.74c0-5-5.21-9.16-4.22-14.61S194.84,309.42,194,293.1Z"
          transform="translate(0.5 0.5)"/>
    <line class="instrument-vr-4 tesla-primary-stroke" x1="250.98" y1="331.98" x2="250.98" y2="348.26"/>
    <line class="instrument-vr-4 tesla-primary-stroke" x1="264.4" y1="325.2" x2="264.4" y2="350.58"/>
    <line class="instrument-vr-4 tesla-primary-stroke" x1="277.82" y1="309.17" x2="277.82" y2="363.12"/>
    <line class="instrument-vr-4 tesla-primary-stroke" x1="291.23" y1="295.17" x2="291.23" y2="380.96"/>
    <line class="instrument-vr-4 tesla-primary-stroke" x1="304.65" y1="277.67" x2="304.65" y2="389.33"/>
    <line class="instrument-vr-4 tesla-primary-stroke" x1="318.07" y1="301.57" x2="318.07" y2="356.67"/>
    <line class="instrument-vr-4 tesla-primary-stroke" x1="331.49" y1="314.77" x2="331.49" y2="346.26"/>
    <line class="instrument-vr-4 tesla-primary-stroke" x1="344.91" y1="287.86" x2="344.91" y2="373.46"/>
    <line class="instrument-vr-4 tesla-primary-stroke" x1="358.33" y1="282.49" x2="358.33" y2="390.42"/>
    <line class="instrument-vr-4 tesla-primary-stroke" x1="371.75" y1="269.59" x2="371.75" y2="399.43"/>
    <line class="instrument-vr-4 tesla-primary-stroke" x1="385.17" y1="282.49" x2="385.17" y2="390.42"/>
    <line class="instrument-vr-4 tesla-primary-stroke" x1="398.59" y1="297.4" x2="398.59" y2="374.09"/>
    <line class="instrument-vr-4 tesla-primary-stroke" x1="412.01" y1="323.04" x2="412.01" y2="358.79"/>
    <line class="instrument-vr-4 tesla-primary-stroke" x1="425.43" y1="331.98" x2="425.43" y2="352.58"/>
    <line class="instrument-vr-4 tesla-primary-stroke" x1="438.85" y1="335.9" x2="438.85" y2="346.26"/>
  </g>
  <g class="tesla_group_status">
    <g class="tesla-status tesla_status_warning">
      <path class="instrument-vr-5 tesla-status-warning tesla-tertiary-stroke"
            d="M374.11,429H283c-10.12,0-16.45-11.12-11.39-20l45.57-80.08,45.57-80.07a13.06,13.06,0,0,1,22.78,0l45.56,80.07,45.57,80.08c5.06,8.89-1.26,20-11.39,20Z"
            transform="translate(0.5 0.5)"/>
      <path class="instrument-vr-6 tesla-tertiary-color"
            d="M374,289.85c6.37,0,14.51,1.24,13.39,9.82-1.21,9.91-6.41,45.21-9.26,69.67a3.44,3.44,0,0,1-3.41,3h-1.34a3.42,3.42,0,0,1-3.41-3.05c-2.57-23.3-8-59.11-9.17-70C359.59,291.57,367.24,289.85,374,289.85Zm.18,121.47c-7.21,0-12.57-5.29-12.57-13,0-7.44,5.36-13.1,12.57-13.1,7.39,0,12.75,5.66,12.75,13.1C387,406,381.6,411.32,374.21,411.32Z"
            transform="translate(0.5 0.5)"/>
    </g>
    <g class="tesla-status tesla_status_error">
      <g>
        <circle class="instrument-vr-7 tesla-status-error" cx="374.11" cy="353.55" r="95.67" transform="translate(-139.93 368.59) rotate(-45)"/>
        <path class="instrument-vr-6 tesla-tertiary-color"
              d="M374.11,265.91a87.65,87.65,0,1,1-87.65,87.64,87.74,87.74,0,0,1,87.65-87.64m0-16.06A103.7,103.7,0,1,0,477.8,353.55a103.7,103.7,0,0,0-103.69-103.7Z"
              transform="translate(0.5 0.5)"/>
      </g>
      <polygon class="instrument-vr-6 tesla-tertiary-color"
               points="430.32 316.89 411.76 298.34 374.56 335.54 337.45 298.43 318.89 316.99 356 354.1 318.98 391.12 337.54 409.68 374.56 372.65 411.67 409.77 430.23 391.21 393.12 354.1 430.32 316.89"/>
    </g>
    <g class="tesla-status tesla_status_success">
      <g>
        <circle class="instrument-vr-8 tesla-status-success" cx="374.11" cy="353.55" r="95.67" transform="translate(-139.93 368.59) rotate(-45)"/>
        <path class="instrument-vr-6 tesla-tertiary-color"
              d="M374.11,265.91a87.65,87.65,0,1,1-87.65,87.64,87.74,87.74,0,0,1,87.65-87.64m0-16.06A103.7,103.7,0,1,0,477.8,353.55a103.7,103.7,0,0,0-103.69-103.7Z"
              transform="translate(0.5 0.5)"/>
      </g>
      <path class="instrument-vr-6 tesla-tertiary-color"
            d="M359.77,368.16c1.51-2.15,2.92-4.15,4.34-6.15,8-11.32,16.42-22.35,25.48-32.86,7-8.06,14.12-15.94,21.21-23.88,1.54-1.73,2.66-1.74,4.32-.18l10.68,10c2.62,2.45,2.63,3,.26,5.67-5.26,5.91-10.65,11.7-15.7,17.78-6.48,7.78-12.94,15.59-18.93,23.75C382.81,374,374.63,386.1,366.27,398c-.65.93-1.2,1.93-1.84,2.87-1.38,2-2.8,2.17-4.47.31-3.68-4.07-7.29-8.21-11-12.29a325,325,0,0,0-26.67-26.73c-.36-.31-.71-.63-1-1-1.18-1.21-1.28-2.18-.17-3.5,2.95-3.51,5.95-7,8.94-10.48.55-.65,1.1-1.3,1.67-1.93,1.38-1.53,2.51-1.65,4-.28,4.18,3.79,8.37,7.55,12.42,11.46,3.61,3.49,7,7.15,10.57,10.73C359,367.49,359.28,367.72,359.77,368.16Z"
            transform="translate(0.5 0.5)"/>
    </g>
    <g class="tesla-status tesla_status_info">
      <g>
        <circle class="instrument-vr-3 tesla-primary-color" cx="374.11" cy="353.55" r="95.67" transform="translate(-139.93 368.59) rotate(-45)"/>
        <path class="instrument-vr-6 tesla-tertiary-color"
              d="M374.11,265.91a87.65,87.65,0,1,1-87.65,87.64,87.74,87.74,0,0,1,87.65-87.64m0-16.06A103.7,103.7,0,1,0,477.8,353.55a103.7,103.7,0,0,0-103.69-103.7Z"
              transform="translate(0.5 0.5)"/>
      </g>
      <path class="instrument-vr-6 tesla-tertiary-color"
            d="M348.41,426v-7.11c12.74-1.48,14.16-2.45,14.16-18V356.55c0-14.55-1-15.44-12.46-17.09V332.8a205.91,205.91,0,0,0,37.31-8.33v76.41c0,15.16,1.13,16.56,14.6,18V426Zm25.07-118a14.82,14.82,0,0,1-14.57-14.42A14.6,14.6,0,0,1,373.7,279a14.24,14.24,0,0,1,14.41,14.58A14.54,14.54,0,0,1,373.48,308Z"
            transform="translate(0.5 0.5)"/>
    </g>
    <g class="tesla-status tesla_status_disabled">
      <g>
        <rect class="tesla_status_disabled" x="-99.04" y="239.12" width="698.09" height="21.76" rx="10.87" transform="translate(-103.05 250.51) rotate(-45)"/>
      </g>
    </g>
  </g>
</svg>
