<svg xmlns="http://www.w3.org/2000/svg" viewBox="0 0 501 501">
  <defs>
    <style>
    .sensor-assessment-1 {
      opacity: 0;
    }

    .sensor-assessment-1, .sensor-assessment-2, .sensor-assessment-6, .sensor-assessment-7 {
      stroke-miterlimit: 10;
    }

    .sensor-assessment-2 {
      stroke-width: 2.1px;
    }

    .sensor-assessment-5 {
      fill: none;
    }

    .sensor-assessment-6 {
      stroke-width: 15.46px;
    }

    .sensor-assessment-7 {
      stroke-linecap: round;
      stroke-width: 16.05px;
    }
    </style>
  </defs>

  <g class="tesla_sensor tesla_sensor_assessment">
    <g>
      <rect class="sensor-assessment-1 tesla-tertiary-color" x="0.5" y="0.5" width="500" height="500"/>
    </g>
    <path class="sensor-assessment-2 tesla-primary-color tesla-primary-stroke"
          d="M123.49,109.59l-13.68,8.34V92a27.7,27.7,0,0,1,27.67-27.66h36.46V78.05H137.48a14,14,0,0,0-14,14Z"
          transform="translate(0.5 0.5)"/>
    <path class="sensor-assessment-3 tesla-primary-color"
          d="M137.48,463.82a28.75,28.75,0,0,1-28.72-28.72V291.86l15.78,9.35V435.1A13,13,0,0,0,137.48,448h250.3a13,13,0,0,0,12.93-12.94V92A13,13,0,0,0,387.78,79.1H350.17V63.32h37.61A28.75,28.75,0,0,1,416.49,92V435.1a28.75,28.75,0,0,1-28.71,28.72Z"
          transform="translate(0.5 0.5)"/>
    <path class="sensor-assessment-3 tesla-primary-color"
          d="M387.78,64.38A27.69,27.69,0,0,1,415.44,92V435.1a27.7,27.7,0,0,1-27.66,27.67H137.48a27.7,27.7,0,0,1-27.67-27.67V293.7l13.68,8.11V435.1a14,14,0,0,0,14,14h250.3a14,14,0,0,0,14-14V92a14,14,0,0,0-14-14H351.22V64.38h36.56m0-2.11H349.11V80.16h38.67A11.89,11.89,0,0,1,399.66,92V435.1A11.9,11.9,0,0,1,387.78,447H137.48a11.91,11.91,0,0,1-11.89-11.89V300.62l-1-.61-13.67-8.12L107.71,290V435.1a29.8,29.8,0,0,0,29.77,29.77h250.3a29.8,29.8,0,0,0,29.76-29.77V92a29.8,29.8,0,0,0-29.76-29.77Z"
          transform="translate(0.5 0.5)"/>
    <path class="sensor-assessment-3 tesla-primary-color"
          d="M321.93,46.19h-19.8c0-17.17-18-31.09-40.12-31.09S221.9,29,221.9,46.19H202.26a11.53,11.53,0,0,0-11.53,11.53v32a2.49,2.49,0,0,0,2.49,2.49H331a2.48,2.48,0,0,0,2.48-2.48v-32A11.53,11.53,0,0,0,321.93,46.19ZM262,22.45a11.43,11.43,0,1,1-11.43,11.43A11.43,11.43,0,0,1,262,22.45Z"
          transform="translate(0.5 0.5)"/>
    <polygon class="sensor-assessment-4 tesla-secondary-color" points="249.23 312.93 192.8 312.93 221.01 302.18 239.31 302.18 249.23 312.93"/>
    <polygon class="sensor-assessment-4 tesla-secondary-color" points="345.5 312.93 311.45 312.93 298.65 302.18 345.5 302.18 345.5 312.93"/>
    <polygon class="sensor-assessment-4 tesla-secondary-color" points="264.54 330.42 192.8 330.42 192.8 319.67 254.79 319.67 264.54 330.42"/>
    <polygon class="sensor-assessment-4 tesla-secondary-color" points="382.11 330.42 328.18 330.42 317.29 319.67 382.11 319.67 382.11 330.42"/>
    <rect class="sensor-assessment-4 tesla-secondary-color" x="192.8" y="387.31" width="152.7" height="10.75"/>
    <rect class="sensor-assessment-4 tesla-secondary-color" x="192.8" y="404.81" width="189.31" height="10.75"/>
    <polygon class="sensor-assessment-4 tesla-secondary-color"
             points="166.87 386.61 149.43 386.61 149.44 387.82 145.23 392.25 145.24 382.38 170.58 382.38 166.87 386.61"/>
    <polygon class="sensor-assessment-4 tesla-secondary-color"
             points="177.79 395.21 177.79 414.94 149.43 414.92 149.44 405.67 145.24 401.49 145.24 419.13 182.02 419.13 182.02 390.03 177.79 395.21"/>
    <path class="sensor-assessment-3 tesla-primary-color"
          d="M159.07,400l1.71-2.42c3.16-4.45,6.46-8.79,10-12.93,2.73-3.17,5.56-6.27,8.35-9.4.61-.68,1-.68,1.7-.07l4.2,3.94c1,1,1,1.18.1,2.23-2.06,2.32-4.19,4.6-6.18,7-2.54,3.07-5.09,6.14-7.45,9.35-3.39,4.62-6.61,9.37-9.9,14.07-.26.36-.47.76-.72,1.13-.55.8-1.1.85-1.76.12-1.45-1.6-2.87-3.23-4.32-4.84a128.68,128.68,0,0,0-10.5-10.52,4.86,4.86,0,0,1-.41-.38.86.86,0,0,1-.06-1.37c1.16-1.38,2.34-2.75,3.51-4.13L148,391c.55-.6,1-.65,1.59-.11,1.64,1.49,3.29,3,4.88,4.52,1.43,1.37,2.78,2.81,4.16,4.22Z"
          transform="translate(0.5 0.5)"/>
    <path class="sensor-assessment-5" d="M159.07,314.83l1.66-2.35q-2.26-.23-4.53-.54l2.46,2.52Z" transform="translate(0.5 0.5)"/>
    <path class="sensor-assessment-4 tesla-secondary-color" d="M345,142.16V131.41H248.41a105.65,105.65,0,0,1,9.1,10.75Z" transform="translate(0.5 0.5)"/>
    <path class="sensor-assessment-4 tesla-secondary-color" d="M381.61,148.9H262.11a106.21,106.21,0,0,1,5.9,10.75h113.6Z" transform="translate(0.5 0.5)"/>
    <path class="sensor-assessment-4 tesla-secondary-color" d="M345.46,227.29V216.54H277.87a106.05,106.05,0,0,1-1.63,10.75Z"
          transform="translate(0.5 0.5)"/>
    <path class="sensor-assessment-4 tesla-secondary-color" d="M381.61,244.79V234h-107a106.43,106.43,0,0,1-3.55,10.75Z" transform="translate(0.5 0.5)"/>
    <path class="sensor-assessment-4 tesla-secondary-color" d="M177.29,329.3l-28.36,0V320l-4.2-4.18v17.63h36.78v-21c-1.41.13-2.82.23-4.23.31Z"
          transform="translate(0.5 0.5)"/>
    <path class="sensor-assessment-3 tesla-primary-color"
          d="M159.07,314.83l-.41-.37-2.46-2.52a107.43,107.43,0,0,1-11.46-2.26l-.88,1a.87.87,0,0,0,.06,1.38l.41.38A125.58,125.58,0,0,1,154.83,323c1.45,1.6,2.87,3.23,4.32,4.84.66.73,1.21.68,1.76-.13.25-.37.46-.76.72-1.13,3.18-4.53,6.3-9.12,9.56-13.59q-5.24,0-10.46-.51Z"
          transform="translate(0.5 0.5)"/>
    <path class="sensor-assessment-3 tesla-primary-color"
          d="M337.91,347l-74.09-67.74-19.38,19.43,67.87,73.9a17.2,17.2,0,0,0,24.31,0l1.29-1.29A17.18,17.18,0,0,0,337.91,347Z"
          transform="translate(0.5 0.5)"/>
    <circle class="sensor-assessment-6 tesla-tertiary-color tesla-primary-stroke" cx="171.71" cy="206.28" r="86.65"/>
    <polygon class="sensor-assessment-4 tesla-secondary-color"
             points="171.23 175.66 127.31 175.66 127.35 178.72 116.74 189.87 116.75 165.01 180.58 165.01 171.23 175.66"/>
    <polygon class="sensor-assessment-4 tesla-secondary-color"
             points="198.73 197.32 198.73 247.01 127.32 246.96 127.34 223.67 116.75 213.15 116.75 257.56 209.38 257.56 209.38 184.29 198.73 197.32"/>
    <path class="sensor-assessment-3 tesla-primary-color"
          d="M152.35,210.05c1.51-2.12,2.9-4.1,4.31-6.08,7.94-11.22,16.27-22.16,25.25-32.57,6.89-8,14-15.8,21-23.68,1.53-1.71,2.63-1.72,4.28-.17l10.59,9.91c2.59,2.43,2.6,3,.25,5.62-5.21,5.86-10.55,11.6-15.56,17.62-6.42,7.71-12.83,15.46-18.76,23.54-8.54,11.64-16.66,23.6-24.94,35.42-.65.92-1.19,1.91-1.82,2.85-1.37,2-2.77,2.15-4.44.31-3.64-4-7.22-8.15-10.87-12.19a322.27,322.27,0,0,0-26.43-26.49c-.36-.31-.71-.62-1-.95-1.17-1.2-1.27-2.17-.17-3.47,2.93-3.48,5.9-6.93,8.86-10.39.55-.64,1.09-1.28,1.66-1.91,1.37-1.51,2.48-1.64,4-.27,4.13,3.75,8.28,7.48,12.3,11.35,3.58,3.46,7,7.09,10.48,10.63C151.58,209.39,151.87,209.63,152.35,210.05Z"
          transform="translate(0.5 0.5)"/>
  </g>
  <g class="tesla_group_status">
    <g class="tesla-status tesla_status_warning">
      <path class="sensor-assessment-7 tesla-status-warning tesla-tertiary-stroke"
            d="M374.11,459H283c-10.12,0-16.45-11.12-11.39-20l45.57-80.08,45.57-80.07a13.06,13.06,0,0,1,22.78,0l45.56,80.07,45.57,80.08c5.06,8.89-1.26,20-11.39,20Z"
            transform="translate(0.5 0.5)"/>
      <path class="sensor-assessment-8 tesla-tertiary-color"
            d="M374,319.85c6.37,0,14.51,1.24,13.39,9.82-1.21,9.91-6.41,45.21-9.26,69.67a3.44,3.44,0,0,1-3.41,3h-1.34a3.42,3.42,0,0,1-3.41-3.05c-2.57-23.3-8-59.11-9.17-70C359.59,321.57,367.24,319.85,374,319.85Zm.18,121.47c-7.21,0-12.57-5.29-12.57-13,0-7.44,5.36-13.1,12.57-13.1,7.39,0,12.75,5.66,12.75,13.1C387,436,381.6,441.32,374.21,441.32Z"
            transform="translate(0.5 0.5)"/>
    </g>
    <g class="tesla-status tesla_status_error">
      <g>
        <circle class="sensor-assessment-9 tesla-status-error" cx="374.11" cy="383.55" r="95.67" transform="translate(-161.14 377.37) rotate(-45)"/>
        <path class="sensor-assessment-8 tesla-tertiary-color"
              d="M374.11,295.91a87.65,87.65,0,1,1-87.65,87.64,87.74,87.74,0,0,1,87.65-87.64m0-16.06A103.7,103.7,0,1,0,477.8,383.55a103.7,103.7,0,0,0-103.69-103.7Z"
              transform="translate(0.5 0.5)"/>
      </g>
      <polygon class="sensor-assessment-8 tesla-tertiary-color"
               points="430.32 346.89 411.76 328.34 374.56 365.54 337.45 328.43 318.89 346.99 356 384.1 318.98 421.12 337.54 439.68 374.56 402.65 411.67 439.77 430.23 421.21 393.12 384.1 430.32 346.89"/>
    </g>
    <g class="tesla-status tesla_status_success">
      <g>
        <circle class="sensor-assessment-10 tesla-status-success" cx="374.11" cy="383.55" r="95.67" transform="translate(-161.14 377.37) rotate(-45)"/>
        <path class="sensor-assessment-8 tesla-tertiary-color"
              d="M374.11,295.91a87.65,87.65,0,1,1-87.65,87.64,87.74,87.74,0,0,1,87.65-87.64m0-16.06A103.7,103.7,0,1,0,477.8,383.55a103.7,103.7,0,0,0-103.69-103.7Z"
              transform="translate(0.5 0.5)"/>
      </g>
      <path class="sensor-assessment-8 tesla-tertiary-color"
            d="M359.77,398.16c1.51-2.15,2.92-4.15,4.34-6.15,8-11.32,16.42-22.35,25.48-32.86,7-8.06,14.12-15.94,21.21-23.88,1.54-1.73,2.66-1.74,4.32-.18l10.68,10c2.62,2.45,2.63,3,.26,5.67-5.26,5.91-10.65,11.7-15.7,17.78-6.48,7.78-12.94,15.59-18.93,23.75C382.81,404,374.63,416.1,366.27,428c-.65.93-1.2,1.93-1.84,2.87-1.38,2-2.8,2.17-4.47.31-3.68-4.07-7.29-8.21-11-12.29a325,325,0,0,0-26.67-26.73c-.36-.31-.71-.63-1-1-1.18-1.21-1.28-2.18-.17-3.5,2.95-3.51,5.95-7,8.94-10.48.55-.65,1.1-1.3,1.67-1.93,1.38-1.53,2.51-1.65,4-.28,4.18,3.79,8.37,7.55,12.42,11.46,3.61,3.49,7,7.15,10.57,10.73C359,397.49,359.28,397.72,359.77,398.16Z"
            transform="translate(0.5 0.5)"/>
    </g>
    <g class="tesla-status tesla_status_info">
      <g>
        <circle class="sensor-assessment-3 tesla-primary-color" cx="374.11" cy="383.55" r="95.67" transform="translate(-161.14 377.37) rotate(-45)"/>
        <path class="sensor-assessment-8 tesla-tertiary-color"
              d="M374.11,295.91a87.65,87.65,0,1,1-87.65,87.64,87.74,87.74,0,0,1,87.65-87.64m0-16.06A103.7,103.7,0,1,0,477.8,383.55a103.7,103.7,0,0,0-103.69-103.7Z"
              transform="translate(0.5 0.5)"/>
      </g>
      <path class="sensor-assessment-8 tesla-tertiary-color"
            d="M348.41,456v-7.11c12.74-1.48,14.16-2.45,14.16-18V386.55c0-14.55-1-15.44-12.46-17.09V362.8a205.91,205.91,0,0,0,37.31-8.33v76.41c0,15.16,1.13,16.56,14.6,18V456Zm25.07-118a14.82,14.82,0,0,1-14.57-14.42A14.6,14.6,0,0,1,373.7,309a14.24,14.24,0,0,1,14.41,14.58A14.54,14.54,0,0,1,373.48,338Z"
            transform="translate(0.5 0.5)"/>
    </g>
    <g class="tesla-status tesla_status_disabled">
      <g>
        <rect class="tesla_status_disabled" x="-99.04" y="239.12" width="698.09" height="21.76" rx="10.87" transform="translate(-103.05 250.51) rotate(-45)"/>
      </g>
    </g>
  </g>
</svg>
