<svg xmlns="http://www.w3.org/2000/svg" viewBox="0 0 501 501">
  <defs>
    <style>
    .sensor-keyboard-1 {
      opacity: 0;
    }

    .sensor-keyboard-1, .sensor-keyboard-4 {
      stroke-miterlimit: 10;
    }

    .sensor-keyboard-4 {
      stroke-linecap: round;
      stroke-width: 16.05px;
    }
    </style>
  </defs>
  <g class="tesla_sensor tesla_sensor_keyboard">
    <g>
      <rect class="sensor-keyboard-1 tesla-tertiary-color" x="0.5" y="0.5" width="500" height="500"/>
    </g>

    <rect class="sensor-keyboard-2 tesla-primary-color" x="13.36" y="143.14" width="474.28" height="171.7"/>
    <rect class="sensor-keyboard-3 tesla-secondary-color" x="31.04" y="217.25" width="48.25" height="23.48" rx="3.59"/>
    <rect class="sensor-keyboard-3 tesla-secondary-color" x="113.14" y="217.25" width="23.48" height="23.48" rx="3.57"/>
    <rect class="sensor-keyboard-3 tesla-secondary-color" x="84.19" y="217.25" width="23.48" height="23.48" rx="3.57"/>
    <rect class="sensor-keyboard-3 tesla-secondary-color" x="132.65" y="249.58" width="23.48" height="23.48" rx="3.57"/>
    <rect class="sensor-keyboard-3 tesla-secondary-color" x="161.63" y="249.58" width="23.48" height="23.48" rx="3.57"/>
    <rect class="sensor-keyboard-3 tesla-secondary-color" x="190.6" y="249.58" width="23.48" height="23.48" rx="3.57"/>
    <rect class="sensor-keyboard-3 tesla-secondary-color" x="219.58" y="249.58" width="23.48" height="23.48" rx="3.57"/>
    <rect class="sensor-keyboard-3 tesla-secondary-color" x="248.55" y="249.58" width="23.48" height="23.48" rx="3.57"/>
    <rect class="sensor-keyboard-3 tesla-secondary-color" x="277.53" y="249.58" width="23.48" height="23.48" rx="3.57"/>
    <rect class="sensor-keyboard-3 tesla-secondary-color" x="306.5" y="249.58" width="23.48" height="23.48" rx="3.57"/>
    <rect class="sensor-keyboard-3 tesla-secondary-color" x="335.47" y="249.58" width="23.48" height="23.48" rx="3.57"/>
    <rect class="sensor-keyboard-3 tesla-secondary-color" x="364.45" y="249.58" width="23.48" height="23.48" rx="3.57"/>
    <rect class="sensor-keyboard-3 tesla-secondary-color" x="393.42" y="249.58" width="23.48" height="23.48" rx="3.57"/>
    <rect class="sensor-keyboard-3 tesla-secondary-color" x="103.68" y="249.58" width="23.48" height="23.48" rx="3.57"/>
    <rect class="sensor-keyboard-3 tesla-secondary-color" x="31.04" y="249.58" width="67.31" height="23.48" rx="3.58"/>
    <rect class="sensor-keyboard-3 tesla-secondary-color" x="423.59" y="249.58" width="46.37" height="23.48" rx="3.58"/>
    <rect class="sensor-keyboard-3 tesla-secondary-color" x="141.91" y="217.25" width="23.48" height="23.48" rx="3.57"/>
    <rect class="sensor-keyboard-3 tesla-secondary-color" x="170.67" y="217.25" width="23.48" height="23.48" rx="3.57"/>
    <rect class="sensor-keyboard-3 tesla-secondary-color" x="199.44" y="217.25" width="23.48" height="23.48" rx="3.57"/>
    <rect class="sensor-keyboard-3 tesla-secondary-color" x="228.2" y="217.25" width="23.48" height="23.48" rx="3.57"/>
    <rect class="sensor-keyboard-3 tesla-secondary-color" x="256.96" y="217.25" width="23.48" height="23.48" rx="3.57"/>
    <rect class="sensor-keyboard-3 tesla-secondary-color" x="285.73" y="217.25" width="23.48" height="23.48" rx="3.57"/>
    <rect class="sensor-keyboard-3 tesla-secondary-color" x="314.49" y="217.25" width="23.48" height="23.48" rx="3.57"/>
    <rect class="sensor-keyboard-3 tesla-secondary-color" x="343.26" y="217.25" width="23.48" height="23.48" rx="3.57"/>
    <rect class="sensor-keyboard-3 tesla-secondary-color" x="372.02" y="217.25" width="23.48" height="23.48" rx="3.57"/>
    <rect class="sensor-keyboard-3 tesla-secondary-color" x="400.79" y="217.25" width="23.48" height="23.48" rx="3.57"/>
    <rect class="sensor-keyboard-3 tesla-secondary-color" x="60.71" y="152.59" width="23.48" height="23.48" rx="3.57"/>
    <rect class="sensor-keyboard-3 tesla-secondary-color" x="31.04" y="152.59" width="23.48" height="23.48" rx="3.57"/>
    <rect class="sensor-keyboard-3 tesla-secondary-color" x="90.39" y="152.59" width="23.48" height="23.48" rx="3.57"/>
    <rect class="sensor-keyboard-3 tesla-secondary-color" x="120.06" y="152.59" width="23.48" height="23.48" rx="3.57"/>
    <rect class="sensor-keyboard-3 tesla-secondary-color" x="149.73" y="152.59" width="23.48" height="23.48" rx="3.57"/>
    <rect class="sensor-keyboard-3 tesla-secondary-color" x="179.41" y="152.59" width="23.48" height="23.48" rx="3.57"/>
    <rect class="sensor-keyboard-3 tesla-secondary-color" x="209.08" y="152.59" width="23.48" height="23.48" rx="3.57"/>
    <rect class="sensor-keyboard-3 tesla-secondary-color" x="238.76" y="152.59" width="23.48" height="23.48" rx="3.57"/>
    <rect class="sensor-keyboard-3 tesla-secondary-color" x="268.43" y="152.59" width="23.48" height="23.48" rx="3.57"/>
    <rect class="sensor-keyboard-3 tesla-secondary-color" x="298.11" y="152.59" width="23.48" height="23.48" rx="3.57"/>
    <rect class="sensor-keyboard-3 tesla-secondary-color" x="327.78" y="152.59" width="23.48" height="23.48" rx="3.57"/>
    <rect class="sensor-keyboard-3 tesla-secondary-color" x="357.46" y="152.59" width="23.48" height="23.48" rx="3.57"/>
    <rect class="sensor-keyboard-3 tesla-secondary-color" x="387.13" y="152.59" width="23.48" height="23.48" rx="3.57"/>
    <rect class="sensor-keyboard-3 tesla-secondary-color" x="416.81" y="152.59" width="23.48" height="23.48" rx="3.57"/>
    <rect class="sensor-keyboard-3 tesla-secondary-color" x="446.48" y="152.59" width="23.48" height="23.48" rx="3.57"/>
    <rect class="sensor-keyboard-3 tesla-secondary-color" x="60.71" y="281.91" width="23.48" height="23.48" rx="3.57"/>
    <rect class="sensor-keyboard-3 tesla-secondary-color" x="31.04" y="281.91" width="23.48" height="23.48" rx="3.57"/>
    <rect class="sensor-keyboard-3 tesla-secondary-color" x="90.39" y="281.91" width="23.48" height="23.48" rx="3.57"/>
    <rect class="sensor-keyboard-3 tesla-secondary-color" x="387.13" y="281.91" width="23.48" height="23.48" rx="3.57"/>
    <rect class="sensor-keyboard-3 tesla-secondary-color" x="120.91" y="281.91" width="259.78" height="23.48" rx="3.58"/>
    <rect class="sensor-keyboard-3 tesla-secondary-color" x="416.81" y="281.91" width="23.48" height="23.48" rx="3.57"/>
    <rect class="sensor-keyboard-3 tesla-secondary-color" x="446.48" y="281.91" width="23.48" height="23.48" rx="3.57"/>
    <rect class="sensor-keyboard-3 tesla-secondary-color" x="74.86" y="184.92" width="23.48" height="23.48" rx="3.58"/>
    <rect class="sensor-keyboard-3 tesla-secondary-color" x="31.04" y="184.92" width="38.06" height="23.48" rx="3.58"/>
    <rect class="sensor-keyboard-3 tesla-secondary-color" x="103.68" y="184.92" width="23.48" height="23.48" rx="3.57"/>
    <rect class="sensor-keyboard-3 tesla-secondary-color" x="132.5" y="184.92" width="23.48" height="23.48" rx="3.57"/>
    <rect class="sensor-keyboard-3 tesla-secondary-color" x="161.32" y="184.92" width="23.48" height="23.48" rx="3.57"/>
    <rect class="sensor-keyboard-3 tesla-secondary-color" x="190.13" y="184.92" width="23.48" height="23.48" rx="3.57"/>
    <rect class="sensor-keyboard-3 tesla-secondary-color" x="218.95" y="184.92" width="23.48" height="23.48" rx="3.57"/>
    <rect class="sensor-keyboard-3 tesla-secondary-color" x="247.77" y="184.92" width="23.48" height="23.48" rx="3.57"/>
    <rect class="sensor-keyboard-3 tesla-secondary-color" x="276.59" y="184.92" width="23.48" height="23.48" rx="3.57"/>
    <rect class="sensor-keyboard-3 tesla-secondary-color" x="305.41" y="184.92" width="23.48" height="23.48" rx="3.57"/>
    <rect class="sensor-keyboard-3 tesla-secondary-color" x="334.22" y="184.92" width="23.48" height="23.48" rx="3.57"/>
    <rect class="sensor-keyboard-3 tesla-secondary-color" x="363.04" y="184.92" width="23.48" height="23.48" rx="3.57"/>
    <rect class="sensor-keyboard-3 tesla-secondary-color" x="391.86" y="184.92" width="23.48" height="23.48" rx="3.57"/>
    <path class="sensor-keyboard-3 tesla-secondary-color"
          d="M463,235.67H437.67c-3.83,0-6.94-2.72-6.94-6.07V209.15c0-1.25-.49-1.25-1.52-1.25h-2.82c-3.76,0-3.76-3.37-3.76-4.55V190.49c0-3.35,3.11-6.07,6.94-6.07H463c3.83,0,6.94,2.72,6.94,6.07V229.6C469.93,233,466.82,235.67,463,235.67Z"
          transform="translate(0.5 0.5)"/>
  </g>
  <g class="tesla_group_status">
    <g class="tesla-status tesla_status_warning">
      <path class="sensor-keyboard-4 tesla-status-warning tesla-tertiary-stroke"
            d="M374.11,429H283c-10.12,0-16.45-11.12-11.39-20l45.57-80.08,45.57-80.07a13.06,13.06,0,0,1,22.78,0l45.56,80.07,45.57,80.08c5.06,8.89-1.26,20-11.39,20Z"
            transform="translate(0.5 0.5)"/>
      <path class="sensor-keyboard-5 tesla-tertiary-color"
            d="M374,289.85c6.37,0,14.51,1.24,13.39,9.82-1.21,9.91-6.41,45.21-9.26,69.67a3.44,3.44,0,0,1-3.41,3h-1.34a3.42,3.42,0,0,1-3.41-3.05c-2.57-23.3-8-59.11-9.17-70C359.59,291.57,367.24,289.85,374,289.85Zm.18,121.47c-7.21,0-12.57-5.29-12.57-13,0-7.44,5.36-13.1,12.57-13.1,7.39,0,12.75,5.66,12.75,13.1C387,406,381.6,411.32,374.21,411.32Z"
            transform="translate(0.5 0.5)"/>
    </g>
    <g class="tesla-status tesla_status_error">
      <g>
        <circle class="sensor-keyboard-6 tesla-status-error" cx="374.11" cy="353.55" r="95.67" transform="translate(-139.93 368.59) rotate(-45)"/>
        <path class="sensor-keyboard-5 tesla-tertiary-color"
              d="M374.11,265.91a87.65,87.65,0,1,1-87.65,87.64,87.74,87.74,0,0,1,87.65-87.64m0-16.06A103.7,103.7,0,1,0,477.8,353.55a103.7,103.7,0,0,0-103.69-103.7Z"
              transform="translate(0.5 0.5)"/>
      </g>
      <polygon class="sensor-keyboard-5 tesla-tertiary-color"
               points="430.32 316.89 411.76 298.34 374.56 335.54 337.45 298.43 318.89 316.99 356 354.1 318.98 391.12 337.54 409.68 374.56 372.65 411.67 409.77 430.23 391.21 393.12 354.1 430.32 316.89"/>
    </g>
    <g class="tesla-status tesla_status_success">
      <g>
        <circle class="sensor-keyboard-7 tesla-status-success" cx="374.11" cy="353.55" r="95.67" transform="translate(-139.93 368.59) rotate(-45)"/>
        <path class="sensor-keyboard-5 tesla-tertiary-color"
              d="M374.11,265.91a87.65,87.65,0,1,1-87.65,87.64,87.74,87.74,0,0,1,87.65-87.64m0-16.06A103.7,103.7,0,1,0,477.8,353.55a103.7,103.7,0,0,0-103.69-103.7Z"
              transform="translate(0.5 0.5)"/>
      </g>
      <path class="sensor-keyboard-5 tesla-tertiary-color"
            d="M359.77,368.16c1.51-2.15,2.92-4.15,4.34-6.15,8-11.32,16.42-22.35,25.48-32.86,7-8.06,14.12-15.94,21.21-23.88,1.54-1.73,2.66-1.74,4.32-.18l10.68,10c2.62,2.45,2.63,3,.26,5.67-5.26,5.91-10.65,11.7-15.7,17.78-6.48,7.78-12.94,15.59-18.93,23.75C382.81,374,374.63,386.1,366.27,398c-.65.93-1.2,1.93-1.84,2.87-1.38,2-2.8,2.17-4.47.31-3.68-4.07-7.29-8.21-11-12.29a325,325,0,0,0-26.67-26.73c-.36-.31-.71-.63-1-1-1.18-1.21-1.28-2.18-.17-3.5,2.95-3.51,5.95-7,8.94-10.48.55-.65,1.1-1.3,1.67-1.93,1.38-1.53,2.51-1.65,4-.28,4.18,3.79,8.37,7.55,12.42,11.46,3.61,3.49,7,7.15,10.57,10.73C359,367.49,359.28,367.72,359.77,368.16Z"
            transform="translate(0.5 0.5)"/>
    </g>
    <g class="tesla-status tesla_status_info">
      <g>
        <circle class="sensor-keyboard-2 tesla-primary-color" cx="374.11" cy="353.55" r="95.67" transform="translate(-139.93 368.59) rotate(-45)"/>
        <path class="sensor-keyboard-5 tesla-tertiary-color"
              d="M374.11,265.91a87.65,87.65,0,1,1-87.65,87.64,87.74,87.74,0,0,1,87.65-87.64m0-16.06A103.7,103.7,0,1,0,477.8,353.55a103.7,103.7,0,0,0-103.69-103.7Z"
              transform="translate(0.5 0.5)"/>
      </g>
      <path class="sensor-keyboard-5 tesla-tertiary-color"
            d="M348.41,426v-7.11c12.74-1.48,14.16-2.45,14.16-18V356.55c0-14.55-1-15.44-12.46-17.09V332.8a205.91,205.91,0,0,0,37.31-8.33v76.41c0,15.16,1.13,16.56,14.6,18V426Zm25.07-118a14.82,14.82,0,0,1-14.57-14.42A14.6,14.6,0,0,1,373.7,279a14.24,14.24,0,0,1,14.41,14.58A14.54,14.54,0,0,1,373.48,308Z"
            transform="translate(0.5 0.5)"/>
    </g>
    <g class="tesla-status tesla_status_disabled">
      <g>
        <rect class="tesla_status_disabled" x="-99.04" y="239.12" width="698.09" height="21.76" rx="10.87" transform="translate(-103.05 250.51) rotate(-45)"/>
      </g>
    </g>
  </g>
</svg>
