<svg xmlns="http://www.w3.org/2000/svg" viewBox="0 0 458.01 465.82">
  <defs>
    <style>
      .sensor-dashboard-cls-1 {
        isolation: isolate;
      }

      .sensor-dashboard-cls-3 {
        stroke: #5290e9;
        stroke-width: 8.09px;
        mix-blend-mode: overlay;
      }

      .sensor-dashboard-cls-3, .sensor-dashboard-cls-4, .sensor-dashboard-cls-8 {
        stroke-miterlimit: 10;
      }


      .sensor-dashboard-cls-4, .sensor-dashboard-cls-8 {
        stroke: #fff;
        stroke-linecap: round;
        stroke-width: 16.05px;
      }

    </style>
  </defs>
  <g class="tesla_sensor tesla_sensor_dashboard">
    <g class="sensor-dashboard-cls-1">
      <path class="sensor-dashboard-cls-2 tesla-primary-color"
            d="M250,47.66c111.75,0,202.34,90.59,202.34,202.34S361.75,452.34,250,452.34,47.66,361.75,47.66,250,138.25,47.66,250,47.66m0-19.23a221.63,221.63,0,0,0-86.25,425.72,221.62,221.62,0,0,0,172.5-408.3A220.2,220.2,0,0,0,250,28.43Z"
            transform="translate(-28.43 -28.43)"/>
      <polygon class="sensor-dashboard-cls-3 tesla-primary-color"
               points="255.46 199.21 369.64 220.47 306.98 120.45 255.46 199.21"/>
      <polygon class="sensor-dashboard-cls-3 tesla-primary-color"
               points="271.16 255.23 199.16 311.66 279.61 354.2 295.58 302.42 271.16 255.23"/>
      <polygon class="sensor-dashboard-cls-3 tesla-primary-color"
               points="131.63 170.46 195.07 135.28 122.44 105.88 131.63 170.46"/>
      <polygon class="sensor-dashboard-cls-3 tesla-primary-color"
               points="87.98 281.45 184.98 248.73 120.96 221.14 87.98 281.45"/>
    </g>
  </g>
  <g class="tesla_group_status">
    <g class="tesla-status tesla_status_warning">
      <path class="sensor-dashboard-cls-4 tesla-status-warning"
            d="M374.11,466H283c-10.12,0-16.45-11.12-11.39-20l45.57-80.08,45.57-80.07a13.06,13.06,0,0,1,22.78,0l45.56,80.07,45.57,80.08c5.06,8.89-1.26,20-11.39,20Z"
            transform="translate(-28.43 -28.43)"/>
      <path data-name="!" class="sensor-dashboard-cls-5 tesla-tertiary-color"
            d="M374,326.85c6.37,0,14.51,1.24,13.39,9.82-1.21,9.91-6.41,45.21-9.26,69.67a3.44,3.44,0,0,1-3.41,3h-1.34a3.42,3.42,0,0,1-3.41-3.05c-2.57-23.3-8-59.11-9.17-70C359.59,328.57,367.24,326.85,374,326.85Zm.18,121.47c-7.21,0-12.57-5.29-12.57-13,0-7.44,5.36-13.1,12.57-13.1,7.39,0,12.75,5.66,12.75,13.1C387,443,381.6,448.32,374.21,448.32Z"
            transform="translate(-28.43 -28.43)"/>
    </g>
    <g class="tesla-status tesla_status_error">
      <circle class="sensor-dashboard-cls-6 tesla-status-error" cx="374.11" cy="390.55" r="95.67"
              transform="translate(-195.02 350.49) rotate(-45)"/>
      <path class="sensor-dashboard-cls-5 tesla-tertiary-color"
            d="M374.11,302.91a87.65,87.65,0,1,1-87.65,87.64,87.74,87.74,0,0,1,87.65-87.64m0-16.06A103.7,103.7,0,1,0,477.8,390.55a103.7,103.7,0,0,0-103.69-103.7Z"
            transform="translate(-28.43 -28.43)"/>
      <polygon class="sensor-dashboard-cls-5 tesla-tertiary-color"
               points="401.39 324.96 382.84 306.41 345.63 343.61 308.52 306.5 289.96 325.06 327.07 362.17 290.06 399.19 308.61 417.75 345.63 380.73 382.74 417.84 401.3 399.28 364.19 362.17 401.39 324.96"/>
    </g>
    <g class="tesla-status tesla_status_success">
      <circle class="sensor-dashboard-cls-7 tesla-status-success" cx="374.11" cy="390.55" r="95.67"
              transform="translate(-195.02 350.49) rotate(-45)"/>
      <path class="sensor-dashboard-cls-5 tesla-tertiary-color"
            d="M374.11,302.91a87.65,87.65,0,1,1-87.65,87.64,87.74,87.74,0,0,1,87.65-87.64m0-16.06A103.7,103.7,0,1,0,477.8,390.55a103.7,103.7,0,0,0-103.69-103.7Z"
            transform="translate(-28.43 -28.43)"/>
      <path class="sensor-dashboard-cls-5 tesla-tertiary-color"
            d="M359.77,405.16c1.51-2.15,2.92-4.15,4.34-6.15,8-11.32,16.42-22.35,25.48-32.86,7-8.06,14.12-15.94,21.21-23.88,1.54-1.73,2.66-1.74,4.32-.18l10.68,10c2.62,2.45,2.63,3,.26,5.67-5.26,5.91-10.65,11.7-15.7,17.78-6.48,7.78-12.94,15.59-18.93,23.75C382.81,411,374.63,423.1,366.27,435c-.65.93-1.2,1.93-1.84,2.87-1.38,2-2.8,2.17-4.47.31-3.68-4.07-7.29-8.21-11-12.29a325,325,0,0,0-26.67-26.73c-.36-.31-.71-.63-1-1-1.18-1.21-1.28-2.18-.17-3.5,2.95-3.51,5.95-7,8.94-10.48.55-.65,1.1-1.3,1.67-1.93,1.38-1.53,2.51-1.65,4-.28,4.18,3.79,8.37,7.55,12.42,11.46,3.61,3.49,7,7.15,10.57,10.73C359,404.49,359.28,404.72,359.77,405.16Z"
            transform="translate(-28.43 -28.43)"/>
    </g>
    <g class="tesla-status tesla_status_info">
      <circle class="sensor-dashboard-cls-2 tesla-primary-color" cx="374.11" cy="390.55" r="95.67"
              transform="translate(-195.02 350.49) rotate(-45)"/>
      <path class="sensor-dashboard-cls-5 tesla-tertiary-color"
            d="M374.11,302.91a87.65,87.65,0,1,1-87.65,87.64,87.74,87.74,0,0,1,87.65-87.64m0-16.06A103.7,103.7,0,1,0,477.8,390.55a103.7,103.7,0,0,0-103.69-103.7Z"
            transform="translate(-28.43 -28.43)"/>
      <path class="sensor-dashboard-cls-5 tesla-tertiary-color"
            d="M348.41,463v-7.11c12.74-1.48,14.16-2.45,14.16-18V393.55c0-14.55-1-15.44-12.46-17.09V369.8a205.91,205.91,0,0,0,37.31-8.33v76.41c0,15.16,1.13,16.56,14.6,18V463Zm25.07-118a14.82,14.82,0,0,1-14.57-14.42A14.6,14.6,0,0,1,373.7,316a14.24,14.24,0,0,1,14.41,14.58A14.54,14.54,0,0,1,373.48,345Z"
            transform="translate(-28.43 -28.43)"/>
    </g>
  </g>
</svg>



