<svg xmlns="http://www.w3.org/2000/svg" viewBox="0 0 474.28 314.61">
  <defs>
    <style>
      .sensor-keyboard-cls-3, .sensor-keyboard-cls-7 {
        stroke: #fff;
        stroke-linecap: round;
        stroke-miterlimit: 10;
        stroke-width: 16.05px;
      }

    </style>
  </defs>
  <g class="tesla_sensor tesla_sensor_keyboard">
    <rect class="tesla-primary-color sensor-keyboard-cls-1" width="474.28" height="171.7"/>
    <rect class="tesla-secondary-color sensor-keyboard-cls-2" x="17.67" y="74.11" width="48.25" height="23.48" rx="3.59"/>
    <rect class="tesla-secondary-color sensor-keyboard-cls-2" x="99.78" y="74.11" width="23.48" height="23.48" rx="3.57"/>
    <rect class="tesla-secondary-color sensor-keyboard-cls-2" x="70.83" y="74.11" width="23.48" height="23.48" rx="3.57"/>
    <rect class="tesla-secondary-color sensor-keyboard-cls-2" x="119.29" y="106.44" width="23.48" height="23.48" rx="3.57"/>
    <rect class="tesla-secondary-color sensor-keyboard-cls-2" x="148.27" y="106.44" width="23.48" height="23.48" rx="3.57"/>
    <rect class="tesla-secondary-color sensor-keyboard-cls-2" x="177.24" y="106.44" width="23.48" height="23.48" rx="3.57"/>
    <rect class="tesla-secondary-color sensor-keyboard-cls-2" x="206.21" y="106.44" width="23.48" height="23.48" rx="3.57"/>
    <rect class="tesla-secondary-color sensor-keyboard-cls-2" x="235.19" y="106.44" width="23.48" height="23.48" rx="3.57"/>
    <rect class="tesla-secondary-color sensor-keyboard-cls-2" x="264.16" y="106.44" width="23.48" height="23.48" rx="3.57"/>
    <rect class="tesla-secondary-color sensor-keyboard-cls-2" x="293.14" y="106.44" width="23.48" height="23.48" rx="3.57"/>
    <rect class="tesla-secondary-color sensor-keyboard-cls-2" x="322.11" y="106.44" width="23.48" height="23.48" rx="3.57"/>
    <rect class="tesla-secondary-color sensor-keyboard-cls-2" x="351.09" y="106.44" width="23.48" height="23.48" rx="3.57"/>
    <rect class="tesla-secondary-color sensor-keyboard-cls-2" x="380.06" y="106.44" width="23.48" height="23.48" rx="3.57"/>
    <rect class="tesla-secondary-color sensor-keyboard-cls-2" x="90.32" y="106.44" width="23.48" height="23.48" rx="3.57"/>
    <rect class="tesla-secondary-color sensor-keyboard-cls-2" x="17.67" y="106.44" width="67.31" height="23.48" rx="3.58"/>
    <rect class="tesla-secondary-color sensor-keyboard-cls-2" x="410.23" y="106.44" width="46.37" height="23.48" rx="3.58"/>
    <rect class="tesla-secondary-color sensor-keyboard-cls-2" x="128.54" y="74.11" width="23.48" height="23.48" rx="3.57"/>
    <rect class="tesla-secondary-color sensor-keyboard-cls-2" x="157.31" y="74.11" width="23.48" height="23.48" rx="3.57"/>
    <rect class="tesla-secondary-color sensor-keyboard-cls-2" x="186.07" y="74.11" width="23.48" height="23.48" rx="3.57"/>
    <rect class="tesla-secondary-color sensor-keyboard-cls-2" x="214.84" y="74.11" width="23.48" height="23.48" rx="3.57"/>
    <rect class="tesla-secondary-color sensor-keyboard-cls-2" x="243.6" y="74.11" width="23.48" height="23.48" rx="3.57"/>
    <rect class="tesla-secondary-color sensor-keyboard-cls-2" x="272.37" y="74.11" width="23.48" height="23.48" rx="3.57"/>
    <rect class="tesla-secondary-color sensor-keyboard-cls-2" x="301.13" y="74.11" width="23.48" height="23.48" rx="3.57"/>
    <rect class="tesla-secondary-color sensor-keyboard-cls-2" x="329.9" y="74.11" width="23.48" height="23.48" rx="3.57"/>
    <rect class="tesla-secondary-color sensor-keyboard-cls-2" x="358.66" y="74.11" width="23.48" height="23.48" rx="3.57"/>
    <rect class="tesla-secondary-color sensor-keyboard-cls-2" x="387.42" y="74.11" width="23.48" height="23.48" rx="3.57"/>
    <rect class="tesla-secondary-color sensor-keyboard-cls-2" x="47.35" y="9.45" width="23.48" height="23.48" rx="3.57"/>
    <rect class="tesla-secondary-color sensor-keyboard-cls-2" x="17.67" y="9.45" width="23.48" height="23.48" rx="3.57"/>
    <rect class="tesla-secondary-color sensor-keyboard-cls-2" x="77.02" y="9.45" width="23.48" height="23.48" rx="3.57"/>
    <rect class="tesla-secondary-color sensor-keyboard-cls-2" x="106.7" y="9.45" width="23.48" height="23.48" rx="3.57"/>
    <rect class="tesla-secondary-color sensor-keyboard-cls-2" x="136.37" y="9.45" width="23.48" height="23.48" rx="3.57"/>
    <rect class="tesla-secondary-color sensor-keyboard-cls-2" x="166.05" y="9.45" width="23.48" height="23.48" rx="3.57"/>
    <rect class="tesla-secondary-color sensor-keyboard-cls-2" x="195.72" y="9.45" width="23.48" height="23.48" rx="3.57"/>
    <rect class="tesla-secondary-color sensor-keyboard-cls-2" x="225.4" y="9.45" width="23.48" height="23.48" rx="3.57"/>
    <rect class="tesla-secondary-color sensor-keyboard-cls-2" x="255.07" y="9.45" width="23.48" height="23.48" rx="3.57"/>
    <rect class="tesla-secondary-color sensor-keyboard-cls-2" x="284.75" y="9.45" width="23.48" height="23.48" rx="3.57"/>
    <rect class="tesla-secondary-color sensor-keyboard-cls-2" x="314.42" y="9.45" width="23.48" height="23.48" rx="3.57"/>
    <rect class="tesla-secondary-color sensor-keyboard-cls-2" x="344.09" y="9.45" width="23.48" height="23.48" rx="3.57"/>
    <rect class="tesla-secondary-color sensor-keyboard-cls-2" x="373.77" y="9.45" width="23.48" height="23.48" rx="3.57"/>
    <rect class="tesla-secondary-color sensor-keyboard-cls-2" x="403.44" y="9.45" width="23.48" height="23.48" rx="3.57"/>
    <rect class="tesla-secondary-color sensor-keyboard-cls-2" x="433.12" y="9.45" width="23.48" height="23.48" rx="3.57"/>
    <rect class="tesla-secondary-color sensor-keyboard-cls-2" x="47.35" y="138.77" width="23.48" height="23.48" rx="3.57"/>
    <rect class="tesla-secondary-color sensor-keyboard-cls-2" x="17.67" y="138.77" width="23.48" height="23.48" rx="3.57"/>
    <rect class="tesla-secondary-color sensor-keyboard-cls-2" x="77.02" y="138.77" width="23.48" height="23.48" rx="3.57"/>
    <rect class="tesla-secondary-color sensor-keyboard-cls-2" x="373.77" y="138.77" width="23.48" height="23.48" rx="3.57"/>
    <rect class="tesla-secondary-color sensor-keyboard-cls-2" x="107.55" y="138.77" width="259.78" height="23.48" rx="3.58"/>
    <rect class="tesla-secondary-color sensor-keyboard-cls-2" x="403.44" y="138.77" width="23.48" height="23.48" rx="3.57"/>
    <rect class="tesla-secondary-color sensor-keyboard-cls-2" x="433.12" y="138.77" width="23.48" height="23.48" rx="3.57"/>
    <rect class="tesla-secondary-color sensor-keyboard-cls-2" x="61.5" y="41.78" width="23.48" height="23.48" rx="3.58"/>
    <rect class="tesla-secondary-color sensor-keyboard-cls-2" x="17.67" y="41.78" width="38.06" height="23.48" rx="3.58"/>
    <rect class="tesla-secondary-color sensor-keyboard-cls-2" x="90.32" y="41.78" width="23.48" height="23.48" rx="3.57"/>
    <rect class="tesla-secondary-color sensor-keyboard-cls-2" x="119.13" y="41.78" width="23.48" height="23.48" rx="3.57"/>
    <rect class="tesla-secondary-color sensor-keyboard-cls-2" x="147.95" y="41.78" width="23.48" height="23.48" rx="3.57"/>
    <rect class="tesla-secondary-color sensor-keyboard-cls-2" x="176.77" y="41.78" width="23.48" height="23.48" rx="3.57"/>
    <rect class="tesla-secondary-color sensor-keyboard-cls-2" x="205.59" y="41.78" width="23.48" height="23.48" rx="3.57"/>
    <rect class="tesla-secondary-color sensor-keyboard-cls-2" x="234.41" y="41.78" width="23.48" height="23.48" rx="3.57"/>
    <rect class="tesla-secondary-color sensor-keyboard-cls-2" x="263.22" y="41.78" width="23.48" height="23.48" rx="3.57"/>
    <rect class="tesla-secondary-color sensor-keyboard-cls-2" x="292.04" y="41.78" width="23.48" height="23.48" rx="3.57"/>
    <rect class="tesla-secondary-color sensor-keyboard-cls-2" x="320.86" y="41.78" width="23.48" height="23.48" rx="3.57"/>
    <rect class="tesla-secondary-color sensor-keyboard-cls-2" x="349.68" y="41.78" width="23.48" height="23.48" rx="3.57"/>
    <rect class="tesla-secondary-color sensor-keyboard-cls-2" x="378.5" y="41.78" width="23.48" height="23.48" rx="3.57"/>
    <path class="tesla-secondary-color sensor-keyboard-cls-2"
          d="M463,235.67H437.67c-3.83,0-6.94-2.72-6.94-6.07V209.15c0-1.25-.49-1.25-1.52-1.25h-2.82c-3.76,0-3.76-3.37-3.76-4.55V190.49c0-3.35,3.11-6.07,6.94-6.07H463c3.83,0,6.94,2.72,6.94,6.07V229.6C469.93,233,466.82,235.67,463,235.67Z"
          transform="translate(-12.86 -142.64)"/>
  </g>
  <g class="tesla_group_status">
    <g class="tesla-status tesla_status_warning">
      <path class="sensor-keyboard-cls-3 tesla-status-warning"
            d="M374.11,429H283c-10.12,0-16.45-11.12-11.39-20l45.57-80.08,45.57-80.07a13.06,13.06,0,0,1,22.78,0l45.56,80.07,45.57,80.08c5.06,8.89-1.26,20-11.39,20Z"
            transform="translate(-12.86 -142.64)"/>
      <path data-name="!" class="tesla-tertiary-color sensor-keyboard-cls-4"
            d="M374,289.85c6.37,0,14.51,1.24,13.39,9.82-1.21,9.91-6.41,45.21-9.26,69.67a3.44,3.44,0,0,1-3.41,3h-1.34a3.42,3.42,0,0,1-3.41-3.05c-2.57-23.3-8-59.11-9.17-70C359.59,291.57,367.24,289.85,374,289.85Zm.18,121.47c-7.21,0-12.57-5.29-12.57-13,0-7.44,5.36-13.1,12.57-13.1,7.39,0,12.75,5.66,12.75,13.1C387,406,381.6,411.32,374.21,411.32Z"
            transform="translate(-12.86 -142.64)"/>
    </g>
    <g class="tesla-status tesla_status_error">
      <circle class="sensor-keyboard-cls-5 tesla-status-error" cx="374.11" cy="353.55" r="95.67"
              transform="translate(-153.29 225.45) rotate(-45)"/>
      <path class="tesla-tertiary-color sensor-keyboard-cls-4"
            d="M374.11,265.91a87.65,87.65,0,1,1-87.65,87.64,87.74,87.74,0,0,1,87.65-87.64m0-16.06A103.7,103.7,0,1,0,477.8,353.55a103.7,103.7,0,0,0-103.69-103.7Z"
            transform="translate(-12.86 -142.64)"/>
      <polygon class="tesla-tertiary-color sensor-keyboard-cls-4"
               points="416.96 173.75 398.4 155.2 361.2 192.4 324.08 155.29 305.53 173.85 342.64 210.96 305.62 247.98 324.18 266.54 361.2 229.52 398.31 266.63 416.87 248.07 379.75 210.96 416.96 173.75"/>
    </g>
    <g class="tesla-status tesla_status_success">
      <circle class="tesla-status-success sensor-keyboard-cls-6" cx="374.11" cy="353.55" r="95.67"
              transform="translate(-153.29 225.45) rotate(-45)"/>
      <path class="tesla-tertiary-color sensor-keyboard-cls-4"
            d="M374.11,265.91a87.65,87.65,0,1,1-87.65,87.64,87.74,87.74,0,0,1,87.65-87.64m0-16.06A103.7,103.7,0,1,0,477.8,353.55a103.7,103.7,0,0,0-103.69-103.7Z"
            transform="translate(-12.86 -142.64)"/>
      <path class="tesla-tertiary-color sensor-keyboard-cls-4"
            d="M359.77,368.16c1.51-2.15,2.92-4.15,4.34-6.15,8-11.32,16.42-22.35,25.48-32.86,7-8.06,14.12-15.94,21.21-23.88,1.54-1.73,2.66-1.74,4.32-.18l10.68,10c2.62,2.45,2.63,3,.26,5.67-5.26,5.91-10.65,11.7-15.7,17.78-6.48,7.78-12.94,15.59-18.93,23.75C382.81,374,374.63,386.1,366.27,398c-.65.93-1.2,1.93-1.84,2.87-1.38,2-2.8,2.17-4.47.31-3.68-4.07-7.29-8.21-11-12.29a325,325,0,0,0-26.67-26.73c-.36-.31-.71-.63-1-1-1.18-1.21-1.28-2.18-.17-3.5,2.95-3.51,5.95-7,8.94-10.48.55-.65,1.1-1.3,1.67-1.93,1.38-1.53,2.51-1.65,4-.28,4.18,3.79,8.37,7.55,12.42,11.46,3.61,3.49,7,7.15,10.57,10.73C359,367.49,359.28,367.72,359.77,368.16Z"
            transform="translate(-12.86 -142.64)"/>
    </g>
    <g class="tesla-status tesla_status_info">
      <circle class="tesla-primary-color sensor-keyboard-cls-1" cx="374.11" cy="353.55" r="95.67"
              transform="translate(-153.29 225.45) rotate(-45)"/>
      <path class="tesla-tertiary-color sensor-keyboard-cls-4"
            d="M374.11,265.91a87.65,87.65,0,1,1-87.65,87.64,87.74,87.74,0,0,1,87.65-87.64m0-16.06A103.7,103.7,0,1,0,477.8,353.55a103.7,103.7,0,0,0-103.69-103.7Z"
            transform="translate(-12.86 -142.64)"/>
      <path class="tesla-tertiary-color sensor-keyboard-cls-4"
            d="M348.41,426v-7.11c12.74-1.48,14.16-2.45,14.16-18V356.55c0-14.55-1-15.44-12.46-17.09V332.8a205.91,205.91,0,0,0,37.31-8.33v76.41c0,15.16,1.13,16.56,14.6,18V426Zm25.07-118a14.82,14.82,0,0,1-14.57-14.42A14.6,14.6,0,0,1,373.7,279a14.24,14.24,0,0,1,14.41,14.58A14.54,14.54,0,0,1,373.48,308Z"
            transform="translate(-12.86 -142.64)"/>
    </g>
  </g>
</svg>
