<?xml version="1.0" standalone="no"?>
<!DOCTYPE svg PUBLIC "-//W3C//DTD SVG 20010904//EN"
 "http://www.w3.org/TR/2001/REC-SVG-20010904/DTD/svg10.dtd">
<svg version="1.0" xmlns="http://www.w3.org/2000/svg"
 width="741.000000pt" height="741.000000pt" viewBox="0 0 741.000000 741.000000"
 preserveAspectRatio="xMidYMid meet">
<metadata>
Created by potrace 1.11, written by Peter Selinger 2001-2013
</metadata>
<g transform="translate(0.000000,741.000000) scale(0.100000,-0.100000)"
fill="#000000" stroke="none">
<path d="M3276 7388 c-102 -159 -306 -503 -304 -510 2 -5 73 -39 158 -74 85
-36 169 -71 185 -79 17 -7 188 -79 380 -161 193 -81 365 -153 384 -161 l33
-14 -6 58 c-3 32 -8 67 -10 78 -2 11 -7 51 -11 88 -3 37 -8 78 -11 90 -2 12
-6 42 -9 67 -3 25 -8 61 -10 80 -2 19 -7 53 -9 75 -3 22 -8 56 -10 75 -3 19
-8 55 -11 80 -2 25 -9 81 -15 125 -6 44 -13 103 -16 130 -3 28 -7 56 -9 63 -3
9 -82 12 -349 12 l-346 0 -14 -22z"/>
<path d="M5630 6785 c-36 -8 -85 -16 -110 -20 -43 -5 -90 -13 -135 -21 -32 -6
-148 -26 -170 -29 -11 -2 -47 -8 -80 -13 -33 -6 -78 -14 -99 -17 -21 -3 -48
-7 -60 -10 -12 -3 -34 -7 -50 -9 -48 -8 -57 7 115 -196 20 -25 48 -58 60 -75
13 -16 26 -32 30 -35 5 -4 179 -212 322 -384 17 -22 37 -44 42 -50 6 -6 33
-39 62 -74 28 -34 54 -59 56 -55 3 5 8 40 11 78 4 39 8 86 11 105 2 19 7 60
10 90 3 30 8 71 10 90 2 19 7 60 10 90 3 30 8 71 10 90 2 19 6 58 9 85 10 89
17 149 21 175 2 14 7 57 11 95 3 39 8 78 10 88 3 20 -4 20 -96 2z"/>
<path d="M1650 6509 c-49 -45 -284 -264 -340 -318 -19 -18 -79 -74 -132 -123
-53 -50 -131 -122 -173 -162 l-77 -71 124 -52 c67 -29 283 -119 478 -202 195
-82 357 -148 361 -145 4 2 10 21 13 41 6 30 75 358 92 435 30 133 35 111 -71
280 -198 313 -217 343 -224 350 -3 4 -27 -11 -51 -33z"/>
<path d="M2555 6098 c2 -18 6 -89 9 -158 7 -142 13 -256 21 -380 2 -47 7 -144
10 -217 4 -73 8 -154 10 -180 2 -26 4 -74 4 -106 1 -66 3 -66 73 -2 23 22 84
76 133 120 50 44 97 87 105 95 8 8 53 49 100 90 108 96 158 140 184 165 12 11
42 38 67 60 24 22 80 72 124 112 44 39 93 83 109 96 15 13 24 27 20 29 -5 3
-61 22 -124 42 -115 37 -697 225 -778 252 -63 21 -70 19 -67 -18z"/>
<path d="M4275 5658 c3 -12 10 -25 17 -30 7 -4 9 -8 5 -8 -5 0 2 -18 14 -40
12 -21 27 -36 32 -33 6 3 7 1 3 -6 -5 -7 52 -117 138 -270 80 -142 146 -261
146 -264 0 -4 -167 -7 -370 -7 l-371 0 -157 -76 c-86 -42 -191 -92 -232 -112
-41 -19 -76 -36 -78 -38 -3 -2 -86 -281 -97 -324 -2 -8 -19 -67 -38 -130 -19
-63 -56 -187 -82 -275 -26 -88 -50 -166 -54 -173 -5 -9 -49 41 -132 148 -222
290 -352 455 -370 471 -10 9 -17 18 -15 20 2 2 -3 11 -12 19 -14 13 -15 12 -9
-5 7 -19 6 -19 -7 -2 -10 13 -15 14 -19 4 -6 -15 81 -140 93 -132 4 3 7 -1 6
-9 -1 -13 61 -97 306 -411 73 -95 122 -165 115 -168 -7 -2 -145 -51 -307 -107
-162 -57 -299 -106 -305 -110 -5 -4 -23 -10 -38 -14 -15 -4 -26 -10 -23 -15 3
-4 -7 -6 -22 -4 l-27 4 24 -14 c20 -12 21 -15 7 -20 -10 -4 -15 -3 -11 3 3 6
-1 10 -9 10 -10 0 -13 -6 -9 -17 5 -12 3 -14 -7 -8 -8 5 -11 4 -7 -2 4 -7 22
-5 52 4 24 9 43 19 40 23 -2 4 7 5 20 2 14 -2 25 0 25 5 0 5 8 9 19 10 15 1
375 124 540 184 29 11 56 17 59 14 3 -3 7 -211 9 -461 l4 -456 -83 64 c-84 64
-106 81 -138 108 -9 8 -32 26 -50 40 -18 14 -99 77 -180 140 -80 63 -161 126
-180 140 -18 14 -42 33 -54 44 -23 20 -93 66 -101 66 -3 0 -5 -5 -5 -11 0 -5
5 -7 10 -4 6 3 10 -1 10 -10 0 -10 -5 -14 -12 -10 -34 17 126 -114 426 -350
l331 -261 98 -129 c53 -72 144 -193 201 -271 l103 -140 -101 13 c-56 7 -121
15 -146 18 -62 9 -98 13 -145 19 -22 3 -56 8 -75 10 -62 9 -274 37 -305 41
-72 8 -142 16 -165 20 -32 5 -124 16 -172 20 -20 2 -42 6 -48 10 -5 3 -10 1
-10 -5 0 -6 -5 -8 -12 -3 -15 9 -59 13 -71 6 -13 -8 26 -38 51 -40 12 -1 20 2
18 6 -3 4 1 8 8 8 8 0 12 -5 10 -12 -3 -6 8 -11 28 -10 18 0 35 -3 38 -6 3 -4
35 -10 72 -13 37 -4 77 -9 90 -11 13 -2 46 -6 73 -10 l50 -6 348 -352 c192
-194 355 -361 362 -372 13 -18 69 -252 80 -328 2 -18 8 -54 14 -82 9 -49 14
-85 29 -215 10 -92 3 -323 -13 -394 -3 -11 -7 -39 -9 -61 -9 -71 -34 -197 -65
-330 -18 -72 -33 -138 -35 -147 -4 -17 54 -18 1100 -18 607 0 1104 3 1105 8 1
7 2 25 13 189 11 160 44 243 166 418 72 103 77 108 146 140 69 32 176 53 304
60 197 11 247 21 361 71 133 58 224 128 262 199 30 58 27 173 -7 280 -22 70
-23 81 -10 88 86 48 137 159 109 239 -11 34 -10 38 10 55 13 10 44 37 69 61
l47 43 -30 85 c-34 98 -38 192 -9 236 10 15 52 43 104 67 108 52 156 89 181
140 36 72 36 71 -279 538 -81 120 -154 238 -163 263 -28 79 -29 139 -5 220 12
40 24 82 27 94 10 37 12 219 3 281 -5 33 -11 83 -15 110 -3 28 -8 57 -10 65
-2 8 -7 38 -10 65 -11 88 -15 118 -19 144 -4 24 -12 80 -21 141 -2 14 -7 45
-10 70 -3 25 -12 86 -20 135 -22 146 -24 161 -30 222 -5 56 -23 187 -31 228
-2 11 -5 37 -6 58 -1 34 -10 45 -76 105 -42 37 -83 74 -92 82 -9 8 -56 51
-105 95 -49 44 -99 88 -110 99 -59 54 -57 54 -142 -16 -42 -34 -86 -71 -98
-80 -11 -9 -63 -51 -115 -94 -52 -43 -104 -85 -114 -94 -11 -8 -35 -29 -55
-45 -72 -61 -59 -61 -171 5 -56 33 -103 60 -104 60 -2 0 -79 44 -172 98 -244
142 -297 169 -302 154 -2 -6 -8 -12 -13 -12 -4 0 -6 6 -3 13 3 8 -1 19 -9 25
-11 9 -14 8 -14 -3 0 -8 5 -11 10 -8 6 4 8 0 4 -10 -7 -20 11 -33 25 -19 16
16 39 2 33 -18 -4 -13 4 -24 30 -39 19 -11 38 -20 42 -20 3 0 9 -3 12 -8 6 -9
259 -158 396 -233 35 -19 66 -38 69 -41 4 -3 -53 -7 -126 -8 -73 -1 -295 -4
-493 -7 l-360 -4 -140 246 c-77 136 -141 253 -143 261 -2 7 -8 13 -13 13 -5 0
-9 7 -9 15 0 7 -8 18 -17 24 -10 5 -17 13 -17 18 3 17 -9 33 -19 26 -6 -4 -8
0 -4 10 3 8 -1 21 -8 27 -8 7 -13 16 -10 20 3 5 1 11 -4 15 -6 3 -8 -4 -6 -15
3 -14 0 -20 -8 -17 -7 2 -11 11 -9 21 2 9 -2 16 -7 16 -5 0 -8 -10 -6 -22z
m2075 -308 c3 -3 68 -61 145 -130 130 -115 157 -142 152 -146 -1 -1 -49 -5
-107 -9 -58 -4 -121 -8 -140 -10 -19 -2 -80 -6 -135 -10 -55 -3 -116 -8 -135
-10 -19 -2 -82 -7 -140 -11 -58 -3 -114 -8 -124 -10 -17 -3 -18 -2 -5 10 15
15 125 107 199 166 24 19 74 60 110 90 147 122 131 112 154 92 12 -9 23 -19
26 -22z m-1195 0 c-3 -5 -12 -10 -18 -10 -7 0 -6 4 3 10 19 12 23 12 15 0z
m1546 -366 c9 -49 17 -105 25 -170 6 -48 5 -52 -16 -59 -13 -4 -59 -24 -104
-45 -45 -21 -110 -50 -146 -65 -36 -15 -97 -42 -136 -60 -194 -90 -216 -98
-230 -83 -8 8 -75 114 -148 236 -126 208 -133 222 -110 224 13 1 36 2 52 4 32
2 165 13 237 19 28 2 93 7 145 11 52 3 111 7 130 9 19 2 82 7 140 10 58 4 107
8 109 11 2 2 13 2 25 0 16 -2 22 -13 27 -42z m-1004 -86 c-19 -35 -72 -135
-117 -223 -142 -273 -151 -290 -159 -298 -8 -8 -34 11 -146 113 -43 38 -116
103 -221 195 -12 11 -83 74 -158 140 l-136 120 38 5 c20 3 239 6 485 8 l449 3
-35 -63z m-1047 43 c0 -17 -217 -811 -223 -817 -3 -3 -133 43 -287 102 l-282
108 -86 96 c-48 52 -92 99 -98 105 -30 29 -184 203 -184 209 0 4 91 51 203
106 l202 99 378 1 c221 0 377 -4 377 -9z m1163 -80 c10 -18 71 -118 135 -224
110 -180 117 -195 110 -227 -10 -44 -6 -28 -73 -291 -31 -123 -59 -235 -62
-248 -2 -14 -6 -28 -8 -31 -2 -4 -6 -20 -9 -36 -3 -16 -11 -48 -18 -71 l-13
-42 -211 316 -211 316 40 76 c21 42 72 139 112 216 40 77 91 174 113 217 22
42 43 81 47 88 7 12 8 11 48 -59z m-2227 -303 c71 -79 147 -163 169 -186 22
-24 40 -48 40 -52 0 -5 -106 -88 -235 -186 -129 -98 -260 -197 -290 -220 -30
-23 -57 -41 -58 -39 -4 3 85 316 128 450 10 33 28 94 40 135 40 140 71 240 74
240 2 0 61 -64 132 -142z m-951 -76 c-3 -3 -16 5 -28 17 l-22 23 28 -17 c15
-10 25 -20 22 -23z m2751 -189 c-10 -42 -149 -471 -228 -703 -38 -113 -75
-220 -81 -237 -6 -18 -13 -33 -16 -33 -8 1 -100 121 -364 469 -215 284 -215
283 -156 295 26 5 823 226 848 235 2 0 0 -11 -3 -26z m-1262 -114 c144 -56
267 -104 273 -106 13 -5 9 -12 -68 -148 -16 -27 -43 -76 -61 -108 l-31 -58
-151 6 c-83 3 -196 7 -251 10 -55 2 -167 7 -250 10 -292 11 -368 15 -372 18
-2 3 73 61 500 384 67 51 128 93 136 93 8 0 131 -46 275 -101z m1521 -234
c109 -165 202 -304 206 -310 9 -13 -226 -711 -239 -708 -6 1 -97 60 -204 131
-106 70 -219 145 -251 167 -42 27 -57 43 -53 54 3 9 67 201 142 426 75 226
140 419 145 430 4 11 15 44 24 73 10 30 21 50 25 45 4 -4 96 -143 205 -308z
m-1085 -57 c112 -152 391 -517 446 -583 l33 -41 -132 -79 c-141 -84 -267 -163
-495 -312 -78 -51 -147 -93 -153 -93 -6 0 -41 19 -77 43 -53 34 -294 192 -311
203 -2 2 39 75 90 164 52 89 102 175 112 193 47 81 134 228 172 292 23 39 77
134 121 212 43 79 81 143 84 143 3 -1 52 -65 110 -142z m-1320 -216 c37 -39
153 -165 285 -308 11 -12 43 -46 70 -76 183 -193 256 -278 244 -283 -15 -5
-325 -94 -349 -100 -8 -2 -78 -22 -155 -44 -76 -22 -140 -39 -141 -38 -6 5
-10 897 -4 897 3 0 25 -22 50 -48z m-820 -279 c0 -3 -7 -3 -15 1 -8 3 -15 1
-15 -5 0 -6 -5 -7 -11 -3 -8 4 -7 9 2 14 12 8 39 3 39 -7z m15 -23 c3 -6 -1
-7 -9 -4 -18 7 -21 14 -7 14 6 0 13 -4 16 -10z m1655 -547 c120 -79 156 -108
157 -125 2 -20 16 -113 29 -188 2 -14 7 -43 9 -65 3 -22 10 -67 16 -100 6 -33
13 -75 15 -94 3 -19 7 -38 10 -42 3 -5 2 -9 -3 -9 -4 0 -105 171 -225 381
-163 286 -210 376 -190 363 15 -10 97 -64 182 -121z m1531 50 c0 -21 2 -81 4
-133 2 -52 6 -196 10 -320 3 -124 8 -269 10 -324 4 -88 2 -98 -13 -93 -9 2
-192 76 -407 164 -214 88 -396 162 -404 165 -9 2 90 79 230 178 134 95 262
186 284 202 227 165 271 197 278 197 4 1 7 -16 8 -36z m-3303 -490 c-8 -11
-14 -11 -27 -1 -9 7 -17 13 -19 14 -2 1 10 1 27 0 23 0 27 -4 19 -13z m577
-98 c28 -3 61 -8 75 -10 14 -3 45 -7 70 -10 25 -3 61 -7 80 -10 19 -3 53 -7
75 -10 49 -6 190 -24 230 -30 17 -2 53 -7 80 -10 49 -6 53 -9 193 -152 78 -81
139 -150 135 -153 -4 -4 -28 -19 -53 -33 -25 -13 -117 -65 -205 -115 l-160
-91 -213 217 c-117 119 -259 263 -315 320 -91 92 -99 102 -72 98 17 -3 53 -8
80 -11z m1115 -100 c151 -4 277 -8 279 -10 2 -3 13 0 24 6 11 7 17 7 13 1 -4
-8 -201 -123 -321 -187 -11 -6 -41 -24 -68 -39 l-48 -28 -123 128 c-69 71
-123 131 -121 134 2 3 23 4 47 3 23 -1 167 -4 318 -8z m349 -65 c11 -21 71
-133 134 -247 63 -114 136 -248 162 -298 26 -49 51 -94 56 -100 4 -5 19 -32
34 -60 25 -48 26 -54 19 -140 -4 -49 -7 -97 -8 -106 0 -18 -8 -17 -81 19 -22
11 -60 29 -85 40 -128 58 -194 93 -196 104 -1 7 -5 56 -8 108 -10 131 -15 195
-21 265 -7 81 -14 176 -20 260 -3 39 -8 98 -11 133 -3 34 -4 62 -1 62 3 0 14
-18 26 -40z"/>
<path d="M5096 5365 c-3 -8 -1 -15 4 -15 13 0 22 18 11 24 -5 3 -11 -1 -15 -9z"/>
<path d="M1727 4833 c-1 0 -98 -4 -216 -7 -362 -11 -495 -16 -499 -20 -3 -4
486 -685 513 -714 10 -11 24 6 76 85 34 54 119 184 187 288 149 226 226 345
236 363 7 11 -20 13 -144 10 -83 -2 -152 -4 -153 -5z"/>
<path d="M75 3614 c4 -77 8 -161 10 -189 2 -27 7 -120 11 -205 4 -85 8 -168
10 -185 1 -16 3 -49 3 -73 1 -52 -2 -54 132 68 108 98 168 153 223 201 21 19
51 45 66 59 15 14 60 54 100 90 40 36 91 81 113 100 l39 36 -64 21 c-34 12
-191 63 -348 113 -157 51 -289 95 -294 97 -4 3 -5 -57 -1 -133z"/>
<path d="M2346 3528 c3 -5 10 -6 15 -3 13 9 11 12 -6 12 -8 0 -12 -4 -9 -9z"/>
<path d="M2340 3506 c0 -2 7 -7 16 -10 8 -3 12 -2 9 4 -6 10 -25 14 -25 6z"/>
<path d="M2310 3456 c0 -2 7 -7 16 -10 8 -3 12 -2 9 4 -6 10 -25 14 -25 6z"/>
</g>
</svg>
