<svg xmlns="http://www.w3.org/2000/svg" viewBox="0 0 501 501">
  <defs>
    <style>
      .common-authorship-1 {
        opacity: 0;
      }

      .common-authorship-1, .common-authorship-3, .common-authorship-5, .common-authorship-7, .common-authorship-9 {
        stroke-miterlimit: 10;
      }

      .common-authorship-3, .common-authorship-4, .common-authorship-5, .common-authorship-7 {
        fill: none;
      }

      .common-authorship-3 {
        stroke-width: 9.81px;
      }

      .common-authorship-4 {
        stroke-linejoin: round;
        stroke-width: 8.28px;
      }

      .common-authorship-5 {
        stroke-width: 10.39px;
      }

      .common-authorship-7 {
        stroke-width: 4.65px;
      }

      .common-authorship-7, .common-authorship-9 {
        stroke-linecap: round;
      }

      .common-authorship-9 {
        stroke-width: 16.05px;
      }

    </style>
  </defs>
  <g class="tesla_common tesla_common_authorship">
    <g>
      <rect class="common-authorship-1 tesla-tertiary-color" x="0.5" y="0.5" width="500" height="500"/>
    </g>
    <g>
      <path class="common-authorship-2 tesla-tertiary-color"
            d="M169.94,204.8c19.6,3.41,34.28,15.09,42.43,33.78,3.33,7.61,4.71,16.16,4.36,26.89-.06,1.63-.21,3.17-.35,4.53,0,.12,0,.23,0,.35A20.77,20.77,0,0,1,218,275.7c1.1,6.76.26,13.21-.7,18.64a46.73,46.73,0,0,1-4.39,13.91,16.22,16.22,0,0,1-4.3,5.45l-.59,1.88c-1,3.12-2,6.36-3.2,9.6a22.58,22.58,0,0,0-.77,2.72,32,32,0,0,1-2.46,7.18c-.31.62-.62,1.18-.9,1.68V342c0,.72,0,1.44,0,2.16l1.84.63c2.74.94,5.32,1.82,8.26,2.56l2,.48c10.49,2.54,26.34,6.39,44.75,27,4.52,5.07,12.19,17.77,14.8,32a108.74,108.74,0,0,1,1.43,19.77h71.37A42.62,42.62,0,0,0,387.73,384V129.61L310.06,49.7H192.44a42.61,42.61,0,0,0-42.63,42.6V204.9a53.53,53.53,0,0,1,10.17-1A58.58,58.58,0,0,1,169.94,204.8Z"
            transform="translate(0.5 0.5)"/>
      <line class="common-authorship-3 tesla-secondary-stroke" x1="174.12" y1="116.7" x2="289.14" y2="116.7"/>
      <line class="common-authorship-3 tesla-secondary-stroke" x1="174.12" y1="161.02" x2="401.93" y2="161.02"/>
      <line class="common-authorship-3 tesla-secondary-stroke" x1="174.12" y1="205.33" x2="379.09" y2="205.33"/>
      <path class="common-authorship-4 tesla-secondary-stroke"
            d="M310.06,49.7s0,54.09,0,59.64c0,13-1.06,20.1,17.57,20.1,17.36,0,60.09.17,60.09.17"
            transform="translate(0.5 0.5)"/>
      <line class="common-authorship-5 tesla-secondary-stroke" x1="211.26" y1="249.65" x2="343.64" y2="249.65"/>
      <line class="common-authorship-5 tesla-secondary-stroke" x1="213.17" y1="293.96" x2="321.84" y2="293.96"/>
      <polygon class="common-authorship-6 tesla-primary-color" points="276.21 352.22 343.32 234.63 370.2 249.97 303.07 367.59 276.21 352.22"/>
      <path class="common-authorship-2 tesla-tertiary-color"
            d="M344.31,239.59,364.24,251,301.08,361.63l-19.92-11.4,63.15-110.64m-3-10.92-4,7-4.6,8.06L274.21,346.27l-4,6.94,6.94,4,19.92,11.39,6.95,4,4-7,63.16-110.66,4-7-7-4-19.93-11.37-6.95-4Z"
            transform="translate(0.5 0.5)"/>
      <path class="common-authorship-7 tesla-primary-stroke"
            d="M358.23,382.21s-7.55-1.71-10.91-2.13-14.26,11.54-17.62,12.4-2.36-16.42-7.39-17.7-14,17.7-18.2,17.7-4.3-9.82-7.66-11.1-9.12,9.39-15.41,8.53-2.94-9.83-2.94-9.83"
            transform="translate(0.5 0.5)"/>
      <path class="common-authorship-6 tesla-primary-color" d="M278.43,378.48l22.65-16.85L364.24,251l-19.93-11.37L281.16,350.23Z"
            transform="translate(0.5 0.5)"/>
      <path class="common-authorship-6 tesla-primary-color" d="M364.24,251,301.08,361.63l-22.65,16.85,2.73-28.25,63.15-110.64Z"
            transform="translate(0.5 0.5)"/>
      <path class="common-authorship-8 tesla-secondary-color"
            d="M316,43.93a8.26,8.26,0,0,0-5.93-2.51H192.44A51,51,0,0,0,141.53,92.3V207.24a52,52,0,0,1,8.28-2.34V92.3a42.61,42.61,0,0,1,42.63-42.6H310.06l77.67,79.91v3.89l5.66-9.93Z"
            transform="translate(0.5 0.5)"/>
      <path class="common-authorship-8 tesla-secondary-color"
            d="M387.73,374.3V384a42.62,42.62,0,0,1-42.64,42.6H273.72c0,2.22-.05,4.39-.11,6.47a10.17,10.17,0,0,1-.23,1.81h71.71A51,51,0,0,0,396,384V225.32l-8.27,14.5Z"
            transform="translate(0.5 0.5)"/>
      <path class="common-authorship-6 tesla-primary-color"
            d="M336.17,230.8,406.8,107l1.62-.42a41.56,41.56,0,0,1,10.41-1.37A28.28,28.28,0,0,1,433,108.69c9.23,5.27,12.34,15.43,13.25,19.55l.33,1.51L376,253.5Z"
            transform="translate(0.5 0.5)"/>
      <path class="common-authorship-2 tesla-tertiary-color"
            d="M418.83,109.25A24.48,24.48,0,0,1,431,112.17c8,4.54,10.62,13.71,11.34,16.94-4.27,7.46-27.77,48.65-46.34,81.18l-8.27,14.5L374.46,248l-32.83-18.73,46.1-80.77L396,134l13.44-23.56a38.19,38.19,0,0,1,9.39-1.23m0-8a46.11,46.11,0,0,0-11.43,1.5l-3.24.86-1.66,2.91-13.45,23.55-8.27,14.5-46.1,80.77-4,6.95,6.94,4L370.49,255l6.95,4,4-6.95,5.14-9,8.13-14.25L399,221.1l3.91-6.84,6.49-11.37,39.84-69.82,1.53-2.68-.66-3c-1-4.64-4.56-16.1-15.18-22.16a32.1,32.1,0,0,0-16.14-4Z"
            transform="translate(0.5 0.5)"/>
      <polygon class="common-authorship-8 tesla-secondary-color" points="283.61 352.17 280.81 375.6 299.45 361.26 283.61 352.17"/>
      <path class="common-authorship-6 tesla-primary-color"
            d="M52.67,439.9v-6.12c0-8.58.07-20.62,1.29-26.22,3.53-16.32,10.37-25.35,13.29-29.21l.08-.12c10-13.2,23.74-21.73,40.85-25.35,2.76-.59,7.77-2.24,12.18-3.7,1.88-.63,3.69-1.23,5.28-1.73v-4.52q0-3.75,0-7.5c-3-5-4.46-10.06-5.88-15-.44-1.52-.89-3.09-1.39-4.64-.58-1.83-1.07-3.66-1.54-5.45a8.66,8.66,0,0,1-3.41-3.44,42.55,42.55,0,0,1-3.07-7.36,59.69,59.69,0,0,1-2.51-17.5,40.23,40.23,0,0,1,.59-5.88l.21-1.45a7.74,7.74,0,0,1,1.38-3.45,67.4,67.4,0,0,1,.42-20.19,49.74,49.74,0,0,1,18-30.74c9.49-7.72,20.12-11.64,31.59-11.64a53.05,53.05,0,0,1,9.14.81c18.2,3.16,31.27,13.58,38.87,31,3,6.93,4.28,14.82,3.95,24.82,0,1.46-.19,2.85-.32,4.2-.06.61-.13,1.22-.18,1.83a14.93,14.93,0,0,1,1.8,5.13c1,6,.25,11.74-.69,17A42.41,42.41,0,0,1,208.67,306a10.46,10.46,0,0,1-4.12,4.62c-.37,1.16-.73,2.33-1.1,3.5-.95,3.06-1.93,6.22-3.11,9.33a28.15,28.15,0,0,0-.94,3.29,27.85,27.85,0,0,1-2.09,6.16c-.28.57-.59,1.13-.91,1.69l-.49.89q0,3.23,0,6.45c0,1.88,0,3.77,0,5.66,1.8.56,3.46,1.13,5.08,1.69,2.83,1,5.51,1.89,8.65,2.67l2,.5c10.5,2.54,24.89,6,42.31,25.56,4,4.49,11.25,16.51,13.66,29.67,1.17,6.38,1.59,15.58,1.24,27.34l-.14,4.85Z"
            transform="translate(0.5 0.5)"/>
      <path class="common-authorship-2 tesla-tertiary-color"
            d="M160,213.71a48.13,48.13,0,0,1,8.28.73c16.45,2.86,28.26,12.29,35.14,28.06,3.14,7.19,3.8,14.87,3.55,22.65-.08,2.29-.43,4.56-.57,6.85a2,2,0,0,0,.48,1.56c.57.46,1.24,2.43,1.45,3.72.84,5.15.22,10.27-.68,15.34a37.67,37.67,0,0,1-3.41,11.09c-.74,1.39-1.51,2.7-3.31,2.91-.33,0-.65,1-.83,1.53-1.48,4.52-2.76,9.12-4.44,13.56-1.18,3.11-1.33,6-2.82,9-.52,1-1.13,2-1.64,3a2.92,2.92,0,0,0-.3,1.26c0,5.07,0,10.13,0,15.2a1.31,1.31,0,0,0,1.12,1.5c6,1.69,10.36,3.64,16.41,5.15,10.19,2.55,24.27,4.88,41.81,24.54,3.83,4.3,10.33,15.54,12.47,27.24,1.51,8.24,1.35,19.86,1.16,26.29H57.67c0-3.49-.18-20,1.17-26.28,3.34-15.41,9.87-23.92,12.48-27.37,8.08-10.68,20-19.7,37.89-23.48,5-1.06,15.48-4.91,20.39-6.29a1.26,1.26,0,0,0,1.05-1.44c0-5.06,0-10.13,0-15.2a3.1,3.1,0,0,0-.39-1.47c-3.78-6-5-12.31-7.11-19.07-.7-2.22-1.28-4.47-1.88-6.72a1.52,1.52,0,0,0-1.11-1.13,4.68,4.68,0,0,1-2.29-1.82,38.16,38.16,0,0,1-2.72-6.5,54.69,54.69,0,0,1-2.3-16,52.16,52.16,0,0,1,.75-6.67,2.28,2.28,0,0,1,.66-1.38c1-.79,1-1.74.8-2.87a62.19,62.19,0,0,1,.32-19.21,44.73,44.73,0,0,1,16.22-27.73c8.56-7,18.1-10.52,28.43-10.52m0-10c-12.65,0-24.35,4.29-34.75,12.76a54.63,54.63,0,0,0-19.75,33.75,72.24,72.24,0,0,0-.66,20,12.94,12.94,0,0,0-1.17,3.85l-.21,1.4a46,46,0,0,0-.64,6.59,64.84,64.84,0,0,0,2.72,19,46.81,46.81,0,0,0,3.42,8.23,13,13,0,0,0,3.49,4.2c.35,1.28.72,2.58,1.14,3.91.47,1.48.9,2.95,1.35,4.51a67.21,67.21,0,0,0,5.68,14.94c0,2.07,0,4.13,0,6.2v.84l-1.84.61c-4.08,1.35-9.16,3-11.66,3.55-18.32,3.88-33.06,13-43.79,27.24l-.09.11c-2.85,3.77-10.42,13.77-14.19,31.17-1.3,6-1.43,17.74-1.4,27.29V444.9H273.56l.29-9.71c.36-12.27-.07-21.56-1.32-28.38-2.61-14.26-10.31-27-14.85-32.1-18.46-20.7-34.35-24.55-44.86-27.09l-2-.49c-2.93-.73-5.51-1.62-8.24-2.55L200.9,344v-7.18c.28-.49.58-1,.88-1.64a32.25,32.25,0,0,0,2.47-7.23,25.71,25.71,0,0,1,.76-2.69c1.24-3.25,2.24-6.49,3.22-9.62.19-.62.37-1.22.56-1.81a16.41,16.41,0,0,0,4.31-5.48,47.28,47.28,0,0,0,4.41-14c1-5.44,1.81-11.92.7-18.7a21.15,21.15,0,0,0-1.62-5.36l0-.29c.14-1.36.3-2.91.35-4.54.35-10.77-1-19.34-4.37-27-8.19-18.76-22.92-30.49-42.6-33.91a58.84,58.84,0,0,0-10-.88Z"
            transform="translate(0.5 0.5)"/>
    </g>
  </g>
  <g class="tesla_group_status">
    <g class="tesla-status tesla_status_warning">
      <path class="common-authorship-9 tesla-status-warning tesla-tertiary-stroke"
            d="M374.11,429H283c-10.12,0-16.45-11.12-11.39-20l45.57-80.08,45.57-80.07a13.06,13.06,0,0,1,22.78,0l45.56,80.07,45.57,80.08c5.06,8.89-1.26,20-11.39,20Z"
            transform="translate(0.5 0.5)"/>
      <path class="common-authorship-2 tesla-tertiary-color"
            d="M374,289.85c6.37,0,14.51,1.24,13.39,9.82-1.21,9.91-6.41,45.21-9.26,69.67a3.44,3.44,0,0,1-3.41,3h-1.34a3.42,3.42,0,0,1-3.41-3.05c-2.57-23.3-8-59.11-9.17-70C359.59,291.57,367.24,289.85,374,289.85Zm.18,121.47c-7.21,0-12.57-5.29-12.57-13,0-7.44,5.36-13.1,12.57-13.1,7.39,0,12.75,5.66,12.75,13.1C387,406,381.6,411.32,374.21,411.32Z"
            transform="translate(0.5 0.5)"/>
    </g>
    <g class="tesla-status tesla_status_error" >
      <g>
        <circle class="common-authorship-10 tesla-status-error" cx="374.11" cy="353.55" r="95.67" transform="translate(-139.93 368.59) rotate(-45)"/>
        <path class="common-authorship-2 tesla-tertiary-color"
              d="M374.11,265.91a87.65,87.65,0,1,1-87.65,87.64,87.74,87.74,0,0,1,87.65-87.64m0-16.06A103.7,103.7,0,1,0,477.8,353.55a103.7,103.7,0,0,0-103.69-103.7Z"
              transform="translate(0.5 0.5)"/>
      </g>
      <polygon class="common-authorship-2 tesla-tertiary-color"
               points="430.32 316.89 411.76 298.34 374.56 335.54 337.45 298.43 318.89 316.99 356 354.1 318.98 391.12 337.54 409.68 374.56 372.65 411.67 409.77 430.23 391.21 393.12 354.1 430.32 316.89"/>
    </g>
    <g class="tesla-status tesla_status_success" >
      <g>
        <circle class="common-authorship-11 tesla-status-success" cx="374.11" cy="353.55" r="95.67" transform="translate(-139.93 368.59) rotate(-45)"/>
        <path class="common-authorship-2 tesla-tertiary-color"
              d="M374.11,265.91a87.65,87.65,0,1,1-87.65,87.64,87.74,87.74,0,0,1,87.65-87.64m0-16.06A103.7,103.7,0,1,0,477.8,353.55a103.7,103.7,0,0,0-103.69-103.7Z"
              transform="translate(0.5 0.5)"/>
      </g>
      <path class="common-authorship-2 tesla-tertiary-color"
            d="M359.77,368.16c1.51-2.15,2.92-4.15,4.34-6.15,8-11.32,16.42-22.35,25.48-32.86,7-8.06,14.12-15.94,21.21-23.88,1.54-1.73,2.66-1.74,4.32-.18l10.68,10c2.62,2.45,2.63,3,.26,5.67-5.26,5.91-10.65,11.7-15.7,17.78-6.48,7.78-12.94,15.59-18.93,23.75C382.81,374,374.63,386.1,366.27,398c-.65.93-1.2,1.93-1.84,2.87-1.38,2-2.8,2.17-4.47.31-3.68-4.07-7.29-8.21-11-12.29a325,325,0,0,0-26.67-26.73c-.36-.31-.71-.63-1-1-1.18-1.21-1.28-2.18-.17-3.5,2.95-3.51,5.95-7,8.94-10.48.55-.65,1.1-1.3,1.67-1.93,1.38-1.53,2.51-1.65,4-.28,4.18,3.79,8.37,7.55,12.42,11.46,3.61,3.49,7,7.15,10.57,10.73C359,367.49,359.28,367.72,359.77,368.16Z"
            transform="translate(0.5 0.5)"/>
    </g>
    <g class="tesla-status tesla_status_info" >
      <g>
        <circle class="common-authorship-6 tesla-primary-color" cx="374.11" cy="353.55" r="95.67" transform="translate(-139.93 368.59) rotate(-45)"/>
        <path class="common-authorship-2 tesla-tertiary-color"
              d="M374.11,265.91a87.65,87.65,0,1,1-87.65,87.64,87.74,87.74,0,0,1,87.65-87.64m0-16.06A103.7,103.7,0,1,0,477.8,353.55a103.7,103.7,0,0,0-103.69-103.7Z"
              transform="translate(0.5 0.5)"/>
      </g>
      <path id="i" class="common-authorship-2 tesla-tertiary-color"
            d="M348.41,426v-7.11c12.74-1.48,14.16-2.45,14.16-18V356.55c0-14.55-1-15.44-12.46-17.09V332.8a205.91,205.91,0,0,0,37.31-8.33v76.41c0,15.16,1.13,16.56,14.6,18V426Zm25.07-118a14.82,14.82,0,0,1-14.57-14.42A14.6,14.6,0,0,1,373.7,279a14.24,14.24,0,0,1,14.41,14.58A14.54,14.54,0,0,1,373.48,308Z"
            transform="translate(0.5 0.5)"/>
    </g>
    <g class="tesla-status tesla_status_disabled">
      <g>
        <rect class="tesla_status_disabled" x="-99.04" y="239.12" width="698.09" height="21.76" rx="10.87" transform="translate(-103.05 250.51) rotate(-45)"/>
      </g>
    </g>
  </g>
</svg>
