<svg xmlns="http://www.w3.org/2000/svg" viewBox="0 0 501 501">
  <defs>
    <style>


    .common-course-1 {
      opacity: 0;
    }

    .common-course-1, .common-course-2, .common-course-5 {
      stroke-miterlimit: 10;
    }

    .common-course-2 {
      fill: none;
      stroke-width: 10.44px;
    }

    .common-course-5 {
      stroke-linecap: round;
      stroke-width: 16.05px;
    }

    </style>
  </defs>
  <g class="tesla_common tesla_common_course">
    <g>
      <rect class="common-course-1" x="0.5" y="0.5" width="500" height="500"/>
    </g>

    <path class="common-course-2 tesla-primary-stroke"
          d="M200.13,273.31a25.13,25.13,0,0,0,25.12,24.85H427.38A25.13,25.13,0,0,0,452.51,273V143.14A25.13,25.13,0,0,0,427.38,118H225.25a25.13,25.13,0,0,0-25.12,24.85V191"
          transform="translate(0.5 0.5)"/>
    <path class="common-course-3 tesla-primary-color"
          d="M96.2,138.91a2.79,2.79,0,0,0,1.39,1.1.92.92,0,0,1,.67.69c.36,1.36.71,2.72,1.14,4.06,1.3,4.09,2,7.92,4.29,11.54a1.47,1.47,0,0,1,.37.76c0,3.06.18,6.36.19,9.42,0,.49,18.07,7.71,17.59,7.85l6.35-.35c-.51-.14,12.19-7,12.19-7.51,0-3.07,0-6.13,0-9.19a1.85,1.85,0,0,1,.18-.77c.31-.62.68-1.21,1-1.83.91-1.8,1-3.55,1.71-5.43,1-2.69,1.79-5.47,2.69-8.21.11-.34.3-.9.5-.92,1.09-.13,1.56-.92,2-1.76a23.13,23.13,0,0,0,2.07-6.71,27.83,27.83,0,0,0,.41-9.28,5,5,0,0,0-.88-2.25,1.16,1.16,0,0,1-.29-1c.08-1.38.3-2.76.34-4.14A31.11,31.11,0,0,0,148,101.32c-4.16-9.54-11.31-15.24-21.26-17a26.67,26.67,0,0,0-22.21,5.92,27.14,27.14,0,0,0-9.82,16.78,37.73,37.73,0,0,0-.19,11.62,1.63,1.63,0,0,1-.48,1.74,1.31,1.31,0,0,0-.4.83,30.65,30.65,0,0,0-.46,4,33.14,33.14,0,0,0,1.4,9.7A22.19,22.19,0,0,0,96.2,138.91Z"
          transform="translate(0.5 0.5)"/>
    <path class="common-course-3 tesla-primary-color"
          d="M228.2,222.44a11.54,11.54,0,0,0-16.12-2.64L190.93,235c-2.12-9.95-4.32-19.77-6.39-28.1a46.62,46.62,0,0,0-.58-4.8c-1.3-7.08-5.23-13.89-7.55-16.48-10.61-11.9-19.13-13.31-25.3-14.85-2.85-.71-5.09-1.59-7.66-2.43v1.58a122.66,122.66,0,0,0-21.33-2.3,123.78,123.78,0,0,0-20.92,2.22V168.2c-3.23,1.05-7.7,2.61-10.1,3.12-10.82,2.29-18,7.74-22.92,14.2-.32.43-.74,1-1.22,1.67a26,26,0,0,0-3.45,6.06,43.78,43.78,0,0,0-2.88,8.83,24.72,24.72,0,0,0-.37,2.54C52.29,236,42,292,42,292s-2.6,10,6.16,12c8.36,1.84,11.52-5.89,13.86-12,9.37-24.31,18.4-46.14,18.4-46.14S75.56,423,75.56,426.28,81.47,436,89.45,436c10.09,0,16.3-4.62,16.78-9L118.9,311.62s0-1.66,3.22-1.66,3.22,1.66,3.22,1.66S137.48,422.45,138,427c.66,5.72,8.18,9,16.31,9,6.92,0,12.94-5.6,12.94-9.72s-3.44-180.38-3.44-180.38-.1-6.83,6.06,4.61c7.81,14.51,18.91,14.33,26.15,9.27l29.53-21.21A11.55,11.55,0,0,0,228.2,222.44Z"
          transform="translate(0.5 0.5)"/>
    <path class="common-course-4 tesla-tertiary-color"
          d="M112.11,226.24c.45,1.79,1-.09,2.61-9.52,1.43-8.62,4.31-20.11,4.8-22a2.22,2.22,0,0,0,.07-.57v-2.2a2.33,2.33,0,0,0-.34-1.21L116,185.32a2.29,2.29,0,0,1-.34-1.21V181.3a2.3,2.3,0,0,1,.71-1.67l2.58-2.5a2.34,2.34,0,0,1,1.62-.65h3.59a2.3,2.3,0,0,1,1.61.65l2.59,2.5a2.3,2.3,0,0,1,.71,1.67v2.81a2.38,2.38,0,0,1-.34,1.21l-3.29,5.38a2.33,2.33,0,0,0-.34,1.21v2.2a2.22,2.22,0,0,0,.07.57c.49,1.93,3.36,13.42,4.8,22,1.57,9.43,2.15,11.31,2.61,9.52,2.54-10,10.91-45.52,10.91-53.84v-4.08c-.72-.23-1.47-.46-2.26-.68a.81.81,0,0,1-.68-.92c0-3.06,0-6.13,0-9.19a1.81,1.81,0,0,1,.18-.76c.18-.36.38-.71.58-1.07L136.57,161l-7.8,7.76a2.07,2.07,0,0,1-.61.44,15.69,15.69,0,0,1-11.67,0,2.26,2.26,0,0,1-.62-.44L108.08,161l-4.39-4.6a2.39,2.39,0,0,1,.13.21,1.72,1.72,0,0,1,.24.89c0,3.06,0,6.13,0,9.19a.75.75,0,0,1-.63.87c-.62.18-1.39.42-2.24.69v4.2C101.2,180.72,109.57,216.21,112.11,226.24Z"
          transform="translate(0.5 0.5)"/>
    <rect class="common-course-3 tesla-primary-color" x="201.59" y="198.9" width="113.51" height="3.58" rx="1.79"
          transform="translate(-68.2 193.26) rotate(-36.45)"/>
    <path class="common-course-3 tesla-primary-color"
          d="M267.87,436a48.29,48.29,0,0,0-.46-9.66,25.62,25.62,0,0,0-5-10.88c-7-7.86-12.62-8.79-16.7-9.81-2.41-.6-4.15-1.38-6.55-2a.54.54,0,0,1-.45-.6c0-2,0-4.05,0-6.08a1.26,1.26,0,0,1,.12-.5c.21-.41.45-.8.66-1.21a33.94,33.94,0,0,0,1.12-3.59c.68-1.77,1.19-3.61,1.78-5.41.07-.23.2-.6.33-.61.72-.09,1-.61,1.32-1.17a15.11,15.11,0,0,0,1.37-4.43,18.24,18.24,0,0,0,.27-6.12,3.35,3.35,0,0,0-.58-1.49.74.74,0,0,1-.19-.62c0-.92.19-1.83.22-2.74a20.68,20.68,0,0,0-1.41-9c-2.75-6.3-7.47-10.06-14-11.21A17.63,17.63,0,0,0,215,352.68a18,18,0,0,0-6.48,11.08,24.73,24.73,0,0,0-.12,7.68,1.06,1.06,0,0,1-.32,1.14.84.84,0,0,0-.26.55,20.23,20.23,0,0,0-.31,2.67,22.08,22.08,0,0,0,.92,6.41,15.45,15.45,0,0,0,1.09,2.59,1.94,1.94,0,0,0,.91.73c.26.1.38.19.45.45.24.9.47,1.8.75,2.68.86,2.7,1.33,5.23,2.84,7.62a1.2,1.2,0,0,1,.15.59c0,2,0,4.05,0,6.07a.51.51,0,0,1-.42.58c-2,.55-6.15,2.09-8.14,2.51A24.69,24.69,0,0,0,191,415.41a26.19,26.19,0,0,0-5,10.93c-.54,2.49-.47,8.26-.47,9.66Z"
          transform="translate(0.5 0.5)"/>
    <path class="common-course-3 tesla-primary-color"
          d="M362.91,436a48.29,48.29,0,0,0-.46-9.66,25.62,25.62,0,0,0-5-10.88c-7-7.86-12.62-8.79-16.7-9.81-2.41-.6-4.15-1.38-6.55-2a.54.54,0,0,1-.45-.6c0-2,0-4.05,0-6.08a1.26,1.26,0,0,1,.12-.5c.21-.41.45-.8.66-1.21a33.94,33.94,0,0,0,1.12-3.59c.68-1.77,1.19-3.61,1.78-5.41.07-.23.2-.6.33-.61.72-.09,1-.61,1.32-1.17a15.11,15.11,0,0,0,1.37-4.43,18.24,18.24,0,0,0,.27-6.12,3.35,3.35,0,0,0-.58-1.49.74.74,0,0,1-.19-.62c0-.92.19-1.83.22-2.74a20.68,20.68,0,0,0-1.41-9c-2.75-6.3-7.47-10.06-14-11.21a17.63,17.63,0,0,0-14.67,3.91,18,18,0,0,0-6.48,11.08,24.73,24.73,0,0,0-.12,7.68,1.06,1.06,0,0,1-.32,1.14.84.84,0,0,0-.26.55,20.23,20.23,0,0,0-.31,2.67,22.08,22.08,0,0,0,.92,6.41,15.45,15.45,0,0,0,1.09,2.59,1.94,1.94,0,0,0,.91.73c.26.1.38.19.45.45.24.9.47,1.8.75,2.68.86,2.7,1.33,5.23,2.84,7.62a1.2,1.2,0,0,1,.15.59c0,2,0,4.05,0,6.07a.51.51,0,0,1-.42.58c-2,.55-6.14,2.09-8.14,2.51A24.69,24.69,0,0,0,286,415.41a26.19,26.19,0,0,0-5,10.93c-.54,2.49-.47,8.26-.47,9.66Z"
          transform="translate(0.5 0.5)"/>
    <path class="common-course-3 tesla-primary-color"
          d="M458,436a48.29,48.29,0,0,0-.46-9.66,25.5,25.5,0,0,0-5-10.88c-7-7.86-12.62-8.79-16.7-9.81-2.41-.6-4.15-1.38-6.55-2a.54.54,0,0,1-.45-.6c0-2,0-4.05,0-6.08a1.26,1.26,0,0,1,.12-.5c.21-.41.45-.8.66-1.21a33.94,33.94,0,0,0,1.12-3.59c.68-1.77,1.19-3.61,1.78-5.41.07-.23.2-.6.33-.61.72-.09,1-.61,1.32-1.17a15.11,15.11,0,0,0,1.37-4.43,18.24,18.24,0,0,0,.27-6.12,3.35,3.35,0,0,0-.58-1.49.74.74,0,0,1-.19-.62c.05-.92.19-1.83.22-2.74a20.68,20.68,0,0,0-1.41-9c-2.75-6.3-7.47-10.06-14-11.21a17.63,17.63,0,0,0-14.67,3.91,18,18,0,0,0-6.48,11.08,24.73,24.73,0,0,0-.12,7.68,1.06,1.06,0,0,1-.32,1.14.84.84,0,0,0-.26.55,20.23,20.23,0,0,0-.31,2.67,22.08,22.08,0,0,0,.92,6.41,15.45,15.45,0,0,0,1.09,2.59,1.94,1.94,0,0,0,.91.73c.26.1.38.19.45.45.24.9.47,1.8.75,2.68.86,2.7,1.33,5.23,2.84,7.62a1.2,1.2,0,0,1,.15.59c0,2,0,4.05,0,6.07a.5.5,0,0,1-.42.58c-2,.55-6.14,2.09-8.14,2.51A24.69,24.69,0,0,0,381,415.41a26.19,26.19,0,0,0-5,10.93c-.54,2.49-.47,8.26-.47,9.66Z"
          transform="translate(0.5 0.5)"/>
  </g>
  <g class="tesla_group_status">
    <g class="tesla-status tesla_status_warning">
      <path class="common-course-5 tesla-status-warning tesla-tertiary-stroke"
            d="M374.11,460H283c-10.12,0-16.45-11.12-11.39-20l45.57-80.08,45.57-80.07a13.06,13.06,0,0,1,22.78,0l45.56,80.07,45.57,80.08c5.06,8.89-1.26,20-11.39,20Z"
            transform="translate(0.5 0.5)"/>
      <path class="common-course-4 tesla-tertiary-color"
            d="M374,320.85c6.37,0,14.51,1.24,13.39,9.82-1.21,9.91-6.41,45.21-9.26,69.67a3.44,3.44,0,0,1-3.41,3h-1.34a3.42,3.42,0,0,1-3.41-3.05c-2.57-23.3-8-59.11-9.17-70C359.59,322.57,367.24,320.85,374,320.85Zm.18,121.47c-7.21,0-12.57-5.29-12.57-13,0-7.44,5.36-13.1,12.57-13.1,7.39,0,12.75,5.66,12.75,13.1C387,437,381.6,442.32,374.21,442.32Z"
            transform="translate(0.5 0.5)"/>
    </g>
    <g class="tesla-status tesla_status_error">
      <g>
        <circle class="common-course-6 tesla-status-error" cx="374.11" cy="384.55" r="95.67" transform="translate(-161.85 377.67) rotate(-45)"/>
        <path class="common-course-4 tesla-tertiary-color"
              d="M374.11,296.91a87.65,87.65,0,1,1-87.65,87.64,87.74,87.74,0,0,1,87.65-87.64m0-16.06A103.7,103.7,0,1,0,477.8,384.55a103.7,103.7,0,0,0-103.69-103.7Z"
              transform="translate(0.5 0.5)"/>
      </g>
      <polygon class="common-course-4 tesla-tertiary-color"
               points="430.32 347.89 411.76 329.34 374.56 366.54 337.45 329.43 318.89 347.99 356 385.1 318.98 422.12 337.54 440.68 374.56 403.65 411.67 440.77 430.23 422.21 393.12 385.1 430.32 347.89"/>
    </g>
    <g class="tesla-status tesla_status_success">
      <g>
        <circle class="common-course-7 tesla-status-success" cx="374.11" cy="384.55" r="95.67" transform="translate(-161.85 377.67) rotate(-45)"/>
        <path class="common-course-4 tesla-tertiary-color"
              d="M374.11,296.91a87.65,87.65,0,1,1-87.65,87.64,87.74,87.74,0,0,1,87.65-87.64m0-16.06A103.7,103.7,0,1,0,477.8,384.55a103.7,103.7,0,0,0-103.69-103.7Z"
              transform="translate(0.5 0.5)"/>
      </g>
      <path class="common-course-4 tesla-tertiary-color"
            d="M359.77,399.16c1.51-2.15,2.92-4.15,4.34-6.15,8-11.32,16.42-22.35,25.48-32.86,7-8.06,14.12-15.94,21.21-23.88,1.54-1.73,2.66-1.74,4.32-.18l10.68,10c2.62,2.45,2.63,3,.26,5.67-5.26,5.91-10.65,11.7-15.7,17.78-6.48,7.78-12.94,15.59-18.93,23.75C382.81,405,374.63,417.1,366.27,429c-.65.93-1.2,1.93-1.84,2.87-1.38,2-2.8,2.17-4.47.31-3.68-4.07-7.29-8.21-11-12.29a325,325,0,0,0-26.67-26.73c-.36-.31-.71-.63-1-1-1.18-1.21-1.28-2.18-.17-3.5,2.95-3.51,5.95-7,8.94-10.48.55-.65,1.1-1.3,1.67-1.93,1.38-1.53,2.51-1.65,4-.28,4.18,3.79,8.37,7.55,12.42,11.46,3.61,3.49,7,7.15,10.57,10.73C359,398.49,359.28,398.72,359.77,399.16Z"
            transform="translate(0.5 0.5)"/>
    </g>
    <g class="tesla-status tesla_status_info">
      <g>
        <circle class="common-course-3 tesla-primary-color" cx="374.11" cy="384.55" r="95.67" transform="translate(-161.85 377.67) rotate(-45)"/>
        <path class="common-course-4 tesla-tertiary-color"
              d="M374.11,296.91a87.65,87.65,0,1,1-87.65,87.64,87.74,87.74,0,0,1,87.65-87.64m0-16.06A103.7,103.7,0,1,0,477.8,384.55a103.7,103.7,0,0,0-103.69-103.7Z"
              transform="translate(0.5 0.5)"/>
      </g>
      <path class="common-course-4 tesla-tertiary-color"
            d="M348.41,457v-7.11c12.74-1.48,14.16-2.45,14.16-18V387.55c0-14.55-1-15.44-12.46-17.09V363.8a205.91,205.91,0,0,0,37.31-8.33v76.41c0,15.16,1.13,16.56,14.6,18V457Zm25.07-118a14.82,14.82,0,0,1-14.57-14.42A14.6,14.6,0,0,1,373.7,310a14.24,14.24,0,0,1,14.41,14.58A14.54,14.54,0,0,1,373.48,339Z"
            transform="translate(0.5 0.5)"/>
    </g>
    <g class="tesla-status tesla_status_disabled">
      <g>
        <rect class="tesla_status_disabled" x="-99.04" y="239.12" width="698.09" height="21.76" rx="10.87" transform="translate(-103.05 250.51) rotate(-45)"/>
      </g>
    </g>
  </g>
</svg>
