<svg xmlns="http://www.w3.org/2000/svg" viewBox="0 0 416.36 352.09">
  <defs>
    <style>
      .tesla-common-course-1 {
      fill: none;
      stroke-miterlimit: 10;
      stroke-width: 10.44px;
    }
    </style>
  </defs>
  <g class="tesla_common tesla_common_course">
  <path class="tesla-common-course-1 tesla-primary-stroke"
        d="M200.13,273.31a25.13,25.13,0,0,0,25.12,24.85H427.38A25.13,25.13,0,0,0,452.51,273V143.14A25.13,25.13,0,0,0,427.38,118H225.25a25.13,25.13,0,0,0-25.12,24.85V191"
        transform="translate(-41.64 -83.91)"/>
  <path class="tesla-primary-color"
        d="M96.2,138.91a2.79,2.79,0,0,0,1.39,1.1.92.92,0,0,1,.67.69c.36,1.36.71,2.72,1.14,4.06,1.3,4.09,2,7.92,4.29,11.54a1.47,1.47,0,0,1,.37.76c0,3.06.18,6.36.19,9.42,0,.49,18.07,7.71,17.59,7.85l6.35-.35c-.51-.14,12.19-7,12.19-7.51,0-3.07,0-6.13,0-9.19a1.85,1.85,0,0,1,.18-.77c.31-.62.68-1.21,1-1.83.91-1.8,1-3.55,1.71-5.43,1-2.69,1.79-5.47,2.69-8.21.11-.34.3-.9.5-.92,1.09-.13,1.56-.92,2-1.76a23.13,23.13,0,0,0,2.07-6.71,27.83,27.83,0,0,0,.41-9.28,5,5,0,0,0-.88-2.25,1.16,1.16,0,0,1-.29-1c.08-1.38.3-2.76.34-4.14A31.11,31.11,0,0,0,148,101.32c-4.16-9.54-11.31-15.24-21.26-17a26.67,26.67,0,0,0-22.21,5.92,27.14,27.14,0,0,0-9.82,16.78,37.73,37.73,0,0,0-.19,11.62,1.63,1.63,0,0,1-.48,1.74,1.31,1.31,0,0,0-.4.83,30.65,30.65,0,0,0-.46,4,33.14,33.14,0,0,0,1.4,9.7A22.19,22.19,0,0,0,96.2,138.91Z"
        transform="translate(-41.64 -83.91)"/>
  <path class="tesla-primary-color"
        d="M228.2,222.44a11.54,11.54,0,0,0-16.12-2.64L190.93,235c-2.12-9.95-4.32-19.77-6.39-28.1a46.62,46.62,0,0,0-.58-4.8c-1.3-7.08-5.23-13.89-7.55-16.48-10.61-11.9-19.13-13.31-25.3-14.85-2.85-.71-5.09-1.59-7.66-2.43v1.58a122.66,122.66,0,0,0-21.33-2.3,123.78,123.78,0,0,0-20.92,2.22V168.2c-3.23,1.05-7.7,2.61-10.1,3.12-10.82,2.29-18,7.74-22.92,14.2-.32.43-.74,1-1.22,1.67a26,26,0,0,0-3.45,6.06,43.78,43.78,0,0,0-2.88,8.83,24.72,24.72,0,0,0-.37,2.54C52.29,236,42,292,42,292s-2.6,10,6.16,12c8.36,1.84,11.52-5.89,13.86-12,9.37-24.31,18.4-46.14,18.4-46.14S75.56,423,75.56,426.28,81.47,436,89.45,436c10.09,0,16.3-4.62,16.78-9L118.9,311.62s0-1.66,3.22-1.66,3.22,1.66,3.22,1.66S137.48,422.45,138,427c.66,5.72,8.18,9,16.31,9,6.92,0,12.94-5.6,12.94-9.72s-3.44-180.38-3.44-180.38-.1-6.83,6.06,4.61c7.81,14.51,18.91,14.33,26.15,9.27l29.53-21.21A11.55,11.55,0,0,0,228.2,222.44Z"
        transform="translate(-41.64 -83.91)"/>
  <path class="tesla-tertiary-color"
        d="M112.11,226.24c.45,1.79,1-.09,2.61-9.52,1.43-8.62,4.31-20.11,4.8-22a2.22,2.22,0,0,0,.07-.57v-2.2a2.33,2.33,0,0,0-.34-1.21L116,185.32a2.29,2.29,0,0,1-.34-1.21V181.3a2.3,2.3,0,0,1,.71-1.67l2.58-2.5a2.34,2.34,0,0,1,1.62-.65h3.59a2.3,2.3,0,0,1,1.61.65l2.59,2.5a2.3,2.3,0,0,1,.71,1.67v2.81a2.38,2.38,0,0,1-.34,1.21l-3.29,5.38a2.33,2.33,0,0,0-.34,1.21v2.2a2.22,2.22,0,0,0,.07.57c.49,1.93,3.36,13.42,4.8,22,1.57,9.43,2.15,11.31,2.61,9.52,2.54-10,10.91-45.52,10.91-53.84v-4.08c-.72-.23-1.47-.46-2.26-.68a.81.81,0,0,1-.68-.92c0-3.06,0-6.13,0-9.19a1.81,1.81,0,0,1,.18-.76c.18-.36.38-.71.58-1.07L136.57,161l-7.8,7.76a2.07,2.07,0,0,1-.61.44,15.69,15.69,0,0,1-11.67,0,2.26,2.26,0,0,1-.62-.44L108.08,161l-4.39-4.6a2.39,2.39,0,0,1,.13.21,1.72,1.72,0,0,1,.24.89c0,3.06,0,6.13,0,9.19a.75.75,0,0,1-.63.87c-.62.18-1.39.42-2.24.69v4.2C101.2,180.72,109.57,216.21,112.11,226.24Z"
        transform="translate(-41.64 -83.91)"/>
  <rect class="tesla-primary-color" x="201.59" y="198.9" width="113.51" height="3.58" rx="1.79"
        transform="translate(-110.33 108.86) rotate(-36.45)"/>
  <path class="tesla-primary-color"
        d="M267.87,436a48.29,48.29,0,0,0-.46-9.66,25.62,25.62,0,0,0-5-10.88c-7-7.86-12.62-8.79-16.7-9.81-2.41-.6-4.15-1.38-6.55-2a.54.54,0,0,1-.45-.6c0-2,0-4.05,0-6.08a1.26,1.26,0,0,1,.12-.5c.21-.41.45-.8.66-1.21a33.94,33.94,0,0,0,1.12-3.59c.68-1.77,1.19-3.61,1.78-5.41.07-.23.2-.6.33-.61.72-.09,1-.61,1.32-1.17a15.11,15.11,0,0,0,1.37-4.43,18.24,18.24,0,0,0,.27-6.12,3.35,3.35,0,0,0-.58-1.49.74.74,0,0,1-.19-.62c0-.92.19-1.83.22-2.74a20.68,20.68,0,0,0-1.41-9c-2.75-6.3-7.47-10.06-14-11.21A17.63,17.63,0,0,0,215,352.68a18,18,0,0,0-6.48,11.08,24.73,24.73,0,0,0-.12,7.68,1.06,1.06,0,0,1-.32,1.14.84.84,0,0,0-.26.55,20.23,20.23,0,0,0-.31,2.67,22.08,22.08,0,0,0,.92,6.41,15.45,15.45,0,0,0,1.09,2.59,1.94,1.94,0,0,0,.91.73c.26.1.38.19.45.45.24.9.47,1.8.75,2.68.86,2.7,1.33,5.23,2.84,7.62a1.2,1.2,0,0,1,.15.59c0,2,0,4.05,0,6.07a.51.51,0,0,1-.42.58c-2,.55-6.15,2.09-8.14,2.51A24.69,24.69,0,0,0,191,415.41a26.19,26.19,0,0,0-5,10.93c-.54,2.49-.47,8.26-.47,9.66Z"
        transform="translate(-41.64 -83.91)"/>
  <path class="tesla-primary-color"
        d="M362.91,436a48.29,48.29,0,0,0-.46-9.66,25.62,25.62,0,0,0-5-10.88c-7-7.86-12.62-8.79-16.7-9.81-2.41-.6-4.15-1.38-6.55-2a.54.54,0,0,1-.45-.6c0-2,0-4.05,0-6.08a1.26,1.26,0,0,1,.12-.5c.21-.41.45-.8.66-1.21a33.94,33.94,0,0,0,1.12-3.59c.68-1.77,1.19-3.61,1.78-5.41.07-.23.2-.6.33-.61.72-.09,1-.61,1.32-1.17a15.11,15.11,0,0,0,1.37-4.43,18.24,18.24,0,0,0,.27-6.12,3.35,3.35,0,0,0-.58-1.49.74.74,0,0,1-.19-.62c0-.92.19-1.83.22-2.74a20.68,20.68,0,0,0-1.41-9c-2.75-6.3-7.47-10.06-14-11.21a17.63,17.63,0,0,0-14.67,3.91,18,18,0,0,0-6.48,11.08,24.73,24.73,0,0,0-.12,7.68,1.06,1.06,0,0,1-.32,1.14.84.84,0,0,0-.26.55,20.23,20.23,0,0,0-.31,2.67,22.08,22.08,0,0,0,.92,6.41,15.45,15.45,0,0,0,1.09,2.59,1.94,1.94,0,0,0,.91.73c.26.1.38.19.45.45.24.9.47,1.8.75,2.68.86,2.7,1.33,5.23,2.84,7.62a1.2,1.2,0,0,1,.15.59c0,2,0,4.05,0,6.07a.51.51,0,0,1-.42.58c-2,.55-6.14,2.09-8.14,2.51A24.69,24.69,0,0,0,286,415.41a26.19,26.19,0,0,0-5,10.93c-.54,2.49-.47,8.26-.47,9.66Z"
        transform="translate(-41.64 -83.91)"/>
  <path class="tesla-primary-color"
        d="M458,436a48.29,48.29,0,0,0-.46-9.66,25.5,25.5,0,0,0-5-10.88c-7-7.86-12.62-8.79-16.7-9.81-2.41-.6-4.15-1.38-6.55-2a.54.54,0,0,1-.45-.6c0-2,0-4.05,0-6.08a1.26,1.26,0,0,1,.12-.5c.21-.41.45-.8.66-1.21a33.94,33.94,0,0,0,1.12-3.59c.68-1.77,1.19-3.61,1.78-5.41.07-.23.2-.6.33-.61.72-.09,1-.61,1.32-1.17a15.11,15.11,0,0,0,1.37-4.43,18.24,18.24,0,0,0,.27-6.12,3.35,3.35,0,0,0-.58-1.49.74.74,0,0,1-.19-.62c.05-.92.19-1.83.22-2.74a20.68,20.68,0,0,0-1.41-9c-2.75-6.3-7.47-10.06-14-11.21a17.63,17.63,0,0,0-14.67,3.91,18,18,0,0,0-6.48,11.08,24.73,24.73,0,0,0-.12,7.68,1.06,1.06,0,0,1-.32,1.14.84.84,0,0,0-.26.55,20.23,20.23,0,0,0-.31,2.67,22.08,22.08,0,0,0,.92,6.41,15.45,15.45,0,0,0,1.09,2.59,1.94,1.94,0,0,0,.91.73c.26.1.38.19.45.45.24.9.47,1.8.75,2.68.86,2.7,1.33,5.23,2.84,7.62a1.2,1.2,0,0,1,.15.59c0,2,0,4.05,0,6.07a.5.5,0,0,1-.42.58c-2,.55-6.14,2.09-8.14,2.51A24.69,24.69,0,0,0,381,415.41a26.19,26.19,0,0,0-5,10.93c-.54,2.49-.47,8.26-.47,9.66Z"
        transform="translate(-41.64 -83.91)"/>
  </g>
</svg>
