<svg xmlns="http://www.w3.org/2000/svg" viewBox="0 0 501 501">
  <defs>
    <style>
    .sensor-dashboard-2 {
      opacity: 0;
    }

    .sensor-dashboard-2, .sensor-dashboard-4, .sensor-dashboard-5 {
      stroke-miterlimit: 10;
    }

    .sensor-dashboard-4 {
      stroke-width: 8.09px;
      mix-blend-mode: overlay;
    }

    .sensor-dashboard-5 {
      stroke-linecap: round;
      stroke-width: 16.05px;
    }
    </style>
  </defs>
  <g class="tesla_sensor tesla_sensor_dashboard">
    <g>
      <rect class="sensor-dashboard-2 tesla-tertiary-color" x="0.5" y="0.5" width="500" height="500"/>
    </g>
    <g>
      <path class="sensor-dashboard-3 tesla-primary-color"
            d="M250,47.66c111.75,0,202.34,90.59,202.34,202.34S361.75,452.34,250,452.34,47.66,361.75,47.66,250,138.25,47.66,250,47.66m0-19.23a221.63,221.63,0,0,0-86.25,425.72,221.62,221.62,0,0,0,172.5-408.3A220.2,220.2,0,0,0,250,28.43Z"
            transform="translate(0.5 0.5)"/>
      <polygon class="sensor-dashboard-4 tesla-primary-color tesla-primary-stroke" points="284.38 228.14 398.57 249.4 335.91 149.38 284.38 228.14"/>
      <polygon class="sensor-dashboard-4 tesla-primary-color tesla-primary-stroke" points="300.09 284.16 228.09 340.59 308.54 383.13 324.51 331.35 300.09 284.16"/>
      <polygon class="sensor-dashboard-4 tesla-primary-color tesla-primary-stroke" points="160.56 199.39 224 164.21 151.37 134.81 160.56 199.39"/>
      <polygon class="sensor-dashboard-4 tesla-primary-color tesla-primary-stroke" points="116.91 310.38 213.91 277.66 149.89 250.06 116.91 310.38"/>
    </g>
  </g>
  <g class="tesla_group_status">
    <g class="tesla-status tesla_status_warning">
      <path class="sensor-dashboard-5 tesla-status-warning tesla-tertiary-stroke"
            d="M374.11,466H283c-10.12,0-16.45-11.12-11.39-20l45.57-80.08,45.57-80.07a13.06,13.06,0,0,1,22.78,0l45.56,80.07,45.57,80.08c5.06,8.89-1.26,20-11.39,20Z"
            transform="translate(0.5 0.5)"/>
      <path class="sensor-dashboard-6 tesla-tertiary-color"
            d="M374,326.85c6.37,0,14.51,1.24,13.39,9.82-1.21,9.91-6.41,45.21-9.26,69.67a3.44,3.44,0,0,1-3.41,3h-1.34a3.42,3.42,0,0,1-3.41-3.05c-2.57-23.3-8-59.11-9.17-70C359.59,328.57,367.24,326.85,374,326.85Zm.18,121.47c-7.21,0-12.57-5.29-12.57-13,0-7.44,5.36-13.1,12.57-13.1,7.39,0,12.75,5.66,12.75,13.1C387,443,381.6,448.32,374.21,448.32Z"
            transform="translate(0.5 0.5)"/>
    </g>
    <g class="tesla-status tesla_status_error">
      <g>
        <circle class="sensor-dashboard-7 tesla-status-error" cx="374.11" cy="390.55" r="95.67" transform="translate(-166.09 379.42) rotate(-45)"/>
        <path class="sensor-dashboard-6 tesla-tertiary-color"
              d="M374.11,302.91a87.65,87.65,0,1,1-87.65,87.64,87.74,87.74,0,0,1,87.65-87.64m0-16.06A103.7,103.7,0,1,0,477.8,390.55a103.7,103.7,0,0,0-103.69-103.7Z"
              transform="translate(0.5 0.5)"/>
      </g>
      <polygon class="sensor-dashboard-6 tesla-tertiary-color"
               points="430.32 353.89 411.76 335.34 374.56 372.54 337.45 335.43 318.89 353.99 356 391.1 318.98 428.12 337.54 446.68 374.56 409.65 411.67 446.77 430.23 428.21 393.12 391.1 430.32 353.89"/>
    </g>
    <g class="tesla-status tesla_status_success">
      <g>
        <circle class="sensor-dashboard-8 tesla-status-success" cx="374.11" cy="390.55" r="95.67" transform="translate(-166.09 379.42) rotate(-45)"/>
        <path class="sensor-dashboard-6 tesla-tertiary-color"
              d="M374.11,302.91a87.65,87.65,0,1,1-87.65,87.64,87.74,87.74,0,0,1,87.65-87.64m0-16.06A103.7,103.7,0,1,0,477.8,390.55a103.7,103.7,0,0,0-103.69-103.7Z"
              transform="translate(0.5 0.5)"/>
      </g>
      <path class="sensor-dashboard-6 tesla-tertiary-color"
            d="M359.77,405.16c1.51-2.15,2.92-4.15,4.34-6.15,8-11.32,16.42-22.35,25.48-32.86,7-8.06,14.12-15.94,21.21-23.88,1.54-1.73,2.66-1.74,4.32-.18l10.68,10c2.62,2.45,2.63,3,.26,5.67-5.26,5.91-10.65,11.7-15.7,17.78-6.48,7.78-12.94,15.59-18.93,23.75C382.81,411,374.63,423.1,366.27,435c-.65.93-1.2,1.93-1.84,2.87-1.38,2-2.8,2.17-4.47.31-3.68-4.07-7.29-8.21-11-12.29a325,325,0,0,0-26.67-26.73c-.36-.31-.71-.63-1-1-1.18-1.21-1.28-2.18-.17-3.5,2.95-3.51,5.95-7,8.94-10.48.55-.65,1.1-1.3,1.67-1.93,1.38-1.53,2.51-1.65,4-.28,4.18,3.79,8.37,7.55,12.42,11.46,3.61,3.49,7,7.15,10.57,10.73C359,404.49,359.28,404.72,359.77,405.16Z"
            transform="translate(0.5 0.5)"/>
    </g>
    <g class="tesla-status tesla_status_info">
      <g>
        <circle class="sensor-dashboard-3 tesla-primary-color" cx="374.11" cy="390.55" r="95.67" transform="translate(-166.09 379.42) rotate(-45)"/>
        <path class="sensor-dashboard-6 tesla-tertiary-color"
              d="M374.11,302.91a87.65,87.65,0,1,1-87.65,87.64,87.74,87.74,0,0,1,87.65-87.64m0-16.06A103.7,103.7,0,1,0,477.8,390.55a103.7,103.7,0,0,0-103.69-103.7Z"
              transform="translate(0.5 0.5)"/>
      </g>
      <path class="sensor-dashboard-6 tesla-tertiary-color"
            d="M348.41,463v-7.11c12.74-1.48,14.16-2.45,14.16-18V393.55c0-14.55-1-15.44-12.46-17.09V369.8a205.91,205.91,0,0,0,37.31-8.33v76.41c0,15.16,1.13,16.56,14.6,18V463Zm25.07-118a14.82,14.82,0,0,1-14.57-14.42A14.6,14.6,0,0,1,373.7,316a14.24,14.24,0,0,1,14.41,14.58A14.54,14.54,0,0,1,373.48,345Z"
            transform="translate(0.5 0.5)"/>
    </g>
    <g class="tesla-status tesla_status_disabled">
      <g>
        <rect class="tesla_status_disabled" x="-99.04" y="239.12" width="698.09" height="21.76" rx="10.87" transform="translate(-103.05 250.51) rotate(-45)"/>
      </g>
    </g>
  </g>
</svg>
