<svg xmlns="http://www.w3.org/2000/svg" viewBox="0 0 501 501">
  <defs>
    <style>
    .common-identity-1 {
      opacity: 0;
    }

    .common-identity-1, .common-identity-3, .common-identity-4, .common-identity-6 {
      stroke-miterlimit: 10;
    }

    .common-identity-3, .common-identity-4 {
      fill: none;
    }

    .common-identity-3 {
      stroke-width: 6.96px;
    }

    .common-identity-4 {
      stroke-width: 7.87px;
    }

    .common-identity-6 {
      stroke-linecap: round;
      stroke-width: 16.05px;
    }

    </style>
  </defs>

  <g class="tesla_common tesla_common_identity">
    <g>
      <rect class="common-identity-1 tesla-tertiary-color" x="0.5" y="0.5" width="500" height="500"/>
    </g>
    <path class="common-identity-2 tesla-primary-color"
          d="M447.7,124.77H292.41a22.43,22.43,0,0,1-21.17,15H228.76a22.43,22.43,0,0,1-21.17-15H51.94a10.07,10.07,0,0,0-10.07,10.07V364.28a10.06,10.06,0,0,0,10.07,10.06H447.7a10.06,10.06,0,0,0,10.07-10.06V134.84A10.07,10.07,0,0,0,447.7,124.77Z"
          transform="translate(0.5 0.5)"/>
    <line class="common-identity-3 tesla-tertiary-stroke" x1="243.19" y1="176.36" x2="438.47" y2="176.36"/>
    <line class="common-identity-3 tesla-tertiary-stroke" x1="243.19" y1="221.39" x2="438.47" y2="221.39"/>
    <line class="common-identity-3 tesla-tertiary-stroke" x1="243.19" y1="261.93" x2="438.47" y2="261.93"/>
    <line class="common-identity-3 tesla-tertiary-stroke" x1="243.19" y1="306.29" x2="438.47" y2="306.29"/>
    <line class="common-identity-4 tesla-tertiary-stroke" x1="61.96" y1="350.64" x2="438.47" y2="350.64"/>
    <g>
      <rect class="common-identity-5 tesla-tertiary-color" x="61.96" y="165.68" width="152.84" height="148.56" rx="14.3"/>
      <path class="common-identity-2 tesla-primary-color"
            d="M193.64,300.44c.11-3.48.19-15.4-.63-19.85a34.7,34.7,0,0,0-6.75-14.75c-9.49-10.64-17.11-11.9-22.63-13.28-3.27-.81-5.63-1.87-8.87-2.78a.72.72,0,0,1-.61-.82c0-2.74,0-5.48,0-8.22a1.45,1.45,0,0,1,.16-.68c.27-.56.6-1.09.88-1.65.81-1.61.89-3.17,1.53-4.86.91-2.4,1.6-4.89,2.4-7.34.1-.3.28-.8.46-.82,1-.11,1.39-.82,1.78-1.58a20.3,20.3,0,0,0,1.85-6,24.63,24.63,0,0,0,.37-8.3,4.65,4.65,0,0,0-.79-2,1,1,0,0,1-.26-.84c.08-1.24.27-2.47.31-3.7a27.82,27.82,0,0,0-1.92-12.26c-3.72-8.54-10.11-13.64-19-15.19a23.87,23.87,0,0,0-19.87,5.3,24.19,24.19,0,0,0-8.77,15,33.91,33.91,0,0,0-.18,10.4,1.44,1.44,0,0,1-.43,1.56,1.2,1.2,0,0,0-.35.74,27.71,27.71,0,0,0-.41,3.61,29.65,29.65,0,0,0,1.24,8.69,21.17,21.17,0,0,0,1.47,3.51,2.48,2.48,0,0,0,1.24,1,.84.84,0,0,1,.61.62c.32,1.21.63,2.43,1,3.63,1.17,3.66,1.81,7.08,3.85,10.33a1.53,1.53,0,0,1,.21.79c0,2.74,0,5.49,0,8.23a.67.67,0,0,1-.57.78c-2.65.74-8.33,2.83-11,3.4a33.48,33.48,0,0,0-20.51,12.71,35.62,35.62,0,0,0-6.75,14.81c-.73,3.37-.63,18.12-.63,20Z"
            transform="translate(0.5 0.5)"/>
    </g>
  </g>
  <g class="tesla_group_status">
    <g class="tesla-status tesla_status_warning">
      <path class="common-identity-6 tesla-tertiary-stroke tesla-status-warning"
            d="M374.11,429H283c-10.12,0-16.45-11.12-11.39-20l45.57-80.08,45.57-80.07a13.06,13.06,0,0,1,22.78,0l45.56,80.07,45.57,80.08c5.06,8.89-1.26,20-11.39,20Z"
            transform="translate(0.5 0.5)"/>
      <path class="common-identity-5 tesla-tertiary-color"
            d="M374,289.85c6.37,0,14.51,1.24,13.39,9.82-1.21,9.91-6.41,45.21-9.26,69.67a3.44,3.44,0,0,1-3.41,3h-1.34a3.42,3.42,0,0,1-3.41-3.05c-2.57-23.3-8-59.11-9.17-70C359.59,291.57,367.24,289.85,374,289.85Zm.18,121.47c-7.21,0-12.57-5.29-12.57-13,0-7.44,5.36-13.1,12.57-13.1,7.39,0,12.75,5.66,12.75,13.1C387,406,381.6,411.32,374.21,411.32Z"
            transform="translate(0.5 0.5)"/>
    </g>
    <g class="tesla-status tesla_status_error">
      <g>
        <circle class="common-identity-7 tesla-status-error" cx="374.11" cy="353.55" r="95.67" transform="translate(-139.93 368.59) rotate(-45)"/>
        <path class="common-identity-5 tesla-tertiary-color"
              d="M374.11,265.91a87.65,87.65,0,1,1-87.65,87.64,87.74,87.74,0,0,1,87.65-87.64m0-16.06A103.7,103.7,0,1,0,477.8,353.55a103.7,103.7,0,0,0-103.69-103.7Z"
              transform="translate(0.5 0.5)"/>
      </g>
      <polygon class="common-identity-5 tesla-tertiary-color"
               points="430.32 316.89 411.76 298.34 374.56 335.54 337.45 298.43 318.89 316.99 356 354.1 318.98 391.12 337.54 409.68 374.56 372.65 411.67 409.77 430.23 391.21 393.12 354.1 430.32 316.89"/>
    </g>
    <g class="tesla-status tesla_status_success">
      <g>
        <circle class="common-identity-8 tesla-status-success" cx="374.11" cy="353.55" r="95.67" transform="translate(-139.93 368.59) rotate(-45)"/>
        <path class="common-identity-5 tesla-tertiary-color"
              d="M374.11,265.91a87.65,87.65,0,1,1-87.65,87.64,87.74,87.74,0,0,1,87.65-87.64m0-16.06A103.7,103.7,0,1,0,477.8,353.55a103.7,103.7,0,0,0-103.69-103.7Z"
              transform="translate(0.5 0.5)"/>
      </g>
      <path class="common-identity-5 tesla-tertiary-color"
            d="M359.77,368.16c1.51-2.15,2.92-4.15,4.34-6.15,8-11.32,16.42-22.35,25.48-32.86,7-8.06,14.12-15.94,21.21-23.88,1.54-1.73,2.66-1.74,4.32-.18l10.68,10c2.62,2.45,2.63,3,.26,5.67-5.26,5.91-10.65,11.7-15.7,17.78-6.48,7.78-12.94,15.59-18.93,23.75C382.81,374,374.63,386.1,366.27,398c-.65.93-1.2,1.93-1.84,2.87-1.38,2-2.8,2.17-4.47.31-3.68-4.07-7.29-8.21-11-12.29a325,325,0,0,0-26.67-26.73c-.36-.31-.71-.63-1-1-1.18-1.21-1.28-2.18-.17-3.5,2.95-3.51,5.95-7,8.94-10.48.55-.65,1.1-1.3,1.67-1.93,1.38-1.53,2.51-1.65,4-.28,4.18,3.79,8.37,7.55,12.42,11.46,3.61,3.49,7,7.15,10.57,10.73C359,367.49,359.28,367.72,359.77,368.16Z"
            transform="translate(0.5 0.5)"/>
    </g>
    <g class="tesla-status tesla_status_info">
      <g>
        <circle class="common-identity-2 tesla-primary-color" cx="374.11" cy="353.55" r="95.67" transform="translate(-139.93 368.59) rotate(-45)"/>
        <path class="common-identity-5 tesla-tertiary-color"
              d="M374.11,265.91a87.65,87.65,0,1,1-87.65,87.64,87.74,87.74,0,0,1,87.65-87.64m0-16.06A103.7,103.7,0,1,0,477.8,353.55a103.7,103.7,0,0,0-103.69-103.7Z"
              transform="translate(0.5 0.5)"/>
      </g>
      <path class="common-identity-5 tesla-tertiary-color"
            d="M348.41,426v-7.11c12.74-1.48,14.16-2.45,14.16-18V356.55c0-14.55-1-15.44-12.46-17.09V332.8a205.91,205.91,0,0,0,37.31-8.33v76.41c0,15.16,1.13,16.56,14.6,18V426Zm25.07-118a14.82,14.82,0,0,1-14.57-14.42A14.6,14.6,0,0,1,373.7,279a14.24,14.24,0,0,1,14.41,14.58A14.54,14.54,0,0,1,373.48,308Z"
            transform="translate(0.5 0.5)"/>
    </g>
    <g class="tesla-status tesla_status_disabled">
      <g>
        <rect class="tesla_status_disabled" x="-99.04" y="239.12" width="698.09" height="21.76" rx="10.87" transform="translate(-103.05 250.51) rotate(-45)"/>
      </g>
    </g>
  </g>
</svg>
