<svg xmlns="http://www.w3.org/2000/svg" viewBox="0 0 415.89 249.57">
  <defs>
    <style>

    .tesla-common-identity-2, .tesla-common-identity-3 {
      fill: none;
      stroke-miterlimit: 10;
    }

    .tesla-common-identity-2 {
      stroke-width: 6.96px;
    }

    .tesla-common-identity-3 {
      stroke-width: 7.87px;
    }
    </style>
  </defs>
  <g class="tesla_common tesla_common_identity">
    <path class="tesla-primary-color"
          d="M447.7,124.77H292.41a22.43,22.43,0,0,1-21.17,15H228.76a22.43,22.43,0,0,1-21.17-15H51.94a10.07,10.07,0,0,0-10.07,10.07V364.28a10.06,10.06,0,0,0,10.07,10.06H447.7a10.06,10.06,0,0,0,10.07-10.06V134.84A10.07,10.07,0,0,0,447.7,124.77Z"
          transform="translate(-41.87 -124.77)"/>
    <line class="tesla-common-identity-2 tesla-tertiary-stroke" x1="200.82" y1="51.09" x2="396.1" y2="51.09"/>
    <line class="tesla-common-identity-2 tesla-tertiary-stroke" x1="200.82" y1="96.12" x2="396.1" y2="96.12"/>
    <line class="tesla-common-identity-2 tesla-tertiary-stroke" x1="200.82" y1="136.66" x2="396.1" y2="136.66"/>
    <line class="tesla-common-identity-2 tesla-tertiary-stroke" x1="200.82" y1="181.02" x2="396.1" y2="181.02"/>
    <line class="tesla-common-identity-3 tesla-tertiary-stroke" x1="19.59" y1="225.37" x2="396.1" y2="225.37"/>
    <g>
      <rect class="tesla-tertiary-color" x="19.59" y="40.41" width="152.84" height="148.56" rx="14.3"/>
      <path class="tesla-primary-color"
            d="M193.64,300.44c.11-3.48.19-15.4-.63-19.85a34.7,34.7,0,0,0-6.75-14.75c-9.49-10.64-17.11-11.9-22.63-13.28-3.27-.81-5.63-1.87-8.87-2.78a.72.72,0,0,1-.61-.82c0-2.74,0-5.48,0-8.22a1.45,1.45,0,0,1,.16-.68c.27-.56.6-1.09.88-1.65.81-1.61.89-3.17,1.53-4.86.91-2.4,1.6-4.89,2.4-7.34.1-.3.28-.8.46-.82,1-.11,1.39-.82,1.78-1.58a20.3,20.3,0,0,0,1.85-6,24.63,24.63,0,0,0,.37-8.3,4.65,4.65,0,0,0-.79-2,1,1,0,0,1-.26-.84c.08-1.24.27-2.47.31-3.7a27.82,27.82,0,0,0-1.92-12.26c-3.72-8.54-10.11-13.64-19-15.19a23.87,23.87,0,0,0-19.87,5.3,24.19,24.19,0,0,0-8.77,15,33.91,33.91,0,0,0-.18,10.4,1.44,1.44,0,0,1-.43,1.56,1.2,1.2,0,0,0-.35.74,27.71,27.71,0,0,0-.41,3.61,29.65,29.65,0,0,0,1.24,8.69,21.17,21.17,0,0,0,1.47,3.51,2.48,2.48,0,0,0,1.24,1,.84.84,0,0,1,.61.62c.32,1.21.63,2.43,1,3.63,1.17,3.66,1.81,7.08,3.85,10.33a1.53,1.53,0,0,1,.21.79c0,2.74,0,5.49,0,8.23a.67.67,0,0,1-.57.78c-2.65.74-8.33,2.83-11,3.4a33.48,33.48,0,0,0-20.51,12.71,35.62,35.62,0,0,0-6.75,14.81c-.73,3.37-.63,18.12-.63,20Z"
            transform="translate(-41.87 -124.77)"/>
    </g>
  </g>
</svg>
