<svg xmlns="http://www.w3.org/2000/svg" xmlns:xlink="http://www.w3.org/1999/xlink" viewBox="0 0 500 500">
  <defs>
    <style>.common-menu_logo-1 {
      isolation: isolate;
    }

    .common-menu_logo-10, .common-menu_logo-11, .common-menu_logo-12, .common-menu_logo-13, .common-menu_logo-14, .common-menu_logo-15, .common-menu_logo-16, .common-menu_logo-17, .common-menu_logo-2, .common-menu_logo-3, .common-menu_logo-4, .common-menu_logo-5, .common-menu_logo-6, .common-menu_logo-7, .common-menu_logo-8, .common-menu_logo-9 {
      fill: none;
    }

    .common-menu_logo-2 {
      opacity: 0;
    }

    .common-menu_logo-10, .common-menu_logo-11, .common-menu_logo-12, .common-menu_logo-13, .common-menu_logo-14, .common-menu_logo-15, .common-menu_logo-16, .common-menu_logo-17, .common-menu_logo-3, .common-menu_logo-4, .common-menu_logo-5, .common-menu_logo-7, .common-menu_logo-8, .common-menu_logo-9 {
      stroke-linecap: round;
    }

    .common-menu_logo-10, .common-menu_logo-11, .common-menu_logo-12, .common-menu_logo-13, .common-menu_logo-14, .common-menu_logo-15, .common-menu_logo-16, .common-menu_logo-17, .common-menu_logo-18, .common-menu_logo-19, .common-menu_logo-20, .common-menu_logo-3, .common-menu_logo-4, .common-menu_logo-5, .common-menu_logo-6, .common-menu_logo-7, .common-menu_logo-8, .common-menu_logo-9 {
      stroke-linejoin: round;
    }

    .common-menu_logo-16, .common-menu_logo-3 {
      stroke-width: 2.2px;
    }

    .common-menu_logo-3 {
      stroke: url(#Degradado_sin_nombre_6);
    }

    .common-menu_logo-11, .common-menu_logo-12, .common-menu_logo-13, .common-menu_logo-14, .common-menu_logo-15, .common-menu_logo-17, .common-menu_logo-18, .common-menu_logo-19, .common-menu_logo-20, .common-menu_logo-21, .common-menu_logo-22, .common-menu_logo-23, .common-menu_logo-4, .common-menu_logo-5, .common-menu_logo-6, .common-menu_logo-7, .common-menu_logo-8 {
      stroke-width: 1.44px;
    }

    .common-menu_logo-4 {
      stroke: url(#Degradado_sin_nombre_6-2);
    }

    .common-menu_logo-5 {
      stroke: url(#Degradado_sin_nombre_6-3);
    }

    .common-menu_logo-18, .common-menu_logo-19, .common-menu_logo-20, .common-menu_logo-21, .common-menu_logo-22, .common-menu_logo-23, .common-menu_logo-6, .common-menu_logo-7 {
      stroke: #a6a6ff;
    }

    .common-menu_logo-8 {
      stroke: url(#Degradado_sin_nombre_43);
    }

    .common-menu_logo-10, .common-menu_logo-9 {
      stroke-width: 1.37px;
    }

    .common-menu_logo-9 {
      stroke: url(#Degradado_sin_nombre_6-4);
    }

    .common-menu_logo-10 {
      stroke: url(#Degradado_sin_nombre_6-5);
    }

    .common-menu_logo-11 {
      stroke: url(#Degradado_sin_nombre_6-6);
    }

    .common-menu_logo-12 {
      stroke: url(#Degradado_sin_nombre_6-7);
    }

    .common-menu_logo-13 {
      stroke: url(#Degradado_sin_nombre_6-8);
    }

    .common-menu_logo-14 {
      stroke: url(#Degradado_sin_nombre_6-9);
    }

    .common-menu_logo-15 {
      stroke: url(#Degradado_sin_nombre_6-10);
    }

    .common-menu_logo-16 {
      stroke: #8f48ff;
    }

    .common-menu_logo-17 {
      stroke: url(#Degradado_sin_nombre_6-11);
    }

    .common-menu_logo-18, .common-menu_logo-23 {
      fill: #7878d1;
    }

    .common-menu_logo-19, .common-menu_logo-21 {
      fill: #312683;
    }

    .common-menu_logo-20, .common-menu_logo-22 {
      fill: #422782;
    }

    .common-menu_logo-21, .common-menu_logo-22, .common-menu_logo-23 {
      stroke-miterlimit: 10;
    }

    .common-menu_logo-24 {
      mix-blend-mode: overlay;
    }

    .common-menu_logo-25 {
      fill: url(#Degradado_sin_nombre_46);
    }

    .common-menu_logo-26 {
      fill: url(#Degradado_sin_nombre_46-2);
    }

    .common-menu_logo-27 {
      fill: url(#Degradado_sin_nombre_46-3);
    }

    .common-menu_logo-28 {
      fill: url(#Degradado_sin_nombre_46-4);
    }

    .common-menu_logo-29 {
      fill: url(#Degradado_sin_nombre_46-5);
    }

    .common-menu_logo-30 {
      fill: url(#Degradado_sin_nombre_46-6);
    }

    .common-menu_logo-31 {
      fill: url(#Degradado_sin_nombre_46-7);
    }

    .common-menu_logo-32 {
      fill: url(#Degradado_sin_nombre_46-8);
    }

    .common-menu_logo-33 {
      fill: url(#Degradado_sin_nombre_46-9);
    }

    .common-menu_logo-34 {
      fill: url(#Degradado_sin_nombre_46-10);
    }

    .common-menu_logo-35 {
      fill: url(#Degradado_sin_nombre_46-11);
    }

    .common-menu_logo-36 {
      fill: url(#Degradado_sin_nombre_46-12);
    }

    .common-menu_logo-37 {
      fill: url(#Degradado_sin_nombre_46-13);
    }

    .common-menu_logo-38 {
      fill: url(#Degradado_sin_nombre_46-14);
    }

    .common-menu_logo-39 {
      fill: url(#Degradado_sin_nombre_46-15);
    }

    .common-menu_logo-40 {
      fill: url(#Degradado_sin_nombre_46-16);
    }

    .common-menu_logo-41 {
      fill: url(#Degradado_sin_nombre_46-17);
    }

    .common-menu_logo-42 {
      fill: url(#Degradado_sin_nombre_46-18);
    }

    .common-menu_logo-43 {
      fill: url(#Degradado_sin_nombre_46-19);
    }

    .common-menu_logo-44 {
      fill: url(#Degradado_sin_nombre_46-20);
    }

    .common-menu_logo-45 {
      fill: url(#Degradado_sin_nombre_46-21);
    }

    .common-menu_logo-46 {
      fill: url(#Degradado_sin_nombre_46-22);
    }

    .common-menu_logo-47 {
      fill: url(#Degradado_sin_nombre_46-23);
    }

    .common-menu_logo-48 {
      fill: url(#Degradado_sin_nombre_46-24);
    }

    .common-menu_logo-49 {
      fill: url(#Degradado_sin_nombre_46-25);
    }

    .common-menu_logo-50 {
      fill: url(#Degradado_sin_nombre_46-26);
    }

    .common-menu_logo-51 {
      fill: url(#Degradado_sin_nombre_46-27);
    }

    .common-menu_logo-52 {
      fill: url(#Degradado_sin_nombre_46-28);
    }

    .common-menu_logo-53 {
      fill: url(#Degradado_sin_nombre_46-29);
    }

    .common-menu_logo-54 {
      fill: url(#Degradado_sin_nombre_46-30);
    }

    .common-menu_logo-55 {
      fill: url(#Degradado_sin_nombre_46-31);
    }

    .common-menu_logo-56 {
      fill: url(#Degradado_sin_nombre_46-32);
    }

    .common-menu_logo-57 {
      fill: url(#Degradado_sin_nombre_46-33);
    }

    .common-menu_logo-58 {
      fill: url(#Degradado_sin_nombre_46-34);
    }

    .common-menu_logo-59 {
      fill: url(#Degradado_sin_nombre_46-35);
    }

    .common-menu_logo-60 {
      fill: url(#Degradado_sin_nombre_46-36);
    }

    .common-menu_logo-61 {
      fill: url(#Degradado_sin_nombre_46-37);
    }

    .common-menu_logo-62 {
      fill: url(#Degradado_sin_nombre_46-38);
    }

    .common-menu_logo-63 {
      fill: #a150ff;
    }</style>
    <linearGradient id="Degradado_sin_nombre_6" x1="149.89" y1="322.15" x2="197.07" y2="322.15"
                    gradientTransform="translate(78.68 -3.94) rotate(19.77)" gradientUnits="userSpaceOnUse">
      <stop offset="0" stop-color="#fff" stop-opacity="0"/>
      <stop offset="0.7" stop-color="#a6a6ff" stop-opacity="0.97"/>
      <stop offset="1" stop-color="#a6a6ff"/>
    </linearGradient>
    <linearGradient id="Degradado_sin_nombre_6-2" x1="100.09" y1="30.78" x2="163.53" y2="30.78"
                    xlink:href="#Degradado_sin_nombre_6"/>
    <linearGradient id="Degradado_sin_nombre_6-3" x1="143.24" y1="15.75" x2="163.53" y2="15.75"
                    xlink:href="#Degradado_sin_nombre_6"/>
    <linearGradient id="Degradado_sin_nombre_43" x1="150.12" y1="-7.7" x2="238.73" y2="-7.7"
                    xlink:href="#Degradado_sin_nombre_6"/>
    <linearGradient id="Degradado_sin_nombre_6-4" x1="126.63" y1="290.99" x2="214.97" y2="290.99"
                    xlink:href="#Degradado_sin_nombre_6"/>
    <linearGradient id="Degradado_sin_nombre_6-5" x1="82.08" y1="254.09" x2="138.93" y2="254.09"
                    xlink:href="#Degradado_sin_nombre_6"/>
    <linearGradient id="Degradado_sin_nombre_6-6" x1="35.21" y1="172.59" x2="101.53" y2="172.59"
                    xlink:href="#Degradado_sin_nombre_6"/>
    <linearGradient id="Degradado_sin_nombre_6-7" x1="35.21" y1="207.84" x2="101.53" y2="207.84"
                    xlink:href="#Degradado_sin_nombre_6"/>
    <linearGradient id="Degradado_sin_nombre_6-8" x1="83.2" y1="79.63" x2="134.77" y2="79.63"
                    xlink:href="#Degradado_sin_nombre_6"/>
    <linearGradient id="Degradado_sin_nombre_6-9" x1="40.82" y1="97.19" x2="134.77" y2="97.19"
                    xlink:href="#Degradado_sin_nombre_6"/>
    <linearGradient id="Degradado_sin_nombre_6-10" x1="213.48" y1="-51.45" x2="259.3" y2="-51.45"
                    xlink:href="#Degradado_sin_nombre_6"/>
    <linearGradient id="Degradado_sin_nombre_6-11" x1="30.11" y1="135.59" x2="134.77" y2="135.59"
                    xlink:href="#Degradado_sin_nombre_6"/>
    <linearGradient id="Degradado_sin_nombre_46" x1="329.92" y1="365.6" x2="374.26" y2="365.6"
                    gradientTransform="translate(78.68 -3.94) rotate(19.77)" gradientUnits="userSpaceOnUse">
      <stop offset="0" stop-color="#fff" stop-opacity="0"/>
      <stop offset="1" stop-color="#1d1d1b"/>
    </linearGradient>
    <linearGradient id="Degradado_sin_nombre_46-2" x1="214.32" y1="203.4" x2="265.97" y2="203.4"
                    xlink:href="#Degradado_sin_nombre_46"/>
    <linearGradient id="Degradado_sin_nombre_46-3" x1="368.38" y1="86.71" x2="397.22" y2="86.71"
                    xlink:href="#Degradado_sin_nombre_46"/>
    <linearGradient id="Degradado_sin_nombre_46-4" x1="300.27" y1="124.41" x2="351.55" y2="124.41"
                    xlink:href="#Degradado_sin_nombre_46"/>
    <linearGradient id="Degradado_sin_nombre_46-5" x1="339.52" y1="245.14" x2="393.22" y2="245.14"
                    xlink:href="#Degradado_sin_nombre_46"/>
    <linearGradient id="Degradado_sin_nombre_46-6" x1="353.89" y1="168.47" x2="428.7" y2="168.47"
                    xlink:href="#Degradado_sin_nombre_46"/>
    <linearGradient id="Degradado_sin_nombre_46-7" x1="354.02" y1="127.16" x2="428.12" y2="127.16"
                    xlink:href="#Degradado_sin_nombre_46"/>
    <linearGradient id="Degradado_sin_nombre_46-8" x1="371.24" y1="126.09" x2="428.7" y2="126.09"
                    xlink:href="#Degradado_sin_nombre_46"/>
    <linearGradient id="Degradado_sin_nombre_46-9" x1="303.83" y1="171.16" x2="365.38" y2="171.16"
                    xlink:href="#Degradado_sin_nombre_46"/>
    <linearGradient id="Degradado_sin_nombre_46-10" x1="268.66" y1="258.63" x2="337.54" y2="258.63"
                    xlink:href="#Degradado_sin_nombre_46"/>
    <linearGradient id="Degradado_sin_nombre_46-11" x1="237.06" y1="189.34" x2="301.71" y2="189.34"
                    xlink:href="#Degradado_sin_nombre_46"/>
    <linearGradient id="Degradado_sin_nombre_46-12" x1="214.74" y1="238.06" x2="265.97" y2="238.06"
                    xlink:href="#Degradado_sin_nombre_46"/>
    <linearGradient id="Degradado_sin_nombre_46-13" x1="314.08" y1="105.19" x2="367.53" y2="105.19"
                    xlink:href="#Degradado_sin_nombre_46"/>
    <linearGradient id="Degradado_sin_nombre_46-14" x1="316.05" y1="75.63" x2="368.08" y2="75.63"
                    xlink:href="#Degradado_sin_nombre_46"/>
    <linearGradient id="Degradado_sin_nombre_46-15" x1="241.87" y1="261.88" x2="299.34" y2="261.88"
                    xlink:href="#Degradado_sin_nombre_46"/>
    <linearGradient id="Degradado_sin_nombre_46-16" x1="328.21" y1="251.92" x2="365.63" y2="251.92"
                    xlink:href="#Degradado_sin_nombre_46"/>
    <linearGradient id="Degradado_sin_nombre_46-17" x1="367.58" y1="233.15" x2="427.18" y2="233.15"
                    xlink:href="#Degradado_sin_nombre_46"/>
    <linearGradient id="Degradado_sin_nombre_46-18" x1="368.41" y1="189.34" x2="432.28" y2="189.34"
                    xlink:href="#Degradado_sin_nombre_46"/>
    <linearGradient id="Degradado_sin_nombre_46-19" x1="403.02" y1="129.21" x2="437.57" y2="129.21"
                    xlink:href="#Degradado_sin_nombre_46"/>
    <linearGradient id="Degradado_sin_nombre_46-20" x1="429.63" y1="191.81" x2="443.16" y2="191.81"
                    xlink:href="#Degradado_sin_nombre_46"/>
    <linearGradient id="Degradado_sin_nombre_46-21" x1="327.32" y1="303.4" x2="399.22" y2="303.4"
                    xlink:href="#Degradado_sin_nombre_46"/>
    <linearGradient id="Degradado_sin_nombre_46-22" x1="366.83" y1="280.92" x2="423.14" y2="280.92"
                    xlink:href="#Degradado_sin_nombre_46"/>
    <linearGradient id="Degradado_sin_nombre_46-23" x1="395.75" y1="256.55" x2="451.86" y2="256.55"
                    xlink:href="#Degradado_sin_nombre_46"/>
    <linearGradient id="Degradado_sin_nombre_46-24" x1="440.51" y1="249.25" x2="456.46" y2="249.25"
                    xlink:href="#Degradado_sin_nombre_46"/>
    <linearGradient id="Degradado_sin_nombre_46-25" x1="302.16" y1="322.08" x2="374.97" y2="322.08"
                    xlink:href="#Degradado_sin_nombre_46"/>
    <linearGradient id="Degradado_sin_nombre_46-26" x1="357.62" y1="352.36" x2="405.81" y2="352.36"
                    xlink:href="#Degradado_sin_nombre_46"/>
    <linearGradient id="Degradado_sin_nombre_46-27" x1="287.1" y1="391.47" x2="337.42" y2="391.47"
                    xlink:href="#Degradado_sin_nombre_46"/>
    <linearGradient id="Degradado_sin_nombre_46-28" x1="209.63" y1="376.19" x2="284.71" y2="376.19"
                    xlink:href="#Degradado_sin_nombre_46"/>
    <linearGradient id="Degradado_sin_nombre_46-29" x1="262.26" y1="346.75" x2="328.04" y2="346.75"
                    xlink:href="#Degradado_sin_nombre_46"/>
    <linearGradient id="Degradado_sin_nombre_46-30" x1="196.88" y1="298.7" x2="275.7" y2="298.7"
                    xlink:href="#Degradado_sin_nombre_46"/>
    <linearGradient id="Degradado_sin_nombre_46-31" x1="262.61" y1="314.69" x2="311.73" y2="314.69"
                    xlink:href="#Degradado_sin_nombre_46"/>
    <linearGradient id="Degradado_sin_nombre_46-32" x1="102.82" y1="184.01" x2="178.62" y2="184.01"
                    xlink:href="#Degradado_sin_nombre_46"/>
    <linearGradient id="Degradado_sin_nombre_46-33" x1="139.29" y1="249.86" x2="239.05" y2="249.86"
                    xlink:href="#Degradado_sin_nombre_46"/>
    <linearGradient id="Degradado_sin_nombre_46-34" x1="279.97" y1="20.19" x2="359.15" y2="20.19"
                    xlink:href="#Degradado_sin_nombre_46"/>
    <linearGradient id="Degradado_sin_nombre_46-35" x1="279.7" y1="62.14" x2="359.15" y2="62.14"
                    xlink:href="#Degradado_sin_nombre_46"/>
    <linearGradient id="Degradado_sin_nombre_46-36" x1="163.08" y1="85.12" x2="236.5" y2="85.12"
                    xlink:href="#Degradado_sin_nombre_46"/>
    <linearGradient id="Degradado_sin_nombre_46-37" x1="180.01" y1="136.56" x2="246.33" y2="136.56"
                    xlink:href="#Degradado_sin_nombre_46"/>
    <linearGradient id="Degradado_sin_nombre_46-38" x1="377.24" y1="336.85" x2="405.29" y2="336.85"
                    xlink:href="#Degradado_sin_nombre_46"/>
  </defs>
  <g class="common-menu_logo-1">
    <g id="Capa_1" data-name="Capa 1">
      <rect id="fons" class="common-menu_logo-2" width="500" height="500"/>
      <line class="common-menu_logo-3" x1="113.21" y1="346.36" x2="152.71" y2="369.44"/>
      <line class="common-menu_logo-4" x1="169.83" y1="40.51" x2="214.79" y2="98.71"/>
      <line class="common-menu_logo-5" x1="220.6" y1="26.83" x2="214.79" y2="98.71"/>
      <line class="common-menu_logo-6" x1="205.24" y1="275.06" x2="173.75" y2="259.84"/>
      <line class="common-menu_logo-7" x1="214.79" y1="98.71" x2="299.42" y2="85.61"/>
      <line class="common-menu_logo-7" x1="121.86" y1="284.62" x2="110.17" y2="206.48"/>
      <polyline class="common-menu_logo-7" points="329.79 121.06 298.79 86.18 371.33 70.24 335.43 46.21 298.79 86.18"/>
      <line class="common-menu_logo-7" x1="262.59" y1="222.88" x2="279.46" y2="141.07"/>
      <line class="common-menu_logo-7" x1="159.32" y1="168.03" x2="110.17" y2="206.48"/>
      <line class="common-menu_logo-7" x1="214.79" y1="98.71" x2="159.32" y2="168.03"/>
      <line class="common-menu_logo-8" x1="229.09" y1="23.57" x2="299.42" y2="85.61"/>
      <line class="common-menu_logo-7" x1="279.46" y1="141.07" x2="329.98" y2="183.44"/>
      <line class="common-menu_logo-7" x1="206.56" y1="170.47" x2="159.32" y2="168.03"/>
      <polyline class="common-menu_logo-9" points="97.57 319.88 158.5 326.17 179.93 347.86"/>
      <line class="common-menu_logo-10" x1="71.59" y1="260.49" x2="121.86" y2="284.62"/>
      <line class="common-menu_logo-11" x1="59.1" y1="156.75" x2="110.17" y2="206.47"/>
      <line class="common-menu_logo-12" x1="110.17" y1="206.48" x2="35.26" y2="223.07"/>
      <line class="common-menu_logo-13" x1="149.29" y1="47.71" x2="159.32" y2="168.03"/>
      <line class="common-menu_logo-14" x1="97.53" y1="66.41" x2="159.32" y2="168.03"/>
      <line class="common-menu_logo-15" x1="301.65" y1="9.01" x2="335.43" y2="46.21"/>
      <path class="common-menu_logo-16" d="M371.33,70.24"/>
      <path class="common-menu_logo-16" d="M378.28,90.37"/>
      <line class="common-menu_logo-17" x1="61.48" y1="135.07" x2="159.32" y2="168.03"/>
      <line class="common-menu_logo-7" x1="279.46" y1="141.07" x2="299.42" y2="85.61"/>
      <polygon class="common-menu_logo-18" points="265.53 448.73 320.18 436.05 288.14 466.75 262.2 485.43 265.53 448.73"/>
      <polygon class="common-menu_logo-19" points="240.65 243.79 253.3 301.22 204.91 274.94 240.65 243.79"/>
      <polygon class="common-menu_logo-18" points="402.11 182.79 392.66 213 420.61 230.41 403.72 208.09 402.11 182.79"/>
      <polygon class="common-menu_logo-18" points="343.52 188.31 369.85 229.41 310.13 247.45 329.59 183.3 343.52 188.31"/>
      <polygon class="common-menu_logo-18" points="350.24 323.17 322.42 318.45 330.99 378.58 363.38 369.62 350.24 323.17"/>
      <polygon class="common-menu_logo-20" points="369.85 229.41 428.94 288.02 427.81 294.58 350.14 323.44 369.85 229.41"/>
      <polygon class="common-menu_logo-18" points="392.66 213 369.85 229.41 428.94 288.02 430.18 286.31 392.66 213"/>
      <polygon class="common-menu_logo-19" points="420.61 230.41 431.19 285.37 430.18 286.31 392.66 213 420.61 230.41"/>
      <polygon class="common-menu_logo-21" points="369.95 229.15 310.13 247.45 322.42 318.45 350.24 323.18 369.95 229.15"/>
      <polygon class="common-menu_logo-18" points="253.3 301.22 322.42 318.45 291.47 371.73 261.83 377.05 253.3 301.22"/>
      <polygon class="common-menu_logo-22" points="262.59 222.88 310.12 247.45 253.3 301.22 240.65 243.79 262.59 222.88"/>
      <polygon class="common-menu_logo-18" points="204.91 274.94 253.3 301.22 218.43 318.89 204.91 274.94"/>
      <polyline class="common-menu_logo-18" points="343.52 188.31 350.5 191.81 392.66 213 369.85 229.41 343.52 188.31"/>
      <polygon class="common-menu_logo-19" points="402.11 182.79 400.27 168.07 343.52 188.31 392.66 213 402.11 182.79"/>
      <polygon class="common-menu_logo-20" points="253.3 301.22 261.83 377.05 218.43 318.89 253.3 301.22"/>
      <polygon class="common-menu_logo-19" points="322.42 318.45 330.99 378.58 291.46 371.73 322.42 318.45"/>
      <polygon class="common-menu_logo-19" points="350.24 323.17 410.74 340.06 363.38 369.62 350.24 323.17"/>
      <polygon class="common-menu_logo-23" points="427.91 294.31 350.24 323.17 410.74 340.06 429.36 300.58 427.91 294.31"/>
      <polygon class="common-menu_logo-20"
               points="448.05 261.34 438.68 250.32 420.61 230.41 431.19 285.37 443.61 276.54 448.05 261.34"/>
      <polygon class="common-menu_logo-18"
               points="410.74 340.06 429.36 300.58 435.54 312.62 425.99 324.11 428.6 334.92 420.24 347.3 410.74 340.06"/>
      <polygon class="common-menu_logo-20"
               points="410.74 340.06 420.24 347.3 427.72 367.56 426.13 369.27 363.38 369.62 410.74 340.06"/>
      <polygon class="common-menu_logo-20"
               points="330.89 378.38 350.65 419.65 347.79 425.4 320.18 436.05 291.47 371.73 330.89 378.38"/>
      <polygon class="common-menu_logo-19"
               points="363.38 369.62 382.46 401.83 362.6 407.9 350.65 419.65 330.99 378.58 363.38 369.62"/>
      <polygon class="common-menu_logo-18" points="426.13 369.27 363.38 369.62 382.46 401.83 400.04 397.37 426.13 369.27"/>
      <polygon class="common-menu_logo-19"
               points="427.72 367.56 428.68 373.89 424.58 384.26 409.65 392.32 400.04 397.37 427.72 367.56"/>
      <polygon class="common-menu_logo-19" points="291.47 371.73 261.82 377.05 265.53 448.73 320.19 436.04 291.47 371.73"/>
      <polygon class="common-menu_logo-20" points="339.6 474.4 320.18 436.04 288.14 466.75 339.6 474.4"/>
      <polygon class="common-menu_logo-20" points="265.53 448.73 223.07 440.37 215.77 492.06 262.2 485.43 265.53 448.73"/>
      <polygon class="common-menu_logo-20" points="223.07 440.37 159.76 386.67 159.45 463.14 223.07 440.37"/>
      <polygon class="common-menu_logo-18" points="263.37 407.04 211.59 397.36 223.07 440.37 265.54 448.73 263.37 407.04"/>
      <polygon class="common-menu_logo-18"
               points="218.42 318.89 233.01 384.41 211.66 397.37 159.76 386.67 152.71 369.44 218.42 318.89"/>
      <polygon class="common-menu_logo-20" points="261.83 377.05 263.37 407.04 211.59 397.36 233.01 384.41 261.83 377.05"/>
      <polygon class="common-menu_logo-18" points="110.17 206.48 196.07 199.65 173.75 259.84 110.17 206.48"/>
      <polygon class="common-menu_logo-19" points="173.54 260.03 121.65 284.81 158.67 325.86 218.22 319.08 173.54 260.03"/>
      <polygon class="common-menu_logo-18" points="378.69 90.3 329.79 121.06 400.27 168.07 378.69 90.3"/>
      <polygon class="common-menu_logo-20" points="329.79 121.06 329.59 183.3 343.52 188.31 400.27 168.07 329.79 121.06"/>
      <polygon class="common-menu_logo-19" points="214.38 97.74 206.56 170.46 279.46 141.07 214.38 97.74"/>
      <polygon class="common-menu_logo-22" points="206.56 170.46 262.59 222.88 196.07 199.65 206.56 170.46"/>
      <polygon class="common-menu_logo-18" points="347.79 425.4 320.18 436.04 339.6 474.4 337.84 444.43 347.79 425.4"/>
      <g id="Degradat" class="common-menu_logo-24">
        <polygon class="common-menu_logo-25" points="266.33 449.32 317.74 437.4 287.74 466.16 263.06 483.93 266.33 449.32"/>
        <polygon class="common-menu_logo-26" points="240.2 245.13 252.17 299.7 206.22 274.84 240.2 245.13"/>
        <polygon class="common-menu_logo-27" points="401.62 186.69 393.56 212.63 417.55 227.62 403.01 208.37 401.62 186.69"/>
        <polygon class="common-menu_logo-28" points="342.92 188.86 368.59 228.8 311.25 246.27 330.08 184.33 342.92 188.86"/>
        <polygon class="common-menu_logo-29" points="349.66 323.9 323.27 319.3 331.64 377.56 362.43 369.13 349.66 323.9"/>
        <polygon class="common-menu_logo-30" points="370.31 230.93 428.14 288.28 427.21 293.8 351.3 322.09 370.31 230.93"/>
        <polygon class="common-menu_logo-31" points="392.46 214.14 370.96 229.51 428.85 286.91 429.32 286.21 392.46 214.14"/>
        <polygon class="common-menu_logo-32" points="419.94 230.9 430.36 285.06 430.36 285.06 394.48 214.98 419.94 230.9"/>
        <polygon class="common-menu_logo-33" points="368.94 230.21 310.97 248.03 323.07 317.87 349.7 322.25 368.94 230.21"/>
        <polygon class="common-menu_logo-34" points="254.12 302.23 321.31 318.91 290.98 371.05 262.52 376.19 254.12 302.23"/>
        <polygon class="common-menu_logo-35" points="262.72 223.75 308.86 247.61 253.72 299.85 241.44 244.07 262.72 223.75"/>
        <polygon class="common-menu_logo-36" points="206.1 276.41 251.63 301.19 218.89 317.87 206.1 276.41"/>
        <polygon class="common-menu_logo-37"
                 points="345.98 190.85 346.34 190.53 391.19 213.16 370.03 228.39 343.7 187.29 345.98 190.85"/>
        <polygon class="common-menu_logo-38" points="401.38 182.84 399.66 169.06 345.39 188.4 392.24 211.9 401.38 182.84"/>
        <polygon class="common-menu_logo-39" points="252.7 302.31 260.77 374.4 219.55 319.19 252.7 302.31"/>
        <polygon class="common-menu_logo-40" points="321.98 320.7 330.11 377.48 292.61 371.19 321.98 320.7"/>
        <polygon class="common-menu_logo-41" points="351.33 324.22 408.87 340.33 363.79 368.48 351.33 324.22"/>
        <polygon class="common-menu_logo-42" points="427.37 295.29 352.62 323.05 410.3 339.19 428.6 300.51 427.37 295.29"/>
        <polygon class="common-menu_logo-43"
                 points="447.24 261.5 438.19 250.87 421.83 232.85 431.68 284.13 443 276.09 447.24 261.5"/>
        <polygon class="common-menu_logo-44"
                 points="411.65 339.85 429.38 302.3 434.67 312.51 425.2 323.9 427.83 334.81 420.05 346.25 411.65 339.85"/>
        <polygon class="common-menu_logo-45"
                 points="330.89 378.38 350.65 419.65 347.79 425.4 320.18 436.05 291.47 371.73 330.89 378.38"/>
        <polygon class="common-menu_logo-46"
                 points="363.38 369.62 382.46 401.83 362.6 407.9 350.65 419.65 330.99 378.58 363.38 369.62"/>
        <polygon class="common-menu_logo-47" points="424.43 370.01 364.68 370.35 382.78 400.96 399.67 396.71 424.43 370.01"/>
        <polygon class="common-menu_logo-48"
                 points="427.22 369.17 427.95 373.81 424.02 383.71 409.48 391.59 403.48 394.74 427.22 369.17"/>
        <polygon class="common-menu_logo-49" points="291.01 372.61 262.61 377.64 266.21 447.76 319.17 435.53 291.01 372.61"/>
        <polygon class="common-menu_logo-50" points="338.31 473.46 319.97 437.34 289.69 466.25 338.31 473.46"/>
        <polygon class="common-menu_logo-51" points="264.71 449.37 223.74 441.23 216.6 491.2 261.55 484.81 264.71 449.37"/>
        <polygon class="common-menu_logo-52" points="221.6 440.11 160.48 388.21 160.17 462.12 221.6 440.11"/>
        <polygon class="common-menu_logo-53" points="262.68 407.63 212.76 398.34 223.84 439.76 264.89 447.78 262.68 407.63"/>
        <polygon class="common-menu_logo-54"
                 points="217.92 320.29 232.18 384.06 211.38 396.49 160.29 386.05 153.56 369.75 217.92 320.29"/>
        <polygon class="common-menu_logo-55" points="260.99 377.98 262.52 406.18 213.62 397 233.11 385.11 260.99 377.98"/>
        <polygon class="common-menu_logo-56" points="112.06 207.15 195.03 200.44 173.39 258.63 112.06 207.15"/>
        <polygon class="common-menu_logo-57" points="173.35 260.95 122.82 285.06 158.97 325.1 216.82 318.46 173.35 260.95"/>
        <polygon class="common-menu_logo-58" points="378.29 91.47 331.22 121.17 399.09 166.43 378.29 91.47"/>
        <polygon class="common-menu_logo-59" points="330.49 122.39 330.36 182.8 343.56 187.51 398.57 167.86 330.49 122.39"/>
        <polygon class="common-menu_logo-60" points="214.96 99.03 207.45 169.29 277.93 140.9 214.96 99.03"/>
        <polygon class="common-menu_logo-61" points="206.9 171.77 259.56 221.05 196.95 199.18 206.9 171.77"/>
        <polygon class="common-menu_logo-62" points="346.28 426.76 321.22 436.55 338.66 470.92 337.1 444.29 346.28 426.76"/>
      </g>
      <g id="TEXT">
        <circle class="common-menu_logo-63" cx="215.05" cy="97.98" r="3.59"/>
        <circle class="common-menu_logo-63" cx="369.85" cy="229.41" r="3.59"/>
        <circle class="common-menu_logo-63" cx="310.06" cy="247.43" r="3.59"/>
        <circle class="common-menu_logo-63" cx="350.24" cy="323.17" r="3.59"/>
        <circle class="common-menu_logo-63" cx="322.42" cy="318.45" r="3.59"/>
        <circle class="common-menu_logo-63" cx="253.3" cy="301.22" r="3.59"/>
        <circle class="common-menu_logo-63" cx="205.24" cy="275.06" r="3.59"/>
        <circle class="common-menu_logo-63" cx="196.07" cy="199.65" r="3.59"/>
        <circle class="common-menu_logo-63" cx="110.17" cy="206.47" r="3.59"/>
        <circle class="common-menu_logo-63" cx="159.32" cy="168.03" r="3.59"/>
        <circle class="common-menu_logo-63" cx="262.59" cy="222.88" r="3.59"/>
        <circle class="common-menu_logo-63" cx="363.43" cy="369.49" r="3.59"/>
        <circle class="common-menu_logo-63" cx="410.51" cy="340.12" r="3.59"/>
        <circle class="common-menu_logo-63" cx="331.05" cy="378.43" r="3.59"/>
        <circle class="common-menu_logo-63" cx="291.86" cy="371.87" r="3.59"/>
        <circle class="common-menu_logo-63" cx="261.93" cy="376.75" r="3.59"/>
        <circle class="common-menu_logo-63" cx="233.03" cy="384.36" r="3.59"/>
        <circle class="common-menu_logo-63" cx="212.12" cy="397.55" r="3.59"/>
        <circle class="common-menu_logo-63" cx="223.03" cy="440.36" r="3.59"/>
        <circle class="common-menu_logo-63" cx="320.07" cy="436.35" r="3.59"/>
        <circle class="common-menu_logo-63" cx="265.53" cy="448.73" r="3.59"/>
        <circle class="common-menu_logo-63" cx="343.52" cy="188.31" r="3.59"/>
        <circle class="common-menu_logo-63" cx="329.59" cy="183.3" r="3.59"/>
        <circle class="common-menu_logo-63" cx="392.66" cy="213" r="3.59"/>
        <circle class="common-menu_logo-63" cx="329.78" cy="121.06" r="3.59"/>
        <circle class="common-menu_logo-63" cx="299.22" cy="85.54" r="3.59"/>
        <circle class="common-menu_logo-63" cx="206.49" cy="170.67" r="3.59"/>
        <circle class="common-menu_logo-63" cx="173.75" cy="259.84" r="3.59"/>
        <circle class="common-menu_logo-63" cx="218.43" cy="318.89" r="3.59"/>
        <circle class="common-menu_logo-63" cx="279.11" cy="140.93" r="3.59"/>
      </g>
      <line class="common-menu_logo-7" x1="378.69" y1="90.3" x2="371.33" y2="70.24"/>
    </g>
  </g>
</svg>
