<svg xmlns="http://www.w3.org/2000/svg" viewBox="0 0 402.74 415.76">
  <defs>
    <style>
      .sensor-notifications-cls-2, .sensor-notifications-cls-6 {
        stroke: #fff;
        stroke-linecap: round;
        stroke-miterlimit: 10;
        stroke-width: 16.05px;
      }
    </style>
  </defs>
  <g class="tesla_sensor tesla_sensor_notifications">
    <path class="sensor-notifications-cls-1 tesla-primary-color"
          d="M250,458.28c33.94,0,61.48-28.52,62.29-62.26H187.71C188.52,429.76,216.06,458.28,250,458.28Z"
          transform="translate(-83.7 -42.52)"/>
    <path class="sensor-notifications-cls-1 tesla-primary-color"
          d="M367.14,250.4V167.25c0-37.77-33.08-81.95-82.3-83.13a35.32,35.32,0,1,0-70.08-6.28,35.7,35.7,0,0,0,.56,6.25h0c-48.42,0-82.16,49.46-82.16,83.16V250.4c0,29.74-49.41,54.12-49.41,124.81H416.3C416.3,304.52,367.14,280.14,367.14,250.4Z"
          transform="translate(-83.7 -42.52)"/>
  </g>
  <g class="tesla_group_status">
    <g class="tesla-status tesla_status_warning">
      <path class="sensor-notifications-cls-2 tesla-status-warning"
            d="M374.11,429H283c-10.12,0-16.45-11.12-11.39-20l45.57-80.08,45.57-80.07a13.06,13.06,0,0,1,22.78,0l45.56,80.07,45.57,80.08c5.06,8.89-1.26,20-11.39,20Z"
            transform="translate(-83.7 -42.52)"/>
      <path data-name="!" class="sensor-notifications-cls-3 tesla-tertiary-color"
            d="M374,289.85c6.37,0,14.51,1.24,13.39,9.82-1.21,9.91-6.41,45.21-9.26,69.67a3.44,3.44,0,0,1-3.41,3h-1.34a3.42,3.42,0,0,1-3.41-3.05c-2.57-23.3-8-59.11-9.17-70C359.59,291.57,367.24,289.85,374,289.85Zm.18,121.47c-7.21,0-12.57-5.29-12.57-13,0-7.44,5.36-13.1,12.57-13.1,7.39,0,12.75,5.66,12.75,13.1C387,406,381.6,411.32,374.21,411.32Z"
            transform="translate(-83.7 -42.52)"/>
    </g>
    <g class="tesla-status tesla_status_error">
      <circle class="sensor-notifications-cls-4 tesla-status-error" cx="374.11" cy="353.55" r="95.67"
              transform="translate(-224.12 325.57) rotate(-45)"/>
      <path class="sensor-notifications-cls-3 tesla-tertiary-color"
            d="M374.11,265.91a87.65,87.65,0,1,1-87.65,87.64,87.74,87.74,0,0,1,87.65-87.64m0-16.06A103.7,103.7,0,1,0,477.8,353.55a103.7,103.7,0,0,0-103.69-103.7Z"
            transform="translate(-83.7 -42.52)"/>
      <polygon class="sensor-notifications-cls-3 tesla-tertiary-color"
               points="346.13 273.88 327.57 255.32 290.36 292.52 253.25 255.41 234.69 273.97 271.81 311.08 234.79 348.1 253.34 366.66 290.36 329.64 327.48 366.75 346.03 348.19 308.92 311.08 346.13 273.88"/>
    </g>
    <g class="tesla-status tesla_status_success">
      <circle class="sensor-notifications-cls-5 tesla-status-success" cx="374.11" cy="353.55" r="95.67"
              transform="translate(-224.12 325.57) rotate(-45)"/>
      <path class="sensor-notifications-cls-3 tesla-tertiary-color"
            d="M374.11,265.91a87.65,87.65,0,1,1-87.65,87.64,87.74,87.74,0,0,1,87.65-87.64m0-16.06A103.7,103.7,0,1,0,477.8,353.55a103.7,103.7,0,0,0-103.69-103.7Z"
            transform="translate(-83.7 -42.52)"/>
      <path class="sensor-notifications-cls-3 tesla-tertiary-color"
            d="M359.77,368.16c1.51-2.15,2.92-4.15,4.34-6.15,8-11.32,16.42-22.35,25.48-32.86,7-8.06,14.12-15.94,21.21-23.88,1.54-1.73,2.66-1.74,4.32-.18l10.68,10c2.62,2.45,2.63,3,.26,5.67-5.26,5.91-10.65,11.7-15.7,17.78-6.48,7.78-12.94,15.59-18.93,23.75C382.81,374,374.63,386.1,366.27,398c-.65.93-1.2,1.93-1.84,2.87-1.38,2-2.8,2.17-4.47.31-3.68-4.07-7.29-8.21-11-12.29a325,325,0,0,0-26.67-26.73c-.36-.31-.71-.63-1-1-1.18-1.21-1.28-2.18-.17-3.5,2.95-3.51,5.95-7,8.94-10.48.55-.65,1.1-1.3,1.67-1.93,1.38-1.53,2.51-1.65,4-.28,4.18,3.79,8.37,7.55,12.42,11.46,3.61,3.49,7,7.15,10.57,10.73C359,367.49,359.28,367.72,359.77,368.16Z"
            transform="translate(-83.7 -42.52)"/>
    </g>

    <g class="tesla-status tesla_status_info">
      <circle class="sensor-notifications-cls-1 tesla-primary-color" cx="374.11" cy="353.55" r="95.67"
              transform="translate(-224.12 325.57) rotate(-45)"/>
      <path class="sensor-notifications-cls-3 tesla-tertiary-color"
            d="M374.11,265.91a87.65,87.65,0,1,1-87.65,87.64,87.74,87.74,0,0,1,87.65-87.64m0-16.06A103.7,103.7,0,1,0,477.8,353.55a103.7,103.7,0,0,0-103.69-103.7Z"
            transform="translate(-83.7 -42.52)"/>
      <path class="sensor-notifications-cls-3 tesla-tertiary-color"
            d="M348.41,426v-7.11c12.74-1.48,14.16-2.45,14.16-18V356.55c0-14.55-1-15.44-12.46-17.09V332.8a205.91,205.91,0,0,0,37.31-8.33v76.41c0,15.16,1.13,16.56,14.6,18V426Zm25.07-118a14.82,14.82,0,0,1-14.57-14.42A14.6,14.6,0,0,1,373.7,279a14.24,14.24,0,0,1,14.41,14.58A14.54,14.54,0,0,1,373.48,308Z"
            transform="translate(-83.7 -42.52)"/>
    </g>
  </g>
</svg>
