<svg xmlns="http://www.w3.org/2000/svg" viewBox="0 0 501 501">
  <defs>
    <style>
    .common-system-1 {
      opacity: 0;
    }

    .common-system-1, .common-system-3 {
      stroke-miterlimit: 10;
    }

    .common-system-3 {
      stroke-linecap: round;
      stroke-width: 16.05px;
    }
    </style>
  </defs>

  <g class="tesla_common tesla_common_system">
    <g>
      <rect class="common-system-1 tesla-tertiary-color" x="0.5" y="0.5" width="500" height="500"/>
    </g>
    <path class="common-system-2 tesla-primary-color"
          d="M271.52,271.65c-7.25,1.93-14.49,3.89-21.74,5.83-2.68.71-2.66.68-4.32-1.64a92.3,92.3,0,0,0-10.83-12.6,88.13,88.13,0,0,0-12.54-10.42,1.6,1.6,0,0,1-.69-2.08q3.12-11.61,6.18-23.24c1-3.68-.3-6.41-3.73-8.14-3.81-1.92-7.68-3.71-11.65-5.28a129.62,129.62,0,0,0-42.29-9.15c-4.68-.22-6.66,1.26-7.89,5.8q-2.88,10.64-5.71,21.29c-.67,2.51-.67,2.49-3.27,2.77a98.09,98.09,0,0,0-31.24,8.48,2.33,2.33,0,0,1-3.11-.54c-5.3-5.38-10.66-10.71-16-16-3.25-3.24-6.11-3.58-9.94-1.1A130.75,130.75,0,0,0,70,244.33a136,136,0,0,0-16.3,20.24c-2.52,3.87-2.29,6.77,1,10.06C60,280,65.39,285.41,70.81,290.75a2.35,2.35,0,0,1,.58,3.1,97,97,0,0,0-8.57,32,2.26,2.26,0,0,1-2,2.34c-7.61,1.95-15.2,4-22.79,6.06-3.47.94-5.09,3.18-5.07,6.79a84,84,0,0,0,.69,9.37,127.51,127.51,0,0,0,13.79,45.31c2.07,3.93,4.45,4.9,8.8,3.74,7.4-2,14.8-3.94,22.18-6a2.2,2.2,0,0,1,2.82,1,97.79,97.79,0,0,0,23.38,23.43c1.51,1,1.58,2,1.14,3.58-2.1,7.52-4.11,15.07-6.08,22.62a6.28,6.28,0,0,0,3.22,7.45,129.51,129.51,0,0,0,55.22,14.86c3.7.16,6-1.6,7-5.21q3.06-11.23,6-22.48a2.51,2.51,0,0,1,2.55-2.25,95.49,95.49,0,0,0,31.58-8.39c1.6-.76,2.52-.46,3.7.74,5.21,5.34,10.5,10.58,15.79,15.83,2.91,2.89,6,3.46,9,1.56a119.83,119.83,0,0,0,19.44-15.08c3.06-3,6-6,8.88-9.21A127.7,127.7,0,0,0,274,406.26c2.21-3.43,1.86-6.38-1-9.3l-8.07-8.08c-2.87-2.87-5.72-5.76-8.63-8.6a1.85,1.85,0,0,1-.44-2.43,100.79,100.79,0,0,0,8.77-32.9,1.61,1.61,0,0,1,1.4-1.71c1.46-.31,2.89-.73,4.33-1.12,6.45-1.73,12.91-3.42,19.34-5.23,3.4-1,4.88-3.11,4.81-6.62,0-1.28-.12-2.56-.21-3.84a129.45,129.45,0,0,0-14.29-51C278.16,271.92,275.31,270.64,271.52,271.65ZM192.63,366.1c-16.2,15.64-43.29,15.49-58.86-1-15.71-15.11-17.15-42.22.42-59.52,16.82-16.55,43.24-15.48,59.18.35C209.57,322,209.92,349.41,192.63,366.1Z"
          transform="translate(0.5 0.5)"/>
    <path class="common-system-2 tesla-primary-color"
          d="M392.27,248.3c-1.59-6-3.2-11.91-4.79-17.87-.59-2.2-.56-2.19,1.34-3.55a75.78,75.78,0,0,0,10.36-8.9,73,73,0,0,0,8.56-10.31,1.32,1.32,0,0,1,1.71-.56q9.54,2.56,19.1,5.08c3,.79,5.26-.25,6.69-3.07,1.58-3.13,3-6.31,4.34-9.57a106.94,106.94,0,0,0,7.52-34.75c.17-3.84-1-5.47-4.77-6.48-5.83-1.58-11.66-3.13-17.5-4.69-2.06-.56-2-.55-2.28-2.69a80.61,80.61,0,0,0-7-25.67,1.92,1.92,0,0,1,.44-2.56c4.43-4.35,8.8-8.75,13.18-13.15,2.66-2.67,2.94-5,.9-8.17a106.21,106.21,0,0,0-15.4-18.71,111.08,111.08,0,0,0-16.63-13.41c-3.18-2.07-5.56-1.87-8.26.82-4.42,4.42-8.86,8.83-13.24,13.28a1.94,1.94,0,0,1-2.55.48,79.67,79.67,0,0,0-26.3-7,1.88,1.88,0,0,1-1.93-1.69c-1.6-6.25-3.28-12.49-5-18.73-.77-2.85-2.62-4.18-5.57-4.17a73.64,73.64,0,0,0-7.71.57,105.07,105.07,0,0,0-37.23,11.33c-3.23,1.71-4,3.66-3.07,7.24,1.62,6.08,3.23,12.16,4.92,18.22a1.82,1.82,0,0,1-.82,2.32,80,80,0,0,0-19.25,19.21c-.87,1.24-1.65,1.3-2.94.94-6.19-1.73-12.39-3.38-18.6-5a5.16,5.16,0,0,0-6.12,2.65,106.45,106.45,0,0,0-12.2,45.37c-.14,3,1.31,4.94,4.28,5.75q9.23,2.51,18.47,5a2.08,2.08,0,0,1,1.85,2.1,78.46,78.46,0,0,0,6.89,25.94,2.27,2.27,0,0,1-.61,3.05c-4.38,4.27-8.7,8.62-13,13-2.37,2.4-2.84,5-1.28,7.43a97.86,97.86,0,0,0,12.4,16c2.43,2.52,4.93,5,7.56,7.3a104.6,104.6,0,0,0,12.88,9.8c2.82,1.82,5.24,1.53,7.64-.85l6.64-6.63c2.36-2.36,4.73-4.7,7.06-7.09a1.52,1.52,0,0,1,2-.36,83,83,0,0,0,27,7.2,1.32,1.32,0,0,1,1.4,1.15c.26,1.2.6,2.38.92,3.56,1.43,5.3,2.81,10.61,4.3,15.89.79,2.8,2.56,4,5.44,4,1,0,2.11-.11,3.16-.18a106.44,106.44,0,0,0,41.9-11.74C392,253.75,393.1,251.41,392.27,248.3Zm-77.61-64.83c-12.85-13.31-12.73-35.57.81-48.36,12.42-12.92,34.69-14.1,48.91.34a34.56,34.56,0,1,1-49.72,48Z"
          transform="translate(0.5 0.5)"/>
  </g>
  <g class="tesla_group_status">
    <g class="tesla-status tesla_status_warning">
      <path class="common-system-3 tesla-status-warning tesla-tertiary-stroke"
            d="M374.11,429H283c-10.12,0-16.45-11.12-11.39-20l45.57-80.08,45.57-80.07a13.06,13.06,0,0,1,22.78,0l45.56,80.07,45.57,80.08c5.06,8.89-1.26,20-11.39,20Z"
            transform="translate(0.5 0.5)"/>
      <path class="common-system-4 tesla-tertiary-color"
            d="M374,289.85c6.37,0,14.51,1.24,13.39,9.82-1.21,9.91-6.41,45.21-9.26,69.67a3.44,3.44,0,0,1-3.41,3h-1.34a3.42,3.42,0,0,1-3.41-3.05c-2.57-23.3-8-59.11-9.17-70C359.59,291.57,367.24,289.85,374,289.85Zm.18,121.47c-7.21,0-12.57-5.29-12.57-13,0-7.44,5.36-13.1,12.57-13.1,7.39,0,12.75,5.66,12.75,13.1C387,406,381.6,411.32,374.21,411.32Z"
            transform="translate(0.5 0.5)"/>
    </g>
    <g class="tesla-status tesla_status_error">
      <g>
        <circle class="common-system-5 tesla-status-error" cx="374.11" cy="353.55" r="95.67" transform="translate(-139.93 368.59) rotate(-45)"/>
        <path class="common-system-4 tesla-tertiary-color"
              d="M374.11,265.91a87.65,87.65,0,1,1-87.65,87.64,87.74,87.74,0,0,1,87.65-87.64m0-16.06A103.7,103.7,0,1,0,477.8,353.55a103.7,103.7,0,0,0-103.69-103.7Z"
              transform="translate(0.5 0.5)"/>
      </g>
      <polygon class="common-system-4 tesla-tertiary-color"
               points="430.32 316.89 411.76 298.34 374.56 335.54 337.45 298.43 318.89 316.99 356 354.1 318.98 391.12 337.54 409.68 374.56 372.65 411.67 409.77 430.23 391.21 393.12 354.1 430.32 316.89"/>
    </g>
    <g class="tesla-status tesla_status_success">
      <g>
        <circle class="common-system-6 tesla-status-success" cx="374.11" cy="353.55" r="95.67" transform="translate(-139.93 368.59) rotate(-45)"/>
        <path class="common-system-4 tesla-tertiary-color"
              d="M374.11,265.91a87.65,87.65,0,1,1-87.65,87.64,87.74,87.74,0,0,1,87.65-87.64m0-16.06A103.7,103.7,0,1,0,477.8,353.55a103.7,103.7,0,0,0-103.69-103.7Z"
              transform="translate(0.5 0.5)"/>
      </g>
      <path id="OK" class="common-system-4 tesla-tertiary-color"
            d="M359.77,368.16c1.51-2.15,2.92-4.15,4.34-6.15,8-11.32,16.42-22.35,25.48-32.86,7-8.06,14.12-15.94,21.21-23.88,1.54-1.73,2.66-1.74,4.32-.18l10.68,10c2.62,2.45,2.63,3,.26,5.67-5.26,5.91-10.65,11.7-15.7,17.78-6.48,7.78-12.94,15.59-18.93,23.75C382.81,374,374.63,386.1,366.27,398c-.65.93-1.2,1.93-1.84,2.87-1.38,2-2.8,2.17-4.47.31-3.68-4.07-7.29-8.21-11-12.29a325,325,0,0,0-26.67-26.73c-.36-.31-.71-.63-1-1-1.18-1.21-1.28-2.18-.17-3.5,2.95-3.51,5.95-7,8.94-10.48.55-.65,1.1-1.3,1.67-1.93,1.38-1.53,2.51-1.65,4-.28,4.18,3.79,8.37,7.55,12.42,11.46,3.61,3.49,7,7.15,10.57,10.73C359,367.49,359.28,367.72,359.77,368.16Z"
            transform="translate(0.5 0.5)"/>
    </g>
    <g class="tesla-status tesla_status_info">
      <g>
        <circle class="common-system-2 tesla-primary-color" cx="374.11" cy="353.55" r="95.67" transform="translate(-139.93 368.59) rotate(-45)"/>
        <path class="common-system-4 tesla-tertiary-color"
              d="M374.11,265.91a87.65,87.65,0,1,1-87.65,87.64,87.74,87.74,0,0,1,87.65-87.64m0-16.06A103.7,103.7,0,1,0,477.8,353.55a103.7,103.7,0,0,0-103.69-103.7Z"
              transform="translate(0.5 0.5)"/>
      </g>
      <path class="common-system-4 tesla-tertiary-color"
            d="M348.41,426v-7.11c12.74-1.48,14.16-2.45,14.16-18V356.55c0-14.55-1-15.44-12.46-17.09V332.8a205.91,205.91,0,0,0,37.31-8.33v76.41c0,15.16,1.13,16.56,14.6,18V426Zm25.07-118a14.82,14.82,0,0,1-14.57-14.42A14.6,14.6,0,0,1,373.7,279a14.24,14.24,0,0,1,14.41,14.58A14.54,14.54,0,0,1,373.48,308Z"
            transform="translate(0.5 0.5)"/>
    </g>
    <g class="tesla-status tesla_status_disabled">
      <g>
        <rect class="tesla_status_disabled" x="-99.04" y="239.12" width="698.09" height="21.76" rx="10.87" transform="translate(-103.05 250.51) rotate(-45)"/>
      </g>
    </g>
  </g>
</svg>
