<svg xmlns="http://www.w3.org/2000/svg" viewBox="0 0 502.06 502.06">
  <defs>
    <style>
    .common-view-1 {
      stroke-width: 2.06px;
      opacity: 0;
    }

    .common-view-1, .common-view-4 {
      stroke-miterlimit: 10;
    }

    .common-view-4 {
      stroke-linecap: round;
      stroke-width: 16.05px;
    }
    </style>
  </defs>

  <g class="tesla_common tesla_common_view">
    <rect class="common-view-1 tesla-tertiary-color" x="1.03" y="1.03" width="500" height="500"/>
    <path class="common-view-2 tesla-primary-color"
          d="M41.87,249.54s101.44-104,208-104,207.94,104,207.94,104-103.62,104-207.77,104S41.87,249.54,41.87,249.54Z"
          transform="translate(1.03 1.03)"/>
    <path class="common-view-3 tesla-tertiary-color"
          d="M250,166.65A83.35,83.35,0,1,0,333.35,250,83.34,83.34,0,0,0,250,166.65Zm0,125.55a42.2,42.2,0,1,1,10.65-83,21.84,21.84,0,0,0,30.24,30.38A42.23,42.23,0,0,1,250,292.2Z"
          transform="translate(1.03 1.03)"/>
  </g>
  <g class="tesla_group_status">
    <g class="tesla-status tesla_status_warning">
      <path class="common-view-4 tesla-status-warning tesla-tertiary-stroke"
            d="M374.11,429H283c-10.12,0-16.45-11.12-11.39-20l45.57-80.08,45.57-80.07a13,13,0,0,1,22.77,0l45.57,80.07,45.57,80.08c5.06,8.89-1.27,20-11.39,20Z"
            transform="translate(1.03 1.03)"/>
      <path class="common-view-3 tesla-tertiary-color"
            d="M374,289.85c6.37,0,14.51,1.24,13.39,9.82-1.21,9.91-6.41,45.21-9.26,69.67a3.43,3.43,0,0,1-3.41,3h-1.34a3.43,3.43,0,0,1-3.41-3.05c-2.56-23.3-8-59.11-9.17-70C359.59,291.57,367.24,289.85,374,289.85Zm.18,121.48c-7.21,0-12.57-5.3-12.57-13.05,0-7.44,5.36-13.1,12.57-13.1,7.39,0,12.75,5.66,12.75,13.1C387,406,381.6,411.33,374.21,411.33Z"
            transform="translate(1.03 1.03)"/>
    </g>
    <g class="tesla-status tesla_status_error">
      <g>
        <circle class="common-view-5 tesla-status-error" cx="374.1" cy="353.55" r="95.67" transform="translate(-139.4 369.11) rotate(-45)"/>
        <path class="common-view-3 tesla-tertiary-color"
              d="M374.11,265.91a87.65,87.65,0,1,1-87.65,87.64,87.75,87.75,0,0,1,87.65-87.64m0-16.06A103.7,103.7,0,1,0,477.8,353.55a103.7,103.7,0,0,0-103.69-103.7Z"
              transform="translate(1.03 1.03)"/>
      </g>
      <polygon class="common-view-3 tesla-tertiary-color"
               points="430.85 317.43 412.3 298.87 375.09 336.07 337.98 298.96 319.42 317.52 356.54 354.63 319.52 391.65 338.07 410.21 375.09 373.19 412.2 410.3 430.76 391.74 393.65 354.63 430.85 317.43"/>
    </g>
    <g class="tesla-status tesla_status_success">
      <g>
        <circle class="common-view-6 tesla-status-success" cx="374.1" cy="353.55" r="95.67" transform="translate(-139.4 369.11) rotate(-45)"/>
        <path class="common-view-3 tesla-tertiary-color"
              d="M374.11,265.91a87.65,87.65,0,1,1-87.65,87.64,87.75,87.75,0,0,1,87.65-87.64m0-16.06A103.7,103.7,0,1,0,477.8,353.55a103.7,103.7,0,0,0-103.69-103.7Z"
              transform="translate(1.03 1.03)"/>
      </g>
      <path class="common-view-3 tesla-tertiary-color"
            d="M359.77,368.16c1.51-2.15,2.92-4.15,4.34-6.14,8-11.33,16.42-22.36,25.48-32.87,7-8.06,14.12-15.94,21.21-23.88,1.54-1.73,2.66-1.74,4.32-.18l10.68,10c2.62,2.45,2.63,3,.26,5.67-5.26,5.91-10.65,11.7-15.7,17.78-6.48,7.78-12.94,15.59-18.93,23.75C382.81,374,374.63,386.1,366.27,398c-.65.93-1.2,1.93-1.84,2.87-1.38,2-2.8,2.17-4.47.31-3.68-4.07-7.29-8.21-11-12.29a326.55,326.55,0,0,0-26.67-26.73q-.54-.46-1.05-1c-1.18-1.21-1.27-2.18-.16-3.5,2.95-3.51,5.95-7,8.93-10.48.56-.65,1.11-1.3,1.68-1.93,1.38-1.53,2.51-1.65,4-.28,4.17,3.79,8.37,7.56,12.42,11.47,3.61,3.48,7,7.14,10.57,10.72C359,367.49,359.28,367.72,359.77,368.16Z"
            transform="translate(1.03 1.03)"/>
    </g>
    <g class="tesla-status tesla_status_info">
      <g>
        <circle class="common-view-2 tesla-primary-color" cx="374.1" cy="353.55" r="95.67" transform="translate(-139.4 369.11) rotate(-45)"/>
        <path class="common-view-3 tesla-tertiary-color"
              d="M374.11,265.91a87.65,87.65,0,1,1-87.65,87.64,87.75,87.75,0,0,1,87.65-87.64m0-16.06A103.7,103.7,0,1,0,477.8,353.55a103.7,103.7,0,0,0-103.69-103.7Z"
              transform="translate(1.03 1.03)"/>
      </g>
      <path class="common-view-3 tesla-tertiary-color"
            d="M348.41,426v-7.12c12.74-1.48,14.16-2.45,14.16-18V356.55c0-14.55-1-15.44-12.46-17.09V332.8a205.91,205.91,0,0,0,37.31-8.33v76.41c0,15.15,1.13,16.56,14.6,18V426H348.41ZM373.48,308a14.82,14.82,0,0,1-14.57-14.42A14.6,14.6,0,0,1,373.7,279a14.24,14.24,0,0,1,14.41,14.58A14.54,14.54,0,0,1,373.48,308Z"
            transform="translate(1.03 1.03)"/>
    </g>
    <g class="tesla-status tesla_status_disabled">
      <g>
        <rect class="tesla_status_disabled" x="-99.04" y="239.12" width="698.09" height="21.76" rx="10.87" transform="translate(-103.05 250.51) rotate(-45)"/>
      </g>
    </g>
  </g>
</svg>
