<svg xmlns="http://www.w3.org/2000/svg" viewBox="0 0 501 501">
  <defs>
    <style>
    .role-instructor-1 {
      opacity: 0;
    }

    .role-instructor-1, .role-instructor-4 {
      stroke-miterlimit: 10;
    }

    .role-instructor-4 {
      stroke-linecap: round;
      stroke-width: 16.05px;
    }
    </style>
  </defs>

  <g class="tesla_role tesla_role_instructor">
    <g>
      <rect class="role-instructor-1 tesla-tertiary-color" x="0.5" y="0.5" width="500" height="500"/>
    </g>
    <path class="role-instructor-2 tesla-primary-color"
          d="M232.82,288.71a5.72,5.72,0,0,0,1.64,1.17c8.59,4,22.49,4,31.08,0a5.72,5.72,0,0,0,1.64-1.17l20.76-20.66,12.55-14c.38-.67.76-1.35,1.11-2,2.41-4.8,2.64-9.46,4.54-14.47,2.71-7.15,4.77-14.56,7.15-21.84.3-.91.81-2.4,1.35-2.47,2.9-.33,4.14-2.44,5.32-4.68,2.93-5.59,4.4-11.68,5.5-17.87,1.46-8.17,2.45-16.42,1.09-24.71-.34-2.07-1.41-5.25-2.33-6a3.1,3.1,0,0,1-.77-2.51c.13-2.27.4-4.53.61-6.8h1.11V122.44l59.19-19.51L249.82,57.53l-134.54,45.4,16.16,5.33v25.49c-4.61.57-8.1,3.23-8.1,6.43,0,3.62,4.47,6.55,10,6.55s10-2.93,10-6.55c0-3.2-3.49-5.86-8.1-6.43V109.5l39.28,12.94v28.25h1.21c.15,1.82.33,3.65.57,5.47s.34,3.35-1.29,4.62a3.63,3.63,0,0,0-1.05,2.22,83.43,83.43,0,0,0-1.22,10.75,88.16,88.16,0,0,0,3.71,25.84,61.13,61.13,0,0,0,4.38,10.47,7.4,7.4,0,0,0,3.69,2.92,2.48,2.48,0,0,1,1.79,1.84c1,3.61,1.89,7.25,3,10.81,3.41,10.69,5.31,20.68,11.11,30.17l11.67,12.25Z"
          transform="translate(0.5 0.5)"/>
    <path class="role-instructor-2 tesla-primary-color"
          d="M414.12,377.57c-3.46-18.86-13.93-37-20.1-43.89-28.25-31.67-50.93-35.42-67.36-39.53-7.61-1.9-13.57-4.23-20.42-6.46v10.85c0,22.16-22.28,116.66-29,143.36-1.21,4.77-2.76-.24-6.95-25.35-3.82-22.93-11.48-53.55-12.78-58.68a6,6,0,0,1-.19-1.52V350.5a6.23,6.23,0,0,1,.91-3.23L267,333a6.16,6.16,0,0,0,.91-3.23v-7.46A6.2,6.2,0,0,0,266,317.8l-6.89-6.65a6.17,6.17,0,0,0-4.3-1.74h-9.56a6.17,6.17,0,0,0-4.3,1.74L234,317.8a6.2,6.2,0,0,0-1.89,4.46v7.46a6.16,6.16,0,0,0,.91,3.23l8.76,14.32a6.23,6.23,0,0,1,.91,3.23v5.85a6,6,0,0,1-.19,1.52c-1.3,5.13-9,35.75-12.78,58.68-4.19,25.11-5.74,30.12-6.95,25.35-6.76-26.7-29-121.2-29-143.36V287.36c-8.61,2.79-20.52,6.95-26.89,8.3-28.81,6.1-48,20.63-61,37.83-4.21,5.57-14.73,19.26-20.11,44.1-2.17,10-1.88,33.32-1.88,39,0,3.92,112.54,41.52,166,41.52,54.41,0,166-38.67,166.13-41.52C416.29,406.18,416.55,390.83,414.12,377.57Z"
          transform="translate(0.5 0.5)"/>
    <path class="role-instructor-2 tesla-primary-color"
          d="M139.29,183.94a3.89,3.89,0,0,0,3.89-3.89V144.13c0,6.56-19.73,6.56-19.73,0v35.92a3.9,3.9,0,0,0,3.9,3.89Z"
          transform="translate(0.5 0.5)"/>
    <path class="role-instructor-3 tesla-tertiary-color"
          d="M222.8,441.9c1.21,4.77,2.76-.24,6.95-25.35,3.82-22.93,11.48-53.55,12.78-58.68a6,6,0,0,0,.19-1.52V350.5a6.23,6.23,0,0,0-.91-3.23L233.05,333a6.16,6.16,0,0,1-.91-3.23v-7.46A6.2,6.2,0,0,1,234,317.8l6.89-6.65a6.17,6.17,0,0,1,4.3-1.74h9.56a6.17,6.17,0,0,1,4.3,1.74L266,317.8a6.2,6.2,0,0,1,1.89,4.46v7.46A6.16,6.16,0,0,1,267,333l-8.76,14.32a6.23,6.23,0,0,0-.91,3.23v5.85a6,6,0,0,0,.19,1.52c1.3,5.13,9,35.75,12.78,58.68,4.19,25.11,5.74,30.12,6.95,25.35,6.76-26.7,29-121.2,29-143.36V287.69c-1.91-.62-3.89-1.24-6-1.83a2.11,2.11,0,0,1-1.81-2.43c0-8.16,0-16.32.05-24.48a4.76,4.76,0,0,1,.47-2c.48-1,1-1.9,1.54-2.84l-12.55,14-20.76,20.66a5.72,5.72,0,0,1-1.64,1.17c-8.59,4-22.49,4-31.08,0a5.72,5.72,0,0,1-1.64-1.17l-20.76-20.66L200.39,255.8c.12.19.22.38.34.56a4.62,4.62,0,0,1,.63,2.37c0,8.16,0,16.32,0,24.48a2,2,0,0,1-1.69,2.32c-1.65.46-3.69,1.1-6,1.83v11.18C193.76,320.7,216,415.2,222.8,441.9Z"
          transform="translate(0.5 0.5)"/>
  </g>
  <g class="tesla_group_status">
    <g class="tesla-status tesla_status_warning">
      <path class="role-instructor-4 tesla-status-warning tesla-tertiary-stroke"
            d="M374.11,429H283c-10.12,0-16.45-11.12-11.39-20l45.57-80.08,45.57-80.07a13.06,13.06,0,0,1,22.78,0l45.56,80.07,45.57,80.08c5.06,8.89-1.26,20-11.39,20Z"
            transform="translate(0.5 0.5)"/>
      <path class="role-instructor-3 tesla-tertiary-color"
            d="M374,289.85c6.37,0,14.51,1.24,13.39,9.82-1.21,9.91-6.41,45.21-9.26,69.67a3.44,3.44,0,0,1-3.41,3h-1.34a3.42,3.42,0,0,1-3.41-3.05c-2.57-23.3-8-59.11-9.17-70C359.59,291.57,367.24,289.85,374,289.85Zm.18,121.47c-7.21,0-12.57-5.29-12.57-13,0-7.44,5.36-13.1,12.57-13.1,7.39,0,12.75,5.66,12.75,13.1C387,406,381.6,411.32,374.21,411.32Z"
            transform="translate(0.5 0.5)"/>
    </g>
    <g class="tesla-status tesla_status_error">
      <g>
        <circle class="role-instructor-5 tesla-status-error" cx="374.11" cy="353.55" r="95.67" transform="translate(-139.93 368.59) rotate(-45)"/>
        <path class="role-instructor-3 tesla-tertiary-color"
              d="M374.11,265.91a87.65,87.65,0,1,1-87.65,87.64,87.74,87.74,0,0,1,87.65-87.64m0-16.06A103.7,103.7,0,1,0,477.8,353.55a103.7,103.7,0,0,0-103.69-103.7Z"
              transform="translate(0.5 0.5)"/>
      </g>
      <polygon class="role-instructor-3 tesla-tertiary-color"
               points="430.32 316.89 411.76 298.34 374.56 335.54 337.45 298.43 318.89 316.99 356 354.1 318.98 391.12 337.54 409.68 374.56 372.65 411.67 409.77 430.23 391.21 393.12 354.1 430.32 316.89"/>
    </g>
    <g class="tesla-status tesla_status_success">
      <g>
        <circle class="role-instructor-6 tesla-status-success" cx="374.11" cy="353.55" r="95.67" transform="translate(-139.93 368.59) rotate(-45)"/>
        <path class="role-instructor-3 tesla-tertiary-color"
              d="M374.11,265.91a87.65,87.65,0,1,1-87.65,87.64,87.74,87.74,0,0,1,87.65-87.64m0-16.06A103.7,103.7,0,1,0,477.8,353.55a103.7,103.7,0,0,0-103.69-103.7Z"
              transform="translate(0.5 0.5)"/>
      </g>
      <path class="role-instructor-3 tesla-tertiary-color"
            d="M359.77,368.16c1.51-2.15,2.92-4.15,4.34-6.15,8-11.32,16.42-22.35,25.48-32.86,7-8.06,14.12-15.94,21.21-23.88,1.54-1.73,2.66-1.74,4.32-.18l10.68,10c2.62,2.45,2.63,3,.26,5.67-5.26,5.91-10.65,11.7-15.7,17.78-6.48,7.78-12.94,15.59-18.93,23.75C382.81,374,374.63,386.1,366.27,398c-.65.93-1.2,1.93-1.84,2.87-1.38,2-2.8,2.17-4.47.31-3.68-4.07-7.29-8.21-11-12.29a325,325,0,0,0-26.67-26.73c-.36-.31-.71-.63-1-1-1.18-1.21-1.28-2.18-.17-3.5,2.95-3.51,5.95-7,8.94-10.48.55-.65,1.1-1.3,1.67-1.93,1.38-1.53,2.51-1.65,4-.28,4.18,3.79,8.37,7.55,12.42,11.46,3.61,3.49,7,7.15,10.57,10.73C359,367.49,359.28,367.72,359.77,368.16Z"
            transform="translate(0.5 0.5)"/>
    </g>
    <g class="tesla-status tesla_status_info">
      <g>
        <circle class="role-instructor-2 tesla-primary-color" cx="374.11" cy="353.55" r="95.67" transform="translate(-139.93 368.59) rotate(-45)"/>
        <path class="role-instructor-3 tesla-tertiary-color"
              d="M374.11,265.91a87.65,87.65,0,1,1-87.65,87.64,87.74,87.74,0,0,1,87.65-87.64m0-16.06A103.7,103.7,0,1,0,477.8,353.55a103.7,103.7,0,0,0-103.69-103.7Z"
              transform="translate(0.5 0.5)"/>
      </g>
      <path class="role-instructor-3 tesla-tertiary-color"
            d="M348.41,426v-7.11c12.74-1.48,14.16-2.45,14.16-18V356.55c0-14.55-1-15.44-12.46-17.09V332.8a205.91,205.91,0,0,0,37.31-8.33v76.41c0,15.16,1.13,16.56,14.6,18V426Zm25.07-118a14.82,14.82,0,0,1-14.57-14.42A14.6,14.6,0,0,1,373.7,279a14.24,14.24,0,0,1,14.41,14.58A14.54,14.54,0,0,1,373.48,308Z"
            transform="translate(0.5 0.5)"/>
    </g>
    <g class="tesla-status tesla_status_disabled">
      <g>
        <rect class="tesla_status_disabled" x="-99.04" y="239.12" width="698.09" height="21.76" rx="10.87" transform="translate(-103.05 250.51) rotate(-45)"/>
      </g>
    </g>
  </g>
</svg>
