<svg xmlns="http://www.w3.org/2000/svg" xmlns:xlink="http://www.w3.org/1999/xlink" viewBox="0 0 419.01 489.73"><defs><style>.cls-1{isolation:isolate;}.cls-10,.cls-11,.cls-12,.cls-13,.cls-14,.cls-15,.cls-16,.cls-2,.cls-3,.cls-4,.cls-5,.cls-6,.cls-7,.cls-8,.cls-9{fill:none;}.cls-10,.cls-11,.cls-12,.cls-13,.cls-14,.cls-15,.cls-16,.cls-2,.cls-3,.cls-4,.cls-6,.cls-7,.cls-8,.cls-9{stroke-linecap:round;}.cls-10,.cls-11,.cls-12,.cls-13,.cls-14,.cls-15,.cls-16,.cls-17,.cls-18,.cls-19,.cls-2,.cls-20,.cls-25,.cls-26,.cls-27,.cls-28,.cls-29,.cls-3,.cls-30,.cls-31,.cls-32,.cls-34,.cls-36,.cls-37,.cls-38,.cls-39,.cls-4,.cls-40,.cls-41,.cls-43,.cls-44,.cls-45,.cls-46,.cls-47,.cls-48,.cls-49,.cls-5,.cls-50,.cls-51,.cls-52,.cls-53,.cls-54,.cls-55,.cls-56,.cls-57,.cls-58,.cls-59,.cls-6,.cls-60,.cls-62,.cls-7,.cls-8,.cls-9{stroke-linejoin:round;}.cls-2,.cls-7{stroke-width:2.23px;}.cls-2{stroke:url(#Degradado_sin_nombre_50);}.cls-11,.cls-12,.cls-13,.cls-14,.cls-15,.cls-16,.cls-17,.cls-18,.cls-19,.cls-20,.cls-21,.cls-22,.cls-23,.cls-25,.cls-26,.cls-27,.cls-28,.cls-29,.cls-3,.cls-30,.cls-31,.cls-32,.cls-33,.cls-34,.cls-35,.cls-36,.cls-37,.cls-38,.cls-39,.cls-4,.cls-40,.cls-41,.cls-42,.cls-43,.cls-44,.cls-45,.cls-46,.cls-47,.cls-48,.cls-49,.cls-5,.cls-50,.cls-51,.cls-52,.cls-53,.cls-54,.cls-55,.cls-56,.cls-57,.cls-58,.cls-59,.cls-6,.cls-60,.cls-61,.cls-62,.cls-8{stroke-width:1.46px;}.cls-3{stroke:url(#Degradado_sin_nombre_50-2);}.cls-4{stroke:url(#Degradado_sin_nombre_50-3);}.cls-5,.cls-6,.cls-7{stroke:#80eafc;}.cls-8{stroke:url(#Degradado_sin_nombre_50-4);}.cls-10,.cls-9{stroke-width:1.39px;}.cls-9{stroke:url(#Degradado_sin_nombre_50-5);}.cls-10{stroke:url(#Degradado_sin_nombre_50-6);}.cls-11{stroke:url(#Degradado_sin_nombre_50-7);}.cls-12{stroke:url(#Degradado_sin_nombre_50-8);}.cls-13{stroke:url(#Degradado_sin_nombre_50-9);}.cls-14{stroke:url(#Degradado_sin_nombre_50-10);}.cls-15{stroke:url(#Degradado_sin_nombre_50-11);}.cls-16{stroke:url(#Degradado_sin_nombre_50-12);}.cls-17,.cls-23{fill:#1da1db;}.cls-17,.cls-18,.cls-19,.cls-20,.cls-21,.cls-22,.cls-23,.cls-25,.cls-26,.cls-27,.cls-28,.cls-29,.cls-30,.cls-31,.cls-32,.cls-33,.cls-34,.cls-35,.cls-36,.cls-37,.cls-38,.cls-39,.cls-40,.cls-41,.cls-42,.cls-43,.cls-44,.cls-45,.cls-46,.cls-47,.cls-48,.cls-49,.cls-50,.cls-51,.cls-52,.cls-53,.cls-54,.cls-55,.cls-56,.cls-57,.cls-58,.cls-59,.cls-60,.cls-61,.cls-62{stroke:#80ccf1;}.cls-18,.cls-21{fill:#1b3f83;}.cls-19{fill:#bbe1f7;}.cls-20,.cls-22{fill:#077bbc;}.cls-21,.cls-22,.cls-23,.cls-33,.cls-35,.cls-42,.cls-61{stroke-miterlimit:10;}.cls-24{mix-blend-mode:overlay;}.cls-25{fill:url(#Degradado_sin_nombre_46);}.cls-26{fill:url(#Degradado_sin_nombre_46-2);}.cls-27{fill:url(#Degradado_sin_nombre_46-3);}.cls-28{fill:url(#Degradado_sin_nombre_46-4);}.cls-29{fill:url(#Degradado_sin_nombre_46-5);}.cls-30{fill:url(#Degradado_sin_nombre_46-6);}.cls-31{fill:url(#Degradado_sin_nombre_46-7);}.cls-32{fill:url(#Degradado_sin_nombre_46-8);}.cls-33{fill:url(#Degradado_sin_nombre_46-9);}.cls-34{fill:url(#Degradado_sin_nombre_46-10);}.cls-35{fill:url(#Degradado_sin_nombre_46-11);}.cls-36{fill:url(#Degradado_sin_nombre_46-12);}.cls-37{fill:url(#Degradado_sin_nombre_46-13);}.cls-38{fill:url(#Degradado_sin_nombre_46-14);}.cls-39{fill:url(#Degradado_sin_nombre_46-15);}.cls-40{fill:url(#Degradado_sin_nombre_46-16);}.cls-41{fill:url(#Degradado_sin_nombre_46-17);}.cls-42{fill:url(#Degradado_sin_nombre_46-18);}.cls-43{fill:url(#Degradado_sin_nombre_46-19);}.cls-44{fill:url(#Degradado_sin_nombre_46-20);}.cls-45{fill:url(#Degradado_sin_nombre_46-21);}.cls-46{fill:url(#Degradado_sin_nombre_46-22);}.cls-47{fill:url(#Degradado_sin_nombre_46-23);}.cls-48{fill:url(#Degradado_sin_nombre_46-24);}.cls-49{fill:url(#Degradado_sin_nombre_46-25);}.cls-50{fill:url(#Degradado_sin_nombre_46-26);}.cls-51{fill:url(#Degradado_sin_nombre_46-27);}.cls-52{fill:url(#Degradado_sin_nombre_46-28);}.cls-53{fill:url(#Degradado_sin_nombre_46-29);}.cls-54{fill:url(#Degradado_sin_nombre_46-30);}.cls-55{fill:url(#Degradado_sin_nombre_46-31);}.cls-56{fill:url(#Degradado_sin_nombre_46-32);}.cls-57{fill:url(#Degradado_sin_nombre_46-33);}.cls-58{fill:url(#Degradado_sin_nombre_46-34);}.cls-59{fill:url(#Degradado_sin_nombre_46-35);}.cls-60{fill:url(#Degradado_sin_nombre_46-36);}.cls-61{fill:url(#Degradado_sin_nombre_46-37);}.cls-62{fill:url(#Degradado_sin_nombre_46-38);}.cls-63{fill:#80eafc;}</style><linearGradient id="Degradado_sin_nombre_50" x1="-189.21" y1="22.04" x2="-141.45" y2="22.04" gradientTransform="translate(261.27 389.03) rotate(20.24)" gradientUnits="userSpaceOnUse"><stop offset="0" stop-color="#fff" stop-opacity="0"/><stop offset="0.7" stop-color="#82ebfc" stop-opacity="0.97"/><stop offset="1" stop-color="#80eafc"/></linearGradient><linearGradient id="Degradado_sin_nombre_50-2" x1="-239.62" y1="-272.93" x2="-175.4" y2="-272.93" xlink:href="#Degradado_sin_nombre_50"/><linearGradient id="Degradado_sin_nombre_50-3" x1="-195.94" y1="-288.14" x2="-175.4" y2="-288.14" xlink:href="#Degradado_sin_nombre_50"/><linearGradient id="Degradado_sin_nombre_50-4" x1="-188.97" y1="-311.87" x2="-99.27" y2="-311.87" xlink:href="#Degradado_sin_nombre_50"/><linearGradient id="Degradado_sin_nombre_50-5" x1="-212.76" y1="-9.5" x2="-123.33" y2="-9.5" xlink:href="#Degradado_sin_nombre_50"/><linearGradient id="Degradado_sin_nombre_50-6" x1="-257.85" y1="-46.86" x2="-200.31" y2="-46.86" xlink:href="#Degradado_sin_nombre_50"/><linearGradient id="Degradado_sin_nombre_50-7" x1="-305.3" y1="-129.36" x2="-238.17" y2="-129.36" xlink:href="#Degradado_sin_nombre_50"/><linearGradient id="Degradado_sin_nombre_50-8" x1="-305.3" y1="-93.68" x2="-238.17" y2="-93.68" xlink:href="#Degradado_sin_nombre_50"/><linearGradient id="Degradado_sin_nombre_50-9" x1="-256.72" y1="-223.47" x2="-204.51" y2="-223.47" xlink:href="#Degradado_sin_nombre_50"/><linearGradient id="Degradado_sin_nombre_50-10" x1="-299.62" y1="-205.7" x2="-204.51" y2="-205.7" xlink:href="#Degradado_sin_nombre_50"/><linearGradient id="Degradado_sin_nombre_50-11" x1="-124.83" y1="-356.16" x2="-78.45" y2="-356.16" xlink:href="#Degradado_sin_nombre_50"/><linearGradient id="Degradado_sin_nombre_50-12" x1="-310.46" y1="-166.82" x2="-204.51" y2="-166.82" xlink:href="#Degradado_sin_nombre_50"/><linearGradient id="Degradado_sin_nombre_46" x1="-7.93" y1="65.82" x2="39.79" y2="65.82" gradientTransform="translate(261.27 389.03) rotate(20.24)" gradientUnits="userSpaceOnUse"><stop offset="0" stop-color="#fff" stop-opacity="0"/><stop offset="1" stop-color="#1d1d1b"/></linearGradient><linearGradient id="Degradado_sin_nombre_46-2" x1="-125.19" y1="-98.36" x2="-70.1" y2="-98.36" xlink:href="#Degradado_sin_nombre_46"/><linearGradient id="Degradado_sin_nombre_46-3" x1="31.11" y1="-217.44" x2="65.04" y2="-217.44" xlink:href="#Degradado_sin_nombre_46"/><linearGradient id="Degradado_sin_nombre_46-4" x1="-37.8" y1="-177.74" x2="16.35" y2="-177.74" xlink:href="#Degradado_sin_nombre_46"/><linearGradient id="Degradado_sin_nombre_46-5" x1="1.65" y1="-55.77" x2="58.19" y2="-55.77" xlink:href="#Degradado_sin_nombre_46"/><linearGradient id="Degradado_sin_nombre_46-6" x1="16.35" y1="-133.48" x2="93.88" y2="-133.48" xlink:href="#Degradado_sin_nombre_46"/><linearGradient id="Degradado_sin_nombre_46-7" x1="16.35" y1="-175.42" x2="93.3" y2="-175.42" xlink:href="#Degradado_sin_nombre_46"/><linearGradient id="Degradado_sin_nombre_46-8" x1="32.45" y1="-176.44" x2="93.94" y2="-176.44" xlink:href="#Degradado_sin_nombre_46"/><linearGradient id="Degradado_sin_nombre_46-9" x1="-34.37" y1="-131.11" x2="29.77" y2="-131.11" xlink:href="#Degradado_sin_nombre_46"/><linearGradient id="Degradado_sin_nombre_46-10" x1="-70.1" y1="-42.14" x2="1.65" y2="-42.14" xlink:href="#Degradado_sin_nombre_46"/><linearGradient id="Degradado_sin_nombre_46-11" x1="-101.82" y1="-112.08" x2="-34.38" y2="-112.08" xlink:href="#Degradado_sin_nombre_46"/><linearGradient id="Degradado_sin_nombre_46-12" x1="-125.19" y1="-63.01" x2="-70.1" y2="-63.01" xlink:href="#Degradado_sin_nombre_46"/><linearGradient id="Degradado_sin_nombre_46-13" x1="-22.82" y1="-196.56" x2="32.45" y2="-196.56" xlink:href="#Degradado_sin_nombre_46"/><linearGradient id="Degradado_sin_nombre_46-14" x1="-22.82" y1="-227.64" x2="32.45" y2="-227.64" xlink:href="#Degradado_sin_nombre_46"/><linearGradient id="Degradado_sin_nombre_46-15" x1="-97.27" y1="-38.52" x2="-36.01" y2="-38.52" xlink:href="#Degradado_sin_nombre_46"/><linearGradient id="Degradado_sin_nombre_46-16" x1="-9.59" y1="-49.75" x2="30.41" y2="-49.75" xlink:href="#Degradado_sin_nombre_46"/><linearGradient id="Degradado_sin_nombre_46-17" x1="29.77" y1="-67.9" x2="93.19" y2="-67.9" xlink:href="#Degradado_sin_nombre_46"/><linearGradient id="Degradado_sin_nombre_46-18" x1="29.77" y1="-112.5" x2="97.41" y2="-112.5" xlink:href="#Degradado_sin_nombre_46"/><linearGradient id="Degradado_sin_nombre_46-19" x1="65.04" y1="-173.56" x2="102.75" y2="-173.56" xlink:href="#Degradado_sin_nombre_46"/><linearGradient id="Degradado_sin_nombre_46-20" x1="93.19" y1="-110.26" x2="108.44" y2="-110.26" xlink:href="#Degradado_sin_nombre_46"/><linearGradient id="Degradado_sin_nombre_46-21" x1="-9.59" y1="3.06" x2="63.2" y2="3.06" xlink:href="#Degradado_sin_nombre_46"/><linearGradient id="Degradado_sin_nombre_46-22" x1="30.41" y1="-19.7" x2="87.4" y2="-19.7" xlink:href="#Degradado_sin_nombre_46"/><linearGradient id="Degradado_sin_nombre_46-23" x1="58.19" y1="-44.54" x2="117.85" y2="-44.54" xlink:href="#Degradado_sin_nombre_46"/><linearGradient id="Degradado_sin_nombre_46-24" x1="102.62" y1="-50.77" x2="121.86" y2="-50.77" xlink:href="#Degradado_sin_nombre_46"/><linearGradient id="Degradado_sin_nombre_46-25" x1="-36.01" y1="22.04" x2="39.79" y2="22.04" xlink:href="#Degradado_sin_nombre_46"/><linearGradient id="Degradado_sin_nombre_46-26" x1="19.78" y1="52.47" x2="71.42" y2="52.47" xlink:href="#Degradado_sin_nombre_46"/><linearGradient id="Degradado_sin_nombre_46-27" x1="-51.24" y1="92.32" x2="1.47" y2="92.32" xlink:href="#Degradado_sin_nombre_46"/><linearGradient id="Degradado_sin_nombre_46-28" x1="-129.94" y1="76.74" x2="-51.24" y2="76.74" xlink:href="#Degradado_sin_nombre_46"/><linearGradient id="Degradado_sin_nombre_46-29" x1="-76.91" y1="46.96" x2="-7.93" y2="46.96" xlink:href="#Degradado_sin_nombre_46"/><linearGradient id="Degradado_sin_nombre_46-30" x1="-142.56" y1="-2.07" x2="-60.94" y2="-2.07" xlink:href="#Degradado_sin_nombre_46"/><linearGradient id="Degradado_sin_nombre_46-31" x1="-76.91" y1="14.42" x2="-24.26" y2="14.42" xlink:href="#Degradado_sin_nombre_46"/><linearGradient id="Degradado_sin_nombre_46-32" x1="-238.89" y1="-117.84" x2="-159.4" y2="-117.84" xlink:href="#Degradado_sin_nombre_46"/><linearGradient id="Degradado_sin_nombre_46-33" x1="-201.13" y1="-51.19" x2="-97.4" y2="-51.19" xlink:href="#Degradado_sin_nombre_46"/><linearGradient id="Degradado_sin_nombre_46-34" x1="-58.93" y1="-283.7" x2="24.32" y2="-283.7" xlink:href="#Degradado_sin_nombre_46"/><linearGradient id="Degradado_sin_nombre_46-35" x1="-58.93" y1="-241.31" x2="24.32" y2="-241.31" xlink:href="#Degradado_sin_nombre_46"/><linearGradient id="Degradado_sin_nombre_46-36" x1="-176.86" y1="-217.71" x2="-100.02" y2="-217.71" xlink:href="#Degradado_sin_nombre_46"/><linearGradient id="Degradado_sin_nombre_46-37" x1="-159.4" y1="-166.04" x2="-88.07" y2="-166.04" xlink:href="#Degradado_sin_nombre_46"/><linearGradient id="Degradado_sin_nombre_46-38" x1="39.79" y1="37.51" x2="71.42" y2="37.51" xlink:href="#Degradado_sin_nombre_46"/></defs><g class="cls-1"><g id="Capa_1" data-name="Capa 1"><line class="cls-2" x1="78.62" y1="340.68" x2="118.43" y2="364.37"/><line class="cls-3" x1="138.44" y1="31.53" x2="183.48" y2="90.82"/><line class="cls-4" x1="189.96" y1="18.09" x2="183.48" y2="90.82"/><line class="cls-5" x1="172.38" y1="269.26" x2="140.62" y2="253.59"/><line class="cls-6" x1="183.48" y1="90.81" x2="269.26" y2="78.24"/><line class="cls-6" x1="87.89" y1="278.25" x2="76.69" y2="199.05"/><polyline class="cls-6" points="299.71 114.39 268.62 78.82 342.18 63.28 306.04 38.66 268.62 78.82"/><line class="cls-6" x1="230.86" y1="216.91" x2="248.61" y2="134.22"/><line class="cls-6" x1="126.76" y1="160.53" x2="76.69" y2="199.05"/><line class="cls-6" x1="183.48" y1="90.82" x2="126.76" y2="160.53"/><line class="cls-7" x1="248.61" y1="134.22" x2="268.62" y2="78.82"/><line class="cls-8" x1="198.57" y1="14.87" x2="269.26" y2="78.24"/><line class="cls-6" x1="248.61" y1="134.22" x2="299.4" y2="177.53"/><line class="cls-6" x1="174.57" y1="163.39" x2="126.76" y2="160.53"/><polyline class="cls-9" points="63.01 313.74 124.65 320.61 146.15 342.74"/><line class="cls-10" x1="37.2" y1="253.41" x2="87.89" y2="278.24"/><line class="cls-11" x1="25.41" y1="148.29" x2="76.7" y2="199.04"/><line class="cls-12" x1="76.69" y1="199.05" x2="0.73" y2="215.24"/><line class="cls-13" x1="117.6" y1="38.65" x2="126.76" y2="160.53"/><line class="cls-14" x1="65.05" y1="57.16" x2="126.76" y2="160.53"/><line class="cls-15" x1="272.14" y1="0.73" x2="306.04" y2="38.66"/><line class="cls-7" x1="349.05" y1="83.71" x2="342.18" y2="63.28"/><line class="cls-16" x1="27.99" y1="126.37" x2="126.76" y2="160.53"/><polygon class="cls-17" points="231.98 445.55 287.41 433.16 254.72 463.97 228.31 482.68 231.98 445.55"/><polygon class="cls-18" points="208.47 237.88 220.81 296.13 172.04 269.13 208.47 237.88"/><polygon class="cls-17" points="372.42 177.46 362.61 207.96 390.75 225.81 373.84 203.09 372.42 177.46"/><polygon class="cls-19" points="313.06 182.56 339.38 224.39 278.77 242.17 299.01 177.38 313.06 182.56"/><polygon class="cls-17" points="318.76 319.14 290.63 314.14 298.82 375.08 331.68 366.26 318.76 319.14"/><polygon class="cls-20" points="339.38 224.39 398.62 284.48 397.52 290.83 318.66 319.41 339.38 224.39"/><polygon class="cls-19" points="362.61 207.96 339.38 224.39 398.72 284.21 399.98 282.49 362.61 207.96"/><polygon class="cls-18" points="390.75 225.81 401.01 281.54 399.98 282.49 362.61 207.96 390.75 225.81"/><polygon class="cls-21" points="339.48 224.12 278.77 242.17 290.64 314.13 318.76 319.15 339.48 224.12"/><polygon class="cls-17" points="220.81 296.13 290.64 314.14 258.87 367.82 228.82 372.96 220.81 296.13"/><polygon class="cls-22" points="230.86 216.91 278.77 242.16 220.81 296.13 208.47 237.89 230.86 216.91"/><polygon class="cls-19" points="172.04 269.13 220.81 296.13 185.36 313.73 172.04 269.13"/><polyline class="cls-17" points="313.06 182.56 320.1 186.17 362.61 207.96 339.38 224.39 313.06 182.56"/><polygon class="cls-18" points="372.42 177.46 370.68 162.54 313.06 182.56 362.61 207.96 372.42 177.46"/><polygon class="cls-20" points="220.81 296.13 228.82 372.96 185.36 313.73 220.81 296.13"/><polygon class="cls-18" points="290.63 314.14 298.82 375.08 258.87 367.82 290.63 314.14"/><polygon class="cls-18" points="318.76 319.14 379.87 336.73 331.68 366.26 318.76 319.14"/><polygon class="cls-23" points="397.62 290.57 318.76 319.14 379.87 336.74 399.04 296.92 397.62 290.57"/><polygon class="cls-20" points="418.28 257.36 408.88 246.12 390.75 225.81 401.01 281.54 413.66 272.7 418.28 257.36"/><polygon class="cls-19" points="379.87 336.73 399.04 296.92 405.19 309.16 395.44 320.71 397.99 331.68 389.42 344.14 379.87 336.73"/><polygon class="cls-20" points="379.87 336.73 389.42 344.14 396.83 364.71 395.2 366.43 331.68 366.27 379.87 336.73"/><polygon class="cls-20" points="298.72 374.87 318.39 416.81 315.44 422.61 287.41 433.16 258.87 367.82 298.72 374.87"/><polygon class="cls-18" points="331.68 366.27 350.74 399.04 330.58 405.02 318.39 416.81 298.82 375.08 331.68 366.27"/><polygon class="cls-17" points="395.2 366.43 331.68 366.27 350.74 399.04 368.57 394.66 395.2 366.43"/><polygon class="cls-18" points="396.83 364.71 397.75 371.13 393.51 381.59 378.34 389.62 368.57 394.66 396.83 364.71"/><polygon class="cls-18" points="258.87 367.82 228.81 372.96 231.99 445.55 287.41 433.15 258.87 367.82"/><polygon class="cls-20" points="306.75 472.14 287.41 433.15 254.72 463.97 306.75 472.14"/><polygon class="cls-20" points="231.98 445.55 189.07 436.75 181.26 489 228.31 482.68 231.98 445.55"/><polygon class="cls-20" points="189.07 436.75 125.42 381.86 124.48 459.27 189.07 436.75"/><polygon class="cls-17" points="230.14 403.33 177.8 393.11 189.07 436.75 231.99 445.55 230.14 403.33"/><polygon class="cls-17" points="185.36 313.74 199.59 380.18 177.87 393.12 125.42 381.86 118.43 364.37 185.36 313.74"/><polygon class="cls-20" points="228.82 372.96 230.14 403.33 177.8 393.11 199.59 380.18 228.82 372.96"/><polygon class="cls-17" points="76.69 199.05 163.71 192.84 140.62 253.59 76.69 199.05"/><polygon class="cls-18" points="140.41 253.78 87.68 278.44 124.81 320.3 185.15 313.93 140.41 253.78"/><polygon class="cls-19" points="349.47 83.64 299.71 114.39 370.68 162.54 349.47 83.64"/><polygon class="cls-20" points="299.71 114.39 299.01 177.38 313.06 182.56 370.68 162.54 299.71 114.39"/><polygon class="cls-18" points="183.08 89.83 174.57 163.38 248.61 134.22 183.08 89.83"/><polygon class="cls-22" points="174.57 163.38 230.86 216.91 163.71 192.84 174.57 163.38"/><polygon class="cls-17" points="315.44 422.61 287.41 433.15 306.75 472.14 305.22 441.79 315.44 422.61"/><g id="Degradat" class="cls-24"><polygon class="cls-25" points="231.98 445.55 287.41 433.16 254.72 463.97 228.31 482.68 231.98 445.55"/><polygon class="cls-26" points="208.47 237.88 220.81 296.13 172.04 269.13 208.47 237.88"/><polygon class="cls-27" points="372.42 177.46 362.61 207.96 390.75 225.81 373.84 203.09 372.42 177.46"/><polygon class="cls-28" points="313.06 182.56 339.38 224.39 278.77 242.17 299.01 177.38 313.06 182.56"/><polygon class="cls-29" points="318.76 319.14 290.63 314.14 298.82 375.08 331.68 366.26 318.76 319.14"/><polygon class="cls-30" points="339.38 224.39 398.72 284.21 397.62 290.57 318.76 319.14 339.38 224.39"/><polygon class="cls-31" points="362.61 207.96 339.38 224.39 398.72 284.21 399.98 282.49 362.61 207.96"/><polygon class="cls-32" points="390.75 225.81 401.01 281.54 399.98 282.49 362.61 207.96 390.75 225.81"/><polygon class="cls-33" points="339.48 224.12 278.77 242.17 290.64 314.13 318.76 319.15 339.48 224.12"/><polygon class="cls-34" points="220.81 296.13 290.64 314.14 258.87 367.82 228.82 372.96 220.81 296.13"/><polygon class="cls-35" points="230.86 216.91 278.77 242.16 220.81 296.13 208.47 237.89 230.86 216.91"/><polygon class="cls-36" points="172.04 269.13 220.81 296.13 185.36 313.73 172.04 269.13"/><polygon class="cls-37" points="313.06 182.56 313.06 182.56 362.61 207.96 339.38 224.39 313.06 182.56 313.06 182.56"/><polygon class="cls-38" points="372.42 177.46 370.68 162.54 313.06 182.56 362.61 207.96 372.42 177.46"/><polygon class="cls-39" points="220.81 296.13 228.82 372.96 185.36 313.73 220.81 296.13"/><polygon class="cls-40" points="290.63 314.14 298.82 375.08 258.87 367.82 290.63 314.14"/><polygon class="cls-41" points="318.76 319.14 379.87 336.73 331.68 366.26 318.76 319.14"/><polygon class="cls-42" points="397.62 290.57 318.76 319.14 379.87 336.74 399.04 296.92 397.62 290.57"/><polygon class="cls-43" points="418.28 257.36 408.88 246.12 390.75 225.81 401.01 281.54 413.66 272.7 418.28 257.36"/><polygon class="cls-44" points="379.87 336.73 399.04 296.92 405.19 309.16 395.44 320.71 397.99 331.68 389.42 344.14 379.87 336.73"/><polygon class="cls-45" points="298.72 374.87 318.39 416.81 315.44 422.61 287.41 433.16 258.87 367.82 298.72 374.87"/><polygon class="cls-46" points="331.68 366.27 350.74 399.04 330.58 405.02 318.39 416.81 298.82 375.08 331.68 366.27"/><polygon class="cls-47" points="395.2 366.43 331.68 366.27 350.74 399.04 368.57 394.66 395.2 366.43"/><polygon class="cls-48" points="396.83 364.71 397.75 371.13 393.51 381.59 378.34 389.62 368.57 394.66 396.83 364.71"/><polygon class="cls-49" points="258.87 367.82 228.81 372.96 231.99 445.55 287.41 433.15 258.87 367.82"/><polygon class="cls-50" points="306.75 472.14 287.41 433.15 254.72 463.97 306.75 472.14"/><polygon class="cls-51" points="231.98 445.55 189.07 436.75 181.26 489 228.31 482.68 231.98 445.55"/><polygon class="cls-52" points="189.07 436.75 125.42 381.86 124.48 459.27 189.07 436.75"/><polygon class="cls-53" points="230.14 403.33 177.8 393.11 189.07 436.75 231.99 445.55 230.14 403.33"/><polygon class="cls-54" points="185.36 313.74 199.59 380.18 177.87 393.12 125.42 381.86 118.43 364.37 185.36 313.74"/><polygon class="cls-55" points="228.82 372.96 230.14 403.33 177.8 393.11 199.59 380.18 228.82 372.96"/><polygon class="cls-56" points="76.69 199.05 163.71 192.84 140.62 253.59 76.69 199.05"/><polygon class="cls-57" points="140.41 253.78 87.68 278.44 124.81 320.3 185.15 313.93 140.41 253.78"/><polygon class="cls-58" points="349.47 83.64 299.71 114.39 370.68 162.54 349.47 83.64"/><polygon class="cls-59" points="299.71 114.39 299.01 177.38 313.06 182.56 370.68 162.54 299.71 114.39"/><polygon class="cls-60" points="183.08 89.83 174.57 163.38 248.61 134.22 183.08 89.83"/><polygon class="cls-61" points="174.57 163.38 230.86 216.91 163.71 192.84 174.57 163.38"/><polygon class="cls-62" points="315.44 422.61 287.41 433.15 306.75 472.14 305.22 441.79 315.44 422.61"/></g><circle class="cls-63" cx="183.76" cy="90.08" r="3.64"/><circle class="cls-63" cx="339.38" cy="224.39" r="3.64"/><circle class="cls-63" cx="278.71" cy="242.14" r="3.64"/><circle class="cls-63" cx="318.76" cy="319.14" r="3.64"/><circle class="cls-63" cx="290.64" cy="314.14" r="3.64"/><circle class="cls-63" cx="220.81" cy="296.13" r="3.64"/><circle class="cls-63" cx="172.38" cy="269.26" r="3.64"/><circle class="cls-63" cx="163.71" cy="192.84" r="3.64"/><circle class="cls-63" cx="76.7" cy="199.04" r="3.64"/><circle class="cls-63" cx="126.76" cy="160.53" r="3.64"/><circle class="cls-63" cx="230.86" cy="216.91" r="3.64"/><circle class="cls-63" cx="331.73" cy="366.14" r="3.64"/><circle class="cls-63" cx="379.63" cy="336.79" r="3.64"/><circle class="cls-63" cx="298.88" cy="374.92" r="3.64"/><circle class="cls-63" cx="259.27" cy="367.97" r="3.64"/><circle class="cls-63" cx="228.92" cy="372.65" r="3.64"/><circle class="cls-63" cx="199.61" cy="380.13" r="3.64"/><circle class="cls-63" cx="178.33" cy="393.3" r="3.64"/><circle class="cls-63" cx="189.03" cy="436.73" r="3.64"/><circle class="cls-63" cx="287.3" cy="433.47" r="3.64"/><circle class="cls-63" cx="231.98" cy="445.55" r="3.64"/><circle class="cls-63" cx="313.06" cy="182.57" r="3.64"/><circle class="cls-63" cx="299.01" cy="177.38" r="3.64"/><circle class="cls-63" cx="362.61" cy="207.96" r="3.64"/><circle class="cls-63" cx="299.71" cy="114.39" r="3.64"/><circle class="cls-63" cx="269.06" cy="78.17" r="3.64"/><circle class="cls-63" cx="174.49" cy="163.59" r="3.64"/><circle class="cls-63" cx="140.62" cy="253.59" r="3.64"/><circle class="cls-63" cx="185.36" cy="313.73" r="3.64"/><circle class="cls-63" cx="248.25" cy="134.08" r="3.64"/></g></g></svg>