<svg xmlns="http://www.w3.org/2000/svg" viewBox="0 0 501 501">
  <defs>
    <style>
    .role-learner-1 {
      opacity: 0;
    }

    .role-learner-1, .role-learner-4 {
      stroke-miterlimit: 10;
    }

    .role-learner-4 {
      stroke-linecap: round;
      stroke-width: 16.05px;
    }
    </style>
  </defs>
  <g class="tesla_role tesla_role_learner">
    <g>
      <rect class="role-learner-1 tesla-tertiary-color" x="0.5" y="0.5" width="500" height="500"/>
    </g>
    <path class="role-learner-2 tesla-primary-color"
          d="M353.37,443.52H146.63c-14.73,0-24.87-12.17-26.68-26.67l-21.61-117c-2.45-15,11.94-26.68,26.68-26.68H375c14.74,0,29.13,11.68,26.68,26.68l-21.61,117C377,432.12,368.1,443.52,353.37,443.52Z"
          transform="translate(0.5 0.5)"/>
    <rect class="role-learner-2 tesla-primary-color" x="129.4" y="448.5" width="241.95" height="9.92" rx="4.96"/>
    <path class="role-learner-3 tesla-secondary-color"
          d="M250,327.69a32.69,32.69,0,1,1-32.69,32.69A32.69,32.69,0,0,1,250,327.69m0-5a37.68,37.68,0,1,0,37.68,37.68A37.72,37.72,0,0,0,250,322.7Z"
          transform="translate(0.5 0.5)"/>
    <polygon class="role-learner-3 tesla-secondary-color" points="264.31 343.33 254.89 357.73 275.77 361.62 264.31 343.33"/>
    <polygon class="role-learner-3 tesla-secondary-color" points="245.68 375.54 260.27 383.25 263.16 373.88 258.73 365.31 245.68 375.54"/>
    <polygon class="role-learner-3 tesla-secondary-color" points="247.73 346.85 233.68 341.15 235.46 353.65 247.73 346.85"/>
    <polygon class="role-learner-3 tesla-secondary-color" points="233.96 359.97 227.54 371.71 246.41 365.34 233.96 359.97"/>
    <path class="role-learner-2 tesla-primary-color"
          d="M357.45,243.2c-21.08-23.64-38-26.44-50.28-29.5-7.27-1.82-12.51-4.16-19.72-6.2a1.83,1.83,0,0,1-1.35-1.78c0-6.1,0-12.2,0-18.3a3.35,3.35,0,0,1,.33-1.46c.62-1.26,1.37-2.45,2-3.7,1.8-3.58,2-7.06,3.39-10.8,2-5.34,3.56-10.87,5.34-16.31.23-.68.61-1.79,1-1.83,2.17-.25,3.09-1.83,4-3.5a45.41,45.41,0,0,0,4.11-13.34c1.08-6.1,1.82-12.25.81-18.44-.25-1.55-1-3.92-1.74-4.48a2.36,2.36,0,0,1-.58-1.88c.17-2.75.59-5.48.68-8.23.31-9.36-.48-18.59-4.26-27.24-8.27-19-22.47-30.3-42.26-33.74-16.28-2.83-31.15,1.19-44.15,11.77a53.83,53.83,0,0,0-19.5,33.34,75.25,75.25,0,0,0-.38,23.11c.18,1.36.25,2.5-1,3.45a2.7,2.7,0,0,0-.78,1.66,62.11,62.11,0,0,0-.91,8A65.84,65.84,0,0,0,195,143.11a44.93,44.93,0,0,0,3.27,7.81A5.46,5.46,0,0,0,201,153.1c.74.31,1.12.59,1.32,1.32.78,2.73,1.44,5.48,2.3,8.18,2.57,8.12,4,15.69,8.52,22.89a3.46,3.46,0,0,1,.47,1.76c0,6.1,0,12.19,0,18.28a1.51,1.51,0,0,1-1.26,1.73c-5.91,1.66-18.51,6.29-24.52,7.56-21.5,4.55-35.85,15.4-45.56,28.24a76.06,76.06,0,0,0-11.42,20.59h238C365.46,254.53,360.67,246.82,357.45,243.2Z"
          transform="translate(0.5 0.5)"/>
  </g>
  <g class="tesla_group_status">
    <g class="tesla-status tesla_status_warning">
      <path class="role-learner-4 tesla-status-warning tesla-tertiary-stroke"
            d="M374.11,429H283c-10.12,0-16.45-11.12-11.39-20l45.57-80.08,45.57-80.07a13.06,13.06,0,0,1,22.78,0l45.56,80.07,45.57,80.08c5.06,8.89-1.26,20-11.39,20Z"
            transform="translate(0.5 0.5)"/>
      <path class="role-learner-5 tesla-tertiary-color"
            d="M374,289.85c6.37,0,14.51,1.24,13.39,9.82-1.21,9.91-6.41,45.21-9.26,69.67a3.44,3.44,0,0,1-3.41,3h-1.34a3.42,3.42,0,0,1-3.41-3.05c-2.57-23.3-8-59.11-9.17-70C359.59,291.57,367.24,289.85,374,289.85Zm.18,121.47c-7.21,0-12.57-5.29-12.57-13,0-7.44,5.36-13.1,12.57-13.1,7.39,0,12.75,5.66,12.75,13.1C387,406,381.6,411.32,374.21,411.32Z"
            transform="translate(0.5 0.5)"/>
    </g>
    <g class="tesla-status tesla_status_error">
      <g>
        <circle class="role-learner-6 tesla-status-error" cx="374.11" cy="353.55" r="95.67" transform="translate(-139.93 368.59) rotate(-45)"/>
        <path class="role-learner-5 tesla-tertiary-color"
              d="M374.11,265.91a87.65,87.65,0,1,1-87.65,87.64,87.74,87.74,0,0,1,87.65-87.64m0-16.06A103.7,103.7,0,1,0,477.8,353.55a103.7,103.7,0,0,0-103.69-103.7Z"
              transform="translate(0.5 0.5)"/>
      </g>
      <polygon class="role-learner-5 tesla-tertiary-color"
               points="430.32 316.89 411.76 298.34 374.56 335.54 337.45 298.43 318.89 316.99 356 354.1 318.98 391.12 337.54 409.68 374.56 372.65 411.67 409.77 430.23 391.21 393.12 354.1 430.32 316.89"/>
    </g>
    <g class="tesla-status tesla_status_success">
      <g>
        <circle class="role-learner-7 tesla-status-success" cx="374.11" cy="353.55" r="95.67" transform="translate(-139.93 368.59) rotate(-45)"/>
        <path class="role-learner-5 tesla-tertiary-color"
              d="M374.11,265.91a87.65,87.65,0,1,1-87.65,87.64,87.74,87.74,0,0,1,87.65-87.64m0-16.06A103.7,103.7,0,1,0,477.8,353.55a103.7,103.7,0,0,0-103.69-103.7Z"
              transform="translate(0.5 0.5)"/>
      </g>
      <path class="role-learner-5 tesla-tertiary-color"
            d="M359.77,368.16c1.51-2.15,2.92-4.15,4.34-6.15,8-11.32,16.42-22.35,25.48-32.86,7-8.06,14.12-15.94,21.21-23.88,1.54-1.73,2.66-1.74,4.32-.18l10.68,10c2.62,2.45,2.63,3,.26,5.67-5.26,5.91-10.65,11.7-15.7,17.78-6.48,7.78-12.94,15.59-18.93,23.75C382.81,374,374.63,386.1,366.27,398c-.65.93-1.2,1.93-1.84,2.87-1.38,2-2.8,2.17-4.47.31-3.68-4.07-7.29-8.21-11-12.29a325,325,0,0,0-26.67-26.73c-.36-.31-.71-.63-1-1-1.18-1.21-1.28-2.18-.17-3.5,2.95-3.51,5.95-7,8.94-10.48.55-.65,1.1-1.3,1.67-1.93,1.38-1.53,2.51-1.65,4-.28,4.18,3.79,8.37,7.55,12.42,11.46,3.61,3.49,7,7.15,10.57,10.73C359,367.49,359.28,367.72,359.77,368.16Z"
            transform="translate(0.5 0.5)"/>
    </g>
    <g class="tesla-status tesla_status_info">
      <g>
        <circle class="role-learner-2 tesla-primary-color" cx="374.11" cy="353.55" r="95.67" transform="translate(-139.93 368.59) rotate(-45)"/>
        <path class="role-learner-5 tesla-tertiary-color"
              d="M374.11,265.91a87.65,87.65,0,1,1-87.65,87.64,87.74,87.74,0,0,1,87.65-87.64m0-16.06A103.7,103.7,0,1,0,477.8,353.55a103.7,103.7,0,0,0-103.69-103.7Z"
              transform="translate(0.5 0.5)"/>
      </g>
      <path class="role-learner-5 tesla-tertiary-color"
            d="M348.41,426v-7.11c12.74-1.48,14.16-2.45,14.16-18V356.55c0-14.55-1-15.44-12.46-17.09V332.8a205.91,205.91,0,0,0,37.31-8.33v76.41c0,15.16,1.13,16.56,14.6,18V426Zm25.07-118a14.82,14.82,0,0,1-14.57-14.42A14.6,14.6,0,0,1,373.7,279a14.24,14.24,0,0,1,14.41,14.58A14.54,14.54,0,0,1,373.48,308Z"
            transform="translate(0.5 0.5)"/>
    </g>
    <g class="tesla-status tesla_status_disabled">
      <g>
        <rect class="tesla_status_disabled" x="-99.04" y="239.12" width="698.09" height="21.76" rx="10.87" transform="translate(-103.05 250.51) rotate(-45)"/>
      </g>
    </g>
  </g>
</svg>
