<svg xmlns="http://www.w3.org/2000/svg" viewBox="0 0 501 501">
  <defs>
    <style>
    .role-legal-1 {
      opacity: 0;
    }

    .role-legal-1, .role-legal-2, .role-legal-4, .role-legal-5, .role-legal-6, .role-legal-9 {
      stroke-miterlimit: 10;
    }

    .role-legal-2, .role-legal-4, .role-legal-5, .role-legal-6 {
      fill: none;
    }

    .role-legal-2 {
      stroke-width: 8.52px;
    }

    .role-legal-3 {
      stroke-linejoin: round;
      stroke-width: 4.18px;
    }

    .role-legal-4 {
      stroke-width: 12.02px;
    }

    .role-legal-5 {
      stroke-width: 5.23px;
    }

    .role-legal-6, .role-legal-9 {
      stroke-linecap: round;
    }

    .role-legal-6 {
      stroke-width: 2.61px;
    }

    .role-legal-9 {
      stroke-width: 16.05px;
    }
    </style>
  </defs>
  <g class="tesla_role tesla_role_legal">
    <g>
      <rect class="role-legal-1 tesla-tertiary-color" x="0.5" y="0.5" width="500" height="500"/>
    </g>
    <path class="role-legal-2 tesla-primary-stroke"
          d="M344,123.39v52.17c0,18.84,0,32.61,15.72,32.61,14.09,0,14.09-13.77,14.09-30.68V122S374.23,86.7,354,86.7c-22.24,0-22.27,20-22.27,35.28,0,22.13-.13,70.37.32,88.92,0,0-.29,30.13,28.39,30.13s26.22-30.13,26.22-30.13l-.29-104.54"
          transform="translate(0.5 0.5)"/>
    <rect class="role-legal-3 tesla-tertiary-stroke tesla-primary-color" x="277.74" y="59.77" width="141.87" height="191.33" rx="6.27"/>
    <line class="role-legal-4 tesla-tertiary-stroke" x1="325.3" y1="82.79" x2="372.06" y2="82.79"/>
    <line class="role-legal-5 tesla-tertiary-stroke" x1="292.09" y1="112" x2="402.2" y2="112"/>
    <line class="role-legal-5 tesla-tertiary-stroke" x1="292.09" y1="129.85" x2="394.18" y2="129.85"/>
    <line class="role-legal-5 tesla-tertiary-stroke" x1="292.09" y1="147.69" x2="384.45" y2="147.69"/>
    <line class="role-legal-5 tesla-tertiary-stroke" x1="292.09" y1="165.53" x2="375.93" y2="165.53"/>
    <line class="role-legal-5 tesla-tertiary-stroke" x1="292.09" y1="183.38" x2="367.55" y2="183.38"/>
    <path class="role-legal-6 tesla-tertiary-stroke"
          d="M304.68,237.18s-9.75,1.67-8.33-4.76,16.42-26.17,16.42-26.17,2.85-3.8,3.09,0-5.95,28.31-5.95,28.31-1.9,5,1.67,5.48,10-13.56,11.9-12.85-1.19,14.27,1.19,14.27,8.08-13.79,10.94-13.08,1.66,13.56,3.57,13.08,8.09-7.13,10-6.9,6.18,1.19,6.18,1.19"
          transform="translate(0.5 0.5)"/>
    <path class="role-legal-3 tesla-tertiary-stroke tesla-primary-color" d="M414.93,157.22l-36.7,64.3-16.85,12.54,2-21,36.7-64.3Z" transform="translate(0.5 0.5)"/>
    <path class="role-legal-3 tesla-tertiary-stroke tesla-primary-color" d="M396.53,146.63,436,77.4s8.08-2.79,14.54.89S458.1,90,458.1,90l-39.51,69.23Z"
          transform="translate(0.5 0.5)"/>
    <polygon class="role-legal-7 tesla-secondary-color" points="367.05 215.02 365.48 228.16 375.94 220.12 367.05 215.02"/>
    <path class="role-legal-8 tesla-primary-color"
          d="M187.85,435.08c47.48,0,144.91-33.74,145-36.23.27-9,.49-22.43-1.63-34-3-16.46-12.16-32.26-17.54-38.3-24.65-27.64-44.44-30.91-58.78-34.49-8.5-2.13-14.63-4.87-23.06-7.24a1.86,1.86,0,0,1-1.58-2.12c0-7.12,0-14.24,0-21.36a4.26,4.26,0,0,1,.42-1.77c.72-1.45,1.58-2.82,2.31-4.27,2.1-4.18,2.3-8.25,4-12.62,2.37-6.24,4.16-12.71,6.24-19.07.26-.79.71-2.09,1.18-2.14,2.53-.29,3.61-2.14,4.64-4.1,2.56-4.87,3.84-10.19,4.8-15.58,1.27-7.14,2.14-14.33.95-21.57-.29-1.81-1.23-4.58-2-5.23a2.69,2.69,0,0,1-.67-2.2c.19-3.21.69-6.41.79-9.62.36-10.94-.57-21.74-5-31.85-9.67-22.16-26.28-35.42-49.41-39.44-19-3.31-36.42,1.39-51.61,13.76a62.91,62.91,0,0,0-22.8,39,88,88,0,0,0-.45,27c.22,1.59.3,2.93-1.13,4a3.19,3.19,0,0,0-.91,1.94,71.21,71.21,0,0,0-1.06,9.39,76.78,76.78,0,0,0,3.23,22.55,53.24,53.24,0,0,0,3.82,9.13,6.52,6.52,0,0,0,3.22,2.55,2.16,2.16,0,0,1,1.57,1.6c.84,3.16,1.65,6.33,2.64,9.44,3,9.51,4.68,18.39,10,26.82a4.06,4.06,0,0,1,.54,2.06c0,7.13,0,14.25,0,21.37a1.75,1.75,0,0,1-1.48,2c-6.9,1.94-21.64,7.36-28.66,8.84-25.14,5.32-41.91,18-53.27,33-3.67,4.86-12.84,16.82-17.54,38.48-1.9,8.76-1.65,29.09-1.65,34C43,402.27,141.19,435.09,187.85,435.08Z"
          transform="translate(0.5 0.5)"/>
  </g>
  <g class="tesla_group_status">
    <g class="tesla-status tesla_status_warning">
      <path class="role-legal-9 tesla-tertiary-stroke tesla-status-warning"
            d="M374.11,429H283c-10.12,0-16.45-11.12-11.39-20l45.57-80.08,45.57-80.07a13.06,13.06,0,0,1,22.78,0l45.56,80.07,45.57,80.08c5.06,8.89-1.26,20-11.39,20Z"
            transform="translate(0.5 0.5)"/>
      <path class="role-legal-10 tesla-tertiary-color"
            d="M374,289.85c6.37,0,14.51,1.24,13.39,9.82-1.21,9.91-6.41,45.21-9.26,69.67a3.44,3.44,0,0,1-3.41,3h-1.34a3.42,3.42,0,0,1-3.41-3.05c-2.57-23.3-8-59.11-9.17-70C359.59,291.57,367.24,289.85,374,289.85Zm.18,121.47c-7.21,0-12.57-5.29-12.57-13,0-7.44,5.36-13.1,12.57-13.1,7.39,0,12.75,5.66,12.75,13.1C387,406,381.6,411.32,374.21,411.32Z"
            transform="translate(0.5 0.5)"/>
    </g>
    <g class="tesla-status tesla_status_error">
      <g>
        <circle class="role-legal-11 tesla-status-error" cx="374.11" cy="353.55" r="95.67" transform="translate(-139.93 368.59) rotate(-45)"/>
        <path class="role-legal-10 tesla-tertiary-color"
              d="M374.11,265.91a87.65,87.65,0,1,1-87.65,87.64,87.74,87.74,0,0,1,87.65-87.64m0-16.06A103.7,103.7,0,1,0,477.8,353.55a103.7,103.7,0,0,0-103.69-103.7Z"
              transform="translate(0.5 0.5)"/>
      </g>
      <polygon class="role-legal-10 tesla-tertiary-color"
               points="430.32 316.89 411.76 298.34 374.56 335.54 337.45 298.43 318.89 316.99 356 354.1 318.98 391.12 337.54 409.68 374.56 372.65 411.67 409.77 430.23 391.21 393.12 354.1 430.32 316.89"/>
    </g>
    <g class="tesla-status tesla_status_success">
      <g>
        <circle class="role-legal-12 tesla-status-success" cx="374.11" cy="353.55" r="95.67" transform="translate(-139.93 368.59) rotate(-45)"/>
        <path class="role-legal-10 tesla-tertiary-color"
              d="M374.11,265.91a87.65,87.65,0,1,1-87.65,87.64,87.74,87.74,0,0,1,87.65-87.64m0-16.06A103.7,103.7,0,1,0,477.8,353.55a103.7,103.7,0,0,0-103.69-103.7Z"
              transform="translate(0.5 0.5)"/>
      </g>
      <path class="role-legal-10 tesla-tertiary-color"
            d="M359.77,368.16c1.51-2.15,2.92-4.15,4.34-6.15,8-11.32,16.42-22.35,25.48-32.86,7-8.06,14.12-15.94,21.21-23.88,1.54-1.73,2.66-1.74,4.32-.18l10.68,10c2.62,2.45,2.63,3,.26,5.67-5.26,5.91-10.65,11.7-15.7,17.78-6.48,7.78-12.94,15.59-18.93,23.75C382.81,374,374.63,386.1,366.27,398c-.65.93-1.2,1.93-1.84,2.87-1.38,2-2.8,2.17-4.47.31-3.68-4.07-7.29-8.21-11-12.29a325,325,0,0,0-26.67-26.73c-.36-.31-.71-.63-1-1-1.18-1.21-1.28-2.18-.17-3.5,2.95-3.51,5.95-7,8.94-10.48.55-.65,1.1-1.3,1.67-1.93,1.38-1.53,2.51-1.65,4-.28,4.18,3.79,8.37,7.55,12.42,11.46,3.61,3.49,7,7.15,10.57,10.73C359,367.49,359.28,367.72,359.77,368.16Z"
            transform="translate(0.5 0.5)"/>
    </g>
    <g class="tesla-status tesla_status_info">
      <g>
        <circle class="role-legal-8 tesla-primary-color" cx="374.11" cy="353.55" r="95.67" transform="translate(-139.93 368.59) rotate(-45)"/>
        <path class="role-legal-10 tesla-tertiary-color"
              d="M374.11,265.91a87.65,87.65,0,1,1-87.65,87.64,87.74,87.74,0,0,1,87.65-87.64m0-16.06A103.7,103.7,0,1,0,477.8,353.55a103.7,103.7,0,0,0-103.69-103.7Z"
              transform="translate(0.5 0.5)"/>
      </g>
      <path class="role-legal-10 tesla-tertiary-color"
            d="M348.41,426v-7.11c12.74-1.48,14.16-2.45,14.16-18V356.55c0-14.55-1-15.44-12.46-17.09V332.8a205.91,205.91,0,0,0,37.31-8.33v76.41c0,15.16,1.13,16.56,14.6,18V426Zm25.07-118a14.82,14.82,0,0,1-14.57-14.42A14.6,14.6,0,0,1,373.7,279a14.24,14.24,0,0,1,14.41,14.58A14.54,14.54,0,0,1,373.48,308Z"
            transform="translate(0.5 0.5)"/>
    </g>
    <g class="tesla-status tesla_status_disabled">
      <g>
        <rect class="tesla_status_disabled" x="-99.04" y="239.12" width="698.09" height="21.76" rx="10.87" transform="translate(-103.05 250.51) rotate(-45)"/>
      </g>
    </g>
  </g>
</svg>
