<svg xmlns="http://www.w3.org/2000/svg" viewBox="0 0 501 501">
  <defs>
    <style>
    .role-send-1 {
      opacity: 0;
    }

    .role-send-1, .role-send-5 {
      stroke-miterlimit: 10;
    }

    .role-send-5 {
      stroke-linecap: round;
      stroke-width: 16.05px;
    }
    </style>
  </defs>
  <g class="tesla_role tesla_role_send">
    <g>
      <rect class="role-send-1 tesla-tertiary-color" x="0.5" y="0.5" width="500" height="500"/>
    </g>
    <path class="role-send-2 tesla-primary-color"
          d="M186.17,305.85c11.51-.78,21.44-1.45,28.84-3,3.34-.69,8.24-1.77,14.05-3,53.84-11.79,71.58-14.71,76.18-13.27,6.08,1.9,10.37,7.9,10.8,16.5.27,5.52-1.94,10.06-6.44,12.48-20.79,11.14-50.41,20.94-62.19,24.64a8.24,8.24,0,0,0-5.82,8.71,9.79,9.79,0,0,0,5.93,7.61,14.49,14.49,0,0,0,5,.66h63.51a15.35,15.35,0,0,0,4.58-.71,57.78,57.78,0,0,0,14.64-7c8-5.43,49.48-29.25,65.84-38.34-.24-2.39-.56-4.76-1-7.05-2.9-15.82-11.69-31-16.86-36.81-23.69-26.56-42.72-29.71-56.49-33.15-8.17-2-14.06-4.68-22.17-7a1.77,1.77,0,0,1-1.51-2c0-6.85,0-13.69,0-20.54a3.86,3.86,0,0,1,.4-1.7c.69-1.39,1.52-2.71,2.21-4.1,2-4,2.22-7.93,3.81-12.13,2.28-6,4-12.21,6-18.32.25-.76.68-2,1.13-2.06,2.44-.28,3.48-2.05,4.47-3.94a51.09,51.09,0,0,0,4.61-15c1.22-6.86,2.05-13.77.91-20.72-.28-1.74-1.18-4.41-1.95-5a2.64,2.64,0,0,1-.65-2.11c.19-3.09.66-6.16.76-9.25.35-10.52-.54-20.89-4.78-30.61-9.3-21.3-25.26-34-47.49-37.91-18.29-3.18-35,1.34-49.6,13.22a60.51,60.51,0,0,0-21.91,37.47,84,84,0,0,0-.43,26c.2,1.53.28,2.81-1.09,3.88a3,3,0,0,0-.88,1.86,69,69,0,0,0-1,9,73.86,73.86,0,0,0,3.11,21.67,51.44,51.44,0,0,0,3.67,8.77,6.25,6.25,0,0,0,3.1,2.46,2.06,2.06,0,0,1,1.5,1.54c.81,3,1.59,6.08,2.54,9.07,2.91,9.14,4.5,17.67,9.6,25.77a4,4,0,0,1,.53,2c0,6.84,0,13.69,0,20.53a1.7,1.7,0,0,1-1.42,2c-6.64,1.86-20.8,7.07-27.54,8.49-24.17,5.11-40.29,17.3-51.2,31.73-3.53,4.67-12.35,16.16-16.86,37a73,73,0,0,0-1.17,10.24,42.66,42.66,0,0,1,6.48-1.86C150.93,308.23,170.47,306.91,186.17,305.85Z"
          transform="translate(0.5 0.5)"/>
    <path class="role-send-3 tesla-secondary-color"
          d="M435,316.25c-6.36-9.3-16.23-5-24.22-1.08-1.55.76-4.75,2.55-9,4.93-18.14,10.17-55.21,31.56-61.84,36.09-1.36.92-2.73,1.75-4.08,2.52a67.27,67.27,0,0,1-12.72,5.53,23.56,23.56,0,0,1-7,1.09H252.63c-3,0-6.76.06-9.91-2.21s-7.08-6.39-8.48-10.18a16.81,16.81,0,0,1-.69-2.47C232,342.79,237,334.82,245,332.33c11.55-3.62,39.23-13.44,59.78-23.52,2.47-1.21,3.78-3.81,3.3-7.13-.67-4.55-1.7-7.42-6.37-7.42-8.94,0-52,9.43-70.86,13.56-5.84,1.28-10.76,2.36-14.12,3.06-8,1.67-18.16,2.35-30,3.15-15.46,1.05-34.71,2.34-55.09,6.42a39.44,39.44,0,0,0-8.43,2.83c-9.87,4.5-21,13.45-32.83,26.38A284.93,284.93,0,0,0,63,385.53a2.25,2.25,0,0,0,.39,2.88l66.25,48a2.28,2.28,0,0,0,3.19,0s19.47-18.78,22.42-21.73c6.56-6.56,14-6.53,26.37-6.52h2.64l.59,0H292.48c16.51,0,32.13-4,34.78-6,3.38-2.63,93.34-63.94,106.33-72.23C436.88,327.7,438.56,321.51,435,316.25Z"
          transform="translate(0.5 0.5)"/>
    <path class="role-send-4 tesla-tertiary-color"
          d="M323.1,364.24a67.27,67.27,0,0,0,12.72-5.53c-9,2.4-18.19,4.67-27.23,6.62h7.47A23.56,23.56,0,0,0,323.1,364.24Z"
          transform="translate(0.5 0.5)"/>
  </g>
  <g class="tesla_group_status">
    <g class="tesla-status tesla_status_warning">
      <path class="role-send-5 tesla-status-warning tesla-tertiary-stroke"
            d="M374.11,429H283c-10.12,0-16.45-11.12-11.39-20l45.57-80.08,45.57-80.07a13.06,13.06,0,0,1,22.78,0l45.56,80.07,45.57,80.08c5.06,8.89-1.26,20-11.39,20Z"
            transform="translate(0.5 0.5)"/>
      <path class="role-send-4 tesla-tertiary-color"
            d="M374,289.85c6.37,0,14.51,1.24,13.39,9.82-1.21,9.91-6.41,45.21-9.26,69.67a3.44,3.44,0,0,1-3.41,3h-1.34a3.42,3.42,0,0,1-3.41-3.05c-2.57-23.3-8-59.11-9.17-70C359.59,291.57,367.24,289.85,374,289.85Zm.18,121.47c-7.21,0-12.57-5.29-12.57-13,0-7.44,5.36-13.1,12.57-13.1,7.39,0,12.75,5.66,12.75,13.1C387,406,381.6,411.32,374.21,411.32Z"
            transform="translate(0.5 0.5)"/>
    </g>
    <g class="tesla-status tesla_status_error">
      <g>
        <circle class="role-send-6 tesla-status-error" cx="374.11" cy="353.55" r="95.67" transform="translate(-139.93 368.59) rotate(-45)"/>
        <path class="role-send-4 tesla-tertiary-color"
              d="M374.11,265.91a87.65,87.65,0,1,1-87.65,87.64,87.74,87.74,0,0,1,87.65-87.64m0-16.06A103.7,103.7,0,1,0,477.8,353.55a103.7,103.7,0,0,0-103.69-103.7Z"
              transform="translate(0.5 0.5)"/>
      </g>
      <polygon class="role-send-4 tesla-tertiary-color"
               points="430.32 316.89 411.76 298.34 374.56 335.54 337.45 298.43 318.89 316.99 356 354.1 318.98 391.12 337.54 409.68 374.56 372.65 411.67 409.77 430.23 391.21 393.12 354.1 430.32 316.89"/>
    </g>
    <g class="tesla-status tesla_status_success">
      <g>
        <circle class="role-send-7 tesla-status-success" cx="374.11" cy="353.55" r="95.67" transform="translate(-139.93 368.59) rotate(-45)"/>
        <path class="role-send-4 tesla-tertiary-color"
              d="M374.11,265.91a87.65,87.65,0,1,1-87.65,87.64,87.74,87.74,0,0,1,87.65-87.64m0-16.06A103.7,103.7,0,1,0,477.8,353.55a103.7,103.7,0,0,0-103.69-103.7Z"
              transform="translate(0.5 0.5)"/>
      </g>
      <path class="role-send-4 tesla-tertiary-color"
            d="M359.77,368.16c1.51-2.15,2.92-4.15,4.34-6.15,8-11.32,16.42-22.35,25.48-32.86,7-8.06,14.12-15.94,21.21-23.88,1.54-1.73,2.66-1.74,4.32-.18l10.68,10c2.62,2.45,2.63,3,.26,5.67-5.26,5.91-10.65,11.7-15.7,17.78-6.48,7.78-12.94,15.59-18.93,23.75C382.81,374,374.63,386.1,366.27,398c-.65.93-1.2,1.93-1.84,2.87-1.38,2-2.8,2.17-4.47.31-3.68-4.07-7.29-8.21-11-12.29a325,325,0,0,0-26.67-26.73c-.36-.31-.71-.63-1-1-1.18-1.21-1.28-2.18-.17-3.5,2.95-3.51,5.95-7,8.94-10.48.55-.65,1.1-1.3,1.67-1.93,1.38-1.53,2.51-1.65,4-.28,4.18,3.79,8.37,7.55,12.42,11.46,3.61,3.49,7,7.15,10.57,10.73C359,367.49,359.28,367.72,359.77,368.16Z"
            transform="translate(0.5 0.5)"/>
    </g>
    <g class="tesla-status tesla_status_info">
      <g>
        <circle class="role-send-2 tesla-primary-color" cx="374.11" cy="353.55" r="95.67" transform="translate(-139.93 368.59) rotate(-45)"/>
        <path class="role-send-4 tesla-tertiary-color"
              d="M374.11,265.91a87.65,87.65,0,1,1-87.65,87.64,87.74,87.74,0,0,1,87.65-87.64m0-16.06A103.7,103.7,0,1,0,477.8,353.55a103.7,103.7,0,0,0-103.69-103.7Z"
              transform="translate(0.5 0.5)"/>
      </g>
      <path class="role-send-4 tesla-tertiary-color"
            d="M348.41,426v-7.11c12.74-1.48,14.16-2.45,14.16-18V356.55c0-14.55-1-15.44-12.46-17.09V332.8a205.91,205.91,0,0,0,37.31-8.33v76.41c0,15.16,1.13,16.56,14.6,18V426Zm25.07-118a14.82,14.82,0,0,1-14.57-14.42A14.6,14.6,0,0,1,373.7,279a14.24,14.24,0,0,1,14.41,14.58A14.54,14.54,0,0,1,373.48,308Z"
            transform="translate(0.5 0.5)"/>
    </g>
    <g class="tesla-status tesla_status_disabled">
      <g>
        <rect class="tesla_status_disabled" x="-99.04" y="239.12" width="698.09" height="21.76" rx="10.87" transform="translate(-103.05 250.51) rotate(-45)"/>
      </g>
    </g>
  </g>
</svg>
