<svg xmlns="http://www.w3.org/2000/svg" viewBox="0 0 501 501">
  <defs>
    <style>
    .role-superadmin-1 {
      opacity: 0;
    }

    .role-superadmin-1, .role-superadmin-4, .role-superadmin-5 {
      stroke-miterlimit: 10;
    }

    .role-superadmin-4 {
      stroke-width: 5px;
    }

    .role-superadmin-5 {
      stroke-linecap: round;
      stroke-width: 16.05px;
    }
    </style>
  </defs>

  <g class="tesla_role tesla_role_superadmin">
    <g>
      <rect class="role-superadmin-1 tesla-tertiary-color" x="0.5" y="0.5" width="500" height="500"/>
    </g>
    <path class="role-superadmin-2 tesla-secondary-color"
          d="M456.43,320.57c-2.66-14.49-10.71-28.41-15.45-33.72-21.7-24.34-39.13-27.22-51.75-30.37-7.48-1.87-13-3.87-20.3-6.38-3.14-1.08-10.38-14.4-10.36-20.67a4.05,4.05,0,0,1,.18-1C403.92,228.34,409,215.2,409,215.2c0-6.64-21-6.13-21-30.65s9.21-105.09-60.15-105.22c.6,1.26,1.2,2.53,1.77,3.84,5.12,11.73,7.25,25,6.7,41.69-.08,2.48-.31,4.79-.54,7-.06.57-.12,1.13-.17,1.68a28.6,28.6,0,0,1,2.75,8.5c1.69,10.32.39,20.32-1.11,28.75-1.15,6.42-2.84,14-6.69,21.33a21.67,21.67,0,0,1-6.83,8.21l-1.31,4.22c-1.55,5-3.15,10.13-5.09,15.25a41.87,41.87,0,0,0-1.38,4.83,47.94,47.94,0,0,1-3.66,10.77c-.53,1-1.08,2-1.56,2.87-.1.18-.19.36-.29.53,0,3.14,0,6.27,0,9.41q0,3.06,0,6.2c1.9.62,3.72,1.25,5.51,1.86,4.48,1.54,8.71,3,13.61,4.21l3.23.79c16.44,4,41.29,10,70.17,42.4,7,7.85,18.89,27.56,22.95,49.71.52,2.81.92,5.68,1.23,8.57,18-5.72,30.69-10.63,30.71-11.47C458.1,342.55,458.3,330.76,456.43,320.57Z"
          transform="translate(0.5 0.5)"/>
    <path class="role-superadmin-2 tesla-secondary-color"
          d="M96.12,304.43l.14-.18c16.68-22.05,39.6-36.29,68.13-42.33,4.24-.9,12.54-3.64,19.21-5.85l5.79-1.91v-4.31c0-3.64,0-7.39,0-11.09-4.71-8.13-7.05-16.25-9.32-24.12-.7-2.42-1.42-4.93-2.2-7.37s-1.5-5-2.16-7.49a17.43,17.43,0,0,1-5.57-6.21A72.12,72.12,0,0,1,164.9,181a100.27,100.27,0,0,1-4.21-29.35,70.52,70.52,0,0,1,1-10c.12-.76.23-1.53.34-2.29a16.41,16.41,0,0,1,2-6,112,112,0,0,1,.88-32.26,87.93,87.93,0,0,1,6.72-21.72c-13.8-.63-26.5,3.73-37.82,12.94a55.4,55.4,0,0,0-20.07,34.32,77.16,77.16,0,0,0-.4,23.79c.19,1.39.26,2.57-1,3.55a2.84,2.84,0,0,0-.81,1.7,64.4,64.4,0,0,0-.93,8.27,67.65,67.65,0,0,0,2.85,19.85,46.77,46.77,0,0,0,3.36,8,5.76,5.76,0,0,0,2.84,2.25,1.87,1.87,0,0,1,1.37,1.41c.75,2.78,1.46,5.57,2.33,8.3,2.66,8.38,4.12,16.2,8.79,23.62a3.67,3.67,0,0,1,.49,1.82c0,6.27,0,12.54,0,18.81a1.55,1.55,0,0,1-1.3,1.78c-6.08,1.71-19,6.48-25.23,7.78C84,262.32,69.27,273.48,59.27,286.7,56,291,48,301.5,43.83,320.58c-1.68,7.71-1.45,25.6-1.45,29.93,0,1.15,12.54,6.05,30.34,11.68A77.77,77.77,0,0,1,74,353C79.88,325.89,91.68,310.3,96.12,304.43Z"
          transform="translate(0.5 0.5)"/>
    <path class="role-superadmin-3 tesla-primary-color"
          d="M249.85,436.06c54.41,0,166-38.67,166.13-41.52.31-10.36.57-25.71-1.86-39-3.46-18.86-13.93-37-20.1-43.89-28.25-31.67-50.93-35.42-67.36-39.53-9.74-2.43-16.76-5.57-26.42-8.29a2.11,2.11,0,0,1-1.81-2.43c0-8.16,0-16.32.05-24.48a4.76,4.76,0,0,1,.47-2c.83-1.65,1.81-3.23,2.65-4.88,2.41-4.8,2.64-9.46,4.54-14.47,2.71-7.15,4.77-14.56,7.15-21.84.3-.91.81-2.4,1.35-2.47,2.9-.33,4.14-2.44,5.32-4.68,2.93-5.59,4.4-11.68,5.5-17.87,1.46-8.17,2.45-16.42,1.09-24.71-.34-2.07-1.41-5.25-2.33-6a3.1,3.1,0,0,1-.77-2.51c.22-3.68.79-7.35.91-11,.41-12.54-.65-24.91-5.71-36.49-11.08-25.4-30.11-40.59-56.61-45.2C240.22,39,220.3,44.36,202.89,58.53a72.2,72.2,0,0,0-26.13,44.68,100.7,100.7,0,0,0-.51,31c.25,1.82.34,3.35-1.29,4.62a3.63,3.63,0,0,0-1.05,2.22,83.43,83.43,0,0,0-1.22,10.75,88.16,88.16,0,0,0,3.71,25.84,61.13,61.13,0,0,0,4.38,10.47,7.4,7.4,0,0,0,3.69,2.92,2.48,2.48,0,0,1,1.79,1.84c1,3.61,1.89,7.25,3,10.81,3.47,10.9,5.37,21.07,11.45,30.73a4.62,4.62,0,0,1,.63,2.37c0,8.16,0,16.32,0,24.48a2,2,0,0,1-1.69,2.32c-7.91,2.22-24.8,8.43-32.84,10.13-28.81,6.1-48,20.63-61,37.83-4.21,5.57-14.73,19.26-20.11,44.1-2.17,10-1.88,33.32-1.88,39C83.84,398.46,196.38,436.06,249.85,436.06Z"
          transform="translate(0.5 0.5)"/>
    <path class="role-superadmin-4 tesla-secondary-color tesla-tertiary-stroke"
          d="M253.86,387.55l-11.45-3c-1.41-.37-1.39-.38-1.55-1.86a48.64,48.64,0,0,0-1.67-8.57,46.21,46.21,0,0,0-3-8,.85.85,0,0,1,.23-1.13q4.44-4.5,8.86-9a3.39,3.39,0,0,0,.41-4.69c-1.24-1.87-2.55-3.68-3.95-5.44a68.24,68.24,0,0,0-16.94-15.16c-2.08-1.31-3.37-1.15-5.11.6-2.72,2.74-5.43,5.5-8.14,8.25-1,1-1,1-2.21.42a51.46,51.46,0,0,0-16.47-4.25,1.22,1.22,0,0,1-1.28-1.05c-1-3.84-2.09-7.66-3.15-11.49-.64-2.32-1.86-3.22-4.26-3.08a68.44,68.44,0,0,0-15.27,2.65,71.5,71.5,0,0,0-12.7,5c-2.16,1.11-2.8,2.49-2.16,4.85,1.06,3.85,2.11,7.71,3.2,11.56a1.23,1.23,0,0,1-.54,1.56,51.26,51.26,0,0,0-12.23,12.4,1.18,1.18,0,0,1-1.54.54c-4-1.09-8-2.13-12-3.15a3.3,3.3,0,0,0-4.08,1.78,45.48,45.48,0,0,0-2.12,4.46A67.06,67.06,0,0,0,119.26,386c-.08,2.33.76,3.39,3,4,3.9,1,7.79,2.05,11.69,3a1.16,1.16,0,0,1,1,1.18,51.35,51.35,0,0,0,4.6,16.78,1.43,1.43,0,0,1-.42,1.93c-2.91,2.89-5.79,5.82-8.65,8.75a3.32,3.32,0,0,0-.46,4.25,68.24,68.24,0,0,0,21.36,21.12,3.33,3.33,0,0,0,4.55-.56q4.32-4.33,8.59-8.71a1.32,1.32,0,0,1,1.75-.36,50.36,50.36,0,0,0,16.6,4.37,1.44,1.44,0,0,1,1.5,1.3c1,3.79,2.05,7.56,3.1,11.33.58,2.08,1.87,3.15,3.73,3.06a63.44,63.44,0,0,0,12.79-1.84c2.17-.56,4.32-1.18,6.45-1.9a68.25,68.25,0,0,0,9.52-4.06,3.49,3.49,0,0,0,1.94-4.52c-.52-1.93-1.06-3.86-1.59-5.78s-1.12-4.12-1.71-6.17a1,1,0,0,1,.44-1.23,52.91,52.91,0,0,0,12.54-12.75.86.86,0,0,1,1.09-.42c.74.24,1.51.42,2.26.62,3.4.88,6.79,1.79,10.2,2.63a3.17,3.17,0,0,0,3.92-1.77c.32-.6.6-1.21.9-1.82a67.84,67.84,0,0,0,6.71-27A3.52,3.52,0,0,0,253.86,387.55ZM193.29,410.2c-11.46,2.94-23.79-4.16-26.63-15.73a22.06,22.06,0,0,1,42.59-11.55A22.22,22.22,0,0,1,193.29,410.2Z"
          transform="translate(0.5 0.5)"/>
    <path class="role-superadmin-4 tesla-secondary-color tesla-tertiary-stroke"
          d="M315.07,408.24c.83-3.13,1.64-6.27,2.46-9.4.3-1.16.31-1.15,1.53-1.28a39.83,39.83,0,0,0,7-1.37,37.67,37.67,0,0,0,6.59-2.49.69.69,0,0,1,.93.19l7.4,7.28a2.79,2.79,0,0,0,3.86.33c1.53-1,3-2.09,4.46-3.24a56.07,56.07,0,0,0,12.46-13.92c1.08-1.71.95-2.77-.49-4.2l-6.77-6.69c-.8-.79-.8-.78-.35-1.82a42.35,42.35,0,0,0,3.49-13.53,1,1,0,0,1,.86-1.05c3.15-.84,6.3-1.72,9.44-2.59,1.91-.53,2.65-1.53,2.53-3.5a56.22,56.22,0,0,0-2.17-12.54A58.27,58.27,0,0,0,364.22,328c-.91-1.78-2.05-2.31-4-1.77-3.16.86-6.33,1.72-9.49,2.62a1,1,0,0,1-1.29-.44,41.75,41.75,0,0,0-10.19-10.05,1,1,0,0,1-.44-1.27q1.33-4.9,2.59-9.85a2.71,2.71,0,0,0-1.46-3.35,37.32,37.32,0,0,0-3.67-1.74,55,55,0,0,0-19.95-4.49c-1.92-.07-2.79.62-3.28,2.5-.84,3.2-1.68,6.4-2.49,9.6a.94.94,0,0,1-1,.85,42,42,0,0,0-13.78,3.78,1.18,1.18,0,0,1-1.59-.34q-3.57-3.58-7.2-7.11a2.69,2.69,0,0,0-3.48-.38,56,56,0,0,0-17.36,17.55,2.73,2.73,0,0,0,.47,3.74q3.56,3.54,7.15,7.06a1.1,1.1,0,0,1,.3,1.44A40.93,40.93,0,0,0,270.51,350a1.19,1.19,0,0,1-1.07,1.23c-3.12.82-6.21,1.68-9.31,2.55-1.71.48-2.59,1.53-2.52,3.06a52.44,52.44,0,0,0,1.51,10.51c.46,1.79,1,3.55,1.57,5.3a53.4,53.4,0,0,0,3.33,7.82,2.89,2.89,0,0,0,3.72,1.6l4.75-1.31c1.69-.46,3.38-.92,5.07-1.4a.8.8,0,0,1,1,.35A43.48,43.48,0,0,0,289,390a.71.71,0,0,1,.35.9c-.2.61-.35,1.24-.51,1.86-.72,2.79-1.47,5.58-2.16,8.38a2.57,2.57,0,0,0,1.45,3.21c.49.27,1,.5,1.49.74a55.91,55.91,0,0,0,22.19,5.52A2.89,2.89,0,0,0,315.07,408.24Zm-18.61-49.77c-2.41-9.41,3.42-19.55,12.93-21.88a18,18,0,0,1,22.25,12.86,18.16,18.16,0,1,1-35.18,9Z"
          transform="translate(0.5 0.5)"/>
  </g>
  <g class="tesla_group_status">
    <g class="tesla-status tesla_status_warning">
      <path class="role-superadmin-5 tesla-tertiary-stroke tesla-status-warning"
            d="M374.11,429H283c-10.12,0-16.45-11.12-11.39-20l45.57-80.08,45.57-80.07a13.06,13.06,0,0,1,22.78,0l45.56,80.07,45.57,80.08c5.06,8.89-1.26,20-11.39,20Z"
            transform="translate(0.5 0.5)"/>
      <path class="role-superadmin-6 tesla-tertiary-color"
            d="M374,289.85c6.37,0,14.51,1.24,13.39,9.82-1.21,9.91-6.41,45.21-9.26,69.67a3.44,3.44,0,0,1-3.41,3h-1.34a3.42,3.42,0,0,1-3.41-3.05c-2.57-23.3-8-59.11-9.17-70C359.59,291.57,367.24,289.85,374,289.85Zm.18,121.47c-7.21,0-12.57-5.29-12.57-13,0-7.44,5.36-13.1,12.57-13.1,7.39,0,12.75,5.66,12.75,13.1C387,406,381.6,411.32,374.21,411.32Z"
            transform="translate(0.5 0.5)"/>
    </g>
    <g class="tesla-status tesla_status_error">
      <g>
        <circle class="role-superadmin-7 tesla-status-error" cx="374.11" cy="353.55" r="95.67" transform="translate(-139.93 368.59) rotate(-45)"/>
        <path class="role-superadmin-6 tesla-tertiary-color"
              d="M374.11,265.91a87.65,87.65,0,1,1-87.65,87.64,87.74,87.74,0,0,1,87.65-87.64m0-16.06A103.7,103.7,0,1,0,477.8,353.55a103.7,103.7,0,0,0-103.69-103.7Z"
              transform="translate(0.5 0.5)"/>
      </g>
      <polygon id="X" class="role-superadmin-6 tesla-tertiary-color"
               points="430.32 316.89 411.76 298.34 374.56 335.54 337.45 298.43 318.89 316.99 356 354.1 318.98 391.12 337.54 409.68 374.56 372.65 411.67 409.77 430.23 391.21 393.12 354.1 430.32 316.89"/>
    </g>
    <g class="tesla-status tesla_status_success">
      <g>
        <circle class="role-superadmin-8 tesla-status-success" cx="374.11" cy="353.55" r="95.67" transform="translate(-139.93 368.59) rotate(-45)"/>
        <path class="role-superadmin-6 tesla-tertiary-color"
              d="M374.11,265.91a87.65,87.65,0,1,1-87.65,87.64,87.74,87.74,0,0,1,87.65-87.64m0-16.06A103.7,103.7,0,1,0,477.8,353.55a103.7,103.7,0,0,0-103.69-103.7Z"
              transform="translate(0.5 0.5)"/>
      </g>
      <path class="role-superadmin-6 tesla-tertiary-color"
            d="M359.77,368.16c1.51-2.15,2.92-4.15,4.34-6.15,8-11.32,16.42-22.35,25.48-32.86,7-8.06,14.12-15.94,21.21-23.88,1.54-1.73,2.66-1.74,4.32-.18l10.68,10c2.62,2.45,2.63,3,.26,5.67-5.26,5.91-10.65,11.7-15.7,17.78-6.48,7.78-12.94,15.59-18.93,23.75C382.81,374,374.63,386.1,366.27,398c-.65.93-1.2,1.93-1.84,2.87-1.38,2-2.8,2.17-4.47.31-3.68-4.07-7.29-8.21-11-12.29a325,325,0,0,0-26.67-26.73c-.36-.31-.71-.63-1-1-1.18-1.21-1.28-2.18-.17-3.5,2.95-3.51,5.95-7,8.94-10.48.55-.65,1.1-1.3,1.67-1.93,1.38-1.53,2.51-1.65,4-.28,4.18,3.79,8.37,7.55,12.42,11.46,3.61,3.49,7,7.15,10.57,10.73C359,367.49,359.28,367.72,359.77,368.16Z"
            transform="translate(0.5 0.5)"/>
    </g>
    <g class="tesla-status tesla_status_info">
      <g>
        <circle class="role-superadmin-3 tesla-primary-color" cx="374.11" cy="353.55" r="95.67" transform="translate(-139.93 368.59) rotate(-45)"/>
        <path class="role-superadmin-6 tesla-tertiary-color"
              d="M374.11,265.91a87.65,87.65,0,1,1-87.65,87.64,87.74,87.74,0,0,1,87.65-87.64m0-16.06A103.7,103.7,0,1,0,477.8,353.55a103.7,103.7,0,0,0-103.69-103.7Z"
              transform="translate(0.5 0.5)"/>
      </g>
      <path class="role-superadmin-6 tesla-tertiary-color"
            d="M348.41,426v-7.11c12.74-1.48,14.16-2.45,14.16-18V356.55c0-14.55-1-15.44-12.46-17.09V332.8a205.91,205.91,0,0,0,37.31-8.33v76.41c0,15.16,1.13,16.56,14.6,18V426Zm25.07-118a14.82,14.82,0,0,1-14.57-14.42A14.6,14.6,0,0,1,373.7,279a14.24,14.24,0,0,1,14.41,14.58A14.54,14.54,0,0,1,373.48,308Z"
            transform="translate(0.5 0.5)"/>
    </g>
    <g class="tesla-status tesla_status_disabled">
      <g>
        <rect class="tesla_status_disabled" x="-99.04" y="239.12" width="698.09" height="21.76" rx="10.87" transform="translate(-103.05 250.51) rotate(-45)"/>
      </g>
    </g>
  </g>
</svg>
