<svg xmlns="http://www.w3.org/2000/svg" viewBox="0 0 444.37 394.02">
  <defs>
    <style>
      .fa-cls-2, .fa-cls-3, .fa-cls-4, .fa-cls-7 {
        fill: none;
      }

      .fa-cls-13, .fa-cls-2, .fa-cls-3, .fa-cls-4, .fa-cls-5, .fa-cls-7, .fa-cls-8 {
        stroke: #fff;
      }

      .fa-cls-13, .fa-cls-2, .fa-cls-7 {
        stroke-linecap: round;
      }

      .fa-cls-13, .fa-cls-2, .fa-cls-3, .fa-cls-4, .fa-cls-7 {
        stroke-miterlimit: 10;
      }

      .fa-cls-2 {
        stroke-width: 10px;
      }

      .fa-cls-3 {
        stroke-width: 3px;
      }

      .fa-cls-4 {
        stroke-width: 2px;
      }

      .fa-cls-5, .fa-cls-8 {
        stroke-linejoin: round;
      }

      .fa-cls-7, .fa-cls-8 {
        stroke-width: 8px;
      }

      .fa-cls-13 {
        stroke-width: 16.05px;
      }

    </style>
  </defs>
  <g class="tesla_instrument tesla_instrument_fa">
    <path class="tesla-primary-color fa-cls-1"
          d="M312.32,187.44V105.55A42.31,42.31,0,0,0,270,63.23H84.38a42.31,42.31,0,0,0-42.31,42.32V395.3a42.31,42.31,0,0,0,42.31,42.31H270a42.31,42.31,0,0,0,42.31-42.31V187.44Z"
          transform="translate(-42.07 -63.23)"/>
    <path class="fa-cls-2"
          d="M66.25,179.33s36.66-28.08,40.08-30.72c4-3,8.48,12.9,15.19,13.68s25.86-39.52,36.82-34.8c6.39,3.87-2.47,41.25,6.57,42s41.37-41.62,46-38.58c6.46,4.22-18.14,43.23-6.51,47.1,10.46,3.49,17.42-16,25.69-21.85,6.76-4.76,20.53-7.59,34.48-4.23a55.23,55.23,0,0,1,22.47,11.1"
          transform="translate(-42.07 -63.23)"/>
    <circle class="fa-cls-3" cx="64.75" cy="86.33" r="16.02"/>
    <polyline class="fa-cls-4" points="9.64 63.47 101.9 63.47 125.45 63.47 259.84 63.47"/>
    <line class="fa-cls-4" x1="9.72" y1="121.69" x2="263.31" y2="121.69"/>
    <polygon class="tesla-primary-color fa-cls-5"
             points="191.25 47.55 99.56 137.54 103.74 137.55 195.43 47.55 191.25 47.55"/>
    <polyline class="fa-cls-3" points="101.68 56.47 101.68 44.69 126.47 44.69 126.47 56.47"/>
    <polyline class="tesla-secondary-color fa-cls-6" points="177.15 65.89 175.06 65.89 172.68 65.89"/>
    <polygon class="tesla-secondary-color fa-cls-6"
             points="117.98 119.61 120.08 119.61 122.45 119.61 103.74 137.55 99.56 137.54 117.98 119.61"/>
    <polyline class="tesla-secondary-color fa-cls-6" points="172.68 65.89 190.95 47.88 195.29 47.88 177.15 65.89"/>
    <path class="fa-cls-7"
          d="M70.34,384.31s32.31-29.58,39.27-29.08,7.45,11.93,13.92,12.67,24.88-38,35.43-33.48c6.15,3.72-2.38,39.7,6.32,40.44s36.28-36.56,40.77-33.63"
          transform="translate(-42.07 -63.23)"/>
    <path class="tesla-primary-color fa-cls-8"
          d="M244.35,339c-3,3-59.95,20.17-59.95,20.17s16.62-56.4,20.17-59.95l211-211s15.05-4.89,29.87,9.92S455.35,128,455.35,128Z"
          transform="translate(-42.07 -63.23)"/>
    <polygon class="tesla-secondary-color fa-cls-6" points="169.66 242.37 156.35 281.92 195.91 268.62 169.66 242.37"/>
  </g>
  <g class="tesla_group_status">
    <g class="tesla-status tesla_status_warning">
      <path class="fa-cls-13 tesla-status-warning"
            d="M374.11,429H283c-10.12,0-16.45-11.12-11.39-20l45.57-80.08,45.57-80.07a13.06,13.06,0,0,1,22.78,0l45.56,80.07,45.57,80.08c5.06,8.89-1.26,20-11.39,20Z"
            transform="translate(-42.07 -63.23)"/>
      <path data-name="!" class="tesla-tertiary-color fa-cls-10"
            d="M374,289.85c6.37,0,14.51,1.24,13.39,9.82-1.21,9.91-6.41,45.21-9.26,69.67a3.44,3.44,0,0,1-3.41,3h-1.34a3.42,3.42,0,0,1-3.41-3.05c-2.57-23.3-8-59.11-9.17-70C359.59,291.57,367.24,289.85,374,289.85Zm.18,121.47c-7.21,0-12.57-5.29-12.57-13,0-7.44,5.36-13.1,12.57-13.1,7.39,0,12.75,5.66,12.75,13.1C387,406,381.6,411.32,374.21,411.32Z"
            transform="translate(-42.07 -63.23)"/>
    </g>
    <g class="tesla-status tesla_status_info">
      <circle class="tesla-primary-color fa-cls-1" cx="374.11" cy="353.55" r="95.67"
              transform="translate(-182.49 304.85) rotate(-45)"/>
      <path class="tesla-tertiary-color fa-cls-10"
            d="M374.11,265.91a87.65,87.65,0,1,1-87.65,87.64,87.74,87.74,0,0,1,87.65-87.64m0-16.06A103.7,103.7,0,1,0,477.8,353.55a103.7,103.7,0,0,0-103.69-103.7Z"
            transform="translate(-42.07 -63.23)"/>
      <path class="tesla-tertiary-color fa-cls-10"
            d="M348.41,426v-7.11c12.74-1.48,14.16-2.45,14.16-18V356.55c0-14.55-1-15.44-12.46-17.09V332.8a205.91,205.91,0,0,0,37.31-8.33v76.41c0,15.16,1.13,16.56,14.6,18V426Zm25.07-118a14.82,14.82,0,0,1-14.57-14.42A14.6,14.6,0,0,1,373.7,279a14.24,14.24,0,0,1,14.41,14.58A14.54,14.54,0,0,1,373.48,308Z"
            transform="translate(-42.07 -63.23)"/>
    </g>
    <g class="tesla-status tesla_status_error">
      <circle class="tesla-status-error fa-cls-1" cx="374.11" cy="353.55" r="95.67"
              transform="translate(-182.49 304.85) rotate(-45)"/>
      <path class="tesla-tertiary-color fa-cls-10"
            d="M374.11,265.91a87.65,87.65,0,1,1-87.65,87.64,87.74,87.74,0,0,1,87.65-87.64m0-16.06A103.7,103.7,0,1,0,477.8,353.55a103.7,103.7,0,0,0-103.69-103.7Z"
            transform="translate(-42.07 -63.23)"/>
      <polygon class="tesla-tertiary-color fa-cls-10"
               points="387.75 253.16 369.2 234.6 331.99 271.81 294.88 234.7 276.32 253.25 313.44 290.37 276.42 327.39 294.97 345.94 331.99 308.92 369.1 346.04 387.66 327.48 350.55 290.37 387.75 253.16"/>
    </g>
    <g class="tesla-status tesla_status_success">
      <circle class="tesla-status-success fa-cls-1" cx="374.11" cy="353.55" r="95.67"
              transform="translate(-182.49 304.85) rotate(-45)"/>
      <path class="tesla-tertiary-color fa-cls-10"
            d="M374.11,265.91a87.65,87.65,0,1,1-87.65,87.64,87.74,87.74,0,0,1,87.65-87.64m0-16.06A103.7,103.7,0,1,0,477.8,353.55a103.7,103.7,0,0,0-103.69-103.7Z"
            transform="translate(-42.07 -63.23)"/>
      <path class="tesla-tertiary-color fa-cls-10"
            d="M359.77,368.16c1.51-2.15,2.92-4.15,4.34-6.15,8-11.32,16.42-22.35,25.48-32.86,7-8.06,14.12-15.94,21.21-23.88,1.54-1.73,2.66-1.74,4.32-.18l10.68,10c2.62,2.45,2.63,3,.26,5.67-5.26,5.91-10.65,11.7-15.7,17.78-6.48,7.78-12.94,15.59-18.93,23.75C382.81,374,374.63,386.1,366.27,398c-.65.93-1.2,1.93-1.84,2.87-1.38,2-2.8,2.17-4.47.31-3.68-4.07-7.29-8.21-11-12.29a325,325,0,0,0-26.67-26.73c-.36-.31-.71-.63-1-1-1.18-1.21-1.28-2.18-.17-3.5,2.95-3.51,5.95-7,8.94-10.48.55-.65,1.1-1.3,1.67-1.93,1.38-1.53,2.51-1.65,4-.28,4.18,3.79,8.37,7.55,12.42,11.46,3.61,3.49,7,7.15,10.57,10.73C359,367.49,359.28,367.72,359.77,368.16Z"
            transform="translate(-42.07 -63.23)"/>
    </g>
  </g>
</svg>
