<svg xmlns="http://www.w3.org/2000/svg" viewBox="0 0 452.77 381.67">
  <defs>
    <style>
      .vr-cls-1, .vr-cls-3 {
        fill: none;
        stroke: #5290e9;
        stroke-linejoin: round;
      }

      .vr-cls-1 {
        stroke-width: 19.51px;
      }

      .vr-cls-3, .vr-cls-4, .vr-cls-8 {
        stroke-linecap: round;
      }

      .vr-cls-3 {
        stroke-width: 7.83px;
      }

      .vr-cls-4, .vr-cls-8 {
        stroke: #fff;
        stroke-miterlimit: 10;
        stroke-width: 16.05px;
      }
    </style>
  </defs>
  <g class="tesla_instrument tesla_instrument_vr">
    <polyline class="vr-cls-1" points="418.57 294.02 418.57 350.89 373.42 350.89"/>
    <polyline class="vr-cls-1" points="202.93 227.09 202.93 170.23 248.09 170.23"/>
    <polyline class="vr-cls-1" points="418.57 227.09 418.57 170.23 373.42 170.23"/>
    <polyline class="vr-cls-1" points="202.93 294.02 202.93 350.89 248.09 350.89"/>
    <path class="tesla-primary-color vr-cls-2"
          d="M194,293.1c0-6.35-24.25-26-29.22-32.75-7.25-9.9-10.55-10.4-8.91-53,1.78-45.83-25.26-121-122.21-131.81V435H63.84s1.27-22.12,12.82-33.61c12.74-12.68,16.72-.12,56.46.45,34.27-2.58,17-26.14,17.91-31.9.75-3.2,14.49-7.9,9.9-11.38-8.59-6.5-29.06-26.53-28.63-29.13s37.93,5.88,37.87-.74c0-5-5.21-9.16-4.22-14.61S194.84,309.42,194,293.1Z"
          transform="translate(-33.67 -75.58)"/>
    <line class="vr-cls-3" x1="216.81" y1="255.91" x2="216.81" y2="272.18"/>
    <line class="vr-cls-3" x1="230.23" y1="249.13" x2="230.23" y2="274.5"/>
    <line class="vr-cls-3" x1="243.65" y1="233.09" x2="243.65" y2="287.04"/>
    <line class="vr-cls-3" x1="257.07" y1="219.09" x2="257.07" y2="304.89"/>
    <line class="vr-cls-3" x1="270.49" y1="201.59" x2="270.49" y2="313.26"/>
    <line class="vr-cls-3" x1="283.91" y1="225.49" x2="283.91" y2="280.59"/>
    <line class="vr-cls-3" x1="297.33" y1="238.69" x2="297.33" y2="270.18"/>
    <line class="vr-cls-3" x1="310.75" y1="211.78" x2="310.75" y2="297.38"/>
    <line class="vr-cls-3" x1="324.17" y1="206.42" x2="324.17" y2="314.34"/>
    <line class="vr-cls-3" x1="337.59" y1="193.51" x2="337.59" y2="323.35"/>
    <line class="vr-cls-3" x1="351.01" y1="206.42" x2="351.01" y2="314.34"/>
    <line class="vr-cls-3" x1="364.42" y1="221.32" x2="364.42" y2="298.01"/>
    <line class="vr-cls-3" x1="377.84" y1="246.96" x2="377.84" y2="282.71"/>
    <line class="vr-cls-3" x1="391.26" y1="255.91" x2="391.26" y2="276.5"/>
    <line class="vr-cls-3" x1="404.68" y1="259.82" x2="404.68" y2="270.18"/>
  </g>
  <g class="tesla_group_status">
    <g class="tesla-status tesla_status_warning">
      <path id="Orange" class="vr-cls-4 tesla-status-warning"
            d="M374.11,429H283c-10.12,0-16.45-11.12-11.39-20l45.57-80.08,45.57-80.07a13.06,13.06,0,0,1,22.78,0l45.56,80.07,45.57,80.08c5.06,8.89-1.26,20-11.39,20Z"
            transform="translate(-33.67 -75.58)"/>
      <path id="_" data-name="!" class="tesla-tertiary-color vr-cls-5"
            d="M374,289.85c6.37,0,14.51,1.24,13.39,9.82-1.21,9.91-6.41,45.21-9.26,69.67a3.44,3.44,0,0,1-3.41,3h-1.34a3.42,3.42,0,0,1-3.41-3.05c-2.57-23.3-8-59.11-9.17-70C359.59,291.57,367.24,289.85,374,289.85Zm.18,121.47c-7.21,0-12.57-5.29-12.57-13,0-7.44,5.36-13.1,12.57-13.1,7.39,0,12.75,5.66,12.75,13.1C387,406,381.6,411.32,374.21,411.32Z"
            transform="translate(-33.67 -75.58)"/>
    </g>
    <g class="tesla-status tesla_status_error">
        <circle class="tesla-status-error vr-cls-6" cx="374.11" cy="353.55" r="95.67" transform="translate(-174.09 292.51) rotate(-45)"/>
        <path class="tesla-tertiary-color vr-cls-5"
              d="M374.11,265.91a87.65,87.65,0,1,1-87.65,87.64,87.74,87.74,0,0,1,87.65-87.64m0-16.06A103.7,103.7,0,1,0,477.8,353.55a103.7,103.7,0,0,0-103.69-103.7Z"
              transform="translate(-33.67 -75.58)"/>
      <polygon id="X" class="tesla-tertiary-color vr-cls-5"
               points="396.15 240.82 377.6 222.26 340.39 259.46 303.28 222.35 284.72 240.91 321.84 278.02 284.82 315.04 303.37 333.6 340.39 296.58 377.5 333.69 396.06 315.13 358.95 278.02 396.15 240.82"/>
    </g>
    <g class="tesla-status tesla_status_success">
        <circle class="tesla-status-success vr-cls-7" cx="374.11" cy="353.55" r="95.67" transform="translate(-174.09 292.51) rotate(-45)"/>
        <path class="tesla-tertiary-color vr-cls-5"
              d="M374.11,265.91a87.65,87.65,0,1,1-87.65,87.64,87.74,87.74,0,0,1,87.65-87.64m0-16.06A103.7,103.7,0,1,0,477.8,353.55a103.7,103.7,0,0,0-103.69-103.7Z"
              transform="translate(-33.67 -75.58)"/>
      <path id="OK" class="tesla-tertiary-color vr-cls-5"
            d="M359.77,368.16c1.51-2.15,2.92-4.15,4.34-6.15,8-11.32,16.42-22.35,25.48-32.86,7-8.06,14.12-15.94,21.21-23.88,1.54-1.73,2.66-1.74,4.32-.18l10.68,10c2.62,2.45,2.63,3,.26,5.67-5.26,5.91-10.65,11.7-15.7,17.78-6.48,7.78-12.94,15.59-18.93,23.75C382.81,374,374.63,386.1,366.27,398c-.65.93-1.2,1.93-1.84,2.87-1.38,2-2.8,2.17-4.47.31-3.68-4.07-7.29-8.21-11-12.29a325,325,0,0,0-26.67-26.73c-.36-.31-.71-.63-1-1-1.18-1.21-1.28-2.18-.17-3.5,2.95-3.51,5.95-7,8.94-10.48.55-.65,1.1-1.3,1.67-1.93,1.38-1.53,2.51-1.65,4-.28,4.18,3.79,8.37,7.55,12.42,11.46,3.61,3.49,7,7.15,10.57,10.73C359,367.49,359.28,367.72,359.77,368.16Z"
            transform="translate(-33.67 -75.58)"/>
    </g>
    <g class="tesla-status tesla_status_info">
        <circle class="tesla-primary-color vr-cls-2" cx="374.11" cy="353.55" r="95.67"
                transform="translate(-174.09 292.51) rotate(-45)"/>
        <path class="tesla-tertiary-color vr-cls-5"
              d="M374.11,265.91a87.65,87.65,0,1,1-87.65,87.64,87.74,87.74,0,0,1,87.65-87.64m0-16.06A103.7,103.7,0,1,0,477.8,353.55a103.7,103.7,0,0,0-103.69-103.7Z"
              transform="translate(-33.67 -75.58)"/>
      <path id="i" class="tesla-tertiary-color vr-cls-5"
            d="M348.41,426v-7.11c12.74-1.48,14.16-2.45,14.16-18V356.55c0-14.55-1-15.44-12.46-17.09V332.8a205.91,205.91,0,0,0,37.31-8.33v76.41c0,15.16,1.13,16.56,14.6,18V426Zm25.07-118a14.82,14.82,0,0,1-14.57-14.42A14.6,14.6,0,0,1,373.7,279a14.24,14.24,0,0,1,14.41,14.58A14.54,14.54,0,0,1,373.48,308Z"
            transform="translate(-33.67 -75.58)"/>
    </g>

  </g>
</svg>
